<?xml version="1.0" encoding="utf-8"?>
<!-- Generator: Adobe Illustrator 21.1.0, SVG Export Plug-In . SVG Version: 6.00 Build 0)  -->
<!DOCTYPE svg PUBLIC "-//W3C//DTD SVG 1.1//EN" "http://www.w3.org/Graphics/SVG/1.1/DTD/svg11.dtd">
<svg version="1.1" id="Layer_1" xmlns="http://www.w3.org/2000/svg" xmlns:xlink="http://www.w3.org/1999/xlink" x="0px" y="0px"
	 width="160px" height="160px" viewBox="0 0 160 160" style="enable-background:new 0 0 160 160;" xml:space="preserve">
<style type="text/css">
	.st0{clip-path:url(#SVGID_2_);fill:none;stroke:#000000;stroke-width:5.9259;stroke-miterlimit:10;}
</style>
<g>
	<defs>
		
			<rect id="SVGID_1_" x="0" y="0" transform="matrix(4.488327e-11 -1 1 4.488327e-11 -3.589292e-09 160)" width="160" height="160"/>
	</defs>
	<clipPath id="SVGID_2_">
		<use xlink:href="#SVGID_1_"  style="overflow:visible;"/>
	</clipPath>
	<line class="st0" x1="35.58" y1="160" x2="35.58" y2="0"/>
	<line class="st0" x1="17.79" y1="160" x2="17.79" y2="0"/>
	<line class="st0" x1="0" y1="160" x2="0" y2="0"/>
	<line class="st0" x1="35.58" y1="160" x2="35.58" y2="0"/>
	<line class="st0" x1="53.38" y1="160" x2="53.38" y2="0"/>
	<line class="st0" x1="53.38" y1="160" x2="53.38" y2="0"/>
	<line class="st0" x1="71.17" y1="160" x2="71.17" y2="0"/>
	<line class="st0" x1="88.96" y1="160" x2="88.96" y2="0"/>
	<line class="st0" x1="106.75" y1="160" x2="106.75" y2="0"/>
	<line class="st0" x1="160" y1="160" x2="160" y2="0"/>
	<line class="st0" x1="124.54" y1="160" x2="124.54" y2="0"/>
	<line class="st0" x1="142.34" y1="160" x2="142.34" y2="0"/>
</g>
</svg>
