<?xml version="1.0" encoding="utf-8"?>
<!-- Generator: Adobe Illustrator 21.1.0, SVG Export Plug-In . SVG Version: 6.00 Build 0)  -->
<!DOCTYPE svg PUBLIC "-//W3C//DTD SVG 1.1//EN" "http://www.w3.org/Graphics/SVG/1.1/DTD/svg11.dtd">
<svg version="1.1" id="Layer_1" xmlns="http://www.w3.org/2000/svg" xmlns:xlink="http://www.w3.org/1999/xlink" x="0px" y="0px"
	 width="160px" height="160px" viewBox="0 0 160 160" style="enable-background:new 0 0 160 160;" xml:space="preserve">
<g>
	<rect x="59.31" y="88.89" width="11.84" height="11.84"/>
	<rect x="88.88" y="88.89" width="11.84" height="11.84"/>
	<rect x="0.05" y="88.89" width="11.84" height="11.84"/>
	<rect x="29.61" y="88.89" width="11.84" height="11.84"/>
	<rect x="118.54" y="88.89" width="11.84" height="11.84"/>
	<rect x="148.11" y="88.89" width="11.84" height="11.84"/>
	<rect x="59.31" y="59.26" width="11.84" height="11.84"/>
	<rect x="88.88" y="59.26" width="11.84" height="11.84"/>
	<rect x="0.05" y="59.26" width="11.84" height="11.84"/>
	<rect x="29.61" y="59.26" width="11.84" height="11.84"/>
	<rect x="118.54" y="59.26" width="11.84" height="11.84"/>
	<rect x="148.11" y="59.26" width="11.84" height="11.84"/>
	<rect x="59.31" y="29.63" width="11.84" height="11.84"/>
	<rect x="88.88" y="29.63" width="11.84" height="11.84"/>
	<rect x="0.05" y="29.63" width="11.84" height="11.84"/>
	<rect x="29.61" y="29.63" width="11.84" height="11.84"/>
	<rect x="118.54" y="29.63" width="11.84" height="11.84"/>
	<rect x="148.11" y="29.63" width="11.84" height="11.84"/>
	<rect x="59.31" y="0" width="11.84" height="11.84"/>
	<rect x="88.88" y="0" width="11.84" height="11.84"/>
	<rect x="0.05" y="0" width="11.84" height="11.84"/>
	<rect x="29.61" y="0" width="11.84" height="11.84"/>
	<rect x="118.54" y="0" width="11.84" height="11.84"/>
	<rect x="148.11" y="0" width="11.84" height="11.84"/>
	<rect x="59.31" y="148.16" width="11.84" height="11.84"/>
	<rect x="88.88" y="148.16" width="11.84" height="11.84"/>
	<rect x="0.05" y="148.16" width="11.84" height="11.84"/>
	<rect x="29.61" y="148.16" width="11.84" height="11.84"/>
	<rect x="118.54" y="148.16" width="11.84" height="11.84"/>
	<rect x="148.11" y="148.16" width="11.84" height="11.84"/>
	<rect x="59.31" y="118.53" width="11.84" height="11.84"/>
	<rect x="88.88" y="118.53" width="11.84" height="11.84"/>
	<rect x="0.05" y="118.53" width="11.84" height="11.84"/>
	<rect x="29.61" y="118.53" width="11.84" height="11.84"/>
	<rect x="118.54" y="118.53" width="11.84" height="11.84"/>
	<rect x="148.11" y="118.53" width="11.84" height="11.84"/>
</g>
</svg>
