<?xml version="1.0" encoding="utf-8"?>
<!-- Generator: Adobe Illustrator 21.1.0, SVG Export Plug-In . SVG Version: 6.00 Build 0)  -->
<!DOCTYPE svg PUBLIC "-//W3C//DTD SVG 1.1//EN" "http://www.w3.org/Graphics/SVG/1.1/DTD/svg11.dtd">
<svg version="1.1" id="Layer_1" xmlns="http://www.w3.org/2000/svg" xmlns:xlink="http://www.w3.org/1999/xlink" x="0px" y="0px"
	 width="160px" height="160px" viewBox="0 0 160 160" style="enable-background:new 0 0 160 160;" xml:space="preserve">
<style type="text/css">
	.st0{clip-path:url(#SVGID_2_);fill:none;stroke:#FFFFFF;stroke-width:11.3917;stroke-miterlimit:10;}
</style>
<rect x="0" y="0" transform="matrix(-1 -4.490642e-11 4.490642e-11 -1 160 160)" width="160" height="160"/>
<g>
	<defs>
		<rect id="SVGID_1_" x="0" y="0" transform="matrix(-1 -4.490642e-11 4.490642e-11 -1 160 160)" width="160" height="160"/>
	</defs>
	<clipPath id="SVGID_2_">
		<use xlink:href="#SVGID_1_"  style="overflow:visible;"/>
	</clipPath>
	<line class="st0" x1="197.15" y1="112.6" x2="43.37" y2="-41.19"/>
	<line class="st0" x1="162.99" y1="158.16" x2="-25.56" y2="-30.39"/>
	<line class="st0" x1="128.83" y1="203.72" x2="-24.96" y2="49.93"/>
	<line class="st0" x1="174.35" y1="129.7" x2="20.56" y2="-24.09"/>
	<line class="st0" x1="145.93" y1="180.92" x2="-7.86" y2="27.13"/>
	<line class="st0" x1="237.06" y1="112.6" x2="83.27" y2="-41.19"/>
	<line class="st0" x1="88.93" y1="203.72" x2="-64.86" y2="49.93"/>
	<line class="st0" x1="256.85" y1="92.65" x2="103.06" y2="-61.14"/>
	<line class="st0" x1="64.85" y1="219.54" x2="-88.94" y2="65.76"/>
</g>
</svg>
