<?xml version="1.0" encoding="utf-8"?>
<!-- Generator: Adobe Illustrator 21.1.0, SVG Export Plug-In . SVG Version: 6.00 Build 0)  -->
<!DOCTYPE svg PUBLIC "-//W3C//DTD SVG 1.1//EN" "http://www.w3.org/Graphics/SVG/1.1/DTD/svg11.dtd">
<svg version="1.1" id="Layer_1" xmlns="http://www.w3.org/2000/svg" xmlns:xlink="http://www.w3.org/1999/xlink" x="0px" y="0px"
	 width="160px" height="160px" viewBox="0 0 160 160" style="enable-background:new 0 0 160 160;" xml:space="preserve">
<style type="text/css">
	.st0{clip-path:url(#SVGID_2_);fill:none;stroke:#000000;stroke-width:5.9259;stroke-miterlimit:10;}
</style>
<g>
	<defs>
		
			<rect id="SVGID_1_" x="0" y="0" transform="matrix(4.490636e-11 -1 1 4.490636e-11 -3.596142e-09 160)" width="160" height="160"/>
	</defs>
	<clipPath id="SVGID_2_">
		<use xlink:href="#SVGID_1_"  style="overflow:visible;"/>
	</clipPath>
	<polyline class="st0" points="105.19,188.14 23.72,106.67 77.06,53.33 -0.24,-23.96 	"/>
	<polyline class="st0" points="160,213.33 53.33,106.67 106.67,53.33 0,-53.33 	"/>
	<polyline class="st0" points="160,183.72 82.94,106.67 136.28,53.33 0,-82.94 	"/>
	<polyline class="st0" points="166.06,160 112.73,106.67 166.06,53.33 80,-32.73 	"/>
	<polyline class="st0" points="52.56,194.85 -35.63,106.67 17.71,53.33 -35.63,0 	"/>
	<polyline class="st0" points="79.71,192.39 -6.02,106.67 47.32,53.33 -6.02,0 	"/>
	<polyline class="st0" points="195.71,160 142.38,106.67 195.71,53.33 108.23,-34.15 	"/>
</g>
</svg>
