<?xml version="1.0" encoding="utf-8"?>
<!-- Generator: Adobe Illustrator 21.1.0, SVG Export Plug-In . SVG Version: 6.00 Build 0)  -->
<!DOCTYPE svg PUBLIC "-//W3C//DTD SVG 1.1//EN" "http://www.w3.org/Graphics/SVG/1.1/DTD/svg11.dtd">
<svg version="1.1" id="Layer_1" xmlns="http://www.w3.org/2000/svg" xmlns:xlink="http://www.w3.org/1999/xlink" x="0px" y="0px"
	 width="160px" height="160px" viewBox="0 0 160 160" style="enable-background:new 0 0 160 160;" xml:space="preserve">
<style type="text/css">
	.st0{clip-path:url(#SVGID_2_);fill:none;stroke:#000000;stroke-width:15.5559;stroke-miterlimit:10;}
	.st1{clip-path:url(#SVGID_2_);fill:none;stroke:#000000;stroke-width:17.3338;stroke-miterlimit:10;}
</style>
<g>
	<defs>
		
			<rect id="SVGID_1_" x="0" y="0" transform="matrix(4.496321e-11 -1 1 4.496321e-11 -3.599325e-09 160)" width="160" height="160"/>
	</defs>
	<clipPath id="SVGID_2_">
		<use xlink:href="#SVGID_1_"  style="overflow:visible;"/>
	</clipPath>
	<line class="st0" x1="0" y1="8.9" x2="160" y2="8.9"/>
	<line class="st1" x1="0" y1="8.9" x2="160" y2="8.9"/>
	<line class="st0" x1="0" y1="127.51" x2="160" y2="127.51"/>
	<line class="st0" x1="0" y1="151.23" x2="160" y2="151.23"/>
	<line class="st0" x1="0" y1="80.06" x2="160" y2="80.06"/>
	<line class="st0" x1="0" y1="103.79" x2="160" y2="103.79"/>
	<line class="st0" x1="0" y1="32.62" x2="160" y2="32.62"/>
	<line class="st0" x1="0" y1="56.34" x2="160" y2="56.34"/>
	<line class="st1" x1="0" y1="127.51" x2="160" y2="127.51"/>
	<line class="st1" x1="0" y1="151.23" x2="160" y2="151.23"/>
	<line class="st1" x1="0" y1="80.06" x2="160" y2="80.06"/>
	<line class="st1" x1="0" y1="103.79" x2="160" y2="103.79"/>
	<line class="st1" x1="0" y1="32.62" x2="160" y2="32.62"/>
	<line class="st1" x1="0" y1="56.34" x2="160" y2="56.34"/>
</g>
</svg>
