<?xml version="1.0" encoding="utf-8"?>
<!-- Generator: Adobe Illustrator 21.1.0, SVG Export Plug-In . SVG Version: 6.00 Build 0)  -->
<!DOCTYPE svg PUBLIC "-//W3C//DTD SVG 1.1//EN" "http://www.w3.org/Graphics/SVG/1.1/DTD/svg11.dtd">
<svg version="1.1" id="Layer_1" xmlns="http://www.w3.org/2000/svg" xmlns:xlink="http://www.w3.org/1999/xlink" x="0px" y="0px"
	 width="160px" height="160px" viewBox="0 0 160 160" style="enable-background:new 0 0 160 160;" xml:space="preserve">
<style type="text/css">
	.st0{clip-path:url(#SVGID_2_);}
</style>
<g>
	<defs>
		<rect id="SVGID_1_" y="0" width="160" height="160"/>
	</defs>
	<clipPath id="SVGID_2_">
		<use xlink:href="#SVGID_1_"  style="overflow:visible;"/>
	</clipPath>
	<circle class="st0" cx="80" cy="80" r="26.67"/>
	<g class="st0">
		<path d="M80,32.59c26.14,0,47.41,21.27,47.41,47.41S106.14,127.41,80,127.41S32.59,106.14,32.59,80S53.86,32.59,80,32.59 M80,8.89
			C40.73,8.89,8.89,40.73,8.89,80S40.73,151.11,80,151.11s71.11-31.84,71.11-71.11S119.27,8.89,80,8.89L80,8.89z"/>
	</g>
	<g class="st0">
		<path d="M80-14.81c52.28,0,94.81,42.53,94.81,94.81S132.28,174.81,80,174.81S-14.81,132.28-14.81,80S27.72-14.81,80-14.81
			 M80-38.52C14.54-38.52-38.52,14.54-38.52,80S14.54,198.52,80,198.52S198.52,145.46,198.52,80S145.46-38.52,80-38.52L80-38.52z"/>
	</g>
</g>
</svg>
