<?xml version="1.0" encoding="utf-8"?>
<!-- Generator: Adobe Illustrator 21.1.0, SVG Export Plug-In . SVG Version: 6.00 Build 0)  -->
<!DOCTYPE svg PUBLIC "-//W3C//DTD SVG 1.1//EN" "http://www.w3.org/Graphics/SVG/1.1/DTD/svg11.dtd">
<svg version="1.1" id="Layer_1" xmlns="http://www.w3.org/2000/svg" xmlns:xlink="http://www.w3.org/1999/xlink" x="0px" y="0px"
	 width="160px" height="160px" viewBox="0 0 160 160" style="enable-background:new 0 0 160 160;" xml:space="preserve">
<style type="text/css">
	.st0{clip-path:url(#SVGID_2_);}
</style>
<g>
	<defs>
		<rect id="SVGID_1_" y="0" width="160" height="160"/>
	</defs>
	<clipPath id="SVGID_2_">
		<use xlink:href="#SVGID_1_"  style="overflow:visible;"/>
	</clipPath>
	<g class="st0">
		<path d="M80,65.19c8.17,0,14.81,6.65,14.81,14.81S88.17,94.81,80,94.81S65.19,88.17,65.19,80S71.83,65.19,80,65.19 M80,53.33
			c-14.73,0-26.67,11.94-26.67,26.67S65.27,106.67,80,106.67S106.67,94.73,106.67,80S94.73,53.33,80,53.33L80,53.33z"/>
	</g>
	<g class="st0">
		<path d="M80,11.85c37.58,0,68.15,30.57,68.15,68.15S117.58,148.15,80,148.15S11.85,117.58,11.85,80S42.42,11.85,80,11.85 M80,0
			C35.82,0,0,35.82,0,80c0,44.18,35.82,80,80,80s80-35.82,80-80C160,35.82,124.18,0,80,0L80,0z"/>
	</g>
	<g class="st0">
		<path d="M80,38.52c22.87,0,41.48,18.61,41.48,41.48S102.87,121.48,80,121.48S38.52,102.87,38.52,80S57.13,38.52,80,38.52
			 M80,26.67c-29.46,0-53.33,23.88-53.33,53.33c0,29.46,23.88,53.33,53.33,53.33c29.46,0,53.33-23.88,53.33-53.33
			C133.33,50.54,109.46,26.67,80,26.67L80,26.67z"/>
	</g>
	<g class="st0">
		<path d="M80-14.81c52.28,0,94.81,42.53,94.81,94.81S132.28,174.81,80,174.81S-14.81,132.28-14.81,80S27.72-14.81,80-14.81
			 M80-26.67C21.09-26.67-26.67,21.09-26.67,80S21.09,186.67,80,186.67S186.67,138.91,186.67,80S138.91-26.67,80-26.67L80-26.67z"/>
	</g>
</g>
</svg>
