<?xml version="1.0" encoding="utf-8"?>
<!-- Generator: Adobe Illustrator 21.1.0, SVG Export Plug-In . SVG Version: 6.00 Build 0)  -->
<!DOCTYPE svg PUBLIC "-//W3C//DTD SVG 1.1//EN" "http://www.w3.org/Graphics/SVG/1.1/DTD/svg11.dtd">
<svg version="1.1" id="Layer_1" xmlns="http://www.w3.org/2000/svg" xmlns:xlink="http://www.w3.org/1999/xlink" x="0px" y="0px"
	 width="160px" height="160px" viewBox="0 0 160 160" style="enable-background:new 0 0 160 160;" xml:space="preserve">
<style type="text/css">
	.st0{clip-path:url(#SVGID_2_);fill:none;stroke:#000000;stroke-width:5.9259;stroke-miterlimit:10;}
</style>
<g>
	<defs>
		<rect id="SVGID_1_" x="0" y="0" width="160" height="160"/>
	</defs>
	<clipPath id="SVGID_2_">
		<use xlink:href="#SVGID_1_"  style="overflow:visible;"/>
	</clipPath>
	<polyline class="st0" points="-28.14,105.19 53.33,23.72 106.67,77.06 183.96,-0.24 	"/>
	<polyline class="st0" points="-53.33,160 53.33,53.33 106.67,106.67 213.33,0 	"/>
	<polyline class="st0" points="-23.72,160 53.33,82.94 106.67,136.28 242.94,0 	"/>
	<polyline class="st0" points="0,166.06 53.33,112.73 106.67,166.06 192.73,80 	"/>
	<polyline class="st0" points="-34.85,52.56 53.33,-35.63 106.67,17.71 160,-35.63 	"/>
	<polyline class="st0" points="-32.39,79.71 53.33,-6.02 106.67,47.32 160,-6.02 	"/>
	<polyline class="st0" points="0,195.71 53.33,142.38 106.67,195.71 194.15,108.23 	"/>
</g>
</svg>
