<?xml version="1.0" encoding="utf-8"?>
<!-- Generator: Adobe Illustrator 21.1.0, SVG Export Plug-In . SVG Version: 6.00 Build 0)  -->
<!DOCTYPE svg PUBLIC "-//W3C//DTD SVG 1.1//EN" "http://www.w3.org/Graphics/SVG/1.1/DTD/svg11.dtd">
<svg version="1.1" id="Layer_1" xmlns="http://www.w3.org/2000/svg" xmlns:xlink="http://www.w3.org/1999/xlink" x="0px" y="0px"
	 width="160px" height="160px" viewBox="0 0 160 160" style="enable-background:new 0 0 160 160;" xml:space="preserve">
<style type="text/css">
	.st0{clip-path:url(#SVGID_2_);}
</style>
<g>
	<defs>
		<rect id="SVGID_1_" y="0" width="160" height="160"/>
	</defs>
	<clipPath id="SVGID_2_">
		<use xlink:href="#SVGID_1_"  style="overflow:visible;"/>
	</clipPath>
	<g class="st0">
		<rect x="49.3" y="-0.06" width="12.3" height="12.3"/>
		<rect x="73.85" y="-0.06" width="12.3" height="12.3"/>
		<rect x="0.06" y="-0.06" width="12.3" height="12.3"/>
		<rect x="24.62" y="-0.06" width="12.3" height="12.3"/>
		<rect x="98.5" y="-0.06" width="12.3" height="12.3"/>
		<rect x="123.11" y="-0.06" width="12.3" height="12.3"/>
	</g>
	<rect x="147.74" y="-0.06" class="st0" width="12.3" height="12.3"/>
	<g class="st0">
		<rect x="61.61" y="24.56" width="12.3" height="12.3"/>
		<rect x="86.16" y="24.56" width="12.3" height="12.3"/>
		<rect x="12.37" y="24.56" width="12.3" height="12.3"/>
		<rect x="36.92" y="24.56" width="12.3" height="12.3"/>
		<rect x="110.81" y="24.56" width="12.3" height="12.3"/>
		<rect x="135.42" y="24.56" width="12.3" height="12.3"/>
	</g>
	<g class="st0">
		<rect x="49.3" y="49.18" width="12.3" height="12.3"/>
		<rect x="73.85" y="49.18" width="12.3" height="12.3"/>
		<rect x="0.06" y="49.18" width="12.3" height="12.3"/>
		<rect x="24.62" y="49.18" width="12.3" height="12.3"/>
		<rect x="98.5" y="49.18" width="12.3" height="12.3"/>
		<rect x="123.11" y="49.18" width="12.3" height="12.3"/>
	</g>
	<rect x="147.74" y="49.18" class="st0" width="12.3" height="12.3"/>
	<g class="st0">
		<rect x="61.61" y="73.79" width="12.3" height="12.3"/>
		<rect x="86.16" y="73.79" width="12.3" height="12.3"/>
		<rect x="12.37" y="73.79" width="12.3" height="12.3"/>
		<rect x="36.92" y="73.79" width="12.3" height="12.3"/>
		<rect x="110.81" y="73.79" width="12.3" height="12.3"/>
		<rect x="135.42" y="73.79" width="12.3" height="12.3"/>
	</g>
	<g class="st0">
		<rect x="49.3" y="98.4" width="12.3" height="12.3"/>
		<rect x="73.85" y="98.4" width="12.3" height="12.3"/>
		<rect x="0.06" y="98.4" width="12.3" height="12.3"/>
		<rect x="24.62" y="98.4" width="12.3" height="12.3"/>
		<rect x="98.5" y="98.4" width="12.3" height="12.3"/>
		<rect x="123.11" y="98.4" width="12.3" height="12.3"/>
	</g>
	<rect x="147.74" y="98.4" class="st0" width="12.3" height="12.3"/>
	<g class="st0">
		<rect x="61.61" y="123.02" width="12.3" height="12.3"/>
		<rect x="86.16" y="123.02" width="12.3" height="12.3"/>
		<rect x="12.37" y="123.02" width="12.3" height="12.3"/>
		<rect x="36.92" y="123.02" width="12.3" height="12.3"/>
		<rect x="110.81" y="123.02" width="12.3" height="12.3"/>
		<rect x="135.42" y="123.02" width="12.3" height="12.3"/>
	</g>
	<g class="st0">
		<rect x="49.3" y="147.64" width="12.3" height="12.3"/>
		<rect x="73.85" y="147.64" width="12.3" height="12.3"/>
		<rect x="0.06" y="147.64" width="12.3" height="12.3"/>
		<rect x="24.62" y="147.64" width="12.3" height="12.3"/>
		<rect x="98.5" y="147.64" width="12.3" height="12.3"/>
		<rect x="123.11" y="147.64" width="12.3" height="12.3"/>
	</g>
	<rect x="147.74" y="147.64" class="st0" width="12.3" height="12.3"/>
</g>
</svg>
