<?xml version="1.0" encoding="utf-8"?>
<!-- Generator: Adobe Illustrator 21.0.2, SVG Export Plug-In . SVG Version: 6.00 Build 0)  -->
<!DOCTYPE svg PUBLIC "-//W3C//DTD SVG 1.1//EN" "http://www.w3.org/Graphics/SVG/1.1/DTD/svg11.dtd">
<svg version="1.1" id="Layer_1" xmlns="http://www.w3.org/2000/svg" xmlns:xlink="http://www.w3.org/1999/xlink" x="0px" y="0px"
	 width="1000px" height="561px" viewBox="0 0 1000 561" style="enable-background:new 0 0 1000 561;" xml:space="preserve">
<style type="text/css">
	.st0{fill:#0056A6;}
</style>
<path class="st0" d="M46.38,68.26c0.22,0,0.36-0.01,0.41-0.01l1.14-0.05l0.26-1.12c0.09-0.37,2.06-9.05-2.58-14.81
	c-2.18-2.71-4.56-4.32-7.06-4.78c-2.2-0.4-4.36,0.14-6.08,1.53c-1.75,1.41-2.77,3.35-2.88,5.48c-0.13,2.51,0.96,5.22,3.24,8.05
	C37.15,67.92,44.55,68.26,46.38,68.26z M34.37,51.38c0.81-0.65,1.77-0.99,2.79-0.99c0.28,0,0.56,0.03,0.85,0.08
	c1.74,0.32,3.56,1.6,5.25,3.7c2.82,3.5,2.51,8.71,2.2,11.03c-2.3-0.15-7.33-0.89-10.26-4.54c-1.77-2.2-2.66-4.28-2.58-6
	C32.69,53.05,33.61,51.99,34.37,51.38z"/>
<path class="st0" d="M54.44,68.95c-1.74,2.81-3.89,4.21-5.97,5.55c-3.08,2-6.26,4.06-6.26,10.24c0,6.68,4.93,10.51,13.51,10.51
	c3.71,0,8.31-1.4,12.12-3.67c3.81,2.27,8.41,3.67,12.12,3.67c8.59,0,13.51-3.83,13.51-10.51c0-6.18-3.18-8.25-6.26-10.24
	c-2.08-1.35-4.22-2.74-5.97-5.55c-3.41-5.5-6.56-9.72-13.41-9.72C61,59.23,57.84,63.44,54.44,68.95z M67.84,87.98
	c-2.63-1.96-4.37-4.29-4.37-6.24c0-2.49,2.39-4.49,4.37-4.49c1.98,0,4.37,2,4.37,4.49C72.21,83.7,70.48,86.02,67.84,87.98z
	 M67.84,62.26c5.32,0,7.64,3.13,10.84,8.28c2.1,3.39,4.64,5.04,6.89,6.5c2.94,1.91,4.88,3.17,4.88,7.71c0,6.19-5.7,7.49-10.49,7.49
	c-3.25,0-6.59-1.02-9.41-2.53c3-2.44,4.68-5.25,4.68-7.96c0-3.93-3.52-7.51-7.39-7.51c-3.87,0-7.39,3.58-7.39,7.51
	c0,2.71,1.67,5.52,4.68,7.96c-2.82,1.51-6.16,2.53-9.41,2.53c-4.78,0-10.49-1.3-10.49-7.49c0-4.54,1.94-5.8,4.88-7.71
	c2.25-1.46,4.79-3.11,6.89-6.5C60.2,65.39,62.52,62.26,67.84,62.26z"/>
<path class="st0" d="M102.97,49.02c-1.72-1.39-3.89-1.93-6.08-1.53c-2.5,0.46-4.88,2.07-7.06,4.78c-4.64,5.77-2.67,14.45-2.58,14.81
	l0.26,1.12l1.14,0.05c0.04,0,0.18,0.01,0.41,0.01c1.83,0,9.23-0.35,13.55-5.71c2.28-2.83,3.37-5.54,3.24-8.05
	C105.74,52.38,104.72,50.43,102.97,49.02z M100.25,60.66c-2.94,3.65-7.97,4.4-10.27,4.54c-0.32-2.32-0.63-7.51,2.2-11.03
	c1.69-2.1,3.51-3.38,5.25-3.7c0.29-0.05,0.57-0.08,0.85-0.08c1.02,0,1.98,0.34,2.79,0.99c0.76,0.61,1.67,1.67,1.75,3.28
	C102.92,56.38,102.03,58.45,100.25,60.66z"/>
<path class="st0" d="M60.49,56.19l1.1,0.32l0.61-0.97c0.2-0.32,4.88-7.89,2.35-14.85c-2.71-7.47-7.82-8.62-11.38-7.33
	c-1.81,0.66-7.44,3.52-4.04,12.92C51.77,53.55,60.14,56.09,60.49,56.19z M54.2,36.21c0.48-0.17,0.99-0.27,1.51-0.27
	c2.08,0,4.44,1.5,5.99,5.79c1.53,4.23-0.44,9.05-1.49,11.15c-2.12-0.88-6.64-3.22-8.24-7.62C50.28,40.56,51.07,37.34,54.2,36.21z"/>
<path class="st0" d="M74.11,56.52l1.1-0.32c0.35-0.1,8.72-2.65,11.35-9.91c1.24-3.41,1.39-6.33,0.46-8.66
	c-0.79-1.98-2.39-3.49-4.5-4.26c-3.55-1.29-8.67-0.14-11.38,7.33c-2.52,6.96,2.15,14.53,2.35,14.85L74.11,56.52z M73.99,41.73
	c1.55-4.28,3.91-5.79,5.99-5.79c0.53,0,1.04,0.1,1.51,0.27c0.91,0.33,2.12,1.04,2.72,2.53c0.64,1.6,0.47,3.85-0.5,6.51
	c-1.6,4.41-6.11,6.74-8.24,7.62C74.43,50.78,72.46,45.95,73.99,41.73z"/>
<g>
	<path class="st0" d="M772.73,207.74c6.62,0,12.01-5.39,12.01-12.01c0-6.62-5.39-12.01-12.01-12.01c-6.62,0-12.01,5.39-12.01,12.01
		C760.72,202.36,766.11,207.74,772.73,207.74z M772.73,186.74c4.96,0,8.99,4.03,8.99,8.99c0,4.96-4.03,8.99-8.99,8.99
		c-4.96,0-8.99-4.03-8.99-8.99C763.75,190.78,767.78,186.74,772.73,186.74z"/>
	<path class="st0" d="M772.73,213.74c4.85,0,8.63,1.63,11.45,3.94c-3.57,4.11-5.22,9.16-5.22,12.54c0,4.7,3.76,7.51,7.39,7.51
		c3.63,0,7.39-2.81,7.39-7.51c0-3.38-1.67-8.44-5.29-12.55c2.79-2.31,6.52-3.93,11.3-3.93c11.95,0,20.96,9.67,20.96,22.49h3.02
		c0-14.54-10.31-25.51-23.99-25.51c-5.72,0-10.16,2.01-13.44,4.84c-3.32-2.84-7.8-4.84-13.58-4.84c-13.69,0-24.01,10.97-24.01,25.51
		h3.02C751.75,223.41,760.77,213.74,772.73,213.74z M786.33,219.77c3,3.45,4.39,7.64,4.39,10.46c0,2.81-2.22,4.49-4.37,4.49
		c-2.15,0-4.37-1.68-4.37-4.49C781.99,227.41,783.36,223.22,786.33,219.77z"/>
	<path class="st0" d="M799.76,207.74c6.62,0,12.01-5.39,12.01-12.01c0-6.62-5.39-12.01-12.01-12.01c-6.62,0-12.01,5.39-12.01,12.01
		C787.75,202.36,793.14,207.74,799.76,207.74z M799.76,186.74c4.96,0,8.99,4.03,8.99,8.99c0,4.96-4.03,8.99-8.99,8.99
		c-4.96,0-8.99-4.03-8.99-8.99C790.77,190.78,794.8,186.74,799.76,186.74z"/>
</g>
<path class="st0" d="M82.36,190.87c0-8.07-6.57-14.64-14.64-14.64s-14.64,6.57-14.64,14.64c0,8.07,6.57,14.64,14.64,14.64
	S82.36,198.94,82.36,190.87z M56.11,190.87c0-6.4,5.21-11.61,11.61-11.61c6.4,0,11.61,5.21,11.61,11.61s-5.21,11.62-11.61,11.62
	C61.32,202.49,56.11,197.28,56.11,190.87z"/>
<path class="st0" d="M67.72,209.94c-15.31,0-27.77,12.46-27.77,27.77h3.02c0-13.64,11.1-24.74,24.74-24.74s24.74,11.1,24.74,24.74
	h3.02C95.49,222.39,83.03,209.94,67.72,209.94z"/>
<path class="st0" d="M187.34,190.87c0,8.07,6.57,14.64,14.64,14.64c8.07,0,14.64-6.57,14.64-14.64c0-8.07-6.57-14.64-14.64-14.64
	C193.9,176.23,187.34,182.8,187.34,190.87z M213.59,190.87c0,6.4-5.21,11.62-11.61,11.62c-6.4,0-11.62-5.21-11.62-11.62
	s5.21-11.61,11.62-11.61C208.38,179.26,213.59,184.47,213.59,190.87z"/>
<path class="st0" d="M201.98,212.96c13.64,0,24.74,11.1,24.74,24.74h3.02c0-15.31-12.46-27.77-27.77-27.77
	c-15.31,0-27.77,12.46-27.77,27.77h3.02C177.23,224.06,188.33,212.96,201.98,212.96z"/>
<path class="st0" d="M669.82,185.35c-6.29,0-11.42,5.12-11.42,11.41c0,2.48,0.81,4.78,2.16,6.65l-5.94,6.29l2.2,2.08l5.82-6.16
	c1.96,1.59,4.46,2.55,7.18,2.55c6.29,0,11.41-5.12,11.41-11.41C681.23,190.47,676.11,185.35,669.82,185.35z M669.82,205.15
	c-4.63,0-8.39-3.76-8.39-8.39c0-4.63,3.76-8.39,8.39-8.39c4.63,0,8.39,3.76,8.39,8.39C678.21,201.39,674.45,205.15,669.82,205.15z"
	/>
<path class="st0" d="M180.21,314.23v1.51v43.51v28.49h3.02v-28.49h62.14l-22.51-22.51l22.51-22.51H180.21z M211.72,329.35
	c-3.93,0-7.51,3.53-7.51,7.4c0,3.87,3.58,7.39,7.51,7.39c3.12,0,5.87-2.21,8.99-5.26l17.36,17.36h-54.84v-38.98h54.84l-17.34,17.34
	C218.04,331.89,214.97,329.35,211.72,329.35z M218.59,336.73c-2.55,2.48-4.84,4.39-6.87,4.39c-2.49,0-4.49-2.39-4.49-4.37
	c0-1.98,2-4.37,4.49-4.37C213.79,332.37,216.2,334.35,218.59,336.73z"/>
<path class="st0" d="M375.41,320.23h-39.2v48.02h39.2V320.23z M372.39,365.23h-33.15v-41.98h33.15V365.23z"/>
<path class="st0" d="M330.21,389.26h10.51c3.82,0,10.12-0.78,15.08-2.74c4.91,1.97,11.14,2.74,14.92,2.74h10.51v-75.02h-51.02
	V389.26z M355.78,383.18c-2.13-1-4.3-2.5-4.3-4.44c0-2.95,2.2-4.49,4.37-4.49c2.17,0,4.37,1.54,4.37,4.49
	C360.21,380.45,358.42,381.96,355.78,383.18z M333.23,317.26h44.98v68.98h-7.49c-2.69,0-7.06-0.44-11.16-1.65
	c2.22-1.5,3.68-3.43,3.68-5.84c0-4.88-3.81-7.51-7.39-7.51c-3.58,0-7.39,2.63-7.39,7.51c0,2.4,1.42,4.31,3.59,5.81
	c-3.62,1.06-7.84,1.68-11.32,1.68h-7.49V317.26z"/>
<path class="st0" d="M468.21,365.26h63.02v-39.02h-63.02V365.26z M471.23,329.26h56.98v32.98h-56.98V329.26z"/>
<path class="st0" d="M462.21,371.26h26.76c-1.12,3.85-6.05,7.86-8.09,9.23l-4.14,2.77h40.98h4.98l-4.14-2.77
	c-2.05-1.37-6.97-5.39-8.09-9.23h26.76v-51.02h-75.02V371.26z M513.39,380.23h-27.33c2.43-2.19,5.34-5.46,6.03-8.98h15.28
	C508.05,374.77,510.96,378.04,513.39,380.23z M465.23,323.26h68.98v44.98h-68.98V323.26z"/>
<polygon class="st0" points="247.72,203.19 237.23,203.19 237.23,192.71 234.21,192.71 234.21,203.19 223.72,203.19 223.72,206.22 
	234.21,206.22 234.21,216.71 237.23,216.71 237.23,206.22 247.72,206.22 "/>
<path class="st0" d="M345.98,176.23c-8.07,0-14.64,6.57-14.64,14.64c0,8.07,6.57,14.64,14.64,14.64s14.64-6.57,14.64-14.64
	C360.62,182.8,354.05,176.23,345.98,176.23z M345.98,202.49c-6.4,0-11.62-5.21-11.62-11.62s5.21-11.61,11.62-11.61
	c6.4,0,11.62,5.21,11.62,11.61S352.38,202.49,345.98,202.49z"/>
<path class="st0" d="M345.98,212.96c13.64,0,24.74,11.1,24.74,24.74h3.02c0-15.31-12.46-27.77-27.77-27.77
	c-15.31,0-27.77,12.46-27.77,27.77h3.02C321.23,224.06,332.33,212.96,345.98,212.96z"/>
<rect x="367.72" y="203.19" class="st0" width="24" height="3.02"/>
<path class="st0" d="M475.34,190.91c0,8.07,6.57,14.64,14.64,14.64c8.07,0,14.64-6.57,14.64-14.64c0-8.07-6.57-14.64-14.64-14.64
	C481.9,176.27,475.34,182.84,475.34,190.91z M501.59,190.91c0,6.4-5.21,11.62-11.62,11.62c-6.4,0-11.62-5.21-11.62-11.62
	s5.21-11.61,11.62-11.61C496.38,179.3,501.59,184.51,501.59,190.91z"/>
<path class="st0" d="M489.98,213c13.64,0,24.74,11.1,24.74,24.74h3.02c0-15.31-12.46-27.77-27.77-27.77
	c-15.31,0-27.77,12.46-27.77,27.77h3.02C465.23,224.1,476.33,213,489.98,213z"/>
<polygon class="st0" points="528.65,194.67 520.72,202.61 512.79,194.67 510.65,196.81 518.58,204.74 510.65,212.67 512.79,214.81 
	520.72,206.88 528.65,214.81 530.79,212.67 522.86,204.74 530.79,196.81 "/>
<path class="st0" d="M619.34,190.87c0,8.07,6.57,14.64,14.64,14.64c8.07,0,14.64-6.57,14.64-14.64c0-8.07-6.57-14.64-14.64-14.64
	C625.9,176.23,619.34,182.8,619.34,190.87z M645.59,190.87c0,6.4-5.21,11.62-11.62,11.62c-6.4,0-11.62-5.21-11.62-11.62
	s5.21-11.61,11.62-11.61C640.38,179.26,645.59,184.47,645.59,190.87z"/>
<path class="st0" d="M633.98,212.96c13.64,0,24.74,11.1,24.74,24.74h3.02c0-15.31-12.46-27.77-27.77-27.77
	c-15.31,0-27.77,12.46-27.77,27.77h3.02C609.23,224.06,620.33,212.96,633.98,212.96z"/>
<path class="st0" d="M197.65,55.27l15.45,3.09l-11.32,5.66l10.81,3.6l-2.22,4.44l2.7,1.35l3.78-7.56l-7.19-2.4l12.68-6.34
	l-14.55-2.91l16.53-7.08l-1.19-2.78l-9.89,4.24l0-9.76c-0.46,0.56-0.98,0.91-1.51,0.91c-0.54,0-1.05-0.35-1.51-0.91l0,11.06
	L197.65,55.27z"/>
<path class="st0" d="M211.72,39.74c0.54,0,1.05-0.35,1.51-0.91c1.4-1.69,2.38-5.29,2.38-6.99c0-2.26-1.74-4.1-3.9-4.1
	c-2.15,0-3.9,1.83-3.9,4.1c0,1.7,0.98,5.3,2.38,6.99C210.68,39.39,211.19,39.74,211.72,39.74z"/>
<path class="st0" d="M186.45,55.57l23.32,26.24c-3.47,4.68-5.44,8.99-5.44,11.94c0,3.93,3.53,7.51,7.4,7.51
	c3.87,0,7.4-3.58,7.4-7.51c0-2.93-1.95-7.21-5.44-11.93l23.17-26.07l0.14-0.18c1.47-2.26,3.87-2.35,9.18-2.32l1.55,0v-3.02l-1.53,0
	c-5.36-0.03-9.23-0.04-11.67,3.59l-22.79,25.64l-22.81-25.64c-2.43-3.64-6.32-3.62-11.67-3.59l-1.53,0v3.02l1.55,0
	C182.58,53.22,184.99,53.31,186.45,55.57z M216.1,93.74c0,2.49-2.39,4.49-4.37,4.49c-1.98,0-4.37-2-4.37-4.49
	c0-2.14,1.66-5.7,4.37-9.48C214.45,88.08,216.1,91.62,216.1,93.74z"/>
<path class="st0" d="M792.59,28.17c-16.55,0-30.01,13.46-30.01,30.01c0,8.46,3.53,16.11,9.18,21.57l-20.74,20.86l2.14,2.13l20.88-21
	c5.11,4.03,11.55,6.45,18.55,6.45c16.55,0,30.01-13.46,30.01-30.01S809.14,28.17,792.59,28.17z M792.59,85.17
	c-14.88,0-26.99-12.11-26.99-26.99s12.11-26.99,26.99-26.99c14.88,0,26.99,12.11,26.99,26.99S807.47,85.17,792.59,85.17z"/>
<path class="st0" d="M805.88,45.17c-2.11-4.95-7.17-8-13.29-8c-11.59,0-21.01,9.43-21.01,21.01s9.43,21.01,21.01,21.01
	c11.59,0,21.01-9.43,21.01-21.01C813.6,52.15,810.72,47.3,805.88,45.17z M803.51,47.52c0.94,3.35-0.11,6.9-2.89,9.5
	c-1.95,1.95-5.41,1.65-6.96,0.09c-1.56-1.55-1.86-5.01,0.06-6.93c2.09-1.98,4.65-3.02,7.2-3.02
	C801.8,47.15,802.66,47.27,803.51,47.52z M792.59,76.17c-9.92,0-17.99-8.07-17.99-17.99s8.07-17.99,17.99-17.99
	c3.92,0,7.19,1.44,9.2,3.96c-3.59-0.25-7.25,1.08-10.17,3.86c-2.96,2.97-3.01,8.32-0.09,11.24c2.92,2.92,8.27,2.87,11.2-0.06
	c2.9-2.71,4.34-6.28,4.13-9.89c2.37,1.98,3.72,5.13,3.72,8.88C810.58,68.1,802.51,76.17,792.59,76.17z"/>
<path class="st0" d="M320.68,78.38c-2.56,1.85-3.23,5.83-1.4,8.35c1.82,2.52,5.81,3.13,8.37,1.28c1.09-0.79,4.46-5.62,7.6-10.86
	c5.29-1.19,10.45-2.05,11.66-1.54c1.26,0.59,5.1,4.47,8.83,8.57c-0.48,5.97-0.49,11.67-0.07,12.94c0.48,1.47,1.6,2.73,3.08,3.47
	c0.89,0.44,1.86,0.67,2.79,0.67c0.57,0,1.13-0.08,1.65-0.26c2.96-0.97,4.75-4.58,3.77-7.58c-0.42-1.28-4.06-5.79-8.08-10.27
	c0.46-5.36,1.24-10.62,2.33-11.96c0.71-0.88,3.98-2.95,10.82-5.92c5.58,2.41,11.04,4.41,12.2,4.41c0,0,0,0,0,0
	c3.16-0.01,6.02-2.85,6.02-5.95c0-1.45-0.65-2.94-1.79-4.09c-1.16-1.17-2.71-1.85-4.25-1.85c0,0-0.01,0-0.01,0
	c-1.3,0-6.66,1.85-12.16,4.18c-5.23-2.38-10.22-4.93-10.83-5.67c-0.66-0.97-1.44-6.22-2.01-11.67c3.98-4.66,7.38-9.41,7.76-10.6
	c0.47-1.47,0.31-3.15-0.46-4.62c-0.74-1.43-1.96-2.5-3.35-2.95c-1.38-0.45-3-0.29-4.44,0.44c-1.48,0.74-2.6,2.01-3.07,3.48
	c-0.38,1.17-0.16,7.13,0.42,13.26c-3.35,3.84-6.93,7.41-8.97,8.1c-1.96,0.66-6.76-0.07-11.62-1.2c-3.17-5.32-6.65-10.29-7.8-11.13
	c-2.55-1.86-6.54-1.27-8.38,1.24c-1.83,2.51-1.18,6.49,1.37,8.36c1.08,0.79,6.78,2.74,12.84,4.2c2.63,4.46,4.9,8.89,4.9,10.47
	c0,1.63-2.38,6.23-5.09,10.81C327.31,75.92,321.63,77.69,320.68,78.38z M325.87,85.56c-1.31,0.95-3.38,0.46-4.15-0.6
	c-0.77-1.07-0.59-3.18,0.71-4.12c0.84-0.53,4.45-1.63,8.66-2.7C328.74,81.89,326.56,85,325.87,85.56z M384.2,60.82
	C384.2,60.82,384.2,60.82,384.2,60.82c0.74,0,1.51,0.34,2.1,0.95c0.57,0.58,0.91,1.31,0.91,1.97c0,1.31-1.38,2.92-2.97,2.92
	c-1.22-0.09-4.59-1.36-8.38-2.99C380.21,61.93,383.51,60.86,384.2,60.82z M322.44,46.59c-1.31-0.96-1.48-3.07-0.71-4.13
	c0.49-0.67,1.48-1.1,2.47-1.1c0.59,0,1.18,0.15,1.67,0.51c0.7,0.58,2.95,3.8,5.36,7.63C326.85,48.32,323.15,47.06,322.44,46.59z
	 M364.08,94.36c0.5,1.54-0.59,3.36-1.84,3.77c-0.62,0.2-1.43,0.11-2.15-0.25c-0.76-0.38-1.33-1-1.55-1.69
	c-0.22-0.82-0.21-4.5,0.04-8.82C361.41,90.62,363.72,93.49,364.08,94.36z M358.52,31.33c0.23-0.7,0.79-1.33,1.55-1.71
	c0.48-0.24,0.99-0.36,1.46-0.36c0.25,0,0.48,0.03,0.7,0.1c0.62,0.2,1.22,0.75,1.59,1.47c0.39,0.75,0.49,1.59,0.26,2.28
	c-0.28,0.76-2.48,3.84-5.28,7.29C358.44,36.06,358.28,32.29,358.52,31.33z M341.42,63.7c0-1.79-1.7-5.55-3.92-9.6
	c4.38,0.85,8.45,1.23,10.56,0.51c2.13-0.73,5.3-3.58,8.43-6.94c0.6,4.95,1.42,9.32,2.31,10.48c0.94,1.22,4.94,3.36,9.51,5.47
	c-4.38,2.03-8.26,4.17-9.47,5.66c-1.25,1.54-2.15,5.97-2.72,10.87c-3.37-3.58-6.57-6.64-7.94-7.28c-0.51-0.24-1.32-0.34-2.36-0.34
	c-2.15,0-5.26,0.45-8.56,1.12C339.6,69.44,341.42,65.49,341.42,63.7z"/>
<path class="st0" d="M487.04,80.37c-1.65-1.92-4.09-3.13-6.82-3.13c-4.97,0-9.01,4.04-9.01,9.01s4.04,9.01,9.01,9.01
	c4.97,0,9.01-4.04,9.01-9.01c0-1.19-0.24-2.32-0.66-3.36l0.05,0.07l23.1-17.33c3.33,2.37,8.81,5.51,11.99,5.51
	c3.93,0,7.51-3.52,7.51-7.39c0-3.87-3.58-7.4-7.51-7.4c-3.51,0-8.83,3.2-12,5.5l-23.09-17.32l-0.05,0.07
	c0.42-1.04,0.66-2.17,0.66-3.36c0-4.97-4.04-9.01-9.01-9.01c-4.97,0-9.01,4.04-9.01,9.01s4.04,9.01,9.01,9.01
	c2.72,0,5.16-1.22,6.82-3.13l22.16,16.62L487.04,80.37z M480.22,92.23c-3.3,0-5.99-2.69-5.99-5.99c0-3.3,2.69-5.99,5.99-5.99
	c3.3,0,5.99,2.69,5.99,5.99C486.21,89.55,483.52,92.23,480.22,92.23z M523.72,59.37c2.49,0,4.49,2.39,4.49,4.37
	c0,1.98-2,4.37-4.49,4.37c-1.93,0-6.06-2.09-9.42-4.38C517.94,61.21,521.84,59.37,523.72,59.37z M480.22,47.23
	c-3.3,0-5.99-2.69-5.99-5.99s2.69-5.99,5.99-5.99c3.3,0,5.99,2.69,5.99,5.99S483.52,47.23,480.22,47.23z"/>
<path class="st0" d="M32.21,374.26h71.03v-45.02H32.21V374.26z M35.23,371.23v-36.16l29.38,13.88c-2.8,2.37-4.28,5.99-4.28,8.8
	c0,3.93,3.52,7.51,7.39,7.51c3.87,0,7.39-3.58,7.39-7.51c0-2.81-1.49-6.43-4.27-8.79l29.37-13.81v36.09H35.23z M67.73,347.07
	l-31.38-14.82h62.9L67.73,347.07z M72.09,357.74c0,2.49-2.39,4.49-4.37,4.49c-1.98,0-4.37-2-4.37-4.49c0-2.09,1.36-5.58,4.37-7.3
	C70.73,352.15,72.09,355.66,72.09,357.74z"/>
<path class="st0" d="M640.3,325.16h-24.02v6h-9v51.02h75.02v-51.02h-42V325.16z M619.3,328.19h17.98v2.98H619.3V328.19z
	 M679.28,334.19v44.98H610.3v-44.98h5.98h24.02H679.28z"/>
<path class="st0" d="M961.3,353.67c0-6.17-3.41-11.55-8.44-14.39l-1.81,2.45c4.29,2.26,7.22,6.76,7.22,11.93s-2.93,9.67-7.22,11.93
	l1.81,2.45C957.89,365.23,961.3,359.85,961.3,353.67z"/>
<path class="st0" d="M967.28,353.67c0,8.14-4.35,15.28-10.84,19.23l1.8,2.44c7.24-4.51,12.07-12.53,12.07-21.67
	s-4.83-17.16-12.07-21.67l-1.8,2.44C962.93,338.39,967.28,345.53,967.28,353.67z"/>
<path class="st0" d="M952.3,353.67c0-3.21-2.03-5.95-4.86-7.02l-1.92,2.61c2.13,0.35,3.76,2.19,3.76,4.41s-1.63,4.06-3.76,4.41
	l1.92,2.61C950.28,359.62,952.3,356.88,952.3,353.67z"/>
<path class="st0" d="M902.79,361.07c3.15,0,5.88-2.5,8.76-5.14c0.06-0.06,0.12-0.11,0.18-0.17l15.72,15.72l0.97,0.97l8.53,8.53
	l3.34,3.34v-61.3l-3.34,3.34l-8.53,8.53l-0.97,0.97l-15.68,15.68c-2.97-2.88-5.91-5.26-8.99-5.26c-3.93,0-7.51,3.53-7.51,7.4
	C895.28,357.55,898.86,361.07,902.79,361.07z M928.21,339.4l2.04-2.04l5.58-5.58l1.46-1.46v46.7l-1.46-1.46l-5.58-5.58l-2.04-2.04
	l-14.28-14.28L928.21,339.4z M902.79,349.3c2.09,0,4.73,2.3,6.8,4.32c-0.03,0.02-0.05,0.05-0.08,0.07
	c-2.44,2.23-4.75,4.34-6.72,4.34c-2.49,0-4.49-2.39-4.49-4.37C898.3,351.7,900.31,349.3,902.79,349.3z"/>
<path class="st0" d="M644.79,376.19c10.76,0,19.51-8.75,19.51-19.51c0-10.76-8.75-19.51-19.51-19.51s-19.51,8.75-19.51,19.51
	C625.28,367.43,634.03,376.19,644.79,376.19z M644.79,340.19c9.09,0,16.49,7.4,16.49,16.49s-7.4,16.49-16.49,16.49
	s-16.49-7.4-16.49-16.49S635.7,340.19,644.79,340.19z"/>
<rect x="51.18" y="494.23" class="st0" width="36" height="3.02"/>
<rect x="51.18" y="503.23" class="st0" width="24" height="3.02"/>
<rect x="51.18" y="512.23" class="st0" width="30" height="3.02"/>
<path class="st0" d="M241.69,476.06c0-4.51-2.29-7.94-6.44-9.66c-0.54-0.22-1.09-0.41-1.66-0.56c-0.05-0.14-0.11-0.29-0.17-0.43
	c-1.89-4.56-6.07-7.18-11.46-7.18h-37.3v75.02h57.02V476.06z M231.2,468.44c0.68,3.27-0.19,6.64-1.69,8.14
	c-2.09,2.08-4.73,1.62-6.26,0.09c-1.53-1.53-2-4.18,0.09-6.26c1.22-1.22,3.69-2.06,6.35-2.06
	C230.19,468.35,230.7,468.38,231.2,468.44z M238.67,530.23h-50.98v-68.98h34.28c4.46,0,6.81,2.01,8.05,4.08
	c-3.47-0.08-6.85,0.96-8.82,2.94c-3.45,3.45-2.62,8-0.09,10.54c2.53,2.53,7.09,3.37,10.54-0.09c2.11-2.11,3.09-5.79,2.74-9.41
	c2.02,0.92,4.28,2.82,4.28,6.74V530.23z"/>
<path class="st0" d="M203.98,498.41c-0.47-0.33-1.03-0.57-1.66-0.72c-0.64-0.14-1.32-0.22-2.04-0.22h-4.88v13.37h3.01v-4.53h1.87
	c0.71,0,1.38-0.09,2.01-0.27c0.63-0.18,1.18-0.45,1.66-0.82c0.48-0.37,0.86-0.84,1.14-1.41c0.28-0.57,0.42-1.25,0.42-2.03
	c0-0.81-0.14-1.49-0.41-2.04C204.83,499.18,204.45,498.74,203.98,498.41z M200.1,503.91h-1.68v-4.04h1.68
	c0.81,0,1.41,0.14,1.82,0.43c0.41,0.29,0.62,0.78,0.62,1.48C202.54,503.2,201.72,503.91,200.1,503.91z"/>
<path class="st0" d="M216.87,499.06c-0.56-0.54-1.24-0.94-2.03-1.2c-0.79-0.26-1.67-0.39-2.64-0.39h-3.63v13.37h3.79
	c0.93,0,1.78-0.14,2.54-0.41c0.77-0.27,1.42-0.69,1.98-1.24c0.55-0.55,0.98-1.25,1.29-2.1c0.31-0.85,0.46-1.84,0.46-2.99
	c0-1.15-0.15-2.14-0.46-2.97C217.86,500.29,217.43,499.6,216.87,499.06z M215.28,506.12c-0.17,0.55-0.41,0.99-0.72,1.32
	c-0.31,0.33-0.68,0.58-1.11,0.73c-0.43,0.15-0.91,0.23-1.42,0.23h-0.43v-8.49h0.43c0.52,0,0.99,0.07,1.42,0.2
	c0.43,0.14,0.8,0.37,1.11,0.69c0.31,0.32,0.55,0.75,0.72,1.29c0.17,0.54,0.26,1.21,0.26,2C215.54,504.9,215.45,505.58,215.28,506.12
	z"/>
<polygon class="st0" points="222.45,510.84 225.46,510.84 225.46,505.65 230.4,505.65 230.4,503.11 225.46,503.11 225.46,500.01 
	231.27,500.01 231.27,497.47 222.45,497.47 "/>
<path class="st0" d="M347.27,499.61c-0.56-0.54-1.24-0.94-2.03-1.2s-1.67-0.39-2.64-0.39h-3.63v13.37h3.79
	c0.93,0,1.78-0.14,2.54-0.41c0.77-0.27,1.42-0.69,1.98-1.24c0.55-0.55,0.98-1.25,1.29-2.1c0.31-0.85,0.46-1.84,0.46-2.99
	c0-1.15-0.15-2.14-0.46-2.97C348.26,500.83,347.83,500.15,347.27,499.61z M345.68,506.67c-0.17,0.55-0.41,0.99-0.72,1.32
	c-0.31,0.34-0.68,0.58-1.11,0.73c-0.43,0.15-0.91,0.22-1.42,0.22H342v-8.49h0.43c0.52,0,0.99,0.07,1.42,0.2
	c0.43,0.14,0.8,0.37,1.11,0.69c0.31,0.32,0.55,0.75,0.72,1.29c0.17,0.54,0.26,1.21,0.26,2
	C345.94,505.45,345.85,506.12,345.68,506.67z"/>
<path class="st0" d="M361.18,499.58c-0.47-0.59-1.04-1.04-1.7-1.34c-0.66-0.31-1.39-0.46-2.18-0.46c-0.79,0-1.52,0.15-2.18,0.46
	c-0.66,0.31-1.23,0.75-1.7,1.33c-0.47,0.58-0.84,1.3-1.1,2.15c-0.26,0.86-0.39,1.83-0.39,2.92c0,1.09,0.13,2.07,0.39,2.93
	c0.26,0.86,0.62,1.59,1.1,2.19c0.47,0.6,1.04,1.06,1.7,1.38c0.66,0.32,1.39,0.48,2.18,0.48c0.79,0,1.52-0.16,2.18-0.48
	c0.66-0.32,1.23-0.78,1.7-1.38c0.47-0.6,0.84-1.33,1.1-2.19c0.26-0.86,0.39-1.84,0.39-2.93c0-1.08-0.13-2.05-0.39-2.9
	C362.02,500.88,361.65,500.16,361.18,499.58z M358.96,507.85c-0.41,0.79-0.96,1.18-1.66,1.18c-0.7,0-1.25-0.39-1.66-1.18
	c-0.41-0.79-0.62-1.86-0.62-3.21c0-1.34,0.21-2.38,0.62-3.14c0.41-0.75,0.96-1.13,1.66-1.13c0.7,0,1.25,0.38,1.66,1.13
	c0.41,0.75,0.62,1.8,0.62,3.14C359.57,505.99,359.37,507.06,358.96,507.85z"/>
<path class="st0" d="M373.48,508.7c-0.39,0.22-0.82,0.33-1.3,0.33c-1.01,0-1.83-0.38-2.46-1.14c-0.63-0.76-0.94-1.83-0.94-3.21
	c0-0.67,0.08-1.27,0.25-1.8c0.16-0.53,0.39-0.98,0.69-1.35c0.29-0.37,0.64-0.65,1.04-0.85c0.4-0.2,0.83-0.3,1.31-0.3
	c0.48,0,0.9,0.09,1.27,0.27c0.37,0.18,0.71,0.41,1.02,0.7l1.66-1.87c-0.45-0.44-1.01-0.83-1.67-1.18c-0.66-0.35-1.42-0.52-2.29-0.52
	c-0.89,0-1.72,0.16-2.5,0.47c-0.78,0.31-1.46,0.77-2.03,1.38c-0.57,0.6-1.03,1.34-1.35,2.2c-0.33,0.87-0.49,1.86-0.49,2.96
	c0,1.12,0.17,2.11,0.5,2.96c0.33,0.86,0.79,1.57,1.36,2.14c0.57,0.57,1.24,1.01,2.01,1.3c0.77,0.29,1.58,0.44,2.44,0.44
	c1.69,0,3.1-0.66,4.22-1.97l-1.66-1.83C374.23,508.19,373.87,508.48,373.48,508.7z"/>
<path class="st0" d="M805.3,348.99c0-4.51-2.29-7.94-6.44-9.66c-0.54-0.22-1.09-0.41-1.66-0.56c-0.05-0.14-0.11-0.29-0.17-0.43
	c-1.89-4.56-6.07-7.18-11.46-7.18h-34.3v51.02h54.02v-22.22l21,18v-42.57l-21,18V348.99z M823.28,341.96v29.43l-17.16-14.71
	L823.28,341.96z M794.82,341.38c0.67,3.27-0.19,6.64-1.7,8.14c-2.08,2.08-4.73,1.62-6.26,0.09c-0.79-0.79-1.27-1.85-1.32-2.92
	c-0.06-1.21,0.43-2.36,1.41-3.34c1.22-1.22,3.69-2.06,6.35-2.06C793.8,341.28,794.31,341.31,794.82,341.38z M802.28,379.16H754.3
	v-44.98h31.27c4.46,0,6.81,2.01,8.05,4.08c-3.45-0.09-6.85,0.96-8.82,2.94c-2.02,2.02-2.36,4.17-2.29,5.62
	c0.09,1.81,0.89,3.61,2.2,4.92c2.53,2.53,7.09,3.36,10.54-0.09c2.11-2.11,3.1-5.79,2.74-9.41c2.02,0.92,4.28,2.82,4.28,6.74v6.99
	l-0.81,0.7l0.81,0.7V379.16z"/>
<path class="st0" d="M677.05,472.14c-0.54-0.22-1.09-0.41-1.66-0.56c-0.05-0.14-0.11-0.29-0.17-0.43
	c-1.89-4.56-6.07-7.18-11.46-7.18h-55.3v67.79h75.02v-49.96C683.48,477.29,681.2,473.86,677.05,472.14z M673,474.19
	c0.68,3.27-0.19,6.64-1.7,8.15c-2.08,2.08-4.73,1.62-6.26,0.08c-1.53-1.53-2-4.18,0.09-6.26c1.22-1.22,3.69-2.06,6.35-2.06
	C671.98,474.1,672.49,474.13,673,474.19z M680.46,528.74h-68.98V467h52.27c4.46,0,6.81,2.01,8.05,4.08
	c-3.45-0.1-6.85,0.96-8.82,2.94c-3.45,3.45-2.62,8-0.09,10.54c2.53,2.53,7.09,3.37,10.54-0.08c2.11-2.11,3.1-5.79,2.74-9.41
	c2.02,0.92,4.28,2.82,4.28,6.75V528.74z"/>
<path class="st0" d="M620.46,519.77h51.02v-27.02h-51.02V519.77z M623.48,507.77h8.98v8.98h-8.98V507.77z M647.48,504.74v-8.98h8.98
	v8.98H647.48z M656.46,507.77v8.98h-8.98v-8.98H656.46z M644.46,504.74h-8.98v-8.98h8.98V504.74z M644.46,507.77v8.98h-8.98v-8.98
	H644.46z M659.48,516.74v-8.98h8.98v8.98H659.48z M668.46,504.74h-8.98v-8.98h8.98V504.74z M632.46,495.77v8.98h-8.98v-8.98H632.46z
	"/>
<path class="st0" d="M789.85,459.74c-20.68,0-37.51,16.83-37.51,37.51s16.83,37.51,37.51,37.51s37.51-16.83,37.51-37.51
	S810.53,459.74,789.85,459.74z M789.85,531.74c-19.02,0-34.49-15.47-34.49-34.49c0-19.02,15.47-34.49,34.49-34.49
	s34.49,15.47,34.49,34.49C824.33,516.27,808.86,531.74,789.85,531.74z"/>
<path class="st0" d="M97.69,476.06c0-4.51-2.29-7.94-6.44-9.66c-0.54-0.22-1.09-0.41-1.66-0.56c-0.05-0.14-0.11-0.29-0.17-0.43
	c-1.89-4.56-6.07-7.18-11.46-7.18h-37.3v75.02h57.02V476.06z M87.2,468.44c0.68,3.27-0.19,6.64-1.69,8.14
	c-2.08,2.08-4.73,1.62-6.26,0.09c-1.53-1.53-2-4.18,0.09-6.26c1.22-1.22,3.69-2.06,6.35-2.06C86.19,468.35,86.7,468.38,87.2,468.44z
	 M94.67,530.23H43.69v-68.98h34.28c4.46,0,6.81,2.01,8.05,4.08c-3.47-0.08-6.85,0.96-8.82,2.94c-3.45,3.45-2.62,8-0.09,10.54
	c2.53,2.53,7.09,3.37,10.54-0.09c2.11-2.11,3.09-5.79,2.74-9.41c2.02,0.92,4.28,2.82,4.28,6.74V530.23z"/>
<path class="st0" d="M379.29,466.94c-0.54-0.22-1.09-0.41-1.66-0.56c-0.05-0.14-0.11-0.29-0.17-0.43
	c-1.89-4.56-6.07-7.18-11.46-7.18h-37.3v75.02h57.02v-57.19C385.72,472.09,383.44,468.66,379.29,466.94z M375.24,468.99
	c0.67,3.27-0.19,6.64-1.7,8.14c-2.08,2.08-4.73,1.62-6.26,0.09c-0.79-0.79-1.27-1.85-1.32-2.92c-0.06-1.21,0.43-2.36,1.41-3.34
	c1.22-1.22,3.69-2.06,6.35-2.06C374.22,468.9,374.73,468.93,375.24,468.99z M382.7,530.78h-50.98V461.8H366
	c4.46,0,6.81,2.01,8.05,4.08c-3.44-0.1-6.85,0.96-8.82,2.94c-2.02,2.02-2.36,4.17-2.29,5.62c0.09,1.81,0.89,3.61,2.2,4.92
	c2.53,2.53,7.09,3.36,10.54-0.09c2.11-2.11,3.1-5.79,2.74-9.41c2.02,0.92,4.28,2.82,4.28,6.74V530.78z"/>
<path class="st0" d="M791.48,470.26h-3.02v25.52c-5.16,0.22-8.52,1.58-10.51,4.26c-2.34,3.16-1.65,8.13,1.45,10.44
	c1.17,0.87,2.68,1.33,4.26,1.33c0.38,0,0.76-0.03,1.14-0.08c2.04-0.28,3.87-1.33,5.02-2.87c1.78-2.39,1.74-5.25,1.68-9.21
	c0-0.29-0.01-0.58-0.01-0.88h19.48v-3.02h-19.49V470.26z M787.39,507.05c-0.66,0.89-1.76,1.51-3.01,1.68
	c-1.2,0.17-2.38-0.09-3.18-0.69c-1.59-1.18-2.31-4.21-0.83-6.21c0.9-1.21,2.71-2.79,8.09-3.04c0,0.3,0.01,0.6,0.01,0.89
	C788.53,503.3,788.56,505.48,787.39,507.05z"/>
<rect x="486.85" y="477.74" class="st0" width="51" height="3.02"/>
<rect x="486.85" y="495.74" class="st0" width="39" height="3.02"/>
<rect x="486.85" y="513.74" class="st0" width="45" height="3.02"/>
<path class="st0" d="M479.36,471.74h-15.02v15.02h15.02V471.74z M476.33,483.74h-8.98v-8.98h8.98V483.74z"/>
<path class="st0" d="M479.36,489.74h-15.02v15.02h15.02V489.74z M476.33,501.74h-8.98v-8.98h8.98V501.74z"/>
<path class="st0" d="M479.36,507.74h-15.02v15.02h15.02V507.74z M476.33,519.74h-8.98v-8.98h8.98V519.74z"/>
<path class="st0" d="M644.79,370.19c7.45,0,13.51-6.06,13.51-13.51c0-3.86-1.82-6.99-4.89-8.44c-1.44-3.14-4.7-5.07-8.62-5.07
	c-7.45,0-13.51,6.06-13.51,13.51S637.34,370.19,644.79,370.19z M651.03,350.59c0.37,1.76-0.24,3.58-1.71,4.96
	c-0.43,0.43-1.09,0.7-1.79,0.67c-0.67,0-1.3-0.23-1.68-0.61c-0.77-0.77-0.89-2.51,0.03-3.43c1.17-1.11,2.61-1.7,4.03-1.7
	C650.3,350.47,650.66,350.51,651.03,350.59z M644.79,346.19c1.69,0,3.16,0.46,4.26,1.3c-1.89,0.2-3.73,1.06-5.27,2.52
	c-2.04,2.04-2.07,5.73-0.06,7.74c0.94,0.94,2.32,1.49,3.79,1.5c1.47,0.03,2.95-0.56,3.91-1.52c1.52-1.42,2.44-3.21,2.68-5.08
	c0.76,1.06,1.18,2.46,1.18,4.04c0,5.78-4.7,10.49-10.49,10.49s-10.49-4.71-10.49-10.49S639.01,346.19,644.79,346.19z"/>
<path class="st0" d="M933.69,475.28l-0.84,2.94c5.18,0.69,9.97,3.04,13.72,6.8c3.7,3.7,5.9,8.31,6.67,13.12l2.94-0.84
	c-0.92-5.28-3.41-10.35-7.48-14.42C944.59,478.76,939.36,476.13,933.69,475.28z"/>
<path class="st0" d="M952.76,478.47c4.76,4.76,7.86,10.73,9.04,17.22l2.92-0.84c-1.32-6.98-4.69-13.4-9.82-18.53
	c-5.17-5.17-11.65-8.55-18.69-9.85l-0.84,2.94C941.74,470.55,947.85,473.56,952.76,478.47z"/>
<path class="st0" d="M931.16,484.16l-0.85,2.98c3.81,0.16,7.38,1.71,10.09,4.42c2.46,2.46,3.96,5.61,4.35,9.01l2.93-0.84
	c-0.55-3.89-2.31-7.48-5.14-10.31C939.45,486.34,935.45,484.51,931.16,484.16z"/>
<path class="st0" d="M938.12,513.88c0.6-3.85,0.04-7.7-1.52-10.98c-0.46-0.97-1-1.89-1.63-2.74c-1.81-2.44-4.1-4.06-6.91-5.16
	c-5.47-2.13-12.95-2.25-23.05-2.25v-25.49h-3.02v27c0,2.47-0.03,4.68-0.06,6.67c-0.03,1.96-0.05,3.72-0.04,5.33
	c0.05,6.5,0.7,10.61,4.22,15.35c3.48,4.68,9.32,7.21,15.06,7.21c1.24,0,2.47-0.13,3.68-0.37c2.39-0.48,4.66-1.42,6.63-2.88
	C934.95,522.99,937.37,518.73,938.12,513.88z M929.67,523.15c-1.36,1.01-3.02,1.74-4.82,2.16c-5.54,1.3-12.43-0.29-16.31-5.51
	c-3-4.03-3.58-7.58-3.63-13.55c-0.01-1.58,0.01-3.32,0.04-5.29c0.02-1.59,0.05-3.31,0.06-5.2c10.54,0.01,17.5,0.22,22.22,2.15
	c2.22,0.91,3.95,2.2,5.32,4.04c0.42,0.56,0.77,1.16,1.1,1.79c1.47,2.82,2.02,6.23,1.49,9.67
	C934.5,517.49,932.51,521.03,929.67,523.15z"/>
<path class="st0" d="M645.21,27.74c-14.07,0-25.51,11.44-25.51,25.51c0,4.15,2.69,9.67,5.54,15.52c2.52,5.17,5.12,10.52,5.12,13.81
	v1.51h29.69v-1.51c0-3.57,2.66-8.98,5.24-14.21c2.79-5.67,5.43-11.03,5.43-15.12C670.72,39.19,659.28,27.74,645.21,27.74z
	 M653.94,81.08h-17.46l8.73-13.1L653.94,81.08z M643.39,60.42c-1.42-1.63-2.54-2.91-2.54-4.17c0-2.49,2.39-4.49,4.37-4.49
	c1.98,0,4.37,2,4.37,4.49c0,1.39-1.31,2.89-2.82,4.64c-0.48,0.55-0.99,1.14-1.5,1.77C644.63,61.85,643.99,61.11,643.39,60.42z
	 M662.58,67.04c-2.42,4.92-4.71,9.6-5.35,13.51l-10.18-15.27c0.64-0.85,1.33-1.64,2-2.41c1.83-2.11,3.56-4.11,3.56-6.62
	c0-3.93-3.53-7.51-7.4-7.51c-3.87,0-7.39,3.58-7.39,7.51c0,2.39,1.6,4.22,3.29,6.16c0.77,0.88,1.56,1.79,2.29,2.83l-10.22,15.33
	c-0.65-3.71-2.87-8.3-5.22-13.12c-2.57-5.28-5.24-10.75-5.24-14.2c0-12.4,10.09-22.49,22.49-22.49s22.49,10.09,22.49,22.49
	C667.7,56.65,665.1,61.93,662.58,67.04z"/>
<rect x="633.21" y="87.74" class="st0" width="24" height="3.02"/>
<rect x="633.21" y="93.74" class="st0" width="24" height="3.02"/>
<rect x="642.21" y="99.74" class="st0" width="6" height="3.02"/>
<path class="st0" d="M907.75,171.72h-15.02v15.02h15.02V171.72z M904.72,183.72h-8.98v-8.98h8.98V183.72z"/>
<path class="st0" d="M952.72,216.74h15.02v-15.02h-15.02V216.74z M955.75,204.74h8.98v8.98h-8.98V204.74z"/>
<path class="st0" d="M904.72,246.74h15.02v-15.02h-15.02V246.74z M907.75,234.74h8.98v8.98h-8.98V234.74z"/>
<path class="st0" d="M955.53,193.85c1.13,1.25,2.27,2.65,3.49,4.29l2.43-1.8c-1.28-1.72-2.48-3.2-3.68-4.52L955.53,193.85z"/>
<path class="st0" d="M930.39,178.78c-1.9-0.26-3.93-0.48-6.05-0.64l-0.23,3.02c2.06,0.16,4.03,0.37,5.87,0.62L930.39,178.78z"/>
<path class="st0" d="M942.34,181.55c-1.83-0.65-3.83-1.22-5.93-1.69l-0.67,2.95c1.99,0.45,3.87,0.99,5.59,1.59L942.34,181.55z"/>
<path class="st0" d="M951.36,189.89l1.89-2.36c-1.64-1.32-3.35-2.45-5.21-3.46l-1.44,2.66C948.3,187.65,949.86,188.68,951.36,189.89
	z"/>
<path class="st0" d="M912.23,180.74c2.08,0,4.08,0.03,5.95,0.09l0.1-3.02c-1.9-0.06-3.94-0.1-6.05-0.1V180.74z"/>
<path class="st0" d="M935.76,236.39l0.72,2.94c2.03-0.49,4.02-1.13,5.91-1.88l-1.12-2.81C939.51,235.34,937.66,235.93,935.76,236.39
	z"/>
<path class="st0" d="M946.47,232.13l1.52,2.62c1.79-1.04,3.52-2.22,5.13-3.51l-1.89-2.36C949.73,230.07,948.13,231.16,946.47,232.13
	z"/>
<path class="st0" d="M955.44,224.93l2.23,2.04c1.45-1.58,2.74-3.23,3.84-4.92l-2.54-1.65C957.96,221.95,956.77,223.48,955.44,224.93
	z"/>
<path class="st0" d="M924.23,237.72v3.02c2.09,0,4.17-0.11,6.15-0.34l-0.34-3C928.17,237.61,926.22,237.72,924.23,237.72z"/>
<path class="st0" d="M898.7,30.91l27.55,68.89l3.05-27.66l26.62,26.62l10.62-10.62l-26.62-26.62l27.66-3.05L898.7,30.91z
	 M924.58,87.45l-20.45-51.11l51.11,20.45l-24.72,2.73c-0.01-3.76-0.4-7.64-2.67-9.9c-1.34-1.34-3.28-2.11-5.32-2.11
	c-0.02,0-0.04,0-0.07,0c-2.01,0.02-3.89,0.75-5.16,2.03h0c-1.27,1.27-2.01,3.15-2.02,5.16c-0.02,2.06,0.75,4.02,2.11,5.38
	c2.17,2.17,5.62,2.57,9.91,2.64L924.58,87.45z M919.46,51.66c0.71-0.71,1.84-1.13,3.05-1.14c1.25,0.04,2.43,0.44,3.22,1.22
	c1.47,1.47,1.78,4.58,1.78,7.93c-3.56-0.04-6.53-0.32-7.96-1.75C917.78,56.17,918.06,53.06,919.46,51.66L919.46,51.66z
	 M962.28,88.13l-6.35,6.35l-26.2-26.2l0.63-5.72l5.72-0.63L962.28,88.13z"/>
</svg>
