<?xml version="1.0" encoding="utf-8"?>
<!-- Generator: Adobe Illustrator 21.0.2, SVG Export Plug-In . SVG Version: 6.00 Build 0)  -->
<!DOCTYPE svg PUBLIC "-//W3C//DTD SVG 1.1//EN" "http://www.w3.org/Graphics/SVG/1.1/DTD/svg11.dtd">
<svg version="1.1" id="Layer_1" xmlns="http://www.w3.org/2000/svg" xmlns:xlink="http://www.w3.org/1999/xlink" x="0px" y="0px"
	 width="500px" height="220px" viewBox="0 0 500 220" style="enable-background:new 0 0 500 220;" xml:space="preserve">
<style type="text/css">
	.st0{fill:none;stroke:#00AEEF;stroke-width:0.4;stroke-miterlimit:10;}
</style>
<g>
	<ellipse transform="matrix(0.4839 -0.8751 0.8751 0.4839 12.2617 221.3079)" cx="193.76" cy="100.26" rx="15.48" ry="10.12"/>
	<g>
		<path d="M200.91,146.05c-6.98,2.89-14.4,4.55-22.94,4.55c-4.24,0-7.76-0.47-10.93-1c-0.6-0.1-0.81,0.59-0.47,0.87
			c2.43,2.02,5.64,6.06,5.64,13.42c0,9.62-5.91,20.37-12.17,27.18c-5.87,6.38-11.46,10.33-17.87,13.58
			c-2.13,1.08-5.65,2.52-7.78,3.18c-0.96,0.3-0.85,1.21,0.34,0.98c2.38-0.45,5.41-1.32,8.3-2.24c12.1-3.85,23.96-10.65,33.42-19.51
			c9.42-8.81,19.78-21.86,25.25-40.49C201.86,146.09,201.31,145.88,200.91,146.05z"/>
	</g>
	<g>
		<path d="M227.49,74.71c-0.17-0.49-0.77-0.51-0.84,0.03c-0.66,5.58-2.41,19.58-14.02,33.14c-13.94,16.28-33.49,22.22-50.55,20.8
			c-9.44-0.78-18.74-3.84-26.67-8.91c-0.56-0.31-0.91,0.22-0.64,0.59c8.52,12.4,23.65,22.68,43.06,22.68
			c28.99,0,52.19-23.48,52.19-52.68C230.01,85.78,229.02,79.43,227.49,74.71z"/>
	</g>
</g>
<g>
	<g>
		<path d="M392.34,184.88c-1.51,2.27-3.15,4.37-4.82,6.18c-5.87,6.38-11.46,10.33-17.87,13.58c-2.13,1.08-5.65,2.52-7.78,3.18
			c-0.96,0.3-0.85,1.21,0.34,0.98c2.38-0.45,5.41-1.32,8.3-2.24c12.1-3.85,23.96-10.65,33.42-19.51
			c9.42-8.81,19.78-21.86,25.25-40.49c0.14-0.49-0.4-0.69-0.8-0.52c-6.98,2.89-14.4,4.55-22.94,4.55c-0.73,0-1.19-0.04-1.88-0.05
			c-0.57,0-0.74,0.3-0.74,0.82C402.83,163.92,398.95,175.26,392.34,184.88z"/>
		<path d="M403.49,142.99c0.61,0.06,1.14,0.04,1.81,0.04c28.99,0,52.19-23.48,52.19-52.68c0-4.58-0.99-10.92-2.52-15.65
			c-0.17-0.49-0.77-0.51-0.84,0.03c-0.66,5.58-2.41,19.58-14.02,33.14c-10.63,12.41-25.08,19.07-38.06,20.5
			c-0.43,0.05-0.65,0.39-0.57,0.82c0.74,4.03,1.36,8.3,1.36,12.63l-0.01,0.45C402.86,142.75,403.11,142.95,403.49,142.99z"/>
		<path d="M399.91,121.05c19.05-2.39,31.86-16.5,27.7-30.45c-0.1-0.35-0.49-0.49-0.85-0.15c-10.86,10.43-23.93,10.28-23.93,10.28
			l-21.31-5.71c-0.54-0.15-0.92,0.32-0.51,0.65c8.03,6.56,14.09,14.91,17.87,24.76C399.05,120.85,399.47,121.1,399.91,121.05z"/>
	</g>
	<path d="M392.06,163.46c-14.34-5.85-25.94-19.02-30.65-30.52c-0.39-0.95,0.07-1.57,0.73-0.89c6.12,6.28,14.45,12.04,23.41,15.14
		c2.64,0.91,5.43,1.78,8.26,2.3c0.42,0.08,0.62,0.32,0.62,0.79c0,1.3-0.04,4.12-0.47,7.03c-0.42,2.86-0.84,4.87-1.06,5.81
		C392.8,163.52,392.29,163.55,392.06,163.46z"/>
</g>
<circle class="st0" cx="177.82" cy="90.84" r="52.19"/>
<circle class="st0" cx="178" cy="90.8" r="59.79"/>
<circle class="st0" cx="166.93" cy="69.14" r="52.19"/>
<circle class="st0" cx="167.1" cy="69.1" r="59.79"/>
<line class="st0" x1="133.72" y1="209.02" x2="217.74" y2="57.23"/>
<line class="st0" x1="133.72" y1="209.02" x2="133.72" y2="118.66"/>
<circle class="st0" cx="115.56" cy="120.99" r="89.86"/>
<line class="st0" x1="205.42" y1="143.93" x2="205.42" y2="46.55"/>
<circle class="st0" cx="115.56" cy="151.06" r="59.79"/>
<circle class="st0" cx="405.3" cy="90.84" r="52.19"/>
<circle class="st0" cx="405.48" cy="90.8" r="59.79"/>
<circle class="st0" cx="394.41" cy="69.14" r="52.19"/>
<circle class="st0" cx="394.58" cy="69.1" r="59.79"/>
<line class="st0" x1="361.2" y1="209.02" x2="445.22" y2="57.23"/>
<line class="st0" x1="361.2" y1="209.02" x2="361.2" y2="118.66"/>
<circle class="st0" cx="343.04" cy="120.99" r="89.86"/>
<line class="st0" x1="432.9" y1="143.93" x2="432.9" y2="46.55"/>
<circle class="st0" cx="343.04" cy="151.06" r="59.79"/>
<circle class="st0" cx="343.04" cy="141.83" r="59.79"/>
<line class="st0" x1="402.83" y1="151.06" x2="402.83" y2="53.92"/>
<circle class="st0" cx="342.22" cy="150.6" r="52.19"/>
<circle class="st0" cx="415.91" cy="108.69" r="59.79"/>
</svg>
