<?xml version="1.0" encoding="utf-8"?>
<!-- Generator: Adobe Illustrator 21.0.2, SVG Export Plug-In . SVG Version: 6.00 Build 0)  -->
<!DOCTYPE svg PUBLIC "-//W3C//DTD SVG 1.1//EN" "http://www.w3.org/Graphics/SVG/1.1/DTD/svg11.dtd">
<svg version="1.1" id="Layer_1" xmlns="http://www.w3.org/2000/svg" xmlns:xlink="http://www.w3.org/1999/xlink" x="0px" y="0px"
	 width="1000px" height="1000px" viewBox="0 0 1000 1000" style="enable-background:new 0 0 1000 1000;" xml:space="preserve">
<style type="text/css">
	.st0{fill:#FFFFFF;}
	.st1{fill:url(#SVGID_1_);}
	.st2{fill:url(#SVGID_2_);}
	.st3{fill:#0055B8;}
	.st4{fill:url(#SVGID_3_);}
	.st5{fill:url(#SVGID_4_);}
	.st6{fill:#008851;}
	.st7{fill:#333092;}
</style>
<rect y="499.53" class="st0" width="1000.5" height="250"/>
<rect y="0.47" class="st0" width="1000.5" height="250"/>
<linearGradient id="SVGID_1_" gradientUnits="userSpaceOnUse" x1="62.5" y1="187.03" x2="437.5" y2="562.03" gradientTransform="matrix(1 0 0 1 0 0.94)">
	<stop  offset="0" style="stop-color:#0055B8"/>
	<stop  offset="1" style="stop-color:#50C9ED"/>
</linearGradient>
<rect y="250.47" class="st1" width="500" height="250"/>
<linearGradient id="SVGID_2_" gradientUnits="userSpaceOnUse" x1="562.5" y1="187.03" x2="937.5" y2="562.03" gradientTransform="matrix(1 0 0 1 0 0.94)">
	<stop  offset="0" style="stop-color:#0055B8"/>
	<stop  offset="0.5" style="stop-color:#732282"/>
	<stop  offset="1" style="stop-color:#E11383"/>
</linearGradient>
<rect x="500" y="250.47" class="st2" width="500" height="250"/>
<g>
	<g>
		<g>
			
				<ellipse transform="matrix(0.4894 -0.8721 0.8721 0.4894 82.9322 265.6883)" class="st3" cx="268.35" cy="62.03" rx="6.88" ry="4.5"/>
			<g>
				<path class="st3" d="M275.19,79.39c-3.64,2.01-7.81,3.14-12.26,3.14c-0.62,0-1.24-0.02-1.87-0.07
					c-0.33-0.02-0.65-0.05-0.97-0.09c-0.25-0.04-0.33,0.21-0.2,0.33c0.4,0.43,0.76,0.9,1.05,1.41c2.31,4.03,0.39,9.94-3.94,15.05
					c-3.18,3.76-7.28,6.45-9.22,7.61c-0.17,0.14-0.08,0.31,0.16,0.26c5.12-1.55,10.59-4.13,16.03-9.59
					c4.41-4.43,8.56-10.64,11.5-17.8C275.56,79.45,275.36,79.32,275.19,79.39z"/>
			</g>
			<g>
				<path class="st3" d="M284.16,50.27c-0.07-0.2-0.28-0.14-0.3,0c-0.21,2.32-1.16,8.77-6.28,14.55
					c-6.04,6.81-14.12,9.12-21.01,8.63c-3.99-0.28-7.7-1.46-10.95-3.33c-0.23-0.13-0.38,0.09-0.27,0.25
					c3.55,5.04,9.16,8.46,15.99,8.94c12.56,0.88,22.67-8.65,23.54-21.21C285.07,55.38,284.81,52.75,284.16,50.27z"/>
			</g>
		</g>
		<g>
			<path class="st3" d="M118.4,71.35h7.95c5.42,0,9.21,1.83,9.21,6.52c0,2.65-1.51,5.01-4.69,5.83v0.16
				c3.91,0.61,6.19,2.73,6.19,6.4c0,5.26-4.16,7.82-10.11,7.82h-8.56L118.4,71.35L118.4,71.35z M125.78,82.76
				c4.52,0,6.44-1.63,6.44-4.61c0-2.89-2.16-4.12-6.28-4.12h-4.12v8.72h3.96V82.76z M126.47,95.39c4.56,0,7.25-1.67,7.25-5.3
				c0-3.3-2.57-4.81-7.25-4.81h-4.65v10.11H126.47z"/>
			<path class="st3" d="M149.37,77.78c5.05,0,7.91,3.63,7.91,9.29c0,0.69-0.04,1.34-0.12,1.83h-13.37c0.25,4.28,2.81,6.97,6.6,6.97
				c1.87,0,3.46-0.61,4.93-1.55l1.18,2.2c-1.71,1.1-3.83,2.04-6.52,2.04c-5.3,0-9.49-3.87-9.49-10.35
				C140.48,81.74,144.84,77.78,149.37,77.78z M154.34,86.71c0-4.03-1.79-6.28-4.89-6.28c-2.77,0-5.3,2.28-5.71,6.28H154.34z"/>
			<path class="st3" d="M161.87,103.82c2.24,0,3.67-1.79,4.48-4.24l0.45-1.47l-7.95-19.85h3.46l4.03,10.96
				c0.61,1.71,1.3,3.75,1.91,5.58h0.16c0.57-1.79,1.14-3.83,1.67-5.58l3.55-10.96h3.26l-7.46,21.44c-1.39,3.91-3.42,6.89-7.42,6.89
				c-0.9,0-1.67-0.16-2.32-0.41l0.65-2.65C160.77,103.66,161.39,103.82,161.87,103.82z"/>
			<path class="st3" d="M187.7,77.78c4.85,0,9.17,3.79,9.17,10.43c0,6.56-4.32,10.35-9.17,10.35c-4.85,0-9.17-3.79-9.17-10.35
				C178.53,81.57,182.85,77.78,187.7,77.78z M187.7,95.8c3.42,0,5.7-3.06,5.7-7.58c0-4.56-2.28-7.66-5.7-7.66
				c-3.38,0-5.71,3.1-5.71,7.66C182,92.74,184.32,95.8,187.7,95.8z"/>
			<path class="st3" d="M201.65,78.27h2.77l0.28,2.85h0.12c1.88-1.87,3.91-3.34,6.64-3.34c4.16,0,6.03,2.69,6.03,7.74v12.55h-3.34
				v-12.1c0-3.71-1.14-5.3-3.75-5.3c-2.04,0-3.42,1.06-5.42,3.06v14.34h-3.34L201.65,78.27L201.65,78.27z"/>
			<path class="st3" d="M230.79,77.78c2.28,0,3.79,0.86,5.54,2.28l-0.16-3.38v-7.62h3.38v29.02h-2.77l-0.28-2.32h-0.12
				c-1.55,1.51-3.67,2.81-5.99,2.81c-4.97,0-8.19-3.75-8.19-10.35C222.2,81.78,226.27,77.78,230.79,77.78z M231.12,95.76
				c1.83,0,3.42-0.9,5.05-2.73V82.67c-1.67-1.51-3.18-2.08-4.81-2.08c-3.18,0-5.71,3.06-5.71,7.58
				C225.66,92.9,227.66,95.76,231.12,95.76z"/>
		</g>
		<g>
			<g>
				<path class="st3" d="M389.17,95.14c0-2.04,1.48-3.43,3.27-3.43c1.81,0,3.29,1.39,3.29,3.43s-1.48,3.43-3.29,3.43
					C390.65,98.57,389.17,97.18,389.17,95.14z M395.03,95.14c0-1.64-1.13-2.8-2.59-2.8s-2.57,1.17-2.57,2.8
					c0,1.65,1.11,2.78,2.57,2.78C393.9,97.92,395.03,96.79,395.03,95.14z M391.19,93.33h1.32c0.73,0,1.36,0.3,1.36,1.13
					c0,0.42-0.26,0.82-0.64,0.96l0.8,1.44h-0.8l-0.61-1.22h-0.71v1.22h-0.71v-3.53L391.19,93.33L391.19,93.33z M392.35,95.09
					c0.47,0,0.75-0.21,0.75-0.59c0-0.35-0.19-0.57-0.71-0.57h-0.49v1.17L392.35,95.09L392.35,95.09z"/>
			</g>
			<path class="st3" d="M288.46,71.35h3.42v26.73h-3.42V71.35z"/>
			<path class="st3" d="M298.05,78.27h2.77l0.28,2.85h0.12c1.88-1.87,3.91-3.34,6.64-3.34c4.16,0,6.03,2.69,6.03,7.74v12.55h-3.34
				v-12.1c0-3.71-1.14-5.3-3.75-5.3c-2.04,0-3.42,1.06-5.42,3.06v14.34h-3.34v-19.8H298.05z"/>
			<path class="st3" d="M327.18,77.78c2.28,0,3.79,0.86,5.54,2.28l-0.16-3.38v-7.62h3.38v29.02h-2.77l-0.28-2.32h-0.12
				c-1.55,1.51-3.67,2.81-5.99,2.81c-4.97,0-8.19-3.75-8.19-10.35C318.59,81.78,322.66,77.78,327.18,77.78z M327.51,95.76
				c1.83,0,3.42-0.9,5.05-2.73V82.67c-1.67-1.51-3.18-2.08-4.81-2.08c-3.18,0-5.71,3.06-5.71,7.58
				C322.05,92.9,324.05,95.76,327.51,95.76z"/>
			<path class="st3" d="M341.32,72.04c0-1.3,1.02-2.16,2.32-2.16c1.3,0,2.32,0.86,2.32,2.16c0,1.26-1.02,2.16-2.32,2.16
				C342.34,74.2,341.32,73.3,341.32,72.04z M341.93,78.27h3.34v19.81h-3.34V78.27z"/>
			<path class="st3" d="M352.6,97.38v-0.16c-0.98-0.61-1.75-1.67-1.75-3.22c0-1.67,1.14-2.98,2.16-3.67v-0.16
				c-1.3-1.06-2.57-2.97-2.57-5.34c0-4.32,3.42-7.05,7.46-7.05c1.1,0,2.08,0.2,2.81,0.49h6.89v2.57h-4.08
				c0.94,0.9,1.63,2.4,1.63,4.08c0,4.24-3.22,6.89-7.25,6.89c-0.98,0-2.08-0.24-2.97-0.69c-0.69,0.61-1.26,1.26-1.26,2.36
				c0,1.26,0.81,2.16,3.5,2.16h3.83c4.6,0,6.93,1.43,6.93,4.73c0,3.67-3.87,6.85-10.02,6.85c-4.85,0-8.19-1.92-8.19-5.34
				C349.71,100.2,350.81,98.61,352.6,97.38z M358.39,104.88c3.79,0,6.27-1.96,6.27-4.03c0-1.83-1.43-2.44-3.99-2.44h-3.42
				c-0.77,0-1.71-0.08-2.57-0.33c-1.43,1.02-2.04,2.2-2.04,3.34C352.64,103.54,354.8,104.88,358.39,104.88z M362.09,84.83
				c0-2.89-1.87-4.61-4.2-4.61c-2.32,0-4.2,1.71-4.2,4.61c0,2.89,1.91,4.73,4.2,4.73C360.18,89.56,362.09,87.73,362.09,84.83z"/>
			<path class="st3" d="M378.77,77.78c4.85,0,9.17,3.79,9.17,10.43c0,6.56-4.32,10.35-9.17,10.35s-9.17-3.79-9.17-10.35
				C369.61,81.57,373.92,77.78,378.77,77.78z M378.77,95.8c3.42,0,5.7-3.06,5.7-7.58c0-4.56-2.28-7.66-5.7-7.66
				c-3.38,0-5.71,3.1-5.71,7.66C373.07,92.74,375.39,95.8,378.77,95.8z"/>
		</g>
	</g>
</g>
<g>
	<g>
		<g>
			<path class="st3" d="M576.12,119.34h7.98c5.44,0,9.25,1.84,9.25,6.55c0,2.66-1.51,5.03-4.71,5.85v0.16
				c3.93,0.61,6.22,2.74,6.22,6.43c0,5.28-4.17,7.86-10.15,7.86h-8.6v-26.85C576.11,119.34,576.12,119.34,576.12,119.34z
				 M583.53,130.8c4.54,0,6.47-1.64,6.47-4.63c0-2.91-2.17-4.13-6.3-4.13h-4.13v8.76H583.53z M584.22,143.49
				c4.58,0,7.29-1.68,7.29-5.32c0-3.32-2.58-4.83-7.29-4.83h-4.67v10.15L584.22,143.49L584.22,143.49z"/>
			<path class="st3" d="M606.7,125.8c5.08,0,7.94,3.64,7.94,9.33c0,0.7-0.04,1.35-0.12,1.84H601.1c0.25,4.3,2.82,7,6.63,7
				c1.88,0,3.48-0.61,4.95-1.56l1.19,2.21c-1.72,1.11-3.85,2.05-6.55,2.05c-5.32,0-9.54-3.89-9.54-10.4
				C597.78,129.78,602.16,125.8,606.7,125.8z M611.7,134.77c0-4.05-1.8-6.3-4.91-6.3c-2.78,0-5.32,2.29-5.73,6.3H611.7z"/>
			<path class="st3" d="M618.72,151.96c2.25,0,3.68-1.8,4.5-4.26l0.45-1.47l-7.98-19.93h3.48l4.05,11.01
				c0.61,1.72,1.31,3.77,1.92,5.61h0.16c0.57-1.8,1.15-3.85,1.68-5.61l3.56-11.01h3.27l-7.49,21.53c-1.39,3.93-3.44,6.92-7.45,6.92
				c-0.9,0-1.68-0.16-2.33-0.41l0.66-2.66C617.62,151.8,618.23,151.96,618.72,151.96z"/>
			<path class="st3" d="M644.1,125.8c4.87,0,9.21,3.81,9.21,10.48c0,6.59-4.34,10.4-9.21,10.4s-9.21-3.81-9.21-10.4
				C634.89,129.61,639.23,125.8,644.1,125.8z M644.1,143.9c3.44,0,5.73-3.07,5.73-7.61c0-4.58-2.29-7.69-5.73-7.69
				c-3.4,0-5.73,3.11-5.73,7.69C638.37,140.83,640.71,143.9,644.1,143.9z"/>
			<path class="st3" d="M657.58,126.3h2.78l0.29,2.86h0.12c1.88-1.88,3.93-3.36,6.67-3.36c4.17,0,6.06,2.7,6.06,7.78v12.61h-3.36
				v-12.16c0-3.72-1.15-5.32-3.77-5.32c-2.05,0-3.44,1.06-5.44,3.07v14.41h-3.36V126.3H657.58z"/>
			<path class="st3" d="M686.31,125.8c2.29,0,3.81,0.86,5.57,2.29l-0.16-3.4v-7.65h3.4v29.14h-2.78l-0.29-2.33h-0.12
				c-1.56,1.51-3.68,2.82-6.02,2.82c-4.99,0-8.23-3.77-8.23-10.4C677.67,129.82,681.76,125.8,686.31,125.8z M686.63,143.86
				c1.84,0,3.44-0.9,5.08-2.74v-10.4c-1.68-1.51-3.19-2.09-4.83-2.09c-3.19,0-5.73,3.07-5.73,7.61
				C681.15,140.99,683.15,143.86,686.63,143.86z"/>
			<path class="st3" d="M709.15,119.34h3.44v26.85h-3.44V119.34z"/>
			<path class="st3" d="M718.21,126.3H721l0.29,2.86h0.12c1.88-1.88,3.93-3.36,6.67-3.36c4.17,0,6.06,2.7,6.06,7.78v12.61h-3.36
				v-12.16c0-3.72-1.15-5.32-3.77-5.32c-2.05,0-3.44,1.06-5.44,3.07v14.41h-3.36L718.21,126.3L718.21,126.3z"/>
			<path class="st3" d="M746.95,125.8c2.29,0,3.81,0.86,5.57,2.29l-0.16-3.4v-7.65h3.4v29.14h-2.78l-0.29-2.33h-0.12
				c-1.56,1.51-3.68,2.82-6.02,2.82c-4.99,0-8.23-3.77-8.23-10.4C738.31,129.82,742.4,125.8,746.95,125.8z M747.27,143.86
				c1.84,0,3.44-0.9,5.08-2.74v-10.4c-1.68-1.51-3.19-2.09-4.83-2.09c-3.19,0-5.73,3.07-5.73,7.61
				C741.79,140.99,743.79,143.86,747.27,143.86z"/>
			<path class="st3" d="M760.58,120.03c0-1.31,1.02-2.17,2.33-2.17s2.33,0.86,2.33,2.17c0,1.27-1.02,2.17-2.33,2.17
				C761.6,122.2,760.58,121.3,760.58,120.03z M761.2,126.3h3.36v19.89h-3.36V126.3z"/>
			<path class="st3" d="M771.13,145.49v-0.16c-0.98-0.61-1.76-1.68-1.76-3.23c0-1.68,1.15-2.99,2.17-3.68v-0.16
				c-1.31-1.06-2.58-2.99-2.58-5.36c0-4.34,3.44-7.08,7.49-7.08c1.1,0,2.09,0.2,2.82,0.49h6.92v2.58h-4.09
				c0.94,0.9,1.64,2.42,1.64,4.09c0,4.26-3.23,6.92-7.29,6.92c-0.98,0-2.09-0.25-2.99-0.7c-0.7,0.61-1.27,1.27-1.27,2.37
				c0,1.27,0.82,2.17,3.52,2.17h3.85c4.63,0,6.96,1.43,6.96,4.75c0,3.68-3.89,6.88-10.07,6.88c-4.87,0-8.23-1.92-8.23-5.36
				C768.22,148.32,769.33,146.72,771.13,145.49z M776.94,153.02c3.81,0,6.3-1.97,6.3-4.05c0-1.84-1.43-2.46-4.01-2.46h-3.44
				c-0.78,0-1.72-0.08-2.58-0.33c-1.43,1.02-2.05,2.21-2.05,3.36C771.17,151.67,773.34,153.02,776.94,153.02z M780.67,132.89
				c0-2.91-1.88-4.63-4.22-4.63s-4.22,1.72-4.22,4.63s1.92,4.75,4.22,4.75S780.67,135.79,780.67,132.89z"/>
			<path class="st3" d="M796.86,125.8c4.87,0,9.21,3.81,9.21,10.48c0,6.59-4.34,10.4-9.21,10.4s-9.21-3.81-9.21-10.4
				C787.65,129.61,791.99,125.8,796.86,125.8z M796.86,143.9c3.44,0,5.73-3.07,5.73-7.61c0-4.58-2.29-7.69-5.73-7.69
				c-3.4,0-5.73,3.11-5.73,7.69C791.13,140.83,793.46,143.9,796.86,143.9z"/>
		</g>
		<g>
			<path class="st3" d="M807.48,143.26c0-2.03,1.48-3.42,3.26-3.42c1.81,0,3.28,1.39,3.28,3.42s-1.48,3.42-3.28,3.42
				C808.96,146.68,807.48,145.29,807.48,143.26z M813.33,143.26c0-1.63-1.13-2.8-2.59-2.8s-2.57,1.16-2.57,2.8
				c0,1.65,1.11,2.78,2.57,2.78C812.21,146.04,813.33,144.91,813.33,143.26z M809.5,141.45h1.32c0.73,0,1.35,0.3,1.35,1.13
				c0,0.42-0.26,0.82-0.64,0.96l0.8,1.44h-0.8l-0.61-1.22h-0.71v1.22h-0.71L809.5,141.45L809.5,141.45z M810.66,143.21
				c0.47,0,0.75-0.21,0.75-0.59c0-0.35-0.19-0.57-0.71-0.57h-0.49v1.16H810.66z"/>
		</g>
		<g>
			<path class="st3" d="M853.34,119.34h8.27c5.94,0,9.91,2.01,9.91,7.9c0,5.65-4.05,8.31-9.91,8.31h-4.83v10.64h-3.44V119.34z
				 M861.16,132.76c4.71,0,6.96-1.72,6.96-5.53c0-3.89-2.33-5.16-6.96-5.16h-4.38v10.68L861.16,132.76L861.16,132.76z"/>
			<path class="st3" d="M882.54,125.8c5.08,0,7.94,3.64,7.94,9.33c0,0.7-0.04,1.35-0.12,1.84h-13.43c0.25,4.3,2.82,7,6.63,7
				c1.88,0,3.48-0.61,4.95-1.56l1.19,2.21c-1.72,1.11-3.85,2.05-6.55,2.05c-5.32,0-9.54-3.89-9.54-10.4
				C873.62,129.78,877.99,125.8,882.54,125.8z M887.53,134.77c0-4.05-1.8-6.3-4.91-6.3c-2.78,0-5.32,2.29-5.73,6.3H887.53z"/>
			<path class="st3" d="M895.2,129.04h-2.95v-2.54l3.11-0.2l0.41-5.57h2.82v5.57h5.36v2.74h-5.36v11.05c0,2.46,0.78,3.85,3.07,3.85
				c0.7,0,1.6-0.29,2.25-0.53l0.65,2.54c-1.11,0.37-2.46,0.74-3.68,0.74c-4.26,0-5.69-2.7-5.69-6.63v-11.02H895.2z"/>
			<path class="st3" d="M908.1,141.69c1.72,1.39,3.48,2.37,5.85,2.37c2.62,0,3.93-1.39,3.93-3.11c0-2.05-2.37-2.95-4.54-3.77
				c-2.82-1.02-5.94-2.37-5.94-5.73c0-3.19,2.54-5.65,6.84-5.65c2.5,0,4.67,1.02,6.18,2.25l-1.6,2.13
				c-1.35-1.02-2.78-1.76-4.54-1.76c-2.5,0-3.64,1.35-3.64,2.87c0,1.84,2.17,2.58,4.42,3.44c2.86,1.06,6.06,2.25,6.06,6.02
				c0,3.23-2.58,5.94-7.29,5.94c-2.82,0-5.53-1.19-7.41-2.74L908.1,141.69z"/>
		</g>
		<g>
			<g>
				<path class="st3" d="M824.36,145.3c-0.63,0.95-1.32,1.83-2.02,2.59c-2.46,2.68-4.81,4.34-7.5,5.7
					c-0.89,0.45-2.37,1.06-3.26,1.34c-0.4,0.13-0.36,0.51,0.14,0.41c1-0.19,2.27-0.55,3.48-0.94c5.08-1.62,10.05-4.47,14.02-8.18
					c3.95-3.7,8.3-9.17,10.6-16.99c0.06-0.2-0.17-0.29-0.34-0.22c-2.93,1.21-6.04,1.91-9.62,1.91c-0.31,0-0.5-0.02-0.79-0.02
					c-0.24,0-0.31,0.13-0.31,0.34C828.76,136.51,827.14,141.26,824.36,145.3z"/>
				<path class="st3" d="M829.04,127.72c0.25,0.02,0.48,0.02,0.76,0.02c12.17,0,21.9-9.85,21.9-22.1c0-1.92-0.42-4.58-1.06-6.56
					c-0.07-0.2-0.32-0.21-0.35,0.01c-0.28,2.34-1.01,8.21-5.88,13.91c-4.46,5.21-10.52,8-15.97,8.6c-0.18,0.02-0.27,0.17-0.24,0.34
					c0.31,1.69,0.57,3.48,0.57,5.3l-0.01,0.19C828.77,127.62,828.88,127.71,829.04,127.72z"/>
				<path class="st3" d="M827.54,118.52c7.99-1,13.37-6.93,11.62-12.78c-0.04-0.15-0.21-0.21-0.35-0.06
					c-4.56,4.37-10.04,4.31-10.04,4.31l-8.94-2.4c-0.23-0.06-0.39,0.13-0.21,0.27c3.37,2.75,5.91,6.26,7.5,10.39
					C827.18,118.43,827.35,118.54,827.54,118.52z"/>
			</g>
			<path class="st3" d="M824.24,136.31c-6.02-2.45-10.89-7.98-12.86-12.81c-0.16-0.4,0.03-0.66,0.31-0.37
				c2.57,2.63,6.07,5.05,9.82,6.35c1.11,0.38,2.28,0.75,3.46,0.97c0.18,0.03,0.26,0.13,0.26,0.33c0,0.54-0.02,1.73-0.2,2.95
				c-0.18,1.2-0.35,2.04-0.44,2.44C824.55,136.34,824.34,136.35,824.24,136.31z"/>
		</g>
	</g>
</g>
<g>
	<g>
		<g>
			<path class="st0" d="M576.12,366.9h7.98c5.44,0,9.25,1.84,9.25,6.55c0,2.66-1.51,5.03-4.71,5.85v0.17
				c3.93,0.61,6.22,2.74,6.22,6.43c0,5.28-4.17,7.86-10.15,7.86h-8.6V366.9H576.12z M583.53,378.36c4.54,0,6.47-1.64,6.47-4.63
				c0-2.91-2.17-4.13-6.3-4.13h-4.13v8.76H583.53z M584.22,391.05c4.58,0,7.29-1.68,7.29-5.32c0-3.32-2.58-4.83-7.29-4.83h-4.67
				v10.15H584.22z"/>
			<path class="st0" d="M606.7,373.37c5.08,0,7.94,3.64,7.94,9.33c0,0.7-0.04,1.35-0.12,1.84H601.1c0.25,4.3,2.82,7,6.63,7
				c1.88,0,3.48-0.61,4.95-1.56l1.19,2.21c-1.72,1.11-3.85,2.05-6.55,2.05c-5.32,0-9.54-3.89-9.54-10.4
				C597.78,377.34,602.16,373.37,606.7,373.37z M611.7,382.33c0-4.05-1.8-6.3-4.91-6.3c-2.78,0-5.32,2.29-5.73,6.3H611.7z"/>
			<path class="st0" d="M618.72,399.52c2.25,0,3.68-1.8,4.5-4.26l0.45-1.47l-7.98-19.93h3.48l4.05,11.01
				c0.61,1.72,1.31,3.77,1.92,5.61h0.16c0.57-1.8,1.15-3.85,1.68-5.61l3.56-11.01h3.27l-7.49,21.53c-1.39,3.93-3.44,6.92-7.45,6.92
				c-0.9,0-1.68-0.16-2.33-0.41l0.66-2.66C617.62,399.36,618.23,399.52,618.72,399.52z"/>
			<path class="st0" d="M644.1,373.37c4.87,0,9.21,3.81,9.21,10.48c0,6.59-4.34,10.4-9.21,10.4s-9.21-3.81-9.21-10.4
				C634.89,377.17,639.23,373.37,644.1,373.37z M644.1,391.46c3.44,0,5.73-3.07,5.73-7.61c0-4.58-2.29-7.69-5.73-7.69
				c-3.4,0-5.73,3.11-5.73,7.69C638.37,388.39,640.71,391.46,644.1,391.46z"/>
			<path class="st0" d="M657.58,373.86h2.78l0.29,2.86h0.12c1.88-1.88,3.93-3.36,6.67-3.36c4.17,0,6.06,2.7,6.06,7.78v12.61h-3.36
				v-12.16c0-3.72-1.15-5.32-3.77-5.32c-2.05,0-3.44,1.06-5.44,3.07v14.41h-3.36v-19.89H657.58z"/>
			<path class="st0" d="M686.31,373.37c2.29,0,3.81,0.86,5.57,2.29l-0.16-3.4v-7.65h3.4v29.14h-2.78l-0.29-2.33h-0.12
				c-1.56,1.51-3.68,2.82-6.02,2.82c-4.99,0-8.23-3.77-8.23-10.4C677.67,377.38,681.76,373.37,686.31,373.37z M686.63,391.42
				c1.84,0,3.44-0.9,5.08-2.74v-10.4c-1.68-1.51-3.19-2.09-4.83-2.09c-3.19,0-5.73,3.07-5.73,7.61
				C681.15,388.55,683.15,391.42,686.63,391.42z"/>
			<path class="st0" d="M709.15,366.9h3.44v26.85h-3.44V366.9z"/>
			<path class="st0" d="M718.21,373.86H721l0.29,2.86h0.12c1.88-1.88,3.93-3.36,6.67-3.36c4.17,0,6.06,2.7,6.06,7.78v12.61h-3.36
				v-12.16c0-3.72-1.15-5.32-3.77-5.32c-2.05,0-3.44,1.06-5.44,3.07v14.41h-3.36L718.21,373.86L718.21,373.86z"/>
			<path class="st0" d="M746.95,373.37c2.29,0,3.81,0.86,5.57,2.29l-0.16-3.4v-7.65h3.4v29.14h-2.78l-0.29-2.33h-0.12
				c-1.56,1.51-3.68,2.82-6.02,2.82c-4.99,0-8.23-3.77-8.23-10.4C738.31,377.38,742.4,373.37,746.95,373.37z M747.27,391.42
				c1.84,0,3.44-0.9,5.08-2.74v-10.4c-1.68-1.51-3.19-2.09-4.83-2.09c-3.19,0-5.73,3.07-5.73,7.61
				C741.79,388.55,743.79,391.42,747.27,391.42z"/>
			<path class="st0" d="M760.58,367.6c0-1.31,1.02-2.17,2.33-2.17s2.33,0.86,2.33,2.17c0,1.27-1.02,2.17-2.33,2.17
				C761.6,369.77,760.58,368.87,760.58,367.6z M761.2,373.86h3.36v19.89h-3.36V373.86z"/>
			<path class="st0" d="M771.13,393.06v-0.16c-0.98-0.61-1.76-1.68-1.76-3.23c0-1.68,1.15-2.99,2.17-3.68v-0.16
				c-1.31-1.06-2.58-2.99-2.58-5.36c0-4.34,3.44-7.08,7.49-7.08c1.1,0,2.09,0.2,2.82,0.49h6.92v2.58h-4.09
				c0.94,0.9,1.64,2.42,1.64,4.09c0,4.26-3.23,6.92-7.29,6.92c-0.98,0-2.09-0.25-2.99-0.7c-0.7,0.61-1.27,1.27-1.27,2.37
				c0,1.27,0.82,2.17,3.52,2.17h3.85c4.63,0,6.96,1.43,6.96,4.75c0,3.68-3.89,6.88-10.07,6.88c-4.87,0-8.23-1.92-8.23-5.36
				C768.22,395.88,769.33,394.28,771.13,393.06z M776.94,400.59c3.81,0,6.3-1.97,6.3-4.05c0-1.84-1.43-2.46-4.01-2.46h-3.44
				c-0.78,0-1.72-0.08-2.58-0.33c-1.43,1.02-2.05,2.21-2.05,3.36C771.17,399.24,773.34,400.59,776.94,400.59z M780.67,380.45
				c0-2.91-1.88-4.63-4.22-4.63s-4.22,1.72-4.22,4.63s1.92,4.75,4.22,4.75S780.67,383.35,780.67,380.45z"/>
			<path class="st0" d="M796.86,373.37c4.87,0,9.21,3.81,9.21,10.48c0,6.59-4.34,10.4-9.21,10.4s-9.21-3.81-9.21-10.4
				C787.65,377.17,791.99,373.37,796.86,373.37z M796.86,391.46c3.44,0,5.73-3.07,5.73-7.61c0-4.58-2.29-7.69-5.73-7.69
				c-3.4,0-5.73,3.11-5.73,7.69C791.13,388.39,793.46,391.46,796.86,391.46z"/>
		</g>
		<g>
			<path class="st0" d="M807.48,390.82c0-2.03,1.48-3.42,3.26-3.42c1.81,0,3.28,1.39,3.28,3.42s-1.48,3.42-3.28,3.42
				C808.96,394.24,807.48,392.85,807.48,390.82z M813.33,390.82c0-1.63-1.13-2.8-2.59-2.8s-2.57,1.16-2.57,2.8
				c0,1.65,1.11,2.78,2.57,2.78C812.21,393.6,813.33,392.47,813.33,390.82z M809.5,389.02h1.32c0.73,0,1.35,0.3,1.35,1.13
				c0,0.42-0.26,0.82-0.64,0.96l0.8,1.44h-0.8l-0.61-1.22h-0.71v1.22h-0.71L809.5,389.02L809.5,389.02z M810.66,390.77
				c0.47,0,0.75-0.21,0.75-0.59c0-0.35-0.19-0.57-0.71-0.57h-0.49v1.16H810.66z"/>
		</g>
		<g>
			<path class="st0" d="M853.34,366.9h8.27c5.94,0,9.91,2.01,9.91,7.9c0,5.65-4.05,8.31-9.91,8.31h-4.83v10.64h-3.44V366.9z
				 M861.16,380.33c4.71,0,6.96-1.72,6.96-5.53c0-3.89-2.33-5.16-6.96-5.16h-4.38v10.68h4.38V380.33z"/>
			<path class="st0" d="M882.54,373.37c5.08,0,7.94,3.64,7.94,9.33c0,0.7-0.04,1.35-0.12,1.84h-13.43c0.25,4.3,2.82,7,6.63,7
				c1.88,0,3.48-0.61,4.95-1.56l1.19,2.21c-1.72,1.11-3.85,2.05-6.55,2.05c-5.32,0-9.54-3.89-9.54-10.4
				C873.62,377.34,877.99,373.37,882.54,373.37z M887.53,382.33c0-4.05-1.8-6.3-4.91-6.3c-2.78,0-5.32,2.29-5.73,6.3H887.53z"/>
			<path class="st0" d="M895.2,376.6h-2.95v-2.54l3.11-0.2l0.41-5.57h2.82v5.57h5.36v2.74h-5.36v11.05c0,2.46,0.78,3.85,3.07,3.85
				c0.7,0,1.6-0.29,2.25-0.53l0.65,2.54c-1.11,0.37-2.46,0.74-3.68,0.74c-4.26,0-5.69-2.7-5.69-6.63V376.6H895.2z"/>
			<path class="st0" d="M908.1,389.25c1.72,1.39,3.48,2.37,5.85,2.37c2.62,0,3.93-1.39,3.93-3.11c0-2.05-2.37-2.95-4.54-3.77
				c-2.82-1.02-5.94-2.37-5.94-5.73c0-3.19,2.54-5.65,6.84-5.65c2.5,0,4.67,1.02,6.18,2.25l-1.6,2.13
				c-1.35-1.02-2.78-1.76-4.54-1.76c-2.5,0-3.64,1.35-3.64,2.87c0,1.84,2.17,2.58,4.42,3.44c2.86,1.06,6.06,2.25,6.06,6.02
				c0,3.23-2.58,5.94-7.29,5.94c-2.82,0-5.53-1.19-7.41-2.74L908.1,389.25z"/>
		</g>
		<g>
			<g>
				<path class="st0" d="M824.36,392.86c-0.63,0.95-1.32,1.83-2.02,2.59c-2.46,2.68-4.81,4.34-7.5,5.7
					c-0.89,0.45-2.37,1.06-3.26,1.34c-0.4,0.13-0.36,0.51,0.14,0.41c1-0.19,2.27-0.55,3.48-0.94c5.08-1.62,10.05-4.47,14.02-8.18
					c3.95-3.7,8.3-9.17,10.6-16.99c0.06-0.2-0.17-0.29-0.34-0.22c-2.93,1.21-6.04,1.91-9.62,1.91c-0.31,0-0.5-0.02-0.79-0.02
					c-0.24,0-0.31,0.13-0.31,0.34C828.76,384.07,827.14,388.83,824.36,392.86z"/>
				<path class="st0" d="M829.04,375.29c0.25,0.02,0.48,0.02,0.76,0.02c12.17,0,21.9-9.85,21.9-22.1c0-1.92-0.42-4.58-1.06-6.56
					c-0.07-0.2-0.32-0.21-0.35,0.01c-0.28,2.34-1.01,8.21-5.88,13.91c-4.46,5.21-10.52,8-15.97,8.6c-0.18,0.02-0.27,0.17-0.24,0.34
					c0.31,1.69,0.57,3.48,0.57,5.3l-0.01,0.19C828.77,375.19,828.88,375.27,829.04,375.29z"/>
				<path class="st0" d="M827.54,366.08c7.99-1,13.37-6.93,11.62-12.78c-0.04-0.15-0.21-0.21-0.35-0.06
					c-4.56,4.37-10.04,4.31-10.04,4.31l-8.94-2.4c-0.23-0.06-0.39,0.13-0.21,0.27c3.37,2.75,5.91,6.26,7.5,10.39
					C827.18,366,827.35,366.1,827.54,366.08z"/>
			</g>
			<path class="st0" d="M824.24,383.87c-6.02-2.45-10.89-7.98-12.86-12.81c-0.16-0.4,0.03-0.66,0.31-0.37
				c2.57,2.63,6.07,5.05,9.82,6.35c1.11,0.38,2.28,0.75,3.46,0.97c0.18,0.03,0.26,0.13,0.26,0.33c0,0.54-0.02,1.73-0.2,2.95
				c-0.18,1.2-0.35,2.04-0.44,2.44C824.55,383.9,824.34,383.91,824.24,383.87z"/>
		</g>
	</g>
</g>
<linearGradient id="SVGID_3_" gradientUnits="userSpaceOnUse" x1="63" y1="686.09" x2="438" y2="1061.0901" gradientTransform="matrix(1 0 0 1 0 0.94)">
	<stop  offset="0" style="stop-color:#0055B8"/>
	<stop  offset="0.5" style="stop-color:#0D8B79"/>
	<stop  offset="1" style="stop-color:#70BA44"/>
</linearGradient>
<rect x="0.5" y="749.53" class="st4" width="500" height="250"/>
<linearGradient id="SVGID_4_" gradientUnits="userSpaceOnUse" x1="563" y1="686.09" x2="938" y2="1061.0901" gradientTransform="matrix(1 0 0 1 0 0.94)">
	<stop  offset="0" style="stop-color:#0055B8"/>
	<stop  offset="1" style="stop-color:#8871B3"/>
</linearGradient>
<rect x="500.5" y="749.53" class="st5" width="500" height="250"/>
<g>
	<g>
		<path class="st6" d="M70.6,618.18h7.95c5.42,0,9.22,1.84,9.22,6.53c0,2.65-1.51,5.02-4.69,5.83v0.16c3.92,0.61,6.2,2.73,6.2,6.4
			c0,5.26-4.16,7.83-10.11,7.83H70.6V618.18z M77.99,629.6c4.53,0,6.44-1.63,6.44-4.61c0-2.9-2.16-4.12-6.28-4.12h-4.12v8.73H77.99z
			 M78.68,642.24c4.57,0,7.26-1.67,7.26-5.3c0-3.3-2.57-4.81-7.26-4.81h-4.65v10.11H78.68z"/>
		<path class="st6" d="M101.6,624.62c5.06,0,7.91,3.63,7.91,9.3c0,0.69-0.04,1.35-0.12,1.84H96.01c0.25,4.28,2.81,6.97,6.61,6.97
			c1.88,0,3.47-0.61,4.94-1.55l1.18,2.2c-1.71,1.1-3.83,2.04-6.53,2.04c-5.3,0-9.5-3.87-9.5-10.36
			C92.71,628.58,97.07,624.62,101.6,624.62z M106.57,633.56c0-4.04-1.79-6.28-4.89-6.28c-2.77,0-5.3,2.28-5.71,6.28H106.57z"/>
		<path class="st6" d="M114.11,650.69c2.24,0,3.67-1.79,4.49-4.24l0.45-1.47l-7.95-19.86h3.47l4.04,10.97
			c0.61,1.71,1.31,3.75,1.92,5.59h0.16c0.57-1.79,1.14-3.83,1.67-5.59l3.55-10.97h3.26l-7.46,21.45c-1.39,3.92-3.43,6.89-7.42,6.89
			c-0.9,0-1.67-0.16-2.33-0.41l0.65-2.65C113.01,650.52,113.62,650.69,114.11,650.69z"/>
		<path class="st6" d="M139.96,624.62c4.85,0,9.18,3.79,9.18,10.44c0,6.57-4.32,10.36-9.18,10.36c-4.85,0-9.18-3.79-9.18-10.36
			C130.79,628.42,135.11,624.62,139.96,624.62z M139.96,642.65c3.43,0,5.71-3.06,5.71-7.59c0-4.57-2.28-7.67-5.71-7.67
			c-3.39,0-5.71,3.1-5.71,7.67C134.25,639.59,136.58,642.65,139.96,642.65z"/>
		<path class="st6" d="M153.93,625.11h2.77l0.29,2.86h0.12c1.88-1.88,3.92-3.35,6.65-3.35c4.16,0,6.04,2.69,6.04,7.75v12.56h-3.34
			v-12.11c0-3.71-1.14-5.3-3.75-5.3c-2.04,0-3.43,1.06-5.42,3.06v14.36h-3.35L153.93,625.11L153.93,625.11z"/>
		<path class="st6" d="M183.09,624.62c2.28,0,3.79,0.86,5.55,2.28l-0.16-3.38v-7.63h3.39v29.04h-2.77l-0.29-2.33h-0.12
			c-1.55,1.51-3.67,2.81-5.99,2.81c-4.98,0-8.2-3.75-8.2-10.36C174.48,628.62,178.56,624.62,183.09,624.62z M183.41,642.61
			c1.84,0,3.43-0.9,5.06-2.73v-10.36c-1.67-1.51-3.18-2.08-4.81-2.08c-3.18,0-5.71,3.06-5.71,7.59
			C177.95,639.76,179.95,642.61,183.41,642.61z"/>
		<path class="st6" d="M206.99,618.18h3.43v26.75h-3.43V618.18z"/>
		<path class="st6" d="M216.59,625.11h2.77l0.29,2.86h0.12c1.88-1.88,3.92-3.35,6.65-3.35c4.16,0,6.04,2.69,6.04,7.75v12.56h-3.34
			v-12.11c0-3.71-1.14-5.3-3.75-5.3c-2.04,0-3.43,1.06-5.42,3.06v14.36h-3.35L216.59,625.11L216.59,625.11z"/>
		<path class="st6" d="M245.75,624.62c2.28,0,3.79,0.86,5.55,2.28l-0.16-3.38v-7.63h3.39v29.04h-2.77l-0.29-2.33h-0.12
			c-1.55,1.51-3.67,2.81-5.99,2.81c-4.98,0-8.2-3.75-8.2-10.36C237.15,628.62,241.22,624.62,245.75,624.62z M246.08,642.61
			c1.84,0,3.43-0.9,5.06-2.73v-10.36c-1.67-1.51-3.18-2.08-4.81-2.08c-3.18,0-5.71,3.06-5.71,7.59
			C240.61,639.76,242.61,642.61,246.08,642.61z"/>
		<path class="st6" d="M259.9,618.88c0-1.31,1.02-2.16,2.32-2.16c1.31,0,2.33,0.86,2.33,2.16c0,1.26-1.02,2.16-2.33,2.16
			C260.92,621.04,259.9,620.14,259.9,618.88z M260.51,625.11h3.35v19.82h-3.35V625.11z"/>
		<path class="st6" d="M271.19,644.24v-0.16c-0.98-0.61-1.75-1.67-1.75-3.22c0-1.67,1.14-2.98,2.16-3.67v-0.16
			c-1.31-1.06-2.57-2.98-2.57-5.34c0-4.32,3.43-7.06,7.46-7.06c1.1,0,2.08,0.2,2.81,0.49h6.89v2.57h-4.08
			c0.94,0.9,1.63,2.41,1.63,4.08c0,4.24-3.22,6.89-7.26,6.89c-0.98,0-2.08-0.24-2.98-0.69c-0.69,0.61-1.26,1.26-1.26,2.36
			c0,1.26,0.82,2.16,3.51,2.16h3.83c4.61,0,6.93,1.43,6.93,4.73c0,3.67-3.87,6.85-10.03,6.85c-4.85,0-8.2-1.92-8.2-5.34
			C268.29,647.06,269.39,645.47,271.19,644.24z M276.98,651.75c3.79,0,6.28-1.96,6.28-4.04c0-1.83-1.43-2.45-4-2.45h-3.43
			c-0.77,0-1.71-0.08-2.57-0.33c-1.43,1.02-2.04,2.2-2.04,3.34C271.23,650.4,273.39,651.75,276.98,651.75z M280.69,631.68
			c0-2.9-1.88-4.61-4.2-4.61c-2.33,0-4.2,1.71-4.2,4.61c0,2.9,1.92,4.73,4.2,4.73S280.69,634.58,280.69,631.68z"/>
		<path class="st6" d="M297.38,624.62c4.85,0,9.18,3.79,9.18,10.44c0,6.57-4.32,10.36-9.18,10.36c-4.85,0-9.18-3.79-9.18-10.36
			C288.21,628.42,292.53,624.62,297.38,624.62z M297.38,642.65c3.43,0,5.71-3.06,5.71-7.59c0-4.57-2.28-7.67-5.71-7.67
			c-3.39,0-5.71,3.1-5.71,7.67C291.67,639.59,294,642.65,297.38,642.65z"/>
		<path class="st6" d="M320.23,618.18h15.42v2.86h-11.99v8.4h10.11v2.9h-10.11v9.71h12.4v2.9h-15.82v-26.77L320.23,618.18
			L320.23,618.18z"/>
		<path class="st6" d="M347.61,624.62c2.28,0,3.87,0.82,5.67,2.37h0.08l0.33-1.88h2.69v28.18h-3.39v-7.06l0.16-3.51
			c-1.59,1.47-3.67,2.69-5.95,2.69c-4.98,0-8.2-3.75-8.2-10.36C339,628.62,343.08,624.62,347.61,624.62z M347.93,642.61
			c1.84,0,3.43-0.9,5.06-2.73v-10.36c-1.67-1.51-3.18-2.08-4.81-2.08c-3.18,0-5.71,3.06-5.71,7.59
			C342.47,639.76,344.47,642.61,347.93,642.61z"/>
		<path class="st6" d="M362.08,625.11h3.38v12.11c0,3.71,1.1,5.3,3.71,5.3c2.04,0,3.47-1.02,5.34-3.34v-14.07h3.35v19.82h-2.77
			l-0.29-3.1h-0.12c-1.84,2.16-3.79,3.59-6.53,3.59c-4.2,0-6.08-2.69-6.08-7.75L362.08,625.11L362.08,625.11z"/>
		<path class="st6" d="M383.24,618.88c0-1.31,1.02-2.16,2.32-2.16s2.33,0.86,2.33,2.16c0,1.26-1.02,2.16-2.33,2.16
			S383.24,620.14,383.24,618.88z M383.85,625.11h3.35v19.82h-3.35V625.11z"/>
		<path class="st6" d="M393.12,625.11h2.77l0.29,2.86h0.12c1.88-1.88,3.92-3.35,6.65-3.35c4.16,0,6.04,2.69,6.04,7.75v12.56h-3.34
			v-12.11c0-3.71-1.14-5.3-3.75-5.3c-2.04,0-3.43,1.06-5.42,3.06v14.36h-3.35L393.12,625.11L393.12,625.11z"/>
		<path class="st6" d="M422.48,624.62c5.06,0,7.91,3.63,7.91,9.3c0,0.69-0.04,1.35-0.12,1.84H416.9c0.25,4.28,2.81,6.97,6.61,6.97
			c1.88,0,3.47-0.61,4.94-1.55l1.18,2.2c-1.71,1.1-3.83,2.04-6.53,2.04c-5.3,0-9.5-3.87-9.5-10.36
			C413.59,628.58,417.96,624.62,422.48,624.62z M427.46,633.56c0-4.04-1.79-6.28-4.89-6.28c-2.77,0-5.3,2.28-5.71,6.28H427.46z"/>
	</g>
	<g>
		<path class="st6" d="M307.79,641.97c0-2.04,1.48-3.43,3.27-3.43c1.81,0,3.29,1.39,3.29,3.43s-1.48,3.43-3.29,3.43
			C309.27,645.4,307.79,644.01,307.79,641.97z M313.65,641.97c0-1.64-1.13-2.8-2.59-2.8s-2.58,1.17-2.58,2.8
			c0,1.65,1.11,2.79,2.58,2.79C312.52,644.76,313.65,643.63,313.65,641.97z M309.81,640.16h1.32c0.73,0,1.36,0.3,1.36,1.13
			c0,0.42-0.26,0.82-0.64,0.96l0.8,1.45h-0.8l-0.61-1.22h-0.71v1.22h-0.71v-3.54L309.81,640.16L309.81,640.16z M310.97,641.92
			c0.47,0,0.75-0.21,0.75-0.59c0-0.35-0.19-0.57-0.71-0.57h-0.49v1.17L310.97,641.92L310.97,641.92L310.97,641.92z"/>
	</g>
	<g>
		<path class="st6" d="M303.68,591.95c-4.28-1.67-8.28,0.76-9.54,2.87c-2.32,3.9,1.34,6.82,1.34,6.82
			C296.63,598.18,299.89,593.61,303.68,591.95z"/>
		<path class="st6" d="M332.51,590.26c-4.9-3.09-8.79-3.81-13.26-3.16c1.81-3.22,4.77-5.27,7.72-7.54c4.25-3.27,13.5-6.29,13.5-6.29
			s-0.99,2.13-0.54,4.45c0.46,2.37,5.26,2.65,3.12,8.35c0,0-3.9-2.3-6.9-2.7C334.65,583.16,333.27,588.62,332.51,590.26z"/>
		<path class="st6" d="M293.51,619.42c0,0-1.37-20.15,14.81-27.89c2.8-1.34,7.8,7.62,6.03,8.44c-3.03,1.39-5.74,2.34-10.74,5.59
			C299.03,608.54,293.51,619.42,293.51,619.42z"/>
		<path class="st6" d="M312.17,590.26c3.45,1.91,4.7,4.63,5.2,8.9c0,0,2.58-1.37,8.59-1.73c8.39-0.5,17.69,9.08,17.69,9.08
			s-1.1-5.39-5.01-9.06C330.14,589.48,320.02,586.83,312.17,590.26z"/>
	</g>
</g>
<g>
	<g>
		<path class="st7" d="M820.43,618h15.44v2.85h-12.02v9.05h10.19v2.85h-10.19v11.98h-3.42V618z"/>
		<path class="st7" d="M838.61,624.93h3.38v12.1c0,3.71,1.1,5.3,3.71,5.3c2.04,0,3.46-1.02,5.34-3.34v-14.06h3.34v19.81h-2.77
			l-0.28-3.1h-0.12c-1.83,2.16-3.79,3.59-6.52,3.59c-4.2,0-6.07-2.69-6.07-7.74v-12.56H838.61z"/>
		<path class="st7" d="M860.35,624.93h2.77l0.28,2.85h0.12c1.88-1.88,3.91-3.34,6.64-3.34c4.16,0,6.03,2.69,6.03,7.74v12.55h-3.34
			v-12.1c0-3.71-1.14-5.3-3.75-5.3c-2.04,0-3.42,1.06-5.42,3.06v14.34h-3.34L860.35,624.93L860.35,624.93z"/>
		<path class="st7" d="M889.69,624.44c5.05,0,7.91,3.63,7.91,9.29c0,0.69-0.04,1.34-0.12,1.83H884.1c0.25,4.28,2.81,6.97,6.6,6.97
			c1.88,0,3.46-0.61,4.93-1.55l1.18,2.2c-1.71,1.1-3.83,2.04-6.52,2.04c-5.3,0-9.5-3.87-9.5-10.35
			C880.79,628.39,885.16,624.44,889.69,624.44z M894.66,633.36c0-4.03-1.79-6.28-4.89-6.28c-2.77,0-5.3,2.28-5.71,6.28H894.66z"/>
		<path class="st7" d="M902.22,624.93h2.77l0.28,3.59h0.12c1.34-2.49,3.38-4.07,5.62-4.07c0.86,0,1.47,0.12,2.12,0.41l-0.65,2.93
			c-0.65-0.2-1.1-0.33-1.92-0.33c-1.67,0-3.67,1.22-5.01,4.56v12.72h-3.34v-19.81L902.22,624.93L902.22,624.93z"/>
		<path class="st7" d="M927.47,632.18c0-2.53-0.86-4.97-4.08-4.97c-2.32,0-4.36,1.06-5.91,2.12l-1.34-2.32
			c1.83-1.18,4.6-2.57,7.78-2.57c4.85,0,6.89,3.22,6.89,8.15v12.14h-2.77l-0.28-2.36h-0.08c-1.92,1.55-4.12,2.85-6.56,2.85
			c-3.34,0-5.83-2.08-5.83-5.62C915.29,635.28,919.04,633.12,927.47,632.18z M922.05,642.53c1.92,0,3.5-0.94,5.42-2.65v-5.5
			c-6.64,0.81-8.88,2.44-8.88,4.97C918.59,641.59,920.09,642.53,922.05,642.53z"/>
		<path class="st7" d="M936.53,615.72h3.34v25.27c0,1.06,0.45,1.47,0.94,1.47c0.2,0,0.37,0,0.73-0.08l0.45,2.53
			c-0.45,0.2-1.02,0.33-1.92,0.33c-2.53,0-3.55-1.59-3.55-4.48L936.53,615.72L936.53,615.72z"/>
		<path class="st7" d="M946.48,640.25c1.71,1.39,3.46,2.36,5.83,2.36c2.61,0,3.91-1.39,3.91-3.1c0-2.04-2.36-2.93-4.52-3.75
			c-2.81-1.02-5.91-2.36-5.91-5.71c0-3.18,2.53-5.62,6.81-5.62c2.49,0,4.65,1.02,6.15,2.24l-1.59,2.12
			c-1.34-1.02-2.77-1.75-4.52-1.75c-2.49,0-3.63,1.34-3.63,2.85c0,1.83,2.16,2.57,4.4,3.42c2.85,1.06,6.03,2.24,6.03,5.99
			c0,3.22-2.57,5.91-7.25,5.91c-2.81,0-5.5-1.18-7.38-2.73L946.48,640.25z"/>
	</g>
	<g>
		
			<ellipse transform="matrix(0.4894 -0.8721 0.8721 0.4894 -123.0844 1011.0942)" class="st7" cx="801.87" cy="610.65" rx="6.64" ry="4.35"/>
		<g>
			<path class="st7" d="M808.45,627.4c-3.51,1.94-7.54,3.03-11.83,3.03c-0.6,0-1.2-0.02-1.8-0.06c-0.31-0.02-0.63-0.05-0.94-0.09
				c-0.24-0.04-0.32,0.2-0.19,0.32c0.39,0.41,0.73,0.86,1.01,1.36c2.23,3.89,0.37,9.59-3.8,14.53c-3.07,3.63-7.03,6.23-8.9,7.35
				c-0.16,0.14-0.08,0.3,0.16,0.25c4.94-1.5,10.22-3.99,15.47-9.26c4.26-4.28,8.26-10.27,11.1-17.18
				C808.8,627.46,808.61,627.33,808.45,627.4z"/>
		</g>
		<g>
			<path class="st7" d="M817.1,599.3c-0.07-0.2-0.27-0.14-0.29,0c-0.2,2.24-1.12,8.47-6.06,14.05c-5.83,6.57-13.62,8.8-20.28,8.33
				c-3.85-0.27-7.43-1.41-10.57-3.21c-0.22-0.12-0.37,0.09-0.26,0.24c3.43,4.86,8.84,8.16,15.43,8.63
				c12.12,0.85,21.88-8.35,22.73-20.47C817.98,604.23,817.73,601.69,817.1,599.3z"/>
		</g>
	</g>
	<g>
		<path class="st7" d="M541.56,618h7.95c5.42,0,9.21,1.83,9.21,6.52c0,2.65-1.51,5.01-4.69,5.83v0.16c3.91,0.61,6.19,2.73,6.19,6.4
			c0,5.26-4.16,7.82-10.11,7.82h-8.56L541.56,618L541.56,618z M548.94,629.41c4.52,0,6.44-1.63,6.44-4.6c0-2.89-2.16-4.12-6.28-4.12
			h-4.12v8.72H548.94z M549.63,642.04c4.57,0,7.25-1.67,7.25-5.3c0-3.3-2.57-4.81-7.25-4.81h-4.65v10.11H549.63z"/>
		<path class="st7" d="M572.53,624.44c5.05,0,7.91,3.63,7.91,9.29c0,0.69-0.04,1.34-0.12,1.83h-13.37c0.25,4.28,2.81,6.97,6.6,6.97
			c1.88,0,3.46-0.61,4.93-1.55l1.18,2.2c-1.71,1.1-3.83,2.04-6.52,2.04c-5.3,0-9.5-3.87-9.5-10.35
			C563.64,628.39,568.01,624.44,572.53,624.44z M577.5,633.36c0-4.03-1.79-6.28-4.89-6.28c-2.77,0-5.3,2.28-5.71,6.28H577.5z"/>
		<path class="st7" d="M585.04,650.48c2.24,0,3.67-1.79,4.48-4.24l0.45-1.47l-7.95-19.85h3.46l4.03,10.96
			c0.61,1.71,1.3,3.75,1.91,5.58h0.16c0.57-1.79,1.14-3.83,1.67-5.58l3.55-10.96h3.26l-7.46,21.44c-1.39,3.91-3.42,6.89-7.42,6.89
			c-0.9,0-1.67-0.16-2.32-0.41l0.65-2.65C583.93,650.32,584.55,650.48,585.04,650.48z"/>
		<path class="st7" d="M610.87,624.44c4.85,0,9.17,3.79,9.17,10.43c0,6.56-4.32,10.35-9.17,10.35s-9.17-3.79-9.17-10.35
			C601.7,628.23,606.02,624.44,610.87,624.44z M610.87,642.45c3.42,0,5.7-3.06,5.7-7.58c0-4.56-2.28-7.66-5.7-7.66
			c-3.38,0-5.71,3.1-5.71,7.66C605.16,639.39,607.48,642.45,610.87,642.45z"/>
		<path class="st7" d="M624.82,624.93h2.77l0.28,2.85h0.12c1.88-1.88,3.91-3.34,6.64-3.34c4.16,0,6.03,2.69,6.03,7.74v12.55h-3.34
			v-12.1c0-3.71-1.14-5.3-3.75-5.3c-2.04,0-3.42,1.06-5.42,3.06v14.34h-3.34L624.82,624.93L624.82,624.93z"/>
		<path class="st7" d="M653.96,624.44c2.28,0,3.79,0.86,5.54,2.28l-0.16-3.38v-7.62h3.38v29.02h-2.77l-0.28-2.32h-0.12
			c-1.55,1.51-3.67,2.81-5.99,2.81c-4.97,0-8.19-3.75-8.19-10.35C645.36,628.43,649.43,624.44,653.96,624.44z M654.28,642.41
			c1.83,0,3.42-0.9,5.05-2.73v-10.35c-1.67-1.51-3.18-2.08-4.81-2.08c-3.18,0-5.71,3.06-5.71,7.58
			C648.82,639.56,650.82,642.41,654.28,642.41z"/>
		<path class="st7" d="M677.85,618h3.42v26.73h-3.42V618z"/>
		<path class="st7" d="M687.44,624.93h2.77l0.28,2.85h0.12c1.88-1.88,3.91-3.34,6.64-3.34c4.16,0,6.03,2.69,6.03,7.74v12.55h-3.34
			v-12.1c0-3.71-1.14-5.3-3.75-5.3c-2.04,0-3.42,1.06-5.42,3.06v14.34h-3.34L687.44,624.93L687.44,624.93z"/>
		<path class="st7" d="M716.58,624.44c2.28,0,3.79,0.86,5.54,2.28l-0.16-3.38v-7.62h3.38v29.02h-2.77l-0.28-2.32h-0.12
			c-1.55,1.51-3.67,2.81-5.99,2.81c-4.97,0-8.19-3.75-8.19-10.35C707.98,628.43,712.05,624.44,716.58,624.44z M716.9,642.41
			c1.83,0,3.42-0.9,5.05-2.73v-10.35c-1.67-1.51-3.18-2.08-4.81-2.08c-3.18,0-5.71,3.06-5.71,7.58
			C711.44,639.56,713.44,642.41,716.9,642.41z"/>
		<path class="st7" d="M730.71,618.69c0-1.3,1.02-2.16,2.32-2.16s2.32,0.86,2.32,2.16c0,1.26-1.02,2.16-2.32,2.16
			C731.73,620.85,730.71,619.95,730.71,618.69z M731.32,624.93h3.34v19.81h-3.34V624.93z"/>
		<path class="st7" d="M741.99,644.04v-0.16c-0.98-0.61-1.75-1.67-1.75-3.22c0-1.67,1.14-2.97,2.16-3.67v-0.16
			c-1.3-1.06-2.57-2.97-2.57-5.34c0-4.32,3.42-7.05,7.46-7.05c1.1,0,2.08,0.2,2.81,0.49h6.89v2.57h-4.08
			c0.94,0.9,1.63,2.4,1.63,4.07c0,4.24-3.22,6.89-7.25,6.89c-0.98,0-2.08-0.24-2.97-0.69c-0.69,0.61-1.26,1.26-1.26,2.36
			c0,1.26,0.81,2.16,3.5,2.16h3.83c4.6,0,6.93,1.43,6.93,4.73c0,3.67-3.87,6.85-10.03,6.85c-4.85,0-8.19-1.92-8.19-5.34
			C739.1,646.85,740.2,645.26,741.99,644.04z M747.78,651.54c3.79,0,6.28-1.96,6.28-4.03c0-1.83-1.43-2.45-3.99-2.45h-3.42
			c-0.77,0-1.71-0.08-2.57-0.33c-1.43,1.02-2.04,2.2-2.04,3.34C742.03,650.19,744.19,651.54,747.78,651.54z M751.49,631.49
			c0-2.89-1.87-4.6-4.2-4.6s-4.2,1.71-4.2,4.6s1.91,4.73,4.2,4.73C749.57,636.22,751.49,634.38,751.49,631.49z"/>
		<path class="st7" d="M768.17,624.44c4.85,0,9.17,3.79,9.17,10.43c0,6.56-4.32,10.35-9.17,10.35s-9.17-3.79-9.17-10.35
			C759,628.23,763.32,624.44,768.17,624.44z M768.17,642.45c3.42,0,5.7-3.06,5.7-7.58c0-4.56-2.28-7.66-5.7-7.66
			c-3.38,0-5.71,3.1-5.71,7.66C762.46,639.39,764.78,642.45,768.17,642.45z"/>
		<g>
			<path class="st7" d="M778.56,641.75c0-2.04,1.48-3.43,3.27-3.43c1.81,0,3.29,1.39,3.29,3.43s-1.48,3.43-3.29,3.43
				C780.04,645.18,778.56,643.79,778.56,641.75z M784.43,641.75c0-1.64-1.13-2.8-2.59-2.8s-2.57,1.17-2.57,2.8
				c0,1.65,1.11,2.78,2.57,2.78C783.29,644.53,784.43,643.4,784.43,641.75z M780.58,639.94h1.32c0.73,0,1.36,0.3,1.36,1.13
				c0,0.42-0.26,0.82-0.64,0.96l0.8,1.44h-0.8l-0.61-1.22h-0.71v1.22h-0.71L780.58,639.94L780.58,639.94z M781.75,641.7
				c0.47,0,0.75-0.21,0.75-0.59c0-0.35-0.19-0.57-0.71-0.57h-0.49v1.17L781.75,641.7L781.75,641.7z"/>
		</g>
	</g>
</g>
<g>
	<g>
		<path class="st0" d="M70.6,865.74h7.95c5.42,0,9.22,1.84,9.22,6.53c0,2.65-1.51,5.02-4.69,5.83v0.16c3.92,0.61,6.2,2.73,6.2,6.4
			c0,5.26-4.16,7.83-10.11,7.83H70.6V865.74z M77.99,877.16c4.53,0,6.44-1.63,6.44-4.61c0-2.9-2.16-4.12-6.28-4.12h-4.12v8.73H77.99
			L77.99,877.16z M78.68,889.81c4.57,0,7.26-1.67,7.26-5.3c0-3.3-2.57-4.81-7.26-4.81h-4.65v10.11H78.68z"/>
		<path class="st0" d="M101.6,872.19c5.06,0,7.91,3.63,7.91,9.3c0,0.69-0.04,1.35-0.12,1.84H96.01c0.25,4.28,2.81,6.97,6.61,6.97
			c1.88,0,3.47-0.61,4.94-1.55l1.18,2.2c-1.71,1.1-3.83,2.04-6.53,2.04c-5.3,0-9.5-3.87-9.5-10.36
			C92.71,876.14,97.07,872.19,101.6,872.19z M106.57,881.12c0-4.04-1.79-6.28-4.89-6.28c-2.77,0-5.3,2.28-5.71,6.28H106.57z"/>
		<path class="st0" d="M114.11,898.25c2.24,0,3.67-1.79,4.49-4.24l0.45-1.47l-7.95-19.86h3.47l4.04,10.97
			c0.61,1.71,1.31,3.75,1.92,5.59h0.16c0.57-1.79,1.14-3.83,1.67-5.59l3.55-10.97h3.26l-7.46,21.45c-1.39,3.92-3.43,6.89-7.42,6.89
			c-0.9,0-1.67-0.16-2.33-0.41l0.65-2.65C113.01,898.09,113.62,898.25,114.11,898.25z"/>
		<path class="st0" d="M139.96,872.19c4.85,0,9.18,3.79,9.18,10.44c0,6.57-4.32,10.36-9.18,10.36c-4.85,0-9.18-3.79-9.18-10.36
			C130.79,875.98,135.11,872.19,139.96,872.19z M139.96,890.21c3.43,0,5.71-3.06,5.71-7.59c0-4.57-2.28-7.67-5.71-7.67
			c-3.39,0-5.71,3.1-5.71,7.67C134.25,887.16,136.58,890.21,139.96,890.21z"/>
		<path class="st0" d="M153.93,872.68h2.77l0.29,2.86h0.12c1.88-1.88,3.92-3.35,6.65-3.35c4.16,0,6.04,2.69,6.04,7.75v12.56h-3.34
			v-12.11c0-3.71-1.14-5.3-3.75-5.3c-2.04,0-3.43,1.06-5.42,3.06v14.36h-3.35L153.93,872.68L153.93,872.68z"/>
		<path class="st0" d="M183.09,872.19c2.28,0,3.79,0.86,5.55,2.28l-0.16-3.38v-7.63h3.39v29.04h-2.77l-0.29-2.33h-0.12
			c-1.55,1.51-3.67,2.81-5.99,2.81c-4.98,0-8.2-3.75-8.2-10.36C174.48,876.18,178.56,872.19,183.09,872.19z M183.41,890.17
			c1.84,0,3.43-0.9,5.06-2.73v-10.36c-1.67-1.51-3.18-2.08-4.81-2.08c-3.18,0-5.71,3.06-5.71,7.59
			C177.95,887.32,179.95,890.17,183.41,890.17z"/>
		<path class="st0" d="M206.99,865.74h3.43v26.75h-3.43V865.74z"/>
		<path class="st0" d="M216.59,872.68h2.77l0.29,2.86h0.12c1.88-1.88,3.92-3.35,6.65-3.35c4.16,0,6.04,2.69,6.04,7.75v12.56h-3.34
			v-12.11c0-3.71-1.14-5.3-3.75-5.3c-2.04,0-3.43,1.06-5.42,3.06v14.36h-3.35L216.59,872.68L216.59,872.68z"/>
		<path class="st0" d="M245.75,872.19c2.28,0,3.79,0.86,5.55,2.28l-0.16-3.38v-7.63h3.39v29.04h-2.77l-0.29-2.33h-0.12
			c-1.55,1.51-3.67,2.81-5.99,2.81c-4.98,0-8.2-3.75-8.2-10.36C237.15,876.18,241.22,872.19,245.75,872.19z M246.08,890.17
			c1.84,0,3.43-0.9,5.06-2.73v-10.36c-1.67-1.51-3.18-2.08-4.81-2.08c-3.18,0-5.71,3.06-5.71,7.59
			C240.61,887.32,242.61,890.17,246.08,890.17z"/>
		<path class="st0" d="M259.9,866.44c0-1.31,1.02-2.16,2.32-2.16c1.31,0,2.33,0.86,2.33,2.16c0,1.26-1.02,2.16-2.33,2.16
			C260.92,868.6,259.9,867.7,259.9,866.44z M260.51,872.68h3.35v19.82h-3.35V872.68z"/>
		<path class="st0" d="M271.19,891.8v-0.16c-0.98-0.61-1.75-1.67-1.75-3.22c0-1.67,1.14-2.98,2.16-3.67v-0.16
			c-1.31-1.06-2.57-2.98-2.57-5.34c0-4.32,3.43-7.06,7.46-7.06c1.1,0,2.08,0.2,2.81,0.49h6.89v2.57h-4.08
			c0.94,0.9,1.63,2.41,1.63,4.08c0,4.24-3.22,6.89-7.26,6.89c-0.98,0-2.08-0.24-2.98-0.69c-0.69,0.61-1.26,1.26-1.26,2.36
			c0,1.26,0.82,2.16,3.51,2.16h3.83c4.61,0,6.93,1.43,6.93,4.73c0,3.67-3.87,6.85-10.03,6.85c-4.85,0-8.2-1.92-8.2-5.34
			C268.29,894.62,269.39,893.03,271.19,891.8z M276.98,899.31c3.79,0,6.28-1.96,6.28-4.04c0-1.83-1.43-2.45-4-2.45h-3.43
			c-0.77,0-1.71-0.08-2.57-0.33c-1.43,1.02-2.04,2.2-2.04,3.34C271.23,897.96,273.39,899.31,276.98,899.31z M280.69,879.24
			c0-2.9-1.88-4.61-4.2-4.61c-2.33,0-4.2,1.71-4.2,4.61c0,2.9,1.92,4.73,4.2,4.73S280.69,882.14,280.69,879.24z"/>
		<path class="st0" d="M297.38,872.19c4.85,0,9.18,3.79,9.18,10.44c0,6.57-4.32,10.36-9.18,10.36c-4.85,0-9.18-3.79-9.18-10.36
			C288.21,875.98,292.53,872.19,297.38,872.19z M297.38,890.21c3.43,0,5.71-3.06,5.71-7.59c0-4.57-2.28-7.67-5.71-7.67
			c-3.39,0-5.71,3.1-5.71,7.67C291.67,887.16,294,890.21,297.38,890.21z"/>
		<path class="st0" d="M320.23,865.74h15.42v2.86h-11.99v8.4h10.11v2.9h-10.11v9.71h12.4v2.9h-15.82v-26.77L320.23,865.74
			L320.23,865.74z"/>
		<path class="st0" d="M347.61,872.19c2.28,0,3.87,0.82,5.67,2.37h0.08l0.33-1.88h2.69v28.18h-3.39v-7.06l0.16-3.51
			c-1.59,1.47-3.67,2.69-5.95,2.69c-4.98,0-8.2-3.75-8.2-10.36C339,876.18,343.08,872.19,347.61,872.19z M347.93,890.17
			c1.84,0,3.43-0.9,5.06-2.73v-10.36c-1.67-1.51-3.18-2.08-4.81-2.08c-3.18,0-5.71,3.06-5.71,7.59
			C342.47,887.32,344.47,890.17,347.93,890.17z"/>
		<path class="st0" d="M362.08,872.68h3.38v12.11c0,3.71,1.1,5.3,3.71,5.3c2.04,0,3.47-1.02,5.34-3.34v-14.07h3.35v19.82h-2.77
			l-0.29-3.1h-0.12c-1.84,2.16-3.79,3.59-6.53,3.59c-4.2,0-6.08-2.69-6.08-7.75L362.08,872.68L362.08,872.68z"/>
		<path class="st0" d="M383.24,866.44c0-1.31,1.02-2.16,2.32-2.16s2.33,0.86,2.33,2.16c0,1.26-1.02,2.16-2.33,2.16
			S383.24,867.7,383.24,866.44z M383.85,872.68h3.35v19.82h-3.35V872.68z"/>
		<path class="st0" d="M393.12,872.68h2.77l0.29,2.86h0.12c1.88-1.88,3.92-3.35,6.65-3.35c4.16,0,6.04,2.69,6.04,7.75v12.56h-3.34
			v-12.11c0-3.71-1.14-5.3-3.75-5.3c-2.04,0-3.43,1.06-5.42,3.06v14.36h-3.35L393.12,872.68L393.12,872.68z"/>
		<path class="st0" d="M422.48,872.19c5.06,0,7.91,3.63,7.91,9.3c0,0.69-0.04,1.35-0.12,1.84H416.9c0.25,4.28,2.81,6.97,6.61,6.97
			c1.88,0,3.47-0.61,4.94-1.55l1.18,2.2c-1.71,1.1-3.83,2.04-6.53,2.04c-5.3,0-9.5-3.87-9.5-10.36
			C413.59,876.14,417.96,872.19,422.48,872.19z M427.46,881.12c0-4.04-1.79-6.28-4.89-6.28c-2.77,0-5.3,2.28-5.71,6.28H427.46z"/>
	</g>
	<g>
		<path class="st0" d="M307.79,889.54c0-2.04,1.48-3.43,3.27-3.43c1.81,0,3.29,1.39,3.29,3.43s-1.48,3.43-3.29,3.43
			C309.27,892.97,307.79,891.57,307.79,889.54z M313.65,889.54c0-1.64-1.13-2.8-2.59-2.8s-2.58,1.17-2.58,2.8
			c0,1.65,1.11,2.79,2.58,2.79C312.52,892.32,313.65,891.19,313.65,889.54z M309.81,887.73h1.32c0.73,0,1.36,0.3,1.36,1.13
			c0,0.42-0.26,0.82-0.64,0.96l0.8,1.45h-0.8l-0.61-1.22h-0.71v1.22h-0.71v-3.54L309.81,887.73L309.81,887.73z M310.97,889.48
			c0.47,0,0.75-0.21,0.75-0.59c0-0.35-0.19-0.57-0.71-0.57h-0.49v1.17L310.97,889.48L310.97,889.48L310.97,889.48z"/>
	</g>
	<g>
		<path class="st0" d="M303.68,839.51c-4.28-1.67-8.28,0.76-9.54,2.87c-2.32,3.9,1.34,6.82,1.34,6.82
			C296.63,845.74,299.89,841.17,303.68,839.51z"/>
		<path class="st0" d="M332.51,837.83c-4.9-3.09-8.79-3.81-13.26-3.16c1.81-3.22,4.77-5.27,7.72-7.54c4.25-3.27,13.5-6.29,13.5-6.29
			s-0.99,2.13-0.54,4.45c0.46,2.37,5.26,2.65,3.12,8.35c0,0-3.9-2.3-6.9-2.7C334.65,830.72,333.27,836.18,332.51,837.83z"/>
		<path class="st0" d="M293.51,866.98c0,0-1.37-20.15,14.81-27.89c2.8-1.34,7.8,7.62,6.03,8.44c-3.03,1.39-5.74,2.34-10.74,5.59
			C299.03,856.11,293.51,866.98,293.51,866.98z"/>
		<path class="st0" d="M312.17,837.83c3.45,1.91,4.7,4.63,5.2,8.9c0,0,2.58-1.37,8.59-1.73c8.39-0.5,17.69,9.08,17.69,9.08
			s-1.1-5.39-5.01-9.06C330.14,837.04,320.02,834.39,312.17,837.83z"/>
	</g>
</g>
<g>
	<g>
		<path class="st0" d="M820.43,865.56h15.44v2.85h-12.02v9.05h10.19v2.85h-10.19v11.98h-3.42V865.56z"/>
		<path class="st0" d="M838.61,872.49h3.38v12.1c0,3.71,1.1,5.3,3.71,5.3c2.04,0,3.46-1.02,5.34-3.34v-14.06h3.34v19.81h-2.77
			l-0.28-3.1h-0.12c-1.83,2.16-3.79,3.59-6.52,3.59c-4.2,0-6.07-2.69-6.07-7.74v-12.56H838.61z"/>
		<path class="st0" d="M860.35,872.49h2.77l0.28,2.85h0.12c1.88-1.88,3.91-3.34,6.64-3.34c4.16,0,6.03,2.69,6.03,7.74v12.55h-3.34
			v-12.1c0-3.71-1.14-5.3-3.75-5.3c-2.04,0-3.42,1.06-5.42,3.06v14.34h-3.34L860.35,872.49L860.35,872.49z"/>
		<path class="st0" d="M889.69,872c5.05,0,7.91,3.63,7.91,9.29c0,0.69-0.04,1.34-0.12,1.83H884.1c0.25,4.28,2.81,6.97,6.6,6.97
			c1.88,0,3.46-0.61,4.93-1.55l1.18,2.2c-1.71,1.1-3.83,2.04-6.52,2.04c-5.3,0-9.5-3.87-9.5-10.35
			C880.8,875.95,885.16,872,889.69,872z M894.66,880.92c0-4.03-1.79-6.28-4.89-6.28c-2.77,0-5.3,2.28-5.71,6.28H894.66z"/>
		<path class="st0" d="M902.22,872.49h2.77l0.28,3.59h0.12c1.34-2.49,3.38-4.07,5.62-4.07c0.86,0,1.47,0.12,2.12,0.41l-0.65,2.93
			c-0.65-0.2-1.1-0.33-1.92-0.33c-1.67,0-3.67,1.22-5.01,4.56v12.72h-3.34v-19.81L902.22,872.49L902.22,872.49z"/>
		<path class="st0" d="M927.47,879.74c0-2.53-0.86-4.97-4.08-4.97c-2.32,0-4.36,1.06-5.91,2.12l-1.34-2.32
			c1.83-1.18,4.6-2.57,7.78-2.57c4.85,0,6.89,3.22,6.89,8.15v12.14h-2.77l-0.28-2.36h-0.08c-1.92,1.55-4.12,2.85-6.56,2.85
			c-3.34,0-5.83-2.08-5.83-5.62C915.29,882.84,919.04,880.68,927.47,879.74z M922.05,890.09c1.92,0,3.5-0.94,5.42-2.65v-5.5
			c-6.64,0.81-8.88,2.44-8.88,4.97C918.59,889.16,920.09,890.09,922.05,890.09z"/>
		<path class="st0" d="M936.53,863.28h3.34v25.27c0,1.06,0.45,1.47,0.94,1.47c0.2,0,0.37,0,0.73-0.08l0.45,2.53
			c-0.45,0.2-1.02,0.33-1.92,0.33c-2.53,0-3.55-1.59-3.55-4.48L936.53,863.28L936.53,863.28z"/>
		<path class="st0" d="M946.48,887.81c1.71,1.39,3.46,2.36,5.83,2.36c2.61,0,3.91-1.39,3.91-3.1c0-2.04-2.36-2.93-4.52-3.75
			c-2.81-1.02-5.91-2.36-5.91-5.71c0-3.18,2.53-5.62,6.81-5.62c2.49,0,4.65,1.02,6.15,2.24l-1.59,2.12
			c-1.34-1.02-2.77-1.75-4.52-1.75c-2.49,0-3.63,1.34-3.63,2.85c0,1.83,2.16,2.57,4.4,3.42c2.85,1.06,6.03,2.24,6.03,5.99
			c0,3.22-2.57,5.91-7.25,5.91c-2.81,0-5.5-1.18-7.38-2.73L946.48,887.81z"/>
	</g>
	<g>
		
			<ellipse transform="matrix(0.4894 -0.8721 0.8721 0.4894 -338.9779 1137.5323)" class="st0" cx="801.89" cy="858.23" rx="6.64" ry="4.35"/>
		<g>
			<path class="st0" d="M808.45,874.96c-3.51,1.94-7.54,3.03-11.83,3.03c-0.6,0-1.2-0.02-1.8-0.06c-0.31-0.02-0.63-0.05-0.94-0.09
				c-0.24-0.04-0.32,0.2-0.19,0.32c0.39,0.41,0.73,0.86,1.01,1.36c2.23,3.89,0.37,9.59-3.8,14.53c-3.07,3.63-7.03,6.23-8.9,7.35
				c-0.16,0.14-0.08,0.3,0.16,0.25c4.94-1.5,10.22-3.99,15.47-9.26c4.26-4.28,8.26-10.27,11.1-17.18
				C808.8,875.02,808.61,874.89,808.45,874.96z"/>
		</g>
		<g>
			<path class="st0" d="M817.1,846.86c-0.07-0.2-0.27-0.14-0.29,0c-0.2,2.24-1.12,8.47-6.06,14.05c-5.83,6.57-13.62,8.8-20.28,8.33
				c-3.85-0.27-7.43-1.41-10.57-3.21c-0.22-0.12-0.37,0.09-0.26,0.24c3.43,4.86,8.84,8.16,15.43,8.63
				c12.12,0.85,21.88-8.35,22.73-20.47C817.98,851.79,817.73,849.25,817.1,846.86z"/>
		</g>
	</g>
	<g>
		<path class="st0" d="M541.56,865.56h7.95c5.42,0,9.21,1.83,9.21,6.52c0,2.65-1.51,5.01-4.69,5.83v0.16
			c3.91,0.61,6.19,2.73,6.19,6.4c0,5.26-4.16,7.82-10.11,7.82h-8.56L541.56,865.56L541.56,865.56z M548.94,876.97
			c4.52,0,6.44-1.63,6.44-4.6c0-2.89-2.16-4.12-6.28-4.12h-4.12v8.72H548.94z M549.63,889.61c4.57,0,7.25-1.67,7.25-5.3
			c0-3.3-2.57-4.81-7.25-4.81h-4.65v10.11H549.63z"/>
		<path class="st0" d="M572.53,872c5.05,0,7.91,3.63,7.91,9.29c0,0.69-0.04,1.34-0.12,1.83h-13.37c0.25,4.28,2.81,6.97,6.6,6.97
			c1.88,0,3.46-0.61,4.93-1.55l1.18,2.2c-1.71,1.1-3.83,2.04-6.52,2.04c-5.3,0-9.5-3.87-9.5-10.35
			C563.64,875.95,568.01,872,572.53,872z M577.5,880.92c0-4.03-1.79-6.28-4.89-6.28c-2.77,0-5.3,2.28-5.71,6.28H577.5z"/>
		<path class="st0" d="M585.04,898.04c2.24,0,3.67-1.79,4.48-4.24l0.45-1.47l-7.95-19.85h3.46l4.03,10.96
			c0.61,1.71,1.3,3.75,1.91,5.58h0.16c0.57-1.79,1.14-3.83,1.67-5.58l3.55-10.96h3.26l-7.46,21.44c-1.39,3.91-3.42,6.89-7.42,6.89
			c-0.9,0-1.67-0.16-2.32-0.41l0.65-2.65C583.93,897.88,584.55,898.04,585.04,898.04z"/>
		<path class="st0" d="M610.87,872c4.85,0,9.17,3.79,9.17,10.43c0,6.56-4.32,10.35-9.17,10.35s-9.17-3.79-9.17-10.35
			C601.7,875.79,606.02,872,610.87,872z M610.87,890.01c3.42,0,5.7-3.06,5.7-7.58c0-4.56-2.28-7.66-5.7-7.66
			c-3.38,0-5.71,3.1-5.71,7.66C605.16,886.96,607.48,890.01,610.87,890.01z"/>
		<path class="st0" d="M624.82,872.49h2.77l0.28,2.85h0.12c1.88-1.88,3.91-3.34,6.64-3.34c4.16,0,6.03,2.69,6.03,7.74v12.55h-3.34
			v-12.1c0-3.71-1.14-5.3-3.75-5.3c-2.04,0-3.42,1.06-5.42,3.06v14.34h-3.34L624.82,872.49L624.82,872.49z"/>
		<path class="st0" d="M653.96,872c2.28,0,3.79,0.86,5.54,2.28l-0.16-3.38v-7.62h3.38v29.02h-2.77l-0.28-2.32h-0.12
			c-1.55,1.51-3.67,2.81-5.99,2.81c-4.97,0-8.19-3.75-8.19-10.35C645.36,875.99,649.43,872,653.96,872z M654.28,889.97
			c1.83,0,3.42-0.9,5.05-2.73v-10.35c-1.67-1.51-3.18-2.08-4.81-2.08c-3.18,0-5.71,3.06-5.71,7.58
			C648.82,887.12,650.82,889.97,654.28,889.97z"/>
		<path class="st0" d="M677.85,865.56h3.42v26.73h-3.42V865.56z"/>
		<path class="st0" d="M687.44,872.49h2.77l0.28,2.85h0.12c1.88-1.88,3.91-3.34,6.64-3.34c4.16,0,6.03,2.69,6.03,7.74v12.55h-3.34
			v-12.1c0-3.71-1.14-5.3-3.75-5.3c-2.04,0-3.42,1.06-5.42,3.06v14.34h-3.34L687.44,872.49L687.44,872.49z"/>
		<path class="st0" d="M716.58,872c2.28,0,3.79,0.86,5.54,2.28l-0.16-3.38v-7.62h3.38v29.02h-2.77l-0.28-2.32h-0.12
			c-1.55,1.51-3.67,2.81-5.99,2.81c-4.97,0-8.19-3.75-8.19-10.35C707.98,875.99,712.05,872,716.58,872z M716.9,889.97
			c1.83,0,3.42-0.9,5.05-2.73v-10.35c-1.67-1.51-3.18-2.08-4.81-2.08c-3.18,0-5.71,3.06-5.71,7.58
			C711.44,887.12,713.44,889.97,716.9,889.97z"/>
		<path class="st0" d="M730.71,866.25c0-1.3,1.02-2.16,2.32-2.16s2.32,0.86,2.32,2.16c0,1.26-1.02,2.16-2.32,2.16
			C731.73,868.41,730.71,867.52,730.71,866.25z M731.32,872.49h3.34v19.81h-3.34V872.49z"/>
		<path class="st0" d="M741.99,891.6v-0.16c-0.98-0.61-1.75-1.67-1.75-3.22c0-1.67,1.14-2.97,2.16-3.67v-0.16
			c-1.3-1.06-2.57-2.97-2.57-5.34c0-4.32,3.42-7.05,7.46-7.05c1.1,0,2.08,0.2,2.81,0.49h6.89v2.57h-4.08
			c0.94,0.9,1.63,2.4,1.63,4.07c0,4.24-3.22,6.89-7.25,6.89c-0.98,0-2.08-0.24-2.97-0.69c-0.69,0.61-1.26,1.26-1.26,2.36
			c0,1.26,0.81,2.16,3.5,2.16h3.83c4.6,0,6.93,1.43,6.93,4.73c0,3.67-3.87,6.85-10.03,6.85c-4.85,0-8.19-1.92-8.19-5.34
			C739.1,894.41,740.2,892.83,741.99,891.6z M747.78,899.1c3.79,0,6.28-1.96,6.28-4.03c0-1.83-1.43-2.45-3.99-2.45h-3.42
			c-0.77,0-1.71-0.08-2.57-0.33c-1.43,1.02-2.04,2.2-2.04,3.34C742.03,897.76,744.19,899.1,747.78,899.1z M751.49,879.05
			c0-2.89-1.87-4.6-4.2-4.6s-4.2,1.71-4.2,4.6s1.91,4.73,4.2,4.73C749.57,883.78,751.49,881.94,751.49,879.05z"/>
		<path class="st0" d="M768.17,872c4.85,0,9.17,3.79,9.17,10.43c0,6.56-4.32,10.35-9.17,10.35s-9.17-3.79-9.17-10.35
			C759,875.79,763.32,872,768.17,872z M768.17,890.01c3.42,0,5.7-3.06,5.7-7.58c0-4.56-2.28-7.66-5.7-7.66
			c-3.38,0-5.71,3.1-5.71,7.66C762.46,886.96,764.78,890.01,768.17,890.01z"/>
		<g>
			<path class="st0" d="M778.56,889.31c0-2.04,1.48-3.43,3.27-3.43c1.81,0,3.29,1.39,3.29,3.43s-1.48,3.43-3.29,3.43
				C780.04,892.74,778.56,891.35,778.56,889.31z M784.43,889.31c0-1.64-1.13-2.8-2.59-2.8s-2.57,1.17-2.57,2.8
				c0,1.65,1.11,2.78,2.57,2.78C783.29,892.1,784.43,890.97,784.43,889.31z M780.58,887.5h1.32c0.73,0,1.36,0.3,1.36,1.13
				c0,0.42-0.26,0.82-0.64,0.96l0.8,1.44h-0.8l-0.61-1.22h-0.71v1.22h-0.71L780.58,887.5L780.58,887.5z M781.75,889.26
				c0.47,0,0.75-0.21,0.75-0.59c0-0.35-0.19-0.57-0.71-0.57h-0.49v1.17L781.75,889.26L781.75,889.26z"/>
		</g>
	</g>
</g>
<g>
	<g>
		<g>
			<path class="st3" d="M176.58,172.97h2.78l0.29,3.6h0.12c1.35-2.49,3.39-4.09,5.64-4.09c0.86,0,1.47,0.12,2.12,0.41l-0.65,2.94
				c-0.65-0.2-1.1-0.33-1.92-0.33c-1.68,0-3.68,1.23-5.03,4.58v12.75h-3.35V172.97z"/>
			<path class="st3" d="M189.81,166.72c0-1.31,1.02-2.17,2.33-2.17c1.31,0,2.33,0.86,2.33,2.17c0,1.27-1.02,2.17-2.33,2.17
				C190.83,168.89,189.81,167.99,189.81,166.72z M190.43,172.97h3.35v19.85h-3.35V172.97z"/>
			<path class="st3" d="M206.94,172.48c5.07,0,7.93,3.64,7.93,9.31c0,0.69-0.04,1.35-0.12,1.84h-13.4c0.25,4.29,2.82,6.99,6.62,6.99
				c1.88,0,3.47-0.61,4.94-1.55l1.18,2.21c-1.72,1.1-3.84,2.04-6.54,2.04c-5.31,0-9.52-3.88-9.52-10.38S202.4,172.48,206.94,172.48z
				 M211.92,181.43c0-4.04-1.8-6.29-4.9-6.29c-2.78,0-5.31,2.29-5.72,6.29H211.92z"/>
			<path class="st3" d="M216.15,172.97h3.47l3.76,11.28c0.57,1.96,1.23,3.96,1.84,5.84h0.16c0.57-1.88,1.23-3.88,1.8-5.84
				l3.76-11.28h3.31l-7.03,19.85h-3.92L216.15,172.97z"/>
			<path class="st3" d="M236.83,166.72c0-1.31,1.02-2.17,2.33-2.17s2.33,0.86,2.33,2.17c0,1.27-1.02,2.17-2.33,2.17
				S236.83,167.99,236.83,166.72z M237.44,172.97h3.35v19.85h-3.35V172.97z"/>
			<path class="st3" d="M246.33,172.97h2.78l0.29,2.86h0.12c1.88-1.88,3.92-3.35,6.66-3.35c4.17,0,6.05,2.7,6.05,7.76v12.58h-3.35
				v-12.13c0-3.72-1.14-5.31-3.76-5.31c-2.04,0-3.43,1.06-5.43,3.06v14.38h-3.35V172.97z"/>
			<path class="st3" d="M269.01,192.13v-0.16c-0.98-0.61-1.76-1.68-1.76-3.23c0-1.67,1.14-2.98,2.17-3.68v-0.16
				c-1.31-1.06-2.57-2.98-2.57-5.35c0-4.33,3.43-7.07,7.48-7.07c1.1,0,2.08,0.2,2.82,0.49h6.9v2.57h-4.09
				c0.94,0.9,1.63,2.41,1.63,4.09c0,4.25-3.23,6.9-7.27,6.9c-0.98,0-2.08-0.25-2.98-0.69c-0.69,0.61-1.27,1.27-1.27,2.37
				c0,1.27,0.82,2.17,3.51,2.17h3.84c4.62,0,6.94,1.43,6.94,4.74c0,3.68-3.88,6.86-10.05,6.86c-4.86,0-8.21-1.92-8.21-5.35
				C266.11,194.95,267.21,193.36,269.01,192.13z M274.81,199.65c3.8,0,6.29-1.96,6.29-4.04c0-1.84-1.43-2.45-4-2.45h-3.43
				c-0.78,0-1.72-0.08-2.57-0.33c-1.43,1.02-2.04,2.21-2.04,3.35C269.05,198.3,271.21,199.65,274.81,199.65z M278.53,179.55
				c0-2.9-1.88-4.62-4.21-4.62c-2.33,0-4.21,1.72-4.21,4.62c0,2.9,1.92,4.74,4.21,4.74C276.61,184.29,278.53,182.45,278.53,179.55z"
				/>
			<path class="st3" d="M289.3,188.17c1.31,0,2.41,1.06,2.41,2.61c0,1.47-1.1,2.53-2.41,2.53c-1.35,0-2.45-1.06-2.45-2.53
				C286.85,189.23,287.95,188.17,289.3,188.17z"/>
			<path class="st3" d="M304.36,172.48c2.61,0,4.45,1.1,5.8,2.37l-1.68,2.17c-1.18-1.02-2.41-1.76-4-1.76c-3.6,0-6.21,3.1-6.21,7.68
				c0,4.53,2.49,7.6,6.13,7.6c1.88,0,3.47-0.94,4.66-2l1.51,2.21c-1.8,1.59-4.09,2.57-6.45,2.57c-5.27,0-9.31-3.8-9.31-10.38
				C294.8,176.28,299.25,172.48,304.36,172.48z"/>
			<path class="st3" d="M321.31,172.48c4.86,0,9.19,3.8,9.19,10.46c0,6.58-4.33,10.38-9.19,10.38s-9.19-3.8-9.19-10.38
				C312.12,176.28,316.45,172.48,321.31,172.48z M321.31,190.54c3.43,0,5.72-3.06,5.72-7.6c0-4.58-2.29-7.68-5.72-7.68
				c-3.39,0-5.72,3.1-5.72,7.68C315.59,187.47,317.92,190.54,321.31,190.54z"/>
			<path class="st3" d="M334.51,172.97h2.78l0.29,2.86h0.12c1.72-1.88,3.8-3.35,6.17-3.35c3.02,0,4.66,1.43,5.47,3.8
				c2.08-2.25,4.13-3.8,6.54-3.8c4.08,0,6.05,2.7,6.05,7.76v12.58h-3.35v-12.13c0-3.72-1.18-5.31-3.68-5.31
				c-1.55,0-3.15,1.02-4.98,3.06v14.38h-3.35v-12.13c0-3.72-1.18-5.31-3.72-5.31c-1.47,0-3.15,1.02-4.98,3.06v14.38h-3.35V172.97z"
				/>
		</g>
		<g>
			<path class="st3" d="M366.64,189.26h-1.56v-0.85h4.07v0.85h-1.57v4.02h-0.94V189.26z M369.9,188.41h1.18l0.72,1.76l0.42,1.24
				h0.06l0.42-1.24l0.71-1.76h1.16v4.87h-0.9v-2.15l0.09-1.65h-0.06l-1.12,3.05h-0.71l-1.13-3.05h-0.06l0.11,1.65v2.15h-0.91V188.41
				z"/>
		</g>
	</g>
	<g>
		
			<ellipse transform="matrix(0.4839 -0.8751 0.8751 0.4839 -70.0392 236.2832)" class="st3" cx="165.31" cy="177.52" rx="3.48" ry="2.27"/>
		<g>
			<path class="st3" d="M153.92,201.4c2.72-0.87,5.38-2.39,7.5-4.38c2.11-1.98,4.44-4.91,5.67-9.09c0.02-0.08-0.04-0.13-0.12-0.13
				c-0.02,0-0.04,0-0.07,0.01c-1.57,0.65-3.23,1.02-5.15,1.02c-0.95,0-1.74-0.11-2.45-0.22c-0.01,0-0.02,0-0.03,0
				c-0.11,0-0.15,0.14-0.08,0.2c0.55,0.45,1.27,1.36,1.27,3.01c0,2.16-1.33,4.57-2.73,6.1c-1.32,1.43-2.57,2.32-4.01,3.05
				c-0.48,0.24-1.27,0.56-1.75,0.72c-0.19,0.06-0.19,0.23,0,0.23c0.02,0,0.05,0,0.08-0.01C152.59,201.8,153.27,201.6,153.92,201.4z"
				/>
			<g>
				<path class="st3" d="M166.98,187.79c-0.02,0-0.04,0-0.07,0.01c-1.57,0.65-3.23,1.02-5.15,1.02c-0.95,0-1.74-0.11-2.45-0.22
					c-0.01,0-0.02,0-0.03,0c-0.1,0-0.13,0.11-0.09,0.17c0.01-0.01,0.03-0.02,0.04-0.03l3.11,1.47c-0.52,0.51-1.16,0.98-1.88,1.41
					c0,0.07,0.01,0.12,0.01,0.19c0,2.16-1.33,4.57-2.73,6.1c-1.32,1.43-2.57,2.32-4.01,3.05c-0.48,0.24-1.27,0.56-1.75,0.72
					c-0.19,0.06-0.19,0.23,0,0.23c0.02,0,0.05,0,0.08-0.01c0.53-0.1,1.22-0.3,1.86-0.5c2.72-0.87,5.38-2.39,7.5-4.38
					c2.11-1.98,4.44-4.91,5.67-9.09C167.12,187.84,167.05,187.79,166.98,187.79z"/>
				<path class="st3" d="M158.13,190.09c-0.15-0.12-0.27-0.27-0.37-0.42c-0.98,0.43-2.18,0.67-3.39,0.67
					c-5.72,0-9.92-4.25-9.92-10.99c0-6.66,4.49-10.83,9.92-10.83c2.66,0,4.33,1.06,5.68,2.49l1.96-2.17
					c-1.59-1.63-4.04-3.31-7.68-3.31c-7.19,0-13.39,5.27-13.39,13.89c0,8.74,6.04,13.89,13.07,13.89c1.75,0,3.35-0.33,4.73-0.87
					c0.03-0.22,0.05-0.43,0.05-0.64C158.8,191.03,158.57,190.45,158.13,190.09z"/>
				<path class="st3" d="M159.24,188.74c-0.01,0.01-0.03,0.02-0.04,0.03c0,0.01,0,0.02,0.01,0.02c0.52,0.43,1.2,1.29,1.26,2.82
					c0.72-0.42,1.36-0.9,1.88-1.41L159.24,188.74z"/>
			</g>
		</g>
		<g>
			<path class="st3" d="M172.88,171.79c-0.04-0.11-0.17-0.11-0.19,0.01c-0.15,1.25-0.54,4.4-3.15,7.44
				c-3.13,3.66-7.52,4.99-11.35,4.67c-2.12-0.18-4.21-0.86-5.99-2c-0.13-0.07-0.21,0.05-0.14,0.13c1.91,2.78,5.31,5.09,9.67,5.09
				c6.51,0,11.72-5.27,11.72-11.83C173.45,174.27,173.23,172.85,172.88,171.79z"/>
		</g>
	</g>
</g>
<g>
	<g>
		<g>
			
				<ellipse transform="matrix(0.4894 -0.8721 0.8721 0.4894 -134.5299 393.0175)" class="st0" cx="268.35" cy="311.39" rx="6.88" ry="4.5"/>
			<g>
				<path class="st0" d="M275.19,328.75c-3.64,2.01-7.81,3.14-12.26,3.14c-0.62,0-1.24-0.02-1.87-0.07
					c-0.33-0.02-0.65-0.05-0.97-0.09c-0.25-0.04-0.33,0.21-0.2,0.33c0.4,0.43,0.76,0.9,1.05,1.41c2.31,4.03,0.39,9.94-3.94,15.05
					c-3.18,3.76-7.28,6.45-9.22,7.61c-0.17,0.14-0.08,0.31,0.16,0.26c5.12-1.55,10.59-4.13,16.03-9.59
					c4.41-4.43,8.56-10.64,11.5-17.8C275.56,328.81,275.36,328.68,275.19,328.75z"/>
			</g>
			<g>
				<path class="st0" d="M284.16,299.63c-0.07-0.2-0.28-0.14-0.3,0c-0.21,2.32-1.16,8.77-6.28,14.55
					c-6.04,6.81-14.12,9.12-21.01,8.63c-3.99-0.28-7.7-1.46-10.95-3.33c-0.23-0.13-0.38,0.09-0.27,0.25
					c3.55,5.04,9.16,8.46,15.99,8.94c12.56,0.88,22.67-8.65,23.54-21.21C285.07,304.74,284.81,302.11,284.16,299.63z"/>
			</g>
		</g>
		<g>
			<path class="st0" d="M118.4,320.71h7.95c5.42,0,9.21,1.83,9.21,6.52c0,2.65-1.51,5.01-4.69,5.83v0.16
				c3.91,0.61,6.19,2.73,6.19,6.4c0,5.26-4.16,7.82-10.11,7.82h-8.56L118.4,320.71L118.4,320.71z M125.78,332.12
				c4.52,0,6.44-1.63,6.44-4.61c0-2.89-2.16-4.12-6.28-4.12h-4.12v8.72h3.96V332.12z M126.47,344.75c4.56,0,7.25-1.67,7.25-5.3
				c0-3.3-2.57-4.81-7.25-4.81h-4.65v10.11H126.47z"/>
			<path class="st0" d="M149.37,327.14c5.05,0,7.91,3.63,7.91,9.29c0,0.69-0.04,1.34-0.12,1.83h-13.37c0.25,4.28,2.81,6.97,6.6,6.97
				c1.87,0,3.46-0.61,4.93-1.55l1.18,2.2c-1.71,1.1-3.83,2.04-6.52,2.04c-5.3,0-9.49-3.87-9.49-10.35
				C140.48,331.1,144.84,327.14,149.37,327.14z M154.34,336.07c0-4.03-1.79-6.28-4.89-6.28c-2.77,0-5.3,2.28-5.71,6.28H154.34z"/>
			<path class="st0" d="M161.87,353.18c2.24,0,3.67-1.79,4.48-4.24l0.45-1.47l-7.95-19.85h3.46l4.03,10.96
				c0.61,1.71,1.3,3.75,1.91,5.58h0.16c0.57-1.79,1.14-3.83,1.67-5.58l3.55-10.96h3.26l-7.46,21.44c-1.39,3.91-3.42,6.89-7.42,6.89
				c-0.9,0-1.67-0.16-2.32-0.41l0.65-2.65C160.77,353.02,161.39,353.18,161.87,353.18z"/>
			<path class="st0" d="M187.7,327.14c4.85,0,9.17,3.79,9.17,10.43c0,6.56-4.32,10.35-9.17,10.35c-4.85,0-9.17-3.79-9.17-10.35
				C178.53,330.93,182.85,327.14,187.7,327.14z M187.7,345.16c3.42,0,5.7-3.06,5.7-7.58c0-4.56-2.28-7.66-5.7-7.66
				c-3.38,0-5.71,3.1-5.71,7.66C182,342.1,184.32,345.16,187.7,345.16z"/>
			<path class="st0" d="M201.65,327.63h2.77l0.28,2.85h0.12c1.88-1.87,3.91-3.34,6.64-3.34c4.16,0,6.03,2.69,6.03,7.74v12.55h-3.34
				v-12.1c0-3.71-1.14-5.3-3.75-5.3c-2.04,0-3.42,1.06-5.42,3.06v14.34h-3.34L201.65,327.63L201.65,327.63z"/>
			<path class="st0" d="M230.79,327.14c2.28,0,3.79,0.86,5.54,2.28l-0.16-3.38v-7.62h3.38v29.02h-2.77l-0.28-2.32h-0.12
				c-1.55,1.51-3.67,2.81-5.99,2.81c-4.97,0-8.19-3.75-8.19-10.35C222.2,331.14,226.27,327.14,230.79,327.14z M231.12,345.12
				c1.83,0,3.42-0.9,5.05-2.73v-10.36c-1.67-1.51-3.18-2.08-4.81-2.08c-3.18,0-5.71,3.06-5.71,7.58
				C225.66,342.26,227.66,345.12,231.12,345.12z"/>
		</g>
		<g>
			<g>
				<path class="st0" d="M389.17,344.5c0-2.04,1.48-3.43,3.27-3.43c1.81,0,3.29,1.39,3.29,3.43c0,2.04-1.48,3.43-3.29,3.43
					C390.65,347.93,389.17,346.54,389.17,344.5z M395.03,344.5c0-1.64-1.13-2.8-2.59-2.8s-2.57,1.17-2.57,2.8
					c0,1.65,1.11,2.78,2.57,2.78C393.9,347.28,395.03,346.15,395.03,344.5z M391.19,342.69h1.32c0.73,0,1.36,0.3,1.36,1.13
					c0,0.42-0.26,0.82-0.64,0.96l0.8,1.44h-0.8l-0.61-1.22h-0.71v1.22h-0.71v-3.53H391.19L391.19,342.69z M392.35,344.45
					c0.47,0,0.75-0.21,0.75-0.59c0-0.35-0.19-0.57-0.71-0.57h-0.49v1.17L392.35,344.45L392.35,344.45z"/>
			</g>
			<path class="st0" d="M288.46,320.71h3.42v26.73h-3.42V320.71z"/>
			<path class="st0" d="M298.05,327.63h2.77l0.28,2.85h0.12c1.88-1.87,3.91-3.34,6.64-3.34c4.16,0,6.03,2.69,6.03,7.74v12.55h-3.34
				v-12.1c0-3.71-1.14-5.3-3.75-5.3c-2.04,0-3.42,1.06-5.42,3.06v14.34h-3.34v-19.8H298.05z"/>
			<path class="st0" d="M327.18,327.14c2.28,0,3.79,0.86,5.54,2.28l-0.16-3.38v-7.62h3.38v29.02h-2.77l-0.28-2.32h-0.12
				c-1.55,1.51-3.67,2.81-5.99,2.81c-4.97,0-8.19-3.75-8.19-10.35C318.59,331.14,322.66,327.14,327.18,327.14z M327.51,345.12
				c1.83,0,3.42-0.9,5.05-2.73v-10.36c-1.67-1.51-3.18-2.08-4.81-2.08c-3.18,0-5.71,3.06-5.71,7.58
				C322.05,342.26,324.05,345.12,327.51,345.12z"/>
			<path class="st0" d="M341.32,321.4c0-1.3,1.02-2.16,2.32-2.16c1.3,0,2.32,0.86,2.32,2.16c0,1.26-1.02,2.16-2.32,2.16
				C342.34,323.56,341.32,322.66,341.32,321.4z M341.93,327.63h3.34v19.81h-3.34V327.63z"/>
			<path class="st0" d="M352.6,346.74v-0.16c-0.98-0.61-1.75-1.67-1.75-3.22c0-1.67,1.14-2.98,2.16-3.67v-0.16
				c-1.3-1.06-2.57-2.97-2.57-5.34c0-4.32,3.42-7.05,7.46-7.05c1.1,0,2.08,0.2,2.81,0.49h6.89v2.57h-4.08
				c0.94,0.9,1.63,2.4,1.63,4.08c0,4.24-3.22,6.89-7.25,6.89c-0.98,0-2.08-0.24-2.97-0.69c-0.69,0.61-1.26,1.26-1.26,2.36
				c0,1.26,0.81,2.16,3.5,2.16h3.83c4.6,0,6.93,1.43,6.93,4.73c0,3.67-3.87,6.85-10.02,6.85c-4.85,0-8.19-1.92-8.19-5.34
				C349.71,349.56,350.81,347.97,352.6,346.74z M358.39,354.24c3.79,0,6.27-1.96,6.27-4.03c0-1.83-1.43-2.44-3.99-2.44h-3.42
				c-0.77,0-1.71-0.08-2.57-0.33c-1.43,1.02-2.04,2.2-2.04,3.34C352.64,352.9,354.8,354.24,358.39,354.24z M362.09,334.19
				c0-2.89-1.87-4.61-4.2-4.61c-2.32,0-4.2,1.71-4.2,4.61c0,2.89,1.91,4.73,4.2,4.73C360.18,338.92,362.09,337.09,362.09,334.19z"/>
			<path class="st0" d="M378.77,327.14c4.85,0,9.17,3.79,9.17,10.43c0,6.56-4.32,10.35-9.17,10.35s-9.17-3.79-9.17-10.35
				C369.61,330.93,373.92,327.14,378.77,327.14z M378.77,345.16c3.42,0,5.7-3.06,5.7-7.58c0-4.56-2.28-7.66-5.7-7.66
				c-3.38,0-5.71,3.1-5.71,7.66C373.07,342.1,375.39,345.16,378.77,345.16z"/>
		</g>
	</g>
</g>
<g>
	<g>
		<g>
			<path class="st0" d="M176.58,422.33h2.78l0.29,3.6h0.12c1.35-2.49,3.39-4.09,5.64-4.09c0.86,0,1.47,0.12,2.12,0.41l-0.65,2.94
				c-0.65-0.2-1.1-0.33-1.92-0.33c-1.68,0-3.68,1.23-5.03,4.58v12.75h-3.35V422.33z"/>
			<path class="st0" d="M189.81,416.08c0-1.31,1.02-2.17,2.33-2.17c1.31,0,2.33,0.86,2.33,2.17c0,1.27-1.02,2.17-2.33,2.17
				C190.83,418.25,189.81,417.35,189.81,416.08z M190.43,422.33h3.35v19.85h-3.35V422.33z"/>
			<path class="st0" d="M206.94,421.84c5.07,0,7.93,3.64,7.93,9.31c0,0.69-0.04,1.35-0.12,1.84h-13.4c0.25,4.29,2.82,6.99,6.62,6.99
				c1.88,0,3.47-0.61,4.94-1.55l1.18,2.21c-1.72,1.1-3.84,2.04-6.54,2.04c-5.31,0-9.52-3.88-9.52-10.38
				C198.03,425.81,202.4,421.84,206.94,421.84z M211.92,430.79c0-4.04-1.8-6.29-4.9-6.29c-2.78,0-5.31,2.29-5.72,6.29H211.92z"/>
			<path class="st0" d="M216.15,422.33h3.47l3.76,11.28c0.57,1.96,1.23,3.96,1.84,5.84h0.16c0.57-1.88,1.23-3.88,1.8-5.84
				l3.76-11.28h3.31l-7.03,19.85h-3.92L216.15,422.33z"/>
			<path class="st0" d="M236.83,416.08c0-1.31,1.02-2.17,2.33-2.17s2.33,0.86,2.33,2.17c0,1.27-1.02,2.17-2.33,2.17
				S236.83,417.35,236.83,416.08z M237.44,422.33h3.35v19.85h-3.35V422.33z"/>
			<path class="st0" d="M246.33,422.33h2.78l0.29,2.86h0.12c1.88-1.88,3.92-3.35,6.66-3.35c4.17,0,6.05,2.7,6.05,7.76v12.58h-3.35
				v-12.13c0-3.72-1.14-5.31-3.76-5.31c-2.04,0-3.43,1.06-5.43,3.06v14.38h-3.35V422.33z"/>
			<path class="st0" d="M269.01,441.5v-0.16c-0.98-0.61-1.76-1.68-1.76-3.23c0-1.67,1.14-2.98,2.17-3.68v-0.16
				c-1.31-1.06-2.57-2.98-2.57-5.35c0-4.33,3.43-7.07,7.48-7.07c1.1,0,2.08,0.2,2.82,0.49h6.9v2.57h-4.09
				c0.94,0.9,1.63,2.41,1.63,4.09c0,4.25-3.23,6.9-7.27,6.9c-0.98,0-2.08-0.25-2.98-0.69c-0.69,0.61-1.27,1.27-1.27,2.37
				c0,1.27,0.82,2.17,3.51,2.17h3.84c4.62,0,6.94,1.43,6.94,4.74c0,3.68-3.88,6.86-10.05,6.86c-4.86,0-8.21-1.92-8.21-5.35
				C266.11,444.31,267.21,442.72,269.01,441.5z M274.81,449.01c3.8,0,6.29-1.96,6.29-4.04c0-1.84-1.43-2.45-4-2.45h-3.43
				c-0.78,0-1.72-0.08-2.57-0.33c-1.43,1.02-2.04,2.21-2.04,3.35C269.05,447.66,271.21,449.01,274.81,449.01z M278.53,428.91
				c0-2.9-1.88-4.62-4.21-4.62c-2.33,0-4.21,1.72-4.21,4.62c0,2.9,1.92,4.74,4.21,4.74C276.61,433.65,278.53,431.81,278.53,428.91z"
				/>
			<path class="st0" d="M289.3,437.53c1.31,0,2.41,1.06,2.41,2.61c0,1.47-1.1,2.53-2.41,2.53c-1.35,0-2.45-1.06-2.45-2.53
				C286.85,438.59,287.95,437.53,289.3,437.53z"/>
			<path class="st0" d="M304.36,421.84c2.61,0,4.45,1.1,5.8,2.37l-1.68,2.17c-1.18-1.02-2.41-1.76-4-1.76c-3.6,0-6.21,3.1-6.21,7.68
				c0,4.53,2.49,7.6,6.13,7.6c1.88,0,3.47-0.94,4.66-2l1.51,2.21c-1.8,1.59-4.09,2.57-6.45,2.57c-5.27,0-9.31-3.8-9.31-10.38
				C294.8,425.64,299.25,421.84,304.36,421.84z"/>
			<path class="st0" d="M321.31,421.84c4.86,0,9.19,3.8,9.19,10.46c0,6.58-4.33,10.38-9.19,10.38s-9.19-3.8-9.19-10.38
				C312.12,425.64,316.45,421.84,321.31,421.84z M321.31,439.9c3.43,0,5.72-3.06,5.72-7.6c0-4.58-2.29-7.68-5.72-7.68
				c-3.39,0-5.72,3.1-5.72,7.68C315.59,436.84,317.92,439.9,321.31,439.9z"/>
			<path class="st0" d="M334.51,422.33h2.78l0.29,2.86h0.12c1.72-1.88,3.8-3.35,6.17-3.35c3.02,0,4.66,1.43,5.47,3.8
				c2.08-2.25,4.13-3.8,6.54-3.8c4.08,0,6.05,2.7,6.05,7.76v12.58h-3.35v-12.13c0-3.72-1.18-5.31-3.68-5.31
				c-1.55,0-3.15,1.02-4.98,3.06v14.38h-3.35v-12.13c0-3.72-1.18-5.31-3.72-5.31c-1.47,0-3.15,1.02-4.98,3.06v14.38h-3.35V422.33z"
				/>
		</g>
		<g>
			<path class="st0" d="M366.64,438.63h-1.56v-0.85h4.07v0.85h-1.57v4.02h-0.94V438.63z M369.9,437.78h1.18l0.72,1.76l0.42,1.24
				h0.06l0.42-1.24l0.71-1.76h1.16v4.87h-0.9v-2.15l0.09-1.65h-0.06l-1.12,3.05h-0.71l-1.13-3.05h-0.06l0.11,1.65v2.15h-0.91V437.78
				z"/>
		</g>
	</g>
	<g>
		
			<ellipse transform="matrix(0.4839 -0.8751 0.8751 0.4839 -288.261 364.9763)" class="st0" cx="165.31" cy="426.89" rx="3.48" ry="2.27"/>
		<g>
			<path class="st0" d="M153.92,450.76c2.72-0.87,5.38-2.39,7.5-4.38c2.11-1.98,4.44-4.91,5.67-9.09c0.02-0.08-0.04-0.13-0.12-0.13
				c-0.02,0-0.04,0-0.07,0.01c-1.57,0.65-3.23,1.02-5.15,1.02c-0.95,0-1.74-0.11-2.45-0.22c-0.01,0-0.02,0-0.03,0
				c-0.11,0-0.15,0.14-0.08,0.2c0.55,0.45,1.27,1.36,1.27,3.01c0,2.16-1.33,4.57-2.73,6.1c-1.32,1.43-2.57,2.32-4.01,3.05
				c-0.48,0.24-1.27,0.56-1.75,0.72c-0.19,0.06-0.19,0.23,0,0.23c0.02,0,0.05,0,0.08-0.01
				C152.59,451.16,153.27,450.97,153.92,450.76z"/>
			<g>
				<path class="st0" d="M166.98,437.16c-0.02,0-0.04,0-0.07,0.01c-1.57,0.65-3.23,1.02-5.15,1.02c-0.95,0-1.74-0.11-2.45-0.22
					c-0.01,0-0.02,0-0.03,0c-0.1,0-0.13,0.11-0.09,0.17c0.01-0.01,0.03-0.02,0.04-0.03l3.11,1.47c-0.52,0.51-1.16,0.98-1.88,1.41
					c0,0.07,0.01,0.12,0.01,0.19c0,2.16-1.33,4.57-2.73,6.1c-1.32,1.43-2.57,2.32-4.01,3.05c-0.48,0.24-1.27,0.56-1.75,0.72
					c-0.19,0.06-0.19,0.23,0,0.23c0.02,0,0.05,0,0.08-0.01c0.53-0.1,1.22-0.3,1.86-0.5c2.72-0.87,5.38-2.39,7.5-4.38
					c2.11-1.98,4.44-4.91,5.67-9.09C167.12,437.2,167.05,437.16,166.98,437.16z"/>
				<path class="st0" d="M158.13,439.45c-0.15-0.12-0.27-0.27-0.37-0.42c-0.98,0.43-2.18,0.67-3.39,0.67
					c-5.72,0-9.92-4.25-9.92-10.99c0-6.66,4.49-10.83,9.92-10.83c2.66,0,4.33,1.06,5.68,2.49l1.96-2.17
					c-1.59-1.63-4.04-3.31-7.68-3.31c-7.19,0-13.39,5.27-13.39,13.89c0,8.74,6.04,13.89,13.07,13.89c1.75,0,3.35-0.33,4.73-0.87
					c0.03-0.22,0.05-0.43,0.05-0.64C158.8,440.39,158.57,439.81,158.13,439.45z"/>
				<path class="st0" d="M159.24,438.1c-0.01,0.01-0.03,0.02-0.04,0.03c0,0.01,0,0.02,0.01,0.02c0.52,0.43,1.2,1.29,1.26,2.82
					c0.72-0.42,1.36-0.9,1.88-1.41L159.24,438.1z"/>
			</g>
		</g>
		<g>
			<path class="st0" d="M172.88,421.15c-0.04-0.11-0.17-0.11-0.19,0.01c-0.15,1.25-0.54,4.4-3.15,7.44
				c-3.13,3.66-7.52,4.99-11.35,4.67c-2.12-0.18-4.21-0.86-5.99-2c-0.13-0.07-0.21,0.05-0.14,0.13c1.91,2.78,5.31,5.09,9.67,5.09
				c6.51,0,11.72-5.27,11.72-11.83C173.45,423.64,173.23,422.21,172.88,421.15z"/>
		</g>
	</g>
</g>
</svg>
