<?xml version="1.0" encoding="utf-8"?>
<!-- Generator: Adobe Illustrator 21.0.2, SVG Export Plug-In . SVG Version: 6.00 Build 0)  -->
<!DOCTYPE svg PUBLIC "-//W3C//DTD SVG 1.1//EN" "http://www.w3.org/Graphics/SVG/1.1/DTD/svg11.dtd">
<svg version="1.1" id="Layer_1" xmlns="http://www.w3.org/2000/svg" xmlns:xlink="http://www.w3.org/1999/xlink" x="0px" y="0px"
	 width="1000px" height="407.33px" viewBox="0 0 1000 407.33" style="enable-background:new 0 0 1000 407.33;" xml:space="preserve"
	>
<style type="text/css">
	.st0{fill:url(#SVGID_1_);}
	.st1{fill:url(#SVGID_2_);}
	.st2{fill:url(#SVGID_3_);}
	.st3{fill:url(#SVGID_4_);}
	.st4{fill:url(#SVGID_5_);}
	.st5{fill:url(#SVGID_6_);}
	.st6{fill:url(#SVGID_7_);}
	.st7{fill:url(#SVGID_8_);}
	.st8{fill:url(#SVGID_9_);}
	.st9{fill:url(#SVGID_10_);}
	.st10{fill:url(#SVGID_11_);}
	.st11{fill:url(#SVGID_12_);}
	.st12{fill:url(#SVGID_13_);}
	.st13{fill:url(#SVGID_14_);}
	.st14{fill:url(#SVGID_15_);}
	.st15{fill:url(#SVGID_16_);}
	.st16{fill:url(#SVGID_17_);}
	.st17{fill:url(#SVGID_18_);}
	.st18{fill:url(#SVGID_19_);}
	.st19{fill:url(#SVGID_20_);}
	.st20{fill:url(#SVGID_21_);}
	.st21{fill:url(#SVGID_22_);}
	.st22{fill:url(#SVGID_23_);}
	.st23{fill:url(#SVGID_24_);}
	.st24{fill:url(#SVGID_25_);}
	.st25{fill:url(#SVGID_26_);}
	.st26{fill:url(#SVGID_27_);}
	.st27{fill:url(#SVGID_28_);}
	.st28{fill:url(#SVGID_29_);}
	.st29{fill:url(#SVGID_30_);}
	.st30{fill:url(#SVGID_31_);}
	.st31{fill:url(#SVGID_32_);}
	.st32{fill:url(#SVGID_33_);}
	.st33{fill:url(#SVGID_34_);}
	.st34{fill:url(#SVGID_35_);}
	.st35{fill:url(#SVGID_36_);}
	.st36{fill:url(#SVGID_37_);}
	.st37{fill:url(#SVGID_38_);}
	.st38{fill:url(#SVGID_39_);}
	.st39{fill:url(#SVGID_40_);}
	.st40{fill:url(#SVGID_41_);}
	.st41{fill:url(#SVGID_42_);}
	.st42{fill:url(#SVGID_43_);}
	.st43{fill:url(#SVGID_44_);}
	.st44{fill:url(#SVGID_45_);}
	.st45{fill:url(#SVGID_46_);}
	.st46{fill:url(#SVGID_47_);}
	.st47{fill:url(#SVGID_48_);}
	.st48{fill:url(#SVGID_49_);}
	.st49{fill:url(#SVGID_50_);}
	.st50{fill:url(#SVGID_51_);}
	.st51{fill:url(#SVGID_52_);}
	.st52{fill:url(#SVGID_53_);}
	.st53{fill:url(#SVGID_54_);}
	.st54{fill:url(#SVGID_55_);}
	.st55{fill:url(#SVGID_56_);}
	.st56{fill:url(#SVGID_57_);}
	.st57{fill:url(#SVGID_58_);}
	.st58{fill:url(#SVGID_59_);}
	.st59{fill:url(#SVGID_60_);}
	.st60{fill:url(#SVGID_61_);}
	.st61{fill:url(#SVGID_62_);}
	.st62{fill:url(#SVGID_63_);}
	.st63{fill:url(#SVGID_64_);}
	.st64{fill:url(#SVGID_65_);}
	.st65{fill:url(#SVGID_66_);}
	.st66{fill:url(#SVGID_67_);}
	.st67{fill:url(#SVGID_68_);}
	.st68{fill:url(#SVGID_69_);}
	.st69{fill:url(#SVGID_70_);}
	.st70{fill:url(#SVGID_71_);}
	.st71{fill:url(#SVGID_72_);}
	.st72{fill:url(#SVGID_73_);}
	.st73{fill:url(#SVGID_74_);}
	.st74{fill:url(#SVGID_75_);}
	.st75{fill:url(#SVGID_76_);}
</style>
<g>
	<linearGradient id="SVGID_1_" gradientUnits="userSpaceOnUse" x1="173.8421" y1="22.7988" x2="830.6671" y2="679.6238">
		<stop  offset="0" style="stop-color:#0055B8"/>
		<stop  offset="0.5" style="stop-color:#732282"/>
		<stop  offset="1" style="stop-color:#E11383"/>
	</linearGradient>
	<polygon class="st0" points="370.94,205 370.58,202.5 353.92,204.92 356.53,222.52 359.03,222.15 356.8,207.06 	"/>
	<linearGradient id="SVGID_2_" gradientUnits="userSpaceOnUse" x1="339.1903" y1="-142.5494" x2="996.0153" y2="514.2756">
		<stop  offset="0" style="stop-color:#0055B8"/>
		<stop  offset="0.5" style="stop-color:#732282"/>
		<stop  offset="1" style="stop-color:#E11383"/>
	</linearGradient>
	<path class="st1" d="M680.11,197.05l-0.39,2.5c3.54,0.55,6.65,2.44,8.77,5.33c2.12,2.89,2.98,6.43,2.43,9.97l2.5,0.39
		c0.65-4.21-0.37-8.42-2.89-11.86C688.02,199.95,684.31,197.7,680.11,197.05z"/>
	<linearGradient id="SVGID_3_" gradientUnits="userSpaceOnUse" x1="365.4501" y1="-168.8091" x2="1022.275" y2="488.0158">
		<stop  offset="0" style="stop-color:#0055B8"/>
		<stop  offset="0.5" style="stop-color:#732282"/>
		<stop  offset="1" style="stop-color:#E11383"/>
	</linearGradient>
	<path class="st2" d="M749.17,222.45l2.46,0.59c2.52-10.51-3.99-21.11-14.5-23.63l-0.59,2.46
		C745.69,204.06,751.36,213.29,749.17,222.45z"/>
	<linearGradient id="SVGID_4_" gradientUnits="userSpaceOnUse" x1="316.2911" y1="-119.6502" x2="973.1161" y2="537.1748">
		<stop  offset="0" style="stop-color:#0055B8"/>
		<stop  offset="0.5" style="stop-color:#732282"/>
		<stop  offset="1" style="stop-color:#E11383"/>
	</linearGradient>
	<path class="st3" d="M700.89,239.57c-1.45-0.3-2.94-0.46-4.41-0.46c-10.08,0-18.9,7.17-20.97,17.05
		c-1.17,5.61-0.09,11.33,3.04,16.13c3.13,4.79,7.95,8.08,13.55,9.25c1.45,0.3,2.94,0.46,4.41,0.46c10.08,0,18.9-7.17,20.97-17.05
		c1.17-5.61,0.09-11.33-3.04-16.13C711.31,244.03,706.5,240.74,700.89,239.57z M715.01,264.43c-1.82,8.72-9.6,15.04-18.49,15.04
		c-1.3,0-2.61-0.14-3.89-0.41c-4.94-1.03-9.19-3.93-11.96-8.16c-2.76-4.23-3.72-9.28-2.68-14.22c1.82-8.72,9.6-15.04,18.49-15.04
		c1.3,0,2.61,0.14,3.89,0.41c4.94,1.03,9.19,3.93,11.96,8.16S716.05,259.49,715.01,264.43z"/>
	<linearGradient id="SVGID_5_" gradientUnits="userSpaceOnUse" x1="317.5836" y1="-120.9427" x2="974.4086" y2="535.8823">
		<stop  offset="0" style="stop-color:#0055B8"/>
		<stop  offset="0.5" style="stop-color:#732282"/>
		<stop  offset="1" style="stop-color:#E11383"/>
	</linearGradient>
	<path class="st4" d="M741.24,300.28c0.26-1.01-0.89-2.12-2.6-2.49c-1.71-0.37-3.32,0.16-3.58,1.18c-0.27,1.02,0.91,2.14,2.62,2.5
		C739.39,301.82,740.98,301.29,741.24,300.28z"/>
	<linearGradient id="SVGID_6_" gradientUnits="userSpaceOnUse" x1="394.1878" y1="-197.5468" x2="1051.0127" y2="459.2781">
		<stop  offset="0" style="stop-color:#0055B8"/>
		<stop  offset="0.5" style="stop-color:#732282"/>
		<stop  offset="1" style="stop-color:#E11383"/>
	</linearGradient>
	<polygon class="st5" points="813.81,238.81 816.21,239.6 821.18,224.56 834.68,229.45 835.54,227.07 819.59,221.29 	"/>
	<linearGradient id="SVGID_7_" gradientUnits="userSpaceOnUse" x1="322.5169" y1="-125.876" x2="979.3419" y2="530.949">
		<stop  offset="0" style="stop-color:#0055B8"/>
		<stop  offset="0.5" style="stop-color:#732282"/>
		<stop  offset="1" style="stop-color:#E11383"/>
	</linearGradient>
	<path class="st6" d="M699.01,248.55l-0.52,2.48c5.26,1.1,8.64,6.27,7.54,11.53l2.48,0.52c0.67-3.21,0.05-6.49-1.74-9.23
		C704.98,251.1,702.22,249.22,699.01,248.55z"/>
	<linearGradient id="SVGID_8_" gradientUnits="userSpaceOnUse" x1="184.6835" y1="11.9575" x2="841.5084" y2="668.7825">
		<stop  offset="0" style="stop-color:#0055B8"/>
		<stop  offset="0.5" style="stop-color:#732282"/>
		<stop  offset="1" style="stop-color:#E11383"/>
	</linearGradient>
	<polygon class="st7" points="353,181.46 367.52,179.35 367.15,176.85 350.13,179.32 352.85,197.71 355.35,197.34 	"/>
	<linearGradient id="SVGID_9_" gradientUnits="userSpaceOnUse" x1="356.2738" y1="-159.6329" x2="1013.0988" y2="497.192">
		<stop  offset="0" style="stop-color:#0055B8"/>
		<stop  offset="0.5" style="stop-color:#732282"/>
		<stop  offset="1" style="stop-color:#E11383"/>
	</linearGradient>
	<path class="st8" d="M802.14,271.67c1.6-5.5,0.97-11.29-1.78-16.31c-2.75-5.02-7.3-8.67-12.79-10.28
		c-1.97-0.57-3.99-0.86-6.02-0.86c-9.46,0-17.92,6.35-20.57,15.44c-3.31,11.35,3.23,23.28,14.57,26.59
		c1.96,0.57,3.99,0.86,6.02,0.86C791.03,287.11,799.49,280.76,802.14,271.67z M781.57,284.58c-1.79,0-3.57-0.26-5.31-0.76
		c-10.01-2.92-15.78-13.45-12.86-23.46c2.34-8.02,9.8-13.62,18.15-13.62c1.79,0,3.58,0.26,5.31,0.76c4.85,1.42,8.86,4.63,11.29,9.06
		c2.43,4.43,2.99,9.54,1.57,14.39C797.37,278.98,789.91,284.58,781.57,284.58z"/>
	<linearGradient id="SVGID_10_" gradientUnits="userSpaceOnUse" x1="362.2659" y1="-165.6249" x2="1019.0908" y2="491.2">
		<stop  offset="0" style="stop-color:#0055B8"/>
		<stop  offset="0.5" style="stop-color:#732282"/>
		<stop  offset="1" style="stop-color:#E11383"/>
	</linearGradient>
	<path class="st9" d="M785,253.88l-0.71,2.43c2.5,0.73,4.56,2.39,5.81,4.67c1.25,2.28,1.54,4.92,0.81,7.41l2.43,0.71
		c0.92-3.15,0.56-6.46-1.02-9.34C790.74,256.89,788.14,254.8,785,253.88z"/>
	<linearGradient id="SVGID_11_" gradientUnits="userSpaceOnUse" x1="170.6366" y1="26.0043" x2="827.4615" y2="682.8293">
		<stop  offset="0" style="stop-color:#0055B8"/>
		<stop  offset="0.5" style="stop-color:#732282"/>
		<stop  offset="1" style="stop-color:#E11383"/>
	</linearGradient>
	<polygon class="st10" points="328.34,185.05 342.81,182.94 342.45,180.44 325.41,182.92 328.53,201.28 331.02,200.85 	"/>
	<linearGradient id="SVGID_12_" gradientUnits="userSpaceOnUse" x1="149.6936" y1="46.9473" x2="806.5186" y2="703.7723">
		<stop  offset="0" style="stop-color:#0055B8"/>
		<stop  offset="0.5" style="stop-color:#732282"/>
		<stop  offset="1" style="stop-color:#E11383"/>
	</linearGradient>
	<polygon class="st11" points="350.41,231.34 334.11,233.72 336.96,250.54 339.46,250.12 337.04,235.85 350.78,233.85 	"/>
	<linearGradient id="SVGID_13_" gradientUnits="userSpaceOnUse" x1="34.6604" y1="161.9805" x2="691.4854" y2="818.8055">
		<stop  offset="0" style="stop-color:#0055B8"/>
		<stop  offset="0.5" style="stop-color:#732282"/>
		<stop  offset="1" style="stop-color:#E11383"/>
	</linearGradient>
	<path class="st12" d="M165.85,288.46c-2.96-1.41-6.29-1.57-9.38-0.47l0.85,2.38c2.45-0.87,5.1-0.74,7.45,0.38
		c2.35,1.12,4.13,3.08,5,5.53l2.38-0.85C171.05,292.34,168.82,289.87,165.85,288.46z"/>
	<linearGradient id="SVGID_14_" gradientUnits="userSpaceOnUse" x1="31.7537" y1="164.8873" x2="688.5787" y2="821.7122">
		<stop  offset="0" style="stop-color:#0055B8"/>
		<stop  offset="0.5" style="stop-color:#732282"/>
		<stop  offset="1" style="stop-color:#E11383"/>
	</linearGradient>
	<path class="st13" d="M108.48,248.09l1.01,2.32c6.78-2.95,14.7,0.17,17.65,6.95l2.32-1.01
		C125.95,248.3,116.54,244.59,108.48,248.09z"/>
	<linearGradient id="SVGID_15_" gradientUnits="userSpaceOnUse" x1="116.4634" y1="80.1776" x2="773.2883" y2="737.0025">
		<stop  offset="0" style="stop-color:#0055B8"/>
		<stop  offset="0.5" style="stop-color:#732282"/>
		<stop  offset="1" style="stop-color:#E11383"/>
	</linearGradient>
	<circle class="st14" cx="349.67" cy="313.38" r="2.21"/>
	<linearGradient id="SVGID_16_" gradientUnits="userSpaceOnUse" x1="70.0881" y1="126.5528" x2="726.913" y2="783.3778">
		<stop  offset="0" style="stop-color:#0055B8"/>
		<stop  offset="0.5" style="stop-color:#732282"/>
		<stop  offset="1" style="stop-color:#E11383"/>
	</linearGradient>
	<path class="st15" d="M175.16,224.6c-4.67-2.36-9.99-2.76-14.96-1.13l0.79,2.4c4.33-1.42,8.96-1.08,13.03,0.98
		c4.07,2.06,7.1,5.58,8.52,9.91l2.4-0.79C183.31,231,179.83,226.96,175.16,224.6z"/>
	<linearGradient id="SVGID_17_" gradientUnits="userSpaceOnUse" x1="28.8413" y1="167.7996" x2="685.6663" y2="824.6246">
		<stop  offset="0" style="stop-color:#0055B8"/>
		<stop  offset="0.5" style="stop-color:#732282"/>
		<stop  offset="1" style="stop-color:#E11383"/>
	</linearGradient>
	<path class="st16" d="M160.59,278.1c-2.45,0-4.87,0.42-7.19,1.25c-5.4,1.92-9.72,5.83-12.18,11c-2.46,5.17-2.75,10.99-0.83,16.39
		c3.04,8.53,11.15,14.25,20.2,14.25c2.45,0,4.87-0.42,7.19-1.25c11.14-3.97,16.97-16.26,13.01-27.39
		C177.75,283.83,169.64,278.1,160.59,278.1z M166.93,317.36c-2.05,0.73-4.19,1.1-6.34,1.1c-7.98,0-15.14-5.05-17.82-12.57
		c-1.7-4.76-1.44-9.89,0.73-14.46c2.17-4.56,5.98-8.01,10.74-9.7c2.05-0.73,4.19-1.1,6.35-1.1c7.98,0,15.14,5.05,17.82,12.57
		C181.91,303.03,176.76,313.87,166.93,317.36z"/>
	<linearGradient id="SVGID_18_" gradientUnits="userSpaceOnUse" x1="401.4815" y1="-204.8406" x2="1058.3065" y2="451.9844">
		<stop  offset="0" style="stop-color:#0055B8"/>
		<stop  offset="0.5" style="stop-color:#732282"/>
		<stop  offset="1" style="stop-color:#E11383"/>
	</linearGradient>
	<polygon class="st17" points="857.68,237.78 858.55,235.4 842.68,229.66 836.44,246.94 838.82,247.8 844.2,232.9 	"/>
	<linearGradient id="SVGID_19_" gradientUnits="userSpaceOnUse" x1="185.6277" y1="11.0132" x2="842.4527" y2="667.8382">
		<stop  offset="0" style="stop-color:#0055B8"/>
		<stop  offset="0.5" style="stop-color:#732282"/>
		<stop  offset="1" style="stop-color:#E11383"/>
	</linearGradient>
	<path class="st18" d="M390.87,218.37l0.27,2.52c5.34-0.59,10.16,3.29,10.74,8.63l2.51-0.27
		C403.67,222.52,397.6,217.64,390.87,218.37z"/>
	<linearGradient id="SVGID_20_" gradientUnits="userSpaceOnUse" x1="160.1184" y1="36.5225" x2="816.9434" y2="693.3475">
		<stop  offset="0" style="stop-color:#0055B8"/>
		<stop  offset="0.5" style="stop-color:#732282"/>
		<stop  offset="1" style="stop-color:#E11383"/>
	</linearGradient>
	<polygon class="st19" points="332.71,210.57 346.81,208.51 346.45,206.01 329.78,208.44 332.77,226.02 335.26,225.59 	"/>
	<linearGradient id="SVGID_21_" gradientUnits="userSpaceOnUse" x1="179.1309" y1="17.51" x2="835.9559" y2="674.335">
		<stop  offset="0" style="stop-color:#0055B8"/>
		<stop  offset="0.5" style="stop-color:#732282"/>
		<stop  offset="1" style="stop-color:#E11383"/>
	</linearGradient>
	<path class="st20" d="M413.51,228.26c-1.18-10.91-10.34-19.13-21.29-19.13c-0.78,0-1.56,0.04-2.34,0.13
		c-5.69,0.62-10.81,3.42-14.4,7.88c-3.59,4.46-5.23,10.06-4.61,15.75c1.18,10.91,10.34,19.13,21.29,19.13
		c0.78,0,1.56-0.04,2.34-0.13C406.27,250.62,414.79,240.02,413.51,228.26z M394.24,249.38c-0.69,0.08-1.38,0.11-2.07,0.11
		c-9.66,0-17.73-7.25-18.78-16.87c-0.55-5.02,0.9-9.96,4.06-13.89c3.17-3.94,7.68-6.41,12.7-6.95c0.69-0.08,1.38-0.11,2.07-0.11
		c9.66,0,17.73,7.25,18.78,16.87C412.12,238.9,404.61,248.25,394.24,249.38z"/>
	<linearGradient id="SVGID_22_" gradientUnits="userSpaceOnUse" x1="396.7574" y1="-200.1165" x2="1053.5824" y2="456.7085">
		<stop  offset="0" style="stop-color:#0055B8"/>
		<stop  offset="0.5" style="stop-color:#732282"/>
		<stop  offset="1" style="stop-color:#E11383"/>
	</linearGradient>
	<path class="st21" d="M871.7,267.91l-0.94,2.35c8.73,3.52,12.98,13.49,9.46,22.22l2.35,0.94
		C886.6,283.4,881.73,271.95,871.7,267.91z"/>
	<linearGradient id="SVGID_23_" gradientUnits="userSpaceOnUse" x1="309.7779" y1="-113.1369" x2="966.6028" y2="543.688">
		<stop  offset="0" style="stop-color:#0055B8"/>
		<stop  offset="0.5" style="stop-color:#732282"/>
		<stop  offset="1" style="stop-color:#E11383"/>
	</linearGradient>
	<path class="st22" d="M606.21,190.25c3.84,0,6.96-3.12,6.96-6.96c0-3.84-3.12-6.96-6.96-6.96c-3.84,0-6.96,3.12-6.96,6.96
		C599.25,187.13,602.37,190.25,606.21,190.25z M606.21,178.87c2.44,0,4.43,1.99,4.43,4.43c0,2.44-1.99,4.43-4.43,4.43
		s-4.43-1.99-4.43-4.43C601.78,180.85,603.77,178.87,606.21,178.87z"/>
	<linearGradient id="SVGID_24_" gradientUnits="userSpaceOnUse" x1="145.9624" y1="50.6785" x2="802.7874" y2="707.5035">
		<stop  offset="0" style="stop-color:#0055B8"/>
		<stop  offset="0.5" style="stop-color:#732282"/>
		<stop  offset="1" style="stop-color:#E11383"/>
	</linearGradient>
	<path class="st23" d="M359.68,267.63c2.06-0.3,3.47-2.24,3.16-4.35c-0.31-2.11-2.25-3.59-4.33-3.28c-2.07,0.3-3.49,2.27-3.16,4.38
		C355.69,266.48,357.62,267.93,359.68,267.63z"/>
	<linearGradient id="SVGID_25_" gradientUnits="userSpaceOnUse" x1="189.7583" y1="6.8827" x2="846.5833" y2="663.7076">
		<stop  offset="0" style="stop-color:#0055B8"/>
		<stop  offset="0.5" style="stop-color:#732282"/>
		<stop  offset="1" style="stop-color:#E11383"/>
	</linearGradient>
	<polygon class="st24" points="351.95,160.24 351.59,157.74 334.29,160.25 334.65,162.75 	"/>
	<linearGradient id="SVGID_26_" gradientUnits="userSpaceOnUse" x1="304.4106" y1="-107.7697" x2="961.2356" y2="549.0553">
		<stop  offset="0" style="stop-color:#0055B8"/>
		<stop  offset="0.5" style="stop-color:#732282"/>
		<stop  offset="1" style="stop-color:#E11383"/>
	</linearGradient>
	<path class="st25" d="M576.48,168.49c2.31,0,4.19-1.88,4.19-4.19c0-2.31-1.88-4.19-4.19-4.19s-4.19,1.88-4.19,4.19
		C572.29,166.61,574.17,168.49,576.48,168.49z M576.48,162.64c0.91,0,1.66,0.74,1.66,1.66s-0.74,1.66-1.66,1.66
		s-1.66-0.74-1.66-1.66S575.56,162.64,576.48,162.64z"/>
	<linearGradient id="SVGID_27_" gradientUnits="userSpaceOnUse" x1="307.472" y1="-110.8311" x2="964.297" y2="545.9939">
		<stop  offset="0" style="stop-color:#0055B8"/>
		<stop  offset="0.5" style="stop-color:#732282"/>
		<stop  offset="1" style="stop-color:#E11383"/>
	</linearGradient>
	<path class="st26" d="M590.84,178.19c3.11,0,5.65-2.53,5.65-5.65s-2.53-5.65-5.65-5.65s-5.65,2.53-5.65,5.65
		S587.73,178.19,590.84,178.19z M590.84,169.42c1.72,0,3.12,1.4,3.12,3.12s-1.4,3.12-3.12,3.12s-3.12-1.4-3.12-3.12
		S589.12,169.42,590.84,169.42z"/>
	<linearGradient id="SVGID_28_" gradientUnits="userSpaceOnUse" x1="135.5047" y1="61.1362" x2="792.3297" y2="717.9612">
		<stop  offset="0" style="stop-color:#0055B8"/>
		<stop  offset="0.5" style="stop-color:#732282"/>
		<stop  offset="1" style="stop-color:#E11383"/>
	</linearGradient>
	<circle class="st27" cx="224.9" cy="150.53" r="3.75"/>
	<linearGradient id="SVGID_29_" gradientUnits="userSpaceOnUse" x1="-34.6566" y1="231.2975" x2="622.1684" y2="888.1224">
		<stop  offset="0" style="stop-color:#0055B8"/>
		<stop  offset="0.5" style="stop-color:#732282"/>
		<stop  offset="1" style="stop-color:#E11383"/>
	</linearGradient>
	<path class="st28" d="M69.5,301.62c-4.33-8.39-12.89-13.6-22.33-13.6c-3.97,0-7.94,0.97-11.5,2.8
		c-12.3,6.35-17.15,21.53-10.8,33.83c4.33,8.39,12.89,13.6,22.33,13.6c3.97,0,7.94-0.97,11.5-2.8C71,329.1,75.85,313.92,69.5,301.62
		z M57.54,333.2c-3.24,1.67-6.72,2.52-10.34,2.52c-8.5,0-16.19-4.69-20.09-12.23c-5.71-11.06-1.35-24.71,9.71-30.42
		c3.24-1.67,6.72-2.52,10.34-2.52c8.5,0,16.19,4.69,20.09,12.23C72.96,313.84,68.6,327.49,57.54,333.2z"/>
	<linearGradient id="SVGID_30_" gradientUnits="userSpaceOnUse" x1="171.9408" y1="24.7001" x2="828.7658" y2="681.5251">
		<stop  offset="0" style="stop-color:#0055B8"/>
		<stop  offset="0.5" style="stop-color:#732282"/>
		<stop  offset="1" style="stop-color:#E11383"/>
	</linearGradient>
	<path class="st29" d="M69.49,369.74l11.93,23.12l2.25-1.16L59.7,345.25l6.4-3.3l23.97,46.45l2.25-1.16l-11.94-23.13
		c19.61-9.99,39.54-19.26,59.75-27.79l3.57,8.22l2.32-1.01l-20.84-47.94l5.46-2.37c-1.14,5.36-0.87,11.08,1.1,16.6
		c2.66,7.48,8.07,13.44,14.84,16.93l6.04,13.9l2.32-1.01l-3.49-8.03c1.5-0.61,3-1.21,4.5-1.81c1.52,0.23,3.06,0.36,4.63,0.36
		c1.44,0,2.86-0.13,4.28-0.33l13.35,37.49l2.38-0.85l-13.14-36.89l3.38-1.2c0,0,0.01,0,0.01,0c0.01,0,0.01,0,0.02-0.01l3.37-1.2
		l13.14,36.89l2.38-0.85l-13.34-37.47c2.96-1.78,5.59-4.05,7.78-6.71c0.28-0.1,0.56-0.2,0.84-0.3l6.39,19.44l2.4-0.79l-7.17-21.81
		c0.57-0.93,1.1-1.89,1.57-2.89c1.19-2.51,2.02-5.14,2.5-7.8l9.94,30.26l2.4-0.79l-6.48-19.71c6.88-2.38,13.79-4.68,20.72-6.9
		l2.43,10.48l-5.15,31.89l17.63-5.1l0.91,2.62c-21.44,12.22-67.04,37.43-109.76,59.7h5.81c41.08-21.63,84.68-45.82,104.79-57.27
		l5.72,16.41c-0.29,0.56-0.49,1.17-0.58,1.85c-0.29,2.06,0.36,4.31,1,6.49l0.33,1.15l23.87-5.74l-0.37-1.29
		c-1.28-4.41-4.36-7.26-8.42-7.9l-4.81-20.73c0.67-0.4,1.33-0.8,2-1.2l15.62-4.52l-3.12-3.16c0.31-0.19,0.62-0.38,0.93-0.58
		c8.99-5.66,17.89-11.52,26.69-17.54l37.07,8.36l-23.76,3.53l-20.11-6.76l14.73,17.97l1.34,9.72l2.4,7.25
		c-10.18,11.35-35.66,33.73-59.77,53.99h3.7c23.75-20.11,48.41-41.81,56.97-51.25l2.96,8.94l7.53-2.17l2.41-16.34l16.08-1.94
		l10.41,10.59l9.27-1.87l-9.41-17.01l8.33-8.93l12.72,0.75l2.34-6.93l-6.8-2.34l6.69-4.66l-3.41-7.69l-8.85,2.41l-3.47-3.7
		l-7.5,1.82c8.52-11.22,16.56-22.59,21.79-33.66c7.92-1.14,15.86-2.18,23.82-3.12l3.3,30.36l2.51-0.27l-4.23-38.93l3.58-0.39l0,0
		l0,0l3.58-0.39l4.23,38.93l2.51-0.27l-3.3-30.39c26.44-2.76,53.07-4.4,79.82-4.88c-35.33,6.13-56.38,13.24-62.64,21.17
		c-1.35,1.71-1.88,3.37-1.57,4.94c0.6,3.04,4.02,4.96,7.97,7.18c5.89,3.31,11.98,6.73,9.65,13.99
		c-4.65,14.47-61.14,57.71-132.47,96.05h6.06c69.48-37.83,124.03-80.37,128.82-95.27c2.97-9.23-5-13.7-10.82-16.97
		c-3.27-1.83-6.35-3.57-6.73-5.46c-0.16-0.82,0.19-1.76,1.07-2.88c1.22-1.55,3.32-3.29,6.74-5.17c-0.88,0.88-1.58,1.78-2.11,2.71
		c-0.9,1.59-1.14,3.13-0.7,4.57c0.97,3.18,4.9,5.15,9.45,7.43c6.38,3.2,13.61,6.83,12.85,14.25c-1.49,14.51-53.65,58.1-119.25,96.8
		h5.54c64.13-38.32,114.67-81.41,116.22-96.54c0.94-9.16-7.47-13.38-14.23-16.77c-3.86-1.94-7.51-3.77-8.16-5.91
		c-0.23-0.76-0.07-1.61,0.48-2.59c5.75-10.17,39-16.67,70.79-21.68c14.25,0,28.47,0.33,42.65,0.99c-3.83,1.19-7.07,2.35-9.76,3.51
		c-6.98,2.65-10.18,5.21-10.29,8.02c0,0.12,0.01,0.23,0.01,0.35c-0.05,0.21-0.1,0.42-0.12,0.63c-0.44,3.45,2.43,6.86,8.75,10.45
		c8.57,4.85,19.48,7.35,32.1,10.24c14.37,3.29,30.65,7.02,48.9,15.2c38.01,17.05,74.56,56.71,93.07,94.09h2.82
		c-18.59-38.3-55.85-78.9-94.85-96.4c-18.47-8.29-34.89-12.04-49.37-15.36c-12.43-2.85-23.17-5.31-31.42-9.98
		c-2.25-1.27-4.01-2.51-5.26-3.69c1.61,0.86,3.65,1.7,6.15,2.53c7.39,2.45,15.57,4.12,25.05,6.06c16.18,3.31,36.32,7.42,59.39,17.41
		c41.63,18.02,81.82,59.77,104.79,99.43h2.92c-23.13-40.6-64.08-83.3-106.7-101.75c-23.31-10.09-43.59-14.24-59.89-17.56
		c-9.4-1.92-17.52-3.58-24.76-5.98c-6.97-2.31-8.64-4.14-8.97-5.12c0.86-2.2,4.17-4.27,8.22-6.06c3.59-1.38,16.62-5.53,17-5.63
		c28.33,1.54,56.48,4.37,84.39,8.47l-1.88,14.64l2.51,0.32l3.45-26.88l7.17,0.65l-3.44,26.79l2.51,0.32l1.79-13.99
		c4.83,0.77,9.65,1.59,14.47,2.44l-4.21,24.17l2.49,0.43l6.98-40.01c0.35,5.23,2.03,10.2,4.78,14.49l-4.63,26.58l2.49,0.43
		l4.16-23.88c0.11,0.02,0.22,0.04,0.33,0.06c3,3.57,6.82,6.48,11.25,8.4l-8.15,38.93l2.48,0.52l8.02-38.33l7.05,1.48l-8.02,38.33
		l2.48,0.52l8.15-38.93c0.06,0,0.11,0,0.17,0c4.65,0,9.12-1.08,13.13-3l-7.34,30.98l2.46,0.58l7.86-33.2
		c3.87-2.42,7.19-5.69,9.67-9.57l-10.53,44.45l2.46,0.58l7.37-31.12c3.75,0.93,7.5,1.87,11.24,2.85c-1.15,0.77-2.17,1.63-3.11,2.41
		c-1.41,1.18-2.74,2.31-4.02,2.69c-2.61,0.78-3.97,2.62-3.84,5.18c0.24,4.76,5.86,11.25,11.5,14.04
		c-5.79,1.51-10.13,5.33-12.33,11.17c-2.37,6.31,0.36,15.33,4.29,19.23l-2.07,8.27l-3.82-0.26c-0.08-0.01-7.6-0.84-10.54,7.18
		l-0.56,1.96c0,0,6.74,1.47,22.54,4.82c8.42,1.78,14.18,3.79,18.76,4.71c3.86,0.77,7.12,0.59,8.09,0.59
		c12.47,0,20.51-4.42,23.89-13.13c2.89-7.44,0.49-11.58-1.1-14.31c-1.3-2.24-1.63-2.96-0.83-4.84c0.4-0.94,2.08-1.62,3.99-1.62
		c0.5,0,0.98,0.05,1.43,0.14c0.61,0.12,1.11,0.18,1.59,0.18c2.12,0,3.57-1.25,4.06-3.51c0.29-1.31,0.15-2.43-0.42-3.31
		c-0.81-1.25-2.24-1.68-3.25-1.89c-1.09-0.23-2.2-0.34-3.29-0.34c-5.65,0-10.41,3.03-12.74,8.1c-2.79,6.07-0.68,9.83,0.86,12.57
		c1.33,2.37,1.99,3.55,0.65,6.77c-0.53,1.26-1.62,3.89-9.87,3.89c-0.51,0-1.06-0.01-1.62-0.03c2.4-3.64,4.2-7.8,5.19-12.18
		c1.8-8.02,0.48-16.06-3.72-22.63c-0.75-1.17-1.6-2.25-2.5-3.28l9.45-32.28l3.44,1.01c0,0,0.01,0,0.01,0c0,0,0.01,0,0.01,0
		l3.45,1.01l-9.88,33.75l2.43,0.71l7.13-24.35c21.74,6.82,43.22,14.44,64.41,22.87l-14.34,35.91l2.35,0.94l18.33-45.92l3.06,1.23
		c-0.43,3.29-0.32,6.58,0.3,9.77l-15.02,37.62l2.35,0.94l13.76-34.45c1.98,5.81,5.67,11.03,10.8,14.8l-16.71,36.09l2.3,1.06
		l16.45-35.53l3.22,1.49c0.02,0.01,0.03,0.02,0.05,0.02c0.01,0.01,0.03,0.01,0.05,0.02l3.22,1.49l-16.46,35.53l2.3,1.06l16.71-36.1
		c2.29,0.54,4.64,0.83,7.02,0.83c4.96,0,9.74-1.23,14.01-3.43c35.9,17.2,67.95,35.36,101.06,54.91h4.68
		c-24.52-14.36-48.15-28.06-55.81-32.26l47.01-85.67l-1.1-0.61c-0.21-0.12-21.92-12.1-71.17-33.7c-16.64-7.3-29.73-12.85-39.8-17.01
		l10.34-25.72l-1.09-0.51c-0.1-0.05-10.32-4.79-36.36-14.15c-26.01-9.35-39.49-13.26-39.63-13.29l-1.2-0.35l-8,26.36
		c-9.16-2.56-21.36-5.89-37.34-10.11c-0.31-0.57-0.63-1.13-0.97-1.68c-5.3-8.64-13.65-14.7-23.51-17.06
		c-2.91-0.7-5.9-1.05-8.87-1.05c-10.7,0-20.49,4.43-27.45,11.74c-5.18-6.92-12.96-11.91-22.17-13.34c-1.19-0.18-2.38-0.28-3.58-0.34
		l-14.35-18.17l-35.31,23.71l-83.4-91.03l0.82-19.67c1.25,0.52,2.56,0.8,3.99,0.8c0,0,0,0,0,0c2.43,0,4.8-0.75,7.09-1.48
		c2.2-0.7,4.29-1.36,6.33-1.36c1.06,0,2.01,0.18,2.93,0.55l1.52,0.61l0.21-1.63c0.5-3.9,1.01-7.75,1.51-11.53l0.11-0.8l-0.68-0.43
		c-1.71-1.09-3.54-1.62-5.59-1.62c-2.43,0-4.8,0.75-7.09,1.48c-2.2,0.7-4.29,1.36-6.33,1.36c-1.22,0-2.33-0.26-3.37-0.76l-2.47-1.41
		l-0.03,1.16l-0.02,0l-1.33,32.09l-16.97-18.53l-90.88,99.19l-48.61-43.54l-13.19,14.69c-6.18,0.57-16.79,1.82-33.89,4.54
		c-3.56,0.57-6.81,1.09-9.8,1.58l-5.35-31.54l-1.2,0.14c-0.38,0.05-39.25,4.82-102.1,21.54c-62.85,16.71-98.72,30.97-99.08,31.11
		l-1.14,0.46l3.84,10.39c-6.96,2.55-16.87,6.28-28.26,10.86c-22.09,8.89-38.35,16.47-38.51,16.54l-1.13,0.53l18.73,41.78
		c-30.86,13.4-46.33,21.45-46.52,21.54l-1.13,0.59l4.97,9.34c-0.73,0.31-1.45,0.65-2.15,1.01c-16.8,8.67-23.41,29.38-14.74,46.18
		c5.91,11.45,17.59,18.57,30.49,18.57c3.37,0,6.75-0.51,9.99-1.5l11.13,21.57C57.48,373.2,28.44,390.31,0,407.33h4.99
		C32.18,391.08,59.52,374.99,69.49,369.74z M547.66,61.34c1.07,0.37,2.2,0.56,3.41,0.56c2.43,0,4.8-0.75,7.09-1.48
		c2.2-0.7,4.28-1.36,6.33-1.36c1.28,0,2.45,0.27,3.55,0.83c-0.4,3.03-0.8,6.1-1.21,9.21c-0.75-0.17-1.52-0.25-2.34-0.25
		c-2.43,0-4.8,0.75-7.09,1.48c-2.2,0.7-4.29,1.36-6.33,1.36c0,0,0,0,0,0c-1.31,0-2.51-0.29-3.63-0.88L547.66,61.34z M139.13,333.99
		c-20.27,8.56-40.25,17.85-59.91,27.86l-11.13-21.57c4.45-3.43,7.89-7.82,10.16-12.73l10.36,20.96l1.13-0.56
		c0.19-0.09,19.19-9.5,46.41-20.81L139.13,333.99z M135.14,324.82c-23.5,9.77-40.89,18.12-45.39,20.31l-10.23-20.72
		c1.27-3.63,1.93-7.47,1.92-11.36l1.64,3.34l2.27-1.12l-4.72-9.6c-0.26-1.19-0.59-2.37-0.99-3.54l12.64-5.46l-1-2.32l-12.54,5.42
		c-0.34-0.8-0.7-1.59-1.1-2.37c-1.16-2.25-2.55-4.32-4.12-6.22l-5.79-11.77l13.67-5.83l-0.99-2.33l-16.13,6.88l3.87,7.88
		c-3.09-2.39-6.57-4.24-10.3-5.46l-2.7-5.47c2.38-1.25,9.32-4.71,25.41-11.74c0.08,4.36,0.99,8.78,2.83,13.02
		c3.2,7.37,8.81,13.19,15.65,16.74l6.24,13.57l2.3-1.06l-5.01-10.9c3.85,1.48,8,2.27,12.28,2.27c2.65,0,5.25-0.31,7.8-0.92
		L135.14,324.82z M131.65,289.65c-1.32,0.82-2.71,1.55-4.16,2.18c-4.03,1.75-8.28,2.64-12.64,2.64c-12.65,0-24.09-7.5-29.13-19.1
		c-6.98-16.05,0.41-34.79,16.46-41.77c4.03-1.75,8.28-2.64,12.64-2.64c5.09,0,9.98,1.23,14.34,3.44c-0.49,2.36-0.76,4.76-0.79,7.17
		c-3.96-2.54-8.64-3.97-13.55-3.97c-3.45,0-6.81,0.7-10,2.09c-12.7,5.52-18.54,20.34-13.02,33.04c3.99,9.18,13.03,15.11,23.04,15.11
		c3.45,0,6.81-0.7,10-2.09c7.47-3.25,12.56-9.71,14.37-17.07c1.69,1.73,3.55,3.29,5.53,4.66c0,0.01-0.01,0.02-0.01,0.03
		C138.48,277.14,133.93,282.98,131.65,289.65z M278.68,160.3l21.08-4.17l4.42,22.9l-22.93,4.47l3.88,17.55l2.47-0.55l-3.32-15.02
		l20.37-3.97l3.69,19.14l-21.92,5.58l3.7,16.78l2.47-0.55l-3.18-14.38l19.41-4.94l3.99,20.69l-21.29,5.39l3.55,16.09l2.47-0.55
		l-3.02-13.69l18.77-4.75l4.01,20.77c-15.42,3.14-38.36,8.1-63.1,14.45c-7.29,1.87-14.31,3.73-20.98,5.54
		c-1.04-2.31-2.72-4.24-4.79-5.61c0.42-0.07,0.84-0.13,1.27-0.18l1.49-0.17l-0.42-1.44c-1.13-3.89-5.85-6.61-11.48-6.61
		c-0.79,0-1.58,0.06-2.37,0.16l-0.46-1.41l30.39-8.67l-0.69-2.43l-32.92,9.39l1.19,3.63c-0.09,0.03-0.19,0.04-0.28,0.07
		c-6.24,1.81-11.06,6.13-12.88,11.58c-1.16,3.46-1.06,7.11,0.23,10.63c-3.7,1.08-7.09,2.08-10.1,2.98l-2.22-6.61
		c6-4.54,10.46-10.74,12.91-17.7l6.13-1.75l-0.69-2.43l-4.55,1.3c1.83-6.86,1.76-14.31-0.62-21.54c-2.6-7.9-7.59-14.49-14.01-19.07
		l5.75-1.7l-0.72-2.43l-7.83,2.32c-5.69-3.35-12.29-5.23-19.23-5.23c-2.66,0-5.3,0.29-7.9,0.84l-3.52-10.74l31.52-10.3l-0.79-2.41
		l-33.92,11.09l4.25,12.97c-0.5,0.14-0.99,0.29-1.49,0.46c-2,0.66-3.91,1.47-5.74,2.43l-2.71-7.37l-4.99-14
		c6.36-2.4,36.29-13.33,86.03-25.63c50.23-12.43,83.31-18.37,89.93-19.51l1.55,8.43c-2.86,0.5-5.32,0.93-7.4,1.31l-0.08-0.38
		l-35.43,7.01l4.05,18.34l2.47-0.55L278.68,160.3z M251.61,305.85c0.02,0.06,0.05,0.11,0.07,0.17l-18.48-1.05l-10.66-8.49
		c-1.19-1.06-1.29-2.89-0.23-4.07c1.02-1.14,2.93-1.25,4.07-0.23l0,0l9.33,7.35l16.05,2.55
		C251.31,303.29,251.25,304.6,251.61,305.85z M241.92,291.29c-0.78-3.54-6.73-6.38-11.96-7.44c8.84-2.53,18.13-5.02,27.69-7.35
		c22.67-5.52,44.68-10.21,62.67-13.81l2.97,15.39c-27.54,5.3-54.79,11.85-81.67,19.61C242.08,296.23,242.51,293.97,241.92,291.29z
		 M228.89,279.88c-1.28,1.34-2.9,2.34-4.73,2.87c-0.97,0.28-1.97,0.42-2.97,0.42h0c-3.01,0-5.81-1.29-7.79-3.4
		c1.83-0.65,3.41-1.27,4.01-1.5l2.21-0.87l-1.96-1.35c-1.89-1.3-2.63-3.26-2.07-5.5c0.74-2.95,3.83-6.34,9.1-8.15
		c3.2,1.12,5.78,3.74,6.75,7.11c0.78,2.68,0.48,5.5-0.83,7.96c-2.16,0.08-4.26-0.92-5.55-2.68l-2.04,1.5
		C224.46,278.23,226.58,279.49,228.89,279.88z M214.57,276.65c-3.11,1.16-7.01,2.5-8.48,2.65c-3-4.21-3.86-8.85-2.43-13.12
		c1.56-4.66,5.74-8.38,11.19-9.95c1.47-0.42,2.96-0.64,4.45-0.64c3.68,0,6.92,1.38,8.38,3.43c-8.52,1.51-13.43,6.45-14.54,10.92
		C212.51,272.47,213.03,274.82,214.57,276.65z M205.31,282.04c0,0,3.49-0.73,5.51-1.38c1.6,2.02,3.76,3.54,6.2,4.37
		c-7.62,2.31-14.79,4.59-21.34,6.76l-3.49-10.39c3.08-0.92,6.54-1.94,10.33-3.05C203.05,279.31,204.64,282.04,205.31,282.04z
		 M231.24,278.71L231.24,278.71L231.24,278.71L231.24,278.71z M257.05,274.05c-8.8,2.14-17.38,4.43-25.6,6.75
		c0.48-0.6,0.93-1.24,1.31-1.93c1.59-2.89,2.03-6.2,1.28-9.39c6.61-1.79,13.57-3.64,20.8-5.49c24.68-6.33,47.56-11.28,62.95-14.42
		l2.05,10.64C301.81,263.81,279.76,268.51,257.05,274.05z M155.26,208.45c3.59-1.18,7.32-1.78,11.06-1.78
		c15.33,0,28.85,9.79,33.64,24.37c5.91,17.99-3.44,37.4-20.93,44.11c-2.6-1.97-5.51-3.52-8.62-4.58c1.65-0.24,3.29-0.61,4.89-1.14
		c15.07-4.95,23.31-21.25,18.35-36.32c-3.89-11.84-14.88-19.8-27.33-19.8c-3.05,0-6.07,0.49-8.99,1.45
		c-15.07,4.95-23.31,21.25-18.35,36.32c2.84,8.65,9.48,15.21,17.7,18.13c-2.16,0.28-4.29,0.76-6.36,1.5
		c-1.04,0.37-2.05,0.8-3.03,1.27c-6.73-4.29-12-10.83-14.62-18.82c-2.95-8.99-2.23-18.59,2.04-27.03
		C138.97,217.68,146.27,211.41,155.26,208.45z M166.31,268.35c-11.36,0-21.38-7.26-24.93-18.06c-4.52-13.75,2.99-28.61,16.74-33.13
		c2.66-0.88,5.42-1.32,8.2-1.32c11.36,0,21.38,7.26,24.93,18.06c4.52,13.75-2.99,28.61-16.74,33.13
		C171.85,267.91,169.09,268.35,166.31,268.35z M130.27,253.95c1.52,4.63,3.87,8.8,6.84,12.39c-1.2,7.32-5.98,13.92-13.27,17.09
		c-2.87,1.25-5.89,1.88-8.99,1.88c-9,0-17.13-5.33-20.72-13.58c-4.96-11.42,0.29-24.75,11.71-29.71c2.87-1.25,5.89-1.88,8.99-1.88
		c5.03,0,9.78,1.67,13.63,4.57C128.67,247.81,129.27,250.91,130.27,253.95z M129.77,231.87c-0.38-0.18-0.77-0.36-1.15-0.53
		c0.5-0.2,1-0.39,1.49-0.58C129.99,231.13,129.87,231.5,129.77,231.87z M132.45,224.98c-0.44,0.86-0.83,1.74-1.19,2.62
		c-1.97,0.76-4.04,1.56-6.18,2.4c-1.59-0.5-3.22-0.88-4.89-1.15l-3.05-7.79l13.74-5.64l-0.96-2.34l-16.04,6.59l3.46,8.85
		c-0.84-0.06-1.68-0.09-2.53-0.09c-4.71,0-9.3,0.96-13.65,2.85c-2.14,0.93-4.14,2.06-5.98,3.34l-1.63-3.87l13.94-5.72l-0.96-2.34
		l-16.3,6.69l2.87,6.83c-2.39,1.96-4.49,4.21-6.23,6.69l-7.45-17.19c3.4-1.54,14.13-6.35,27.12-11.49
		c12.95-5.13,23.9-9.34,27.44-10.69l4.61,12.65C136.17,218.78,134.1,221.73,132.45,224.98z M150.46,329.3l-0.46-1.05
		c0.55,0.2,1.1,0.4,1.66,0.57C151.26,328.97,150.86,329.13,150.46,329.3z M185.96,311.59c-3.22,6.77-8.88,11.89-15.95,14.41
		c-3.05,1.09-6.22,1.64-9.42,1.64c-11.85,0-22.48-7.5-26.45-18.67c-5.19-14.59,2.45-30.68,17.03-35.87
		c3.05-1.09,6.22-1.64,9.42-1.64c11.85,0,22.48,7.5,26.45,18.67C189.56,297.19,189.17,304.82,185.96,311.59z M195.82,312.23
		l-4.64-14.12c-0.14-2.98-0.73-5.95-1.76-8.84c-0.85-2.37-1.97-4.59-3.33-6.63l-2.26-6.89c1.1-0.57,2.17-1.19,3.19-1.86l12.44,37.09
		C198.25,311.4,197.03,311.81,195.82,312.23z M201.86,310.16l-0.6-1.79l-4.76-14.2c6.19-2.05,12.93-4.2,20.08-6.38
		c-2.25,2.65-2.6,5.82-1.93,8.37l1.97,8.52l0.13,0.57C211.78,306.85,206.81,308.49,201.86,310.16z M217.11,295.57
		c-0.29-1.12-1.34-6.82,6.77-9.39c0.54-0.17,1.23-0.26,2.06-0.26c5.36,0,12.93,3.32,13.5,5.91c0.56,2.56-0.05,4.65-0.45,5.66
		l-2.23-0.35l-8.82-6.95c-0.98-0.82-2.21-1.27-3.48-1.27c-1.54,0-3.01,0.66-4.04,1.8c-1.99,2.22-1.8,5.65,0.48,7.69l11.35,9.04
		l9.04,0.51l0.78,2.53l-20.1,6.07L217.11,295.57z M234.67,344.3l7.21-2.09l4.76,20.52c-0.84,0.07-1.66,0.22-2.42,0.44
		c-1.01,0.29-1.86,0.69-2.57,1.17L234.67,344.3z M242.23,372.94c-0.43-1.54-0.76-3.06-0.59-4.28c0.14-1.02,0.64-2.28,3.29-3.05
		c0.9-0.26,1.9-0.4,2.91-0.4c1.82,0,5.97,0.48,7.84,4.59L242.23,372.94z M261.07,368.34l-3,0.67c-1.11-2.59-3.06-4.48-5.62-5.49
		c0.43-0.07,0.87-0.1,1.32-0.1C255.41,363.41,259.21,363.92,261.07,368.34z M252.92,360.94c-0.78,0.06-1.55,0.17-2.29,0.38
		c-0.58,0.17-1.07,0.37-1.54,0.58l-0.14-0.4l-4.64-19.99l3.84-1.11L252.92,360.94z M217.74,346.57l4.43-27.42l7.32-2.21l13.8-4.17
		l20.26,20.54L217.74,346.57z M264.8,328.68c-0.47,0.29-0.94,0.58-1.41,0.87l-18.62-18.87l-0.79-2.55l9.44,0.54
		c1.07,0.94,2.44,1.51,3.92,1.51c0.56,0,1.12-0.08,1.66-0.24c1.53-0.44,2.8-1.46,3.57-2.85c0.1-0.18,0.19-0.37,0.27-0.56l26.61,6
		C281.32,318.05,273.1,323.45,264.8,328.68z M254.33,302.53c0.44-0.81,1.17-1.39,2.06-1.64c0.31-0.09,0.64-0.14,0.96-0.14
		c1.52,0,2.88,1.02,3.3,2.49c0.26,0.88,0.15,1.81-0.29,2.62c-0.44,0.81-1.17,1.39-2.06,1.64c-0.31,0.09-0.64,0.14-0.96,0.14
		c-1.52,0-2.88-1.02-3.3-2.49C253.79,304.27,253.89,303.34,254.33,302.53z M292.33,310.57l-29.02-6.54c-0.01-0.5-0.09-1-0.23-1.49
		c-0.73-2.54-3.09-4.31-5.73-4.31c-0.56,0-1.12,0.08-1.66,0.24c-0.88,0.26-1.66,0.72-2.33,1.32l-6.3-1
		c29.36-8.31,59.15-15.18,89.27-20.55C322.08,289.43,307.37,300.25,292.33,310.57z M350.2,351.5l-4.55,0.92l-10.32-10.5l-19.23,2.32
		l-2.46,16.64l-3.63,1.05l-5.41-16.28l-1.42-10.31l-9.6-11.71l12.34,4.15l27.9-4.14l10.69,9.14l-2.94,3.15L350.2,351.5z
		 M351.39,308.01l3.51,3.73l8.22-2.24l1.68,3.79l-9.07,6.31l9.13,3.14l-0.92,2.72l-11.97-0.71l-5.73,6.14l-12.06-10.67l1.61-15.03
		l8.23,4.59L351.39,308.01z M342.35,305.97l-8.67-4.84l-1.96,18.32l-36.02-8.12c15.72-10.85,31.07-22.22,45.89-34.02
		c7.28-1.26,14.59-2.42,21.91-3.51C358.27,284.35,350.52,295.22,342.35,305.97z M395.23,258.49c-1.02,0.11-2.05,0.17-3.07,0.17
		c-14.34,0-26.33-10.77-27.88-25.05c-1.67-15.39,9.49-29.28,24.88-30.95c1.02-0.11,2.05-0.17,3.07-0.17
		c14.34,0,26.33,10.77,27.88,25.05c0.81,7.46-1.33,14.78-6.03,20.63C409.38,254.02,402.68,257.68,395.23,258.49z M360.17,247.13
		l2.5-0.37l-2.12-14.34l1.08-0.16c0.03,0.54,0.07,1.08,0.13,1.62c0.74,6.78,3.63,12.83,7.95,17.5c-3.77,0.5-8.19,1.15-13.27,2.01
		l-25.5,4.31l-14.68-80.67c3.35-0.77,13.77-3.06,28.6-5.27c14.83-2.21,25.25-2.88,28.6-3.06l4.4,34.83
		c-9.55,5.08-15.95,15.02-16.26,26.17l-3.93,0.57L360.17,247.13z M443.75,196.94l7.51-1.87l3.93,15.78c-6.27,1.4-12.53,3-18.76,4.81
		l-0.45-1.8l-0.65-2.63l11.28-2.8L443.75,196.94z M438.71,195.58l-1.91,0.47l-0.87-3.49l10.2-2.54l0.87,3.49L438.71,195.58z
		 M441.29,197.55l2.25,9.04l-8.82,2.19l0,0l0,0l-2.25-9.04l2.27-0.56L441.29,197.55z M432.87,211.85l1.13,4.52
		c-1.51,0.45-3.02,0.93-4.52,1.4l-1.19-4.79L432.87,211.85z M520.05,206.15c0.78,0,1.57,0,2.36,0.01
		c31.15,0.26,62.36,5.63,93.09,15.98c-0.42,1.32-0.76,2.69-1.01,4.09c-30.4-10.03-61.26-15.26-92.06-15.51
		c-33.58-0.3-67.05,5.24-99.82,16.39c-0.16-1.42-0.42-2.81-0.76-4.16C454.07,211.8,487,206.15,520.05,206.15z M464.98,192.02
		l4.54-0.44l1.57,16.17c-1.5,0.25-3,0.51-4.5,0.78L464.98,192.02z M472.03,191.34l4.54-0.44l1.53,15.76
		c-1.51,0.22-3.01,0.42-4.52,0.66L472.03,191.34z M479.09,190.65l4.54-0.44l1.51,15.52c-1.51,0.18-3.02,0.35-4.53,0.56
		L479.09,190.65z M486.14,189.97l4.54-0.44l1.5,15.45c-1.51,0.14-3.03,0.29-4.54,0.46L486.14,189.97z M493.2,189.28l4.54-0.44
		l1.51,15.54c-1.52,0.11-3.03,0.22-4.55,0.35L493.2,189.28z M500.26,188.6l4.54-0.44l1.53,15.81c-1.52,0.07-3.04,0.16-4.56,0.25
		L500.26,188.6z M514.86,203.69l0.95-15.85l4.55,0.27l-0.93,15.52C517.9,203.64,516.38,203.67,514.86,203.69z M521.96,203.63
		l0.92-15.37l4.55,0.27l-0.91,15.18c-1.37-0.03-2.73-0.08-4.1-0.09C522.27,203.63,522.12,203.63,521.96,203.63z M529.06,203.78
		l0.91-15.08l4.55,0.27l-0.9,15C532.09,203.9,530.58,203.82,529.06,203.78z M536.14,204.09l0.9-14.97l4.55,0.27l-0.9,15
		C539.17,204.28,537.66,204.17,536.14,204.09z M543.21,204.57l0.9-15.03l4.55,0.27l-0.91,15.16
		C546.24,204.83,544.73,204.69,543.21,204.57z M550.28,205.23l0.92-15.26l4.55,0.27l-0.93,15.5
		C553.3,205.56,551.79,205.39,550.28,205.23z M582.8,206.22l-0.93,4.03c-5.51-1.18-11.03-2.19-16.55-3.06l3.34-14.46l9.2,2.13
		l-2.24,9.7L582.8,206.22z M599.4,200.72l5.92,1.37l-1.5,6.49l-5.92-1.37L599.4,200.72z M598.37,194.59l10.56,2.44l-2.52,2.71
		l-6.96-1.61L598.37,194.59z M606.93,211.89l-1.05,4.54c-1.8-0.54-3.6-1.05-5.41-1.56l0.98-4.25L606.93,211.89z M599,210.05
		l-0.96,4.14c-4.56-1.24-9.13-2.36-13.7-3.38l0.91-3.93L599,210.05z M583.37,203.75l-4.72-1.09l1.67-7.24l4.71,1.09L583.37,203.75z
		 M460.55,220.54l19.75,12.13c-11.66,1.63-22.97,4.05-33.8,7.22L460.55,220.54z M444.72,238.04L424.94,229
		c10.91-3.65,21.89-6.68,32.93-9.06L444.72,238.04z M462.76,218.93c11.99-2.38,24.03-4.04,36.11-4.92l-15.88,17.35L462.76,218.93z
		 M500.93,215.5l16.51,14.68c-10.7-0.03-21.26,0.57-31.58,1.78L500.93,215.5z M502.8,213.78c6.53-0.39,13.06-0.58,19.61-0.52
		c5.07,0.04,10.15,0.22,15.23,0.54l-17.39,15.49L502.8,213.78z M538.59,216.32l13.88,16.3c-9.64-1.33-19.5-2.13-29.51-2.37
		L538.59,216.32z M539.89,213.95c12.01,0.83,24.02,2.42,35.98,4.76l-20.89,12.97L539.89,213.95z M575.47,221.94l11.7,18.06
		c-9.66-2.82-19.7-5.06-30.02-6.68L575.47,221.94z M576.47,218.83c12.1,2.39,24.17,5.54,36.16,9.45l-23.38,10.28L576.47,218.83z
		 M612.2,231.24l2.08,4.47c0.75,5.66,3.07,11,6.81,15.5c0.27,0.32,0.55,0.64,0.83,0.95l0.83,1.79
		c-10.17-5.15-21.08-9.51-32.55-13.03L612.2,231.24z M422.62,233.94l1.31-2.61l20.25,9.25c-10.83,3.29-21.15,7.34-30.81,12.09
		c0.94-0.91,1.84-1.88,2.67-2.91C419.76,245.15,422,239.68,422.62,233.94z M499.21,261.31c-30.88,0-61.62,1.53-92.11,4.56
		c31.18-17.18,70.37-26.4,111.59-26.07c8.73,0.07,17.36,0.57,25.83,1.48l-30.02,20.15l0,0
		C509.42,261.36,504.32,261.31,499.21,261.31z M634.45,271.18c-38.11-5.59-76.69-8.83-115.54-9.65l29.49-19.8
		c32.12,3.94,61.85,13.82,86.13,28.77L634.45,271.18z M634.88,267.75c-31.88-19.34-72.83-30.12-116.17-30.48
		c-0.74-0.01-1.47-0.01-2.21-0.01c-42.45,0-82.73,10.09-114.32,28.5l-0.42-3.9c32.03-19.17,73.35-29.48,116.93-29.15
		c43.72,0.36,84.94,11.42,116.68,31.22L634.88,267.75z M661.14,275.49c-4.85-0.86-9.71-1.68-14.58-2.46l1.41-10.99
		c6.39-0.68,12.2-3.31,16.79-7.32L661.14,275.49z M665.51,250.45c-5.14,5.71-12.58,9.25-20.86,9.25c-0.86,0-1.73-0.04-2.59-0.12
		c-7.47-0.68-14.23-4.23-19.03-9.99c-4.8-5.76-7.07-13.05-6.39-20.52c1.33-14.55,13.34-25.53,27.93-25.53c0.03,0,0.05,0,0.08,0
		c-0.36,1.31-0.66,2.64-0.87,4.02c-0.14,0.89-0.23,1.78-0.3,2.67c-10.64,0.53-19.25,8.7-20.23,19.44
		c-0.52,5.7,1.21,11.27,4.88,15.67s8.82,7.11,14.53,7.63c0.65,0.06,1.32,0.09,1.97,0.09c7.44,0,13.98-3.75,17.82-9.53
		c1.27,0.63,2.6,1.18,3.96,1.65L665.51,250.45z M660.23,242.3c-3.4,5-9.11,8.22-15.59,8.22c-0.58,0-1.16-0.03-1.74-0.08
		c-5.03-0.46-9.58-2.85-12.81-6.73c-3.23-3.88-4.76-8.79-4.3-13.82c0.86-9.4,8.33-16.56,17.6-17.14
		C643.36,225.03,649.97,236.22,660.23,242.3z M696.53,288.65c-1.93,0-3.87-0.2-5.78-0.6c-15.16-3.17-24.91-18.08-21.73-33.24
		c2.71-12.94,14.25-22.33,27.46-22.33c1.93,0,3.87,0.2,5.78,0.6c15.15,3.17,24.9,18.08,21.73,33.24
		C721.28,279.25,709.73,288.65,696.53,288.65z M695.48,226.59c-1.07,1.38-2.3,2.63-3.65,3.72c-4.57,0.71-8.86,2.45-12.58,5
		c-0.51,0.04-1.03,0.07-1.55,0.07c-1.16,0-2.33-0.09-3.49-0.27c-5.96-0.92-11.2-4.11-14.77-8.98c-3.56-4.87-5.01-10.83-4.09-16.79
		c1.69-10.9,11.27-19.13,22.28-19.13c1.16,0,2.33,0.09,3.49,0.27c5.96,0.92,11.2,4.11,14.77,8.98c0.8,1.09,1.48,2.25,2.06,3.44
		c-0.95,2.14-1.73,4.38-2.29,6.73C694.3,215.3,694.27,221.07,695.48,226.59z M711.22,233.72c-4.26-5.97-6.02-13.68-4.18-21.36
		c2.84-11.86,13.33-20.14,25.5-20.14c2.05,0,4.12,0.25,6.13,0.73c6.82,1.63,12.59,5.82,16.26,11.8c3.67,5.98,4.79,13.02,3.15,19.84
		c-2.84,11.86-13.33,20.14-25.5,20.14c-2.05,0-4.12-0.25-6.13-0.73c-2.02-0.48-3.93-1.2-5.71-2.1
		C718.19,238.59,714.97,235.78,711.22,233.72z M728.96,259.88l0.84-3.57c0.93,0.07,1.86,0.12,2.78,0.12c2.87,0,5.67-0.32,8.37-0.93
		l-0.27,1.19l2.47,0.56l0.56-2.47c4.83-1.47,9.28-3.9,13.1-7.07c-2.04,2.79-3.63,5.94-4.64,9.38c-0.8,2.75-1.21,5.56-1.23,8.35
		l-11.83-2.99l-3.8,15l2.45,0.62l3.18-12.55l10.09,2.55c0.33,4.26,1.56,8.44,3.68,12.31c1.91,3.49,4.43,6.51,7.42,8.96
		c-2.58-0.71-5.46-1.49-8.66-2.35c-0.28-1.03-0.48-1.69-0.51-1.82l-0.54-1.82l-3.1,2.52c-5.67-1.52-12.17-3.24-19.57-5.17l-5.38-1.4
		l4.01-16.95l3.81,0.96l0.62-2.45L728.96,259.88z M722.2,288.42l1.58-6.67l5.33,1.39c6.64,1.73,12.55,3.29,17.79,4.69l-4.69,3.81
		c-0.78-0.14-1.54-0.2-2.28-0.2c-1.33,0-2.53,0.22-3.64,0.59C731.61,290.79,726.91,289.59,722.2,288.42z M726.49,310.08
		L726.49,310.08L726.49,310.08L726.49,310.08z M729.09,311.79c0.19,0.01,0.38,0.02,0.57,0.02c2.76,0,5.49-0.91,7.64-2.63l-1.58-1.97
		c-3.47,2.83-8.94,1.91-8.94,1.91c-1.38-1.88-2.29-3.77-2.37-5.22c-0.07-1.38,0.56-2.19,2.04-2.63c1.79-0.54,3.32-1.82,4.93-3.18
		c2.4-2.02,4.87-4.11,8.55-4.11c0.75,0,1.54,0.09,2.35,0.26l0.59,0.13l8.18-6.64c1.14,4.22,3.69,14.59,2.72,19.35
		c-1.17,5.69-7.04,9.99-13.64,9.99c-0.94,0-1.89-0.09-2.81-0.26C734.56,316.27,731.53,314.23,729.09,311.79z M751.69,375.4
		L751.69,375.4L751.69,375.4L751.69,375.4z M762.72,366.96c6.97,0,10.62-1.63,12.21-5.44c1.82-4.35,0.67-6.4-0.78-8.98
		c-1.48-2.65-3.02-5.38-0.77-10.28c1.91-4.15,5.81-6.63,10.44-6.63c0.92,0,1.85,0.1,2.77,0.29c0.88,0.18,1.42,0.44,1.64,0.79
		c0.19,0.3,0.22,0.76,0.08,1.4c-0.31,1.41-0.93,1.53-1.59,1.53c-0.3,0-0.65-0.04-1.09-0.13c-0.61-0.12-1.26-0.19-1.93-0.19
		c-2.4,0-5.32,0.83-6.31,3.15c-1.28,2.97-0.47,4.64,0.96,7.11c1.5,2.59,3.38,5.82,0.93,12.13c-3.01,7.75-10.05,11.52-21.53,11.52
		c-1.66,0-3.27-0.08-4.8-0.2c2.35-1.7,4.5-3.79,6.38-6.17C760.54,366.91,761.68,366.96,762.72,366.96z M760.44,330.95
		c1.97,3.08,3.24,6.53,3.79,10.14c0.52,3.42,0.4,6.99-0.41,10.57c-1.99,8.85-7.81,17.01-14.89,20.92l-1.03-0.19
		c-3.19-1.15-8.39-2.72-16.48-4.43c-2.33-0.49-4.47-0.92-6.44-1.3c2.42-4.57,7.05-4.8,7.21-4.81l12.04,0.52l-0.34-1.6
		c-0.55-2.59-0.51-5.27,0.11-7.98c0.95-4.16,3.75-9.66,7.65-11.92c2-1.16,4.15-1.4,6.41-0.72l0.07-0.22l0.66-2.2
		c-2.95-0.89-5.78-0.57-8.41,0.96c-4.57,2.65-7.74,8.71-8.84,13.54c-0.58,2.52-0.71,5.03-0.39,7.48l-6.35-0.27l7.49-24.04
		l-1.21-0.38l-1.21-0.38l-7.69,24.69c-0.27,0.01-6.84,0.37-9.78,6.86c-4.83-0.88-8.43-1.94-10.87-2.24
		c2.41-5.63,7.55-4.97,7.77-4.95l5.91,0.41l7.63-30.47l0.13-0.51l-2.45-0.61l-4.42,17.66c-2.78-3.76-4.45-10.61-2.67-15.36
		c3.12-8.3,11.38-11.88,22.12-9.57c4.49,0.97,8.5,3.2,11.68,6.42C757.24,326.97,759.55,329.56,760.44,330.95z M758.04,324.24
		c-3.16-2.87-6.95-4.92-11.16-5.97c4.76-1.93,8.36-5.85,9.36-10.7c0.4-1.94,0.3-4.61-0.04-7.43c2.73,0.79,5.46,1.59,8.19,2.41
		L758.04,324.24z M765.1,300.13c-3.09-0.93-6.2-1.83-9.3-2.73c-0.46-2.74-1.06-5.44-1.6-7.61c5.14,1.39,9.43,2.57,12.89,3.53
		L765.1,300.13z M773.69,292.61c-7.2-2.1-13.15-6.88-16.76-13.46c-3.6-6.58-4.43-14.16-2.33-21.36
		c3.47-11.9,14.55-20.22,26.94-20.22c2.66,0,5.31,0.38,7.88,1.13c7.2,2.1,13.15,6.88,16.76,13.46c3.6,6.58,4.43,14.16,2.33,21.36
		c-3.48,11.9-14.55,20.22-26.94,20.22C778.91,293.75,776.26,293.37,773.69,292.61z M770.35,214.97c15.24,4.33,24.66,7.24,28.87,8.58
		l-4.41,14.52c-1.5-0.72-3.06-1.32-4.68-1.8c-2.81-0.82-5.7-1.23-8.59-1.23c-2.41,0-4.76,0.3-7.04,0.85l2.78-9.74l14.91,4.5
		l0.73-2.42l-17.36-5.24l-3.92,13.73c-3.27,1.13-6.31,2.82-9,4.95c3.18-4.14,5.55-9,6.83-14.36
		C770.45,223.21,770.73,219.05,770.35,214.97z M834,253.69l-5.91,16.37l1.66,0.6c-0.19,0.42-0.39,0.83-0.56,1.26
		c-0.79,1.96-1.39,3.94-1.84,5.93l-1.84-0.66l-5.6,15.51l2.38,0.86l4.46-12.35c-0.94,7.26,0.28,14.53,3.3,20.98L798.63,291
		c5.69-3.84,10.08-9.55,12.18-16.38l7.17,2.57l0.85-2.38l-7.37-2.64c1.16-5.32,0.9-10.76-0.76-15.88l2.45-7.42l13.09,4.71l0.86-2.38
		l-15.53-5.59l-2.32,7.02c-0.27-0.56-0.54-1.12-0.85-1.67c-1.02-1.86-2.21-3.58-3.55-5.16l10.97-34.4
		c3.11,1.04,12.21,4.12,27.05,9.4c14.81,5.27,23.4,8.74,26.31,9.94l-6.88,17.49c-7.93,0.43-15.33,3.27-21.33,7.97L834,253.69z
		 M838.74,258.08c-2.47,2.27-4.63,4.89-6.45,7.8l3.23-8.96L838.74,258.08z M840.87,326.44c-20.86-8.28-42.01-15.78-63.4-22.51
		l2.34-7.72c0.59,0.03,1.17,0.06,1.76,0.06c5.09,0,9.97-1.29,14.28-3.58l35.94,12.81c3.01,5.06,7.2,9.45,12.38,12.71L840.87,326.44z
		 M850.39,318.62c-17.6-7.56-26.06-27.9-18.86-45.76c5.43-13.48,18.33-22.19,32.86-22.19c4.53,0,8.98,0.87,13.22,2.57
		c18.11,7.3,26.92,27.97,19.62,46.08c-0.04,0.11-0.1,0.21-0.14,0.32c-1.24-0.82-2.56-1.56-3.95-2.2c-0.65-0.3-1.32-0.57-1.98-0.83
		c5.76-14.66-1.39-31.32-16.03-37.21c-3.44-1.39-7.06-2.09-10.74-2.09c-11.81,0-22.29,7.08-26.7,18.03
		c-5.78,14.34,0.87,30.66,14.84,36.96c-0.01,0.02-0.02,0.03-0.02,0.05C851.55,314.41,850.86,316.51,850.39,318.62z M904.54,296.48
		l-2.84,6.88c-0.79-0.78-1.63-1.51-2.52-2.21c0.13-0.3,0.27-0.58,0.39-0.88c4.09-10.15,3.45-21.06-0.86-30.27l8.4,3.62l1-2.32
		l-11.3-4.87c-3.71-6.13-9.17-11.26-16.02-14.54c7.85,3.4,18.77,8.26,33.15,14.92c29.14,13.48,44.53,21.39,48.6,23.51l-34.09,64.95
		c-2.72-1.32-10.5-5.05-24.02-11.28c1.41-1.81,2.63-3.78,3.62-5.91c5.17-11.16,3.01-23.86-4.46-32.68l2.24-5.43l13.25,6.71
		l1.14-2.26L904.54,296.48z M888.76,295.81c-2.74-0.8-5.58-1.21-8.46-1.21c-11.02,0-21.19,5.99-26.6,15.46
		c-12.83-5.71-18.95-20.64-13.66-33.77c4.02-9.99,13.58-16.45,24.36-16.45c3.36,0,6.65,0.64,9.8,1.91
		C887.58,267.15,894.1,282.41,888.76,295.81z M880.26,353.31c-4.08,0-8.05-0.88-11.78-2.61c-14.05-6.51-20.19-23.23-13.68-37.28
		c4.58-9.89,14.59-16.29,25.5-16.29c4.08,0,8.05,0.88,11.78,2.61c14.05,6.51,20.19,23.23,13.68,37.28
		C901.18,346.92,891.17,353.31,880.26,353.31z M917.92,257.4c42.95,18.84,64.88,30.33,69.85,32.99l-45.8,83.46
		c-14.82-8.08-29.84-15.74-45.04-22.98c2.12-1.38,4.07-3.02,5.8-4.89c17.53,8.07,25.62,12.04,25.72,12.09l1.11,0.54l36.4-69.36
		l-1.11-0.59c-0.15-0.08-15.46-8.25-49.84-24.16c-18.68-8.64-31.54-14.26-39.42-17.6l2.61-6.49
		C888.23,244.57,901.3,250.11,917.92,257.4z M812.91,187.2c3.82,1.15,16.72,5.15,38.28,12.89c21.17,7.61,31.82,12.14,35.05,13.57
		l-14.19,35.28c-2.3-0.48-4.64-0.74-7.01-0.78l7.39-18.79l-1.12-0.49c-0.09-0.04-8.94-3.84-27.59-10.48
		c-18.63-6.63-28.22-9.79-28.32-9.82l-1.21-0.4l-11.31,35.48c-1.74-1.69-3.67-3.16-5.77-4.39L812.91,187.2z M802.48,212.85
		l-2.52,8.29c-4.35-1.38-14.11-4.4-29.95-8.89c-0.51-3.06-1.4-6.05-2.66-8.93C781.84,207.15,793.39,210.3,802.48,212.85z
		 M732.53,183.05c2.77,0,5.56,0.33,8.28,0.98c9.2,2.2,16.99,7.86,21.94,15.92c4.95,8.06,6.46,17.57,4.26,26.77
		c-3.83,16-17.98,27.18-34.41,27.18c-2.12,0-4.25-0.2-6.35-0.58c-0.66-2.68-1.68-5.24-3-7.63c0.86,0.29,1.73,0.55,2.63,0.77
		c2.21,0.53,4.47,0.8,6.72,0.8c13.35,0,24.85-9.08,27.96-22.08c1.79-7.47,0.56-15.2-3.46-21.75c-4.02-6.55-10.35-11.14-17.83-12.93
		c-2.21-0.53-4.47-0.8-6.72-0.8c-13.35,0-24.85,9.08-27.96,22.08c-1.69,7.04-0.61,14.11,2.53,20.07c-1.39-0.51-2.84-0.93-4.33-1.25
		c-1.22-0.25-2.45-0.43-3.68-0.53c-2.21-6.33-2.57-13.16-0.97-19.84C701.95,194.23,716.1,183.05,732.53,183.05z M682.53,181.43
		c8.38,1.3,15.75,5.78,20.76,12.63c0.03,0.04,0.06,0.08,0.09,0.12c-1.52,1.83-2.87,3.82-4.04,5.94c-0.43-0.73-0.9-1.45-1.41-2.14
		c-3.96-5.41-9.79-8.96-16.42-9.99c-1.28-0.2-2.59-0.3-3.88-0.3c-12.45,0-22.87,8.94-24.78,21.27c-1.03,6.63,0.59,13.26,4.55,18.67
		s9.79,8.96,16.42,9.99c0.73,0.11,1.47,0.19,2.21,0.23c-1.95,1.75-3.67,3.76-5.12,5.97c-7.59-1.64-14.24-5.95-18.86-12.27
		c-5.01-6.84-7.05-15.23-5.75-23.61c2.38-15.33,15.85-26.89,31.33-26.89C679.25,181.05,680.9,181.17,682.53,181.43z M664.45,163.82
		l11.64,14.73c-8.61,0.38-16.43,3.9-22.26,9.54c-6.43-1.75-13.22-2.98-20.34-3.49L664.45,163.82z M630,186.94
		c7.66,0.3,14.95,1.46,21.84,3.23c-2.74,3.14-4.91,6.8-6.38,10.84c-0.29-0.01-0.59-0.02-0.88-0.02c-12.7,0-23.6,7.63-28.22,18.77
		c-2.68-0.9-5.37-1.77-8.06-2.6l1.66-7.18l-3.68-0.85l1.71-7.39l0.08-0.09L630,186.94z M526.87,75.67l37.92,41.39
		c-45.73-3.07-84.29,17.04-101.15,27.62L526.87,75.67z M437.01,173.74l19.17-20.93c2.19-1.68,50.6-38.3,111.11-33.03l60.25,65.76
		l-14.62,9.81l-18.25-4.22l2.47,8.1l-1.71,7.39l-9.62-2.22l1.69-7.32l3.79,0.88l0.57-2.46l-3.79-0.88l0,0l-21.31-4.92v0l-3.79-0.88
		l-0.57,2.46l3.79,0.88l-3.39,14.65c-1.83-0.27-3.66-0.53-5.49-0.76l1.09-18.19l-44.98-2.7l-1.11,18.56
		c-1.15,0.03-2.31,0.09-3.46,0.14l-1.79-18.47l-44.85,4.35l1.87,19.25c-2.14,0.41-4.29,0.83-6.43,1.29l-3.94-15.83l4.83-1.2
		l-0.61-2.45l-8.48,2.11l-1.48-5.95l-15.11,3.76l1.48,5.94l-4.95,1.23l0,0l-5.82,1.44l0.61,2.45l5.82-1.44l2.25,9.04l-7.04,1.75
		l1.84,7.38c-1.98,0.64-3.96,1.32-5.94,2.01c-2.25-6.5-6.59-11.95-12.19-15.61L437.01,173.74z M416.82,157.34l17.47,15.64
		l-27.58,30.62c-4.32-2.33-9.26-3.64-14.48-3.64c-0.86,0-1.73,0.05-2.59,0.12l-4.77-39.83c9.79-2.74,20.56-4.05,31.93-2.69
		L416.82,157.34z M387.58,131.14l26.35,23.6c-10.41-0.82-20.3,0.47-29.36,2.98l-1.91-15.95h-1.12c-0.13,0-1.22,0.01-3.68,0.18
		L387.58,131.14z M340.69,149.3c25.2-4.01,36.4-4.8,39.73-4.95l6.71,56.05c-2.4,0.4-4.7,1.08-6.87,2l-4.59-36.3l-1.15,0.04
		c-0.12,0-11.79,0.41-30.04,3.13c-18.23,2.72-29.87,5.56-29.99,5.59l-1.16,0.28l15.56,85.48l27.97-4.73
		c5.98-1.01,11.04-1.73,15.17-2.25c4.73,4.14,10.73,6.83,17.31,7.43l0.72,6.67c-21.58,2.54-43.02,5.84-64.29,9.88L302.3,155.99
		C305.53,155.31,315.93,153.24,340.69,149.3z M124.85,171.54c6.58-2.54,41.18-15.55,97.64-30.56
		c56.55-15.03,93.59-20.38,100.56-21.32l4.94,29.14c-2.53,0.42-4.85,0.81-6.96,1.17l-2.01-10.91l-1.22,0.2
		c-0.34,0.06-35.13,5.86-91.35,19.76c-49.71,12.3-79.74,23.24-86.27,25.71l-3-8.41l-1.18,0.41c-0.07,0.02-3.07,1.06-8.17,2.91
		L124.85,171.54z M60.89,209.65c4.05-1.86,18.55-8.44,37.25-15.96c18.66-7.5,33.35-12.72,37.5-14.17l10.78,30.26
		c-2.1,1.29-4.06,2.77-5.86,4.43l-5.08-13.96l-1.2,0.46c-0.13,0.05-12.93,4.92-28.67,11.16c-15.77,6.25-28.24,12-28.37,12.06
		l-1.12,0.52l9.11,21.02c-0.22,0.38-0.43,0.77-0.64,1.16c-2.05,0.88-4.04,1.73-5.98,2.57L60.89,209.65z M32.08,273.4
		c4.36-2.21,21.3-10.63,50.92-23.34c-1.33,3.34-2.13,6.89-2.36,10.51c-21.99,9.57-27.51,12.75-27.79,12.91l-1.02,0.59l2.77,5.6
		c-2.41-0.53-4.9-0.82-7.44-0.82c-3.78,0-7.57,0.66-11.16,1.9L32.08,273.4z M47.21,344.89c-11.95,0-22.77-6.59-28.24-17.2
		c-8.03-15.56-1.9-34.75,13.65-42.77c4.49-2.32,9.52-3.54,14.53-3.54c11.95,0,22.77,6.59,28.24,17.2
		c8.03,15.56,1.9,34.74-13.65,42.77C57.25,343.67,52.23,344.89,47.21,344.89z"/>
	<linearGradient id="SVGID_31_" gradientUnits="userSpaceOnUse" x1="346.4562" y1="-149.8153" x2="1003.2812" y2="507.0097">
		<stop  offset="0" style="stop-color:#0055B8"/>
		<stop  offset="0.5" style="stop-color:#732282"/>
		<stop  offset="1" style="stop-color:#E11383"/>
	</linearGradient>
	<polygon class="st30" points="790.27,301.5 808.58,308.04 809.43,305.66 791.13,299.12 	"/>
	<linearGradient id="SVGID_32_" gradientUnits="userSpaceOnUse" x1="47.7728" y1="148.8681" x2="704.5978" y2="805.6931">
		<stop  offset="0" style="stop-color:#0055B8"/>
		<stop  offset="0.5" style="stop-color:#732282"/>
		<stop  offset="1" style="stop-color:#E11383"/>
	</linearGradient>
	<polygon class="st31" points="111.4,201.6 110.45,199.25 93.93,205.92 94.88,208.27 	"/>
	<linearGradient id="SVGID_33_" gradientUnits="userSpaceOnUse" x1="-27.5753" y1="224.2163" x2="629.2496" y2="881.0413">
		<stop  offset="0" style="stop-color:#0055B8"/>
		<stop  offset="0.5" style="stop-color:#732282"/>
		<stop  offset="1" style="stop-color:#E11383"/>
	</linearGradient>
	<path class="st32" d="M52.03,297.95c-4.06-1.29-8.37-0.93-12.16,1.02l1.16,2.25c3.18-1.64,6.82-1.95,10.23-0.86
		c3.41,1.09,6.2,3.44,7.84,6.63l2.25-1.16C59.4,302.04,56.09,299.24,52.03,297.95z"/>
	<linearGradient id="SVGID_34_" gradientUnits="userSpaceOnUse" x1="421.0423" y1="-224.4014" x2="1077.8673" y2="432.4236">
		<stop  offset="0" style="stop-color:#0055B8"/>
		<stop  offset="0.5" style="stop-color:#732282"/>
		<stop  offset="1" style="stop-color:#E11383"/>
	</linearGradient>
	<polygon class="st33" points="932.8,301.76 939.15,288.51 953.09,295.45 954.22,293.18 937.98,285.1 930.52,300.67 	"/>
	<linearGradient id="SVGID_35_" gradientUnits="userSpaceOnUse" x1="414.6769" y1="-218.036" x2="1071.502" y2="438.7889">
		<stop  offset="0" style="stop-color:#0055B8"/>
		<stop  offset="0.5" style="stop-color:#732282"/>
		<stop  offset="1" style="stop-color:#E11383"/>
	</linearGradient>
	<polygon class="st34" points="930.66,282.02 914.52,273.98 907.56,290.77 909.9,291.74 915.81,277.45 929.53,284.29 	"/>
	<linearGradient id="SVGID_36_" gradientUnits="userSpaceOnUse" x1="354.4286" y1="-157.7877" x2="1011.2535" y2="499.0373">
		<stop  offset="0" style="stop-color:#0055B8"/>
		<stop  offset="0.5" style="stop-color:#732282"/>
		<stop  offset="1" style="stop-color:#E11383"/>
	</linearGradient>
	<polygon class="st35" points="815.13,310.39 833.36,316.91 834.22,314.53 815.98,308.01 	"/>
	<linearGradient id="SVGID_37_" gradientUnits="userSpaceOnUse" x1="404.7336" y1="-208.0927" x2="1061.5586" y2="448.7323">
		<stop  offset="0" style="stop-color:#0055B8"/>
		<stop  offset="0.5" style="stop-color:#732282"/>
		<stop  offset="1" style="stop-color:#E11383"/>
	</linearGradient>
	<polygon class="st36" points="928.45,310.86 941.91,317.67 943.05,315.41 927.28,307.43 920.21,322.19 922.49,323.29 	"/>
	<linearGradient id="SVGID_38_" gradientUnits="userSpaceOnUse" x1="389.9709" y1="-193.33" x2="1046.7959" y2="463.4949">
		<stop  offset="0" style="stop-color:#0055B8"/>
		<stop  offset="0.5" style="stop-color:#732282"/>
		<stop  offset="1" style="stop-color:#E11383"/>
	</linearGradient>
	<polygon class="st37" points="910.78,341.61 913.06,342.7 918.67,330.99 931.71,337.69 932.86,335.43 917.52,327.55 	"/>
	<linearGradient id="SVGID_39_" gradientUnits="userSpaceOnUse" x1="375.8471" y1="-179.2062" x2="1032.6721" y2="477.6187">
		<stop  offset="0" style="stop-color:#0055B8"/>
		<stop  offset="0.5" style="stop-color:#732282"/>
		<stop  offset="1" style="stop-color:#E11383"/>
	</linearGradient>
	<path class="st38" d="M900.41,317.84c-1.97-5.38-5.92-9.66-11.12-12.07c-2.85-1.32-5.88-1.99-9-1.99
		c-8.33,0-15.97,4.88-19.47,12.44c-2.41,5.2-2.65,11.02-0.67,16.4c1.97,5.38,5.92,9.66,11.12,12.07c2.85,1.32,5.88,1.99,9,1.99
		c8.33,0,15.97-4.88,19.47-12.44C902.14,329.04,902.38,323.21,900.41,317.84z M897.44,333.17c-3.09,6.66-9.83,10.97-17.17,10.97
		c-2.75,0-5.42-0.59-7.94-1.76c-4.58-2.12-8.07-5.9-9.81-10.64c-1.74-4.74-1.53-9.88,0.59-14.46c3.09-6.66,9.83-10.97,17.17-10.97
		c2.75,0,5.42,0.59,7.94,1.76c4.58,2.12,8.07,5.9,9.81,10.64C899.77,323.45,899.56,328.59,897.44,333.17z"/>
	<linearGradient id="SVGID_40_" gradientUnits="userSpaceOnUse" x1="412.3576" y1="-215.7167" x2="1069.1826" y2="441.1083">
		<stop  offset="0" style="stop-color:#0055B8"/>
		<stop  offset="0.5" style="stop-color:#732282"/>
		<stop  offset="1" style="stop-color:#E11383"/>
	</linearGradient>
	<circle class="st39" cx="956.35" cy="328.27" r="3.75"/>
	<linearGradient id="SVGID_41_" gradientUnits="userSpaceOnUse" x1="416.4527" y1="-219.8118" x2="1073.2777" y2="437.0132">
		<stop  offset="0" style="stop-color:#0055B8"/>
		<stop  offset="0.5" style="stop-color:#732282"/>
		<stop  offset="1" style="stop-color:#E11383"/>
	</linearGradient>
	<polygon class="st40" points="854.96,211.92 838.77,206.03 837.9,208.41 854.09,214.3 	"/>
	<linearGradient id="SVGID_42_" gradientUnits="userSpaceOnUse" x1="381.3735" y1="-184.7326" x2="1038.1985" y2="472.0923">
		<stop  offset="0" style="stop-color:#0055B8"/>
		<stop  offset="0.5" style="stop-color:#732282"/>
		<stop  offset="1" style="stop-color:#E11383"/>
	</linearGradient>
	<path class="st41" d="M885.44,314.09l-1.06,2.29c4.88,2.26,7.01,8.06,4.75,12.94l2.3,1.06
		C894.26,324.24,891.58,316.93,885.44,314.09z"/>
	<linearGradient id="SVGID_43_" gradientUnits="userSpaceOnUse" x1="76.0519" y1="120.5891" x2="732.8768" y2="777.4141">
		<stop  offset="0" style="stop-color:#0055B8"/>
		<stop  offset="0.5" style="stop-color:#732282"/>
		<stop  offset="1" style="stop-color:#E11383"/>
	</linearGradient>
	<circle class="st42" cx="224.33" cy="268.87" r="2.03"/>
	<linearGradient id="SVGID_44_" gradientUnits="userSpaceOnUse" x1="299.5522" y1="-102.9113" x2="956.3772" y2="553.9137">
		<stop  offset="0" style="stop-color:#0055B8"/>
		<stop  offset="0.5" style="stop-color:#732282"/>
		<stop  offset="1" style="stop-color:#E11383"/>
	</linearGradient>
	<path class="st43" d="M562.82,164.55c2.31,0,4.19-1.88,4.19-4.19c0-2.31-1.88-4.19-4.19-4.19c-2.31,0-4.19,1.88-4.19,4.19
		C558.64,162.67,560.52,164.55,562.82,164.55z M562.82,158.7c0.91,0,1.66,0.74,1.66,1.66c0,0.91-0.74,1.66-1.66,1.66
		s-1.66-0.74-1.66-1.66C561.17,159.45,561.91,158.7,562.82,158.7z"/>
	<linearGradient id="SVGID_45_" gradientUnits="userSpaceOnUse" x1="92.8082" y1="103.8327" x2="749.6332" y2="760.6577">
		<stop  offset="0" style="stop-color:#0055B8"/>
		<stop  offset="0.5" style="stop-color:#732282"/>
		<stop  offset="1" style="stop-color:#E11383"/>
	</linearGradient>
	<circle class="st44" cx="113.19" cy="124.22" r="1.96"/>
	<linearGradient id="SVGID_46_" gradientUnits="userSpaceOnUse" x1="109.9411" y1="86.6998" x2="766.7661" y2="743.5248">
		<stop  offset="0" style="stop-color:#0055B8"/>
		<stop  offset="0.5" style="stop-color:#732282"/>
		<stop  offset="1" style="stop-color:#E11383"/>
	</linearGradient>
	<polygon class="st45" points="145.07,116.88 144.2,114.5 135.86,117.56 136.73,119.94 	"/>
	<linearGradient id="SVGID_47_" gradientUnits="userSpaceOnUse" x1="107.0194" y1="89.6215" x2="763.8444" y2="746.4465">
		<stop  offset="0" style="stop-color:#0055B8"/>
		<stop  offset="0.5" style="stop-color:#732282"/>
		<stop  offset="1" style="stop-color:#E11383"/>
	</linearGradient>
	<polygon class="st46" points="148.32,124.16 136.37,122.96 136.11,125.47 148.06,126.68 	"/>
	<linearGradient id="SVGID_48_" gradientUnits="userSpaceOnUse" x1="158.48" y1="38.1609" x2="815.305" y2="694.9859">
		<stop  offset="0" style="stop-color:#0055B8"/>
		<stop  offset="0.5" style="stop-color:#732282"/>
		<stop  offset="1" style="stop-color:#E11383"/>
	</linearGradient>
	<path class="st47" d="M199.95,111.52l10.84-13.46l16.2,6.02l-9.45-14.47l10.73-13.55l-16.68,4.51l-9.57-14.39l-0.86,17.26
		l-16.64,4.65l16.15,6.15L199.95,111.52z M192.6,88.47l11-3.08l0.57-11.41l6.33,9.52l11.03-2.98l-7.09,8.96l6.25,9.57l-10.71-3.98
		l-7.17,8.9l0.47-11.42L192.6,88.47z"/>
	<linearGradient id="SVGID_49_" gradientUnits="userSpaceOnUse" x1="114.5626" y1="82.0784" x2="771.3875" y2="738.9033">
		<stop  offset="0" style="stop-color:#0055B8"/>
		<stop  offset="0.5" style="stop-color:#732282"/>
		<stop  offset="1" style="stop-color:#E11383"/>
	</linearGradient>
	<polygon class="st48" points="148.92,104.58 147.47,102.51 133.16,112.52 134.6,114.59 	"/>
	<linearGradient id="SVGID_50_" gradientUnits="userSpaceOnUse" x1="84.0935" y1="112.5474" x2="740.9185" y2="769.3724">
		<stop  offset="0" style="stop-color:#0055B8"/>
		<stop  offset="0.5" style="stop-color:#732282"/>
		<stop  offset="1" style="stop-color:#E11383"/>
	</linearGradient>
	<path class="st49" d="M100.65,147.83c-2.55,3.08-5.99,5.83-10.02,7.99l-3.06,1.64l3.4,0.71c1.79,0.37,3.63,0.56,5.48,0.56
		c0,0,0,0,0,0c3.37,0,6.72-0.62,9.94-1.83c12.33-4.64,19.45-16.7,16.61-27.8l8.36-4.49l-6.34-1.94c1.01-1.49,2.47-3.64,2.47-3.64
		l1.82-2.69l-10.94,2.58c-1.41-1.04-3.61-1.71-5.73-1.71c-1,0-1.89,0.15-2.64,0.45c-2.76,1.09-4.56,2.91-5.34,5.41
		c-0.76,2.42-0.36,4.92,0.13,6.59c-7.23-1.07-14.06-5.42-19.42-12.43l-2.59-3.39l0.33,4.25C84.14,131.6,91.11,143.28,100.65,147.83z
		 M106.57,132.4l1.61,0.02c0,0-2.02-6.03-1.01-8.82c0.59-1.63,1.83-2.8,3.77-3.57c0.45-0.18,1.04-0.27,1.71-0.27
		c1.72,0,3.66,0.63,4.52,1.46l0.5,0.49l5.92-1.4l-1.97,3.58l3.21,1.37l-4.83,2.59l0.31,1c3.16,10.1-3.34,21.39-14.8,25.69
		c-2.94,1.11-5.99,1.67-9.05,1.67h0c-0.49,0-0.97-0.01-1.46-0.04c3.51-2.31,6.47-5.07,8.68-8.1l0.97-1.33l-1.54-0.59
		c-8.44-3.24-14.94-12.64-16.96-24.06C92,128.28,99.12,131.91,106.57,132.4z"/>
	<linearGradient id="SVGID_51_" gradientUnits="userSpaceOnUse" x1="190.3534" y1="6.2875" x2="847.1783" y2="663.1125">
		<stop  offset="0" style="stop-color:#0055B8"/>
		<stop  offset="0.5" style="stop-color:#732282"/>
		<stop  offset="1" style="stop-color:#E11383"/>
	</linearGradient>
	<path class="st50" d="M469.95,287.15c4.85,0,8.85-1.37,10.79-3.46c1.94,2.09,5.95,3.46,10.79,3.46v-2.53
		c-5.45,0-9.53-2.05-9.53-3.88h-2.53c0,1.83-4.07,3.88-9.53,3.88s-9.53-2.05-9.53-3.88h-2.53c0,1.83-4.08,3.88-9.53,3.88v2.53
		c4.85,0,8.85-1.37,10.79-3.46C461.1,285.78,465.1,287.15,469.95,287.15z"/>
	<linearGradient id="SVGID_52_" gradientUnits="userSpaceOnUse" x1="202.489" y1="-5.8481" x2="859.314" y2="650.9769">
		<stop  offset="0" style="stop-color:#0055B8"/>
		<stop  offset="0.5" style="stop-color:#732282"/>
		<stop  offset="1" style="stop-color:#E11383"/>
	</linearGradient>
	<path class="st51" d="M487.55,302.06c4.85,0,8.85-1.37,10.79-3.46c1.94,2.09,5.95,3.46,10.79,3.46c4.85,0,8.85-1.37,10.79-3.46
		c1.94,2.09,5.95,3.46,10.79,3.46v-2.53c-5.45,0-9.53-2.05-9.53-3.88h-2.53c0,1.83-4.08,3.88-9.53,3.88s-9.53-2.05-9.53-3.88h-2.53
		c0,1.83-4.08,3.88-9.53,3.88V302.06z"/>
	<linearGradient id="SVGID_53_" gradientUnits="userSpaceOnUse" x1="414.2567" y1="-217.6158" x2="1071.0817" y2="439.2092">
		<stop  offset="0" style="stop-color:#0055B8"/>
		<stop  offset="0.5" style="stop-color:#732282"/>
		<stop  offset="1" style="stop-color:#E11383"/>
	</linearGradient>
	<path class="st52" d="M862.55,173.42c-0.76-0.33-1.54-0.63-2.33-0.91c-1.72-11.73-9.45-21.87-20.32-26.61
		c-13.68-5.96-29.69-2.35-39.5,8.72c-4.11-5.04-9.41-9.05-15.39-11.66c-10.05-4.38-21.21-4.58-31.42-0.56
		c-10.2,4.01-19.06,12.67-22.61,22.2l2.32,0.63c4.11-9.44,11.64-16.71,21.22-20.47c9.57-3.77,20.05-3.58,29.48,0.53
		c6.07,2.64,11.38,6.83,15.36,12.1l0.98,1.29l1.02-1.26c8.99-11.13,24.42-14.91,37.54-9.2c10.3,4.49,17.56,14.22,18.93,25.39
		l0.1,0.8l0.77,0.25c0.97,0.31,1.93,0.67,2.85,1.08c8.72,3.8,15.05,11.27,17.39,20.51l3.17,1.04
		C879.24,185.31,872,177.53,862.55,173.42z"/>
	<linearGradient id="SVGID_54_" gradientUnits="userSpaceOnUse" x1="408.2588" y1="-211.6178" x2="1065.0837" y2="445.2071">
		<stop  offset="0" style="stop-color:#0055B8"/>
		<stop  offset="0.5" style="stop-color:#732282"/>
		<stop  offset="1" style="stop-color:#E11383"/>
	</linearGradient>
	<path class="st53" d="M632.6,126.62c5.73-2.28,12.01-2.2,17.68,0.24c3.13,1.35,5.86,3.32,8.12,5.85l1.11,1.24l0.9-1.4
		c7.09-11.01,20.99-15.24,33.04-10.06c5.27,2.27,9.58,6.07,12.48,11.01l1,1.7l1.13-1.61c7.58-10.82,20.45-16.65,33.6-15.24
		l0.81,0.09l0.42-0.7c6.45-10.91,20.11-15.35,31.77-10.34c6.18,2.66,10.97,7.57,13.48,13.81l0.45,1.13l1.15-0.41
		c12.21-4.38,25.49-3.98,37.4,1.15c5.95,2.56,11.3,6.18,15.88,10.76l0.95,0.95l0.89-1c8.93-10.08,23.24-13.27,35.62-7.95
		c15.78,6.79,23.09,25.15,16.3,40.92c-0.43,0.99-0.92,1.98-1.46,2.94l-0.54,0.96l0.88,0.67c9.76,7.36,15.84,18.6,16.67,30.84
		l0.09,1.4l1.38-0.24c5.79-0.99,11.71-0.29,17.12,2.04c7.46,3.21,13.23,9.13,16.23,16.68c3.01,7.55,2.89,15.81-0.32,23.28l2.32,1
		c7.18-16.69-0.56-36.1-17.24-43.28c-5.43-2.34-11.35-3.17-17.18-2.41c-1.19-12.08-7.21-23.14-16.7-30.66
		c0.38-0.73,0.73-1.48,1.05-2.22c7.34-17.06-0.57-36.91-17.63-44.25c-12.97-5.58-27.91-2.5-37.61,7.62
		c-4.6-4.37-9.88-7.86-15.72-10.37c-12.13-5.22-25.62-5.77-38.12-1.59c-2.87-6.34-7.92-11.32-14.35-14.08
		c-12.57-5.41-27.26-0.81-34.52,10.68c-13.14-1.13-25.96,4.48-34.02,14.87c-3.13-4.63-7.47-8.22-12.65-10.45
		c-12.7-5.46-27.26-1.37-35.26,9.69c-2.28-2.26-4.93-4.05-7.91-5.33c-6.29-2.71-13.26-2.8-19.62-0.27
		c-6.36,2.53-11.98,7.42-14.48,14.5l2.74,0.18C622.36,133.28,626.87,128.9,632.6,126.62z"/>
	<linearGradient id="SVGID_55_" gradientUnits="userSpaceOnUse" x1="378.8235" y1="-182.1826" x2="1035.6486" y2="474.6424">
		<stop  offset="0" style="stop-color:#0055B8"/>
		<stop  offset="0.5" style="stop-color:#732282"/>
		<stop  offset="1" style="stop-color:#E11383"/>
	</linearGradient>
	<path class="st54" d="M635.47,98.7l12.18-6.26l9.79,9.57l-2.19-13.52l12.13-6.36l-13.53-2.1l-2.3-13.5l-6.18,12.22l-13.55-1.98
		l9.71,9.65L635.47,98.7z M639.06,80.39l7.76,1.14l3.54-7l1.32,7.73l7.75,1.2l-6.94,3.64l1.25,7.74l-5.61-5.48l-6.97,3.58l3.48-7.02
		L639.06,80.39z"/>
	<linearGradient id="SVGID_56_" gradientUnits="userSpaceOnUse" x1="421.2755" y1="-224.6346" x2="1078.1005" y2="432.1904">
		<stop  offset="0" style="stop-color:#0055B8"/>
		<stop  offset="0.5" style="stop-color:#732282"/>
		<stop  offset="1" style="stop-color:#E11383"/>
	</linearGradient>
	<path class="st55" d="M685.36,76.53l18.82-8.95l14.46,15.02l-2.7-20.67l18.75-9.11l-20.49-3.82l-2.87-20.65l-9.97,18.31L680.84,43
		l14.33,15.14L685.36,76.53z M687.96,46.84l14.76,2.62l7.17-13.17l2.06,14.85l14.74,2.75l-13.48,6.55l1.94,14.87l-10.4-10.8
		l-13.54,6.44l7.06-13.23L687.96,46.84z"/>
	<linearGradient id="SVGID_57_" gradientUnits="userSpaceOnUse" x1="209.8489" y1="-13.208" x2="866.6739" y2="643.6169">
		<stop  offset="0" style="stop-color:#0055B8"/>
		<stop  offset="0.5" style="stop-color:#732282"/>
		<stop  offset="1" style="stop-color:#E11383"/>
	</linearGradient>
	<path class="st56" d="M291.92,94.29l9.62-9.74l12.29,6.04l-6.29-12.16l9.54-9.82l-13.51,2.22l-6.39-12.11l-2.06,13.54l-13.49,2.34
		l12.24,6.14L291.92,94.29z M289.63,75.78l7.72-1.34l1.18-7.75l3.66,6.93l7.73-1.27l-5.46,5.62l3.6,6.96l-7.03-3.46l-5.51,5.58
		l1.12-7.76L289.63,75.78z"/>
	<linearGradient id="SVGID_58_" gradientUnits="userSpaceOnUse" x1="212.1799" y1="-15.539" x2="869.0049" y2="641.2859">
		<stop  offset="0" style="stop-color:#0055B8"/>
		<stop  offset="0.5" style="stop-color:#732282"/>
		<stop  offset="1" style="stop-color:#E11383"/>
	</linearGradient>
	<path class="st57" d="M243.49,54.43l14.05-15.4l19.06,8.44l-10.3-18.12l13.92-15.52l-20.42,4.2L249.34,0l-2.31,20.72l-20.38,4.37
		l18.99,8.6L243.49,54.43z M234.68,25.95l14.66-3.14L251,7.91l7.52,12.97l14.68-3.02l-10.01,11.16l7.41,13.03l-13.71-6.07
		l-10.1,11.07l1.54-14.91L234.68,25.95z"/>
	<linearGradient id="SVGID_59_" gradientUnits="userSpaceOnUse" x1="171.7884" y1="24.8525" x2="828.6133" y2="681.6775">
		<stop  offset="0" style="stop-color:#0055B8"/>
		<stop  offset="0.5" style="stop-color:#732282"/>
		<stop  offset="1" style="stop-color:#E11383"/>
	</linearGradient>
	<path class="st58" d="M464.11,340.03c4.85,0,8.85-1.37,10.79-3.46c1.94,2.09,5.95,3.46,10.79,3.46c4.85,0,8.85-1.37,10.79-3.46
		c1.94,2.09,5.95,3.46,10.79,3.46c4.85,0,8.85-1.37,10.79-3.46c1.94,2.09,5.95,3.46,10.79,3.46v-2.53c-5.45,0-9.53-2.05-9.53-3.88
		h-2.53c0,1.83-4.07,3.88-9.53,3.88c-5.45,0-9.53-2.05-9.53-3.88h-2.53c0,1.83-4.08,3.88-9.53,3.88s-9.53-2.05-9.53-3.88h-2.53
		c0,1.83-4.07,3.88-9.53,3.88s-9.53-2.05-9.53-3.88h-2.53c0,1.83-4.07,3.88-9.53,3.88v2.53c4.85,0,8.85-1.37,10.79-3.46
		C455.26,338.66,459.26,340.03,464.11,340.03z"/>
	<linearGradient id="SVGID_60_" gradientUnits="userSpaceOnUse" x1="252.9834" y1="-56.3424" x2="909.8083" y2="600.4825">
		<stop  offset="0" style="stop-color:#0055B8"/>
		<stop  offset="0.5" style="stop-color:#732282"/>
		<stop  offset="1" style="stop-color:#E11383"/>
	</linearGradient>
	<path class="st59" d="M329.01,52.71l12.49-12.66l15.97,7.83l-8.18-15.79l12.38-12.76l-17.55,2.9L335.81,6.5l-2.66,17.58
		l-17.52,3.05l15.9,7.97L329.01,52.71z M323.63,28.31l11.75-2.04l1.79-11.79l5.58,10.55l11.77-1.95l-8.31,8.56l5.49,10.59
		l-10.71-5.25l-8.38,8.49l1.69-11.81L323.63,28.31z"/>
	<linearGradient id="SVGID_61_" gradientUnits="userSpaceOnUse" x1="128.8237" y1="67.8172" x2="785.6487" y2="724.6422">
		<stop  offset="0" style="stop-color:#0055B8"/>
		<stop  offset="0.5" style="stop-color:#732282"/>
		<stop  offset="1" style="stop-color:#E11383"/>
	</linearGradient>
	<polygon class="st60" points="243,195.97 274.98,187.79 274.35,185.34 239.9,194.15 244.46,211.46 246.91,210.82 	"/>
	<linearGradient id="SVGID_62_" gradientUnits="userSpaceOnUse" x1="103.5934" y1="93.0475" x2="760.4183" y2="749.8725">
		<stop  offset="0" style="stop-color:#0055B8"/>
		<stop  offset="0.5" style="stop-color:#732282"/>
		<stop  offset="1" style="stop-color:#E11383"/>
	</linearGradient>
	<polygon class="st61" points="202.65,207.26 234.47,198.15 233.78,195.72 199.43,205.55 204.7,221.67 207.11,220.89 	"/>
	<linearGradient id="SVGID_63_" gradientUnits="userSpaceOnUse" x1="112.4843" y1="84.1566" x2="769.3093" y2="740.9816">
		<stop  offset="0" style="stop-color:#0055B8"/>
		<stop  offset="0.5" style="stop-color:#732282"/>
		<stop  offset="1" style="stop-color:#E11383"/>
	</linearGradient>
	<polygon class="st62" points="195.08,181.68 227.71,172.32 227.01,169.89 191.9,179.96 197.38,197.85 199.8,197.11 	"/>
	<linearGradient id="SVGID_64_" gradientUnits="userSpaceOnUse" x1="95.8795" y1="100.7614" x2="752.7045" y2="757.5864">
		<stop  offset="0" style="stop-color:#0055B8"/>
		<stop  offset="0.5" style="stop-color:#732282"/>
		<stop  offset="1" style="stop-color:#E11383"/>
	</linearGradient>
	<polygon class="st63" points="239.98,218.05 206.35,227.66 211.41,243.11 213.81,242.32 209.57,229.37 240.68,220.48 	"/>
	<linearGradient id="SVGID_65_" gradientUnits="userSpaceOnUse" x1="135.6735" y1="60.9674" x2="792.4985" y2="717.7924">
		<stop  offset="0" style="stop-color:#0055B8"/>
		<stop  offset="0.5" style="stop-color:#732282"/>
		<stop  offset="1" style="stop-color:#E11383"/>
	</linearGradient>
	<path class="st64" d="M512.23,377.15h-2.53c0,1.83-4.07,3.88-9.53,3.88s-9.53-2.05-9.53-3.88h-2.53c0,1.83-4.08,3.88-9.53,3.88
		s-9.53-2.05-9.53-3.88h-2.53c0,1.83-4.07,3.88-9.53,3.88s-9.53-2.05-9.53-3.88h-2.53c0,1.83-4.07,3.88-9.53,3.88
		s-9.53-2.05-9.53-3.88h-2.53c0,1.83-4.08,3.88-9.53,3.88s-9.53-2.05-9.53-3.88h-2.53c0,1.83-4.07,3.88-9.53,3.88v2.53
		c4.85,0,8.85-1.37,10.79-3.46c1.94,2.09,5.95,3.46,10.79,3.46c4.85,0,8.85-1.37,10.79-3.46c1.94,2.09,5.95,3.46,10.79,3.46
		c4.85,0,8.85-1.37,10.79-3.46c1.94,2.09,5.95,3.46,10.79,3.46c4.85,0,8.85-1.37,10.79-3.46c1.94,2.09,5.95,3.46,10.79,3.46
		c4.85,0,8.85-1.37,10.79-3.46c1.94,2.09,5.95,3.46,10.79,3.46c4.85,0,8.85-1.37,10.79-3.46c1.94,2.09,5.95,3.46,10.79,3.46v-2.53
		C516.31,381.03,512.23,378.98,512.23,377.15z"/>
	<linearGradient id="SVGID_66_" gradientUnits="userSpaceOnUse" x1="86.5007" y1="110.1402" x2="743.3257" y2="766.9651">
		<stop  offset="0" style="stop-color:#0055B8"/>
		<stop  offset="0.5" style="stop-color:#732282"/>
		<stop  offset="1" style="stop-color:#E11383"/>
	</linearGradient>
	<polygon class="st65" points="274.09,281.91 273.48,279.45 246.69,286.16 247.31,288.61 	"/>
	<linearGradient id="SVGID_67_" gradientUnits="userSpaceOnUse" x1="138.0958" y1="58.5451" x2="794.9208" y2="715.3701">
		<stop  offset="0" style="stop-color:#0055B8"/>
		<stop  offset="0.5" style="stop-color:#732282"/>
		<stop  offset="1" style="stop-color:#E11383"/>
	</linearGradient>
	<polygon class="st66" points="240.53,186.75 236.4,170.12 269.15,162.68 268.59,160.21 233.32,168.23 238.08,187.36 	"/>
	<linearGradient id="SVGID_68_" gradientUnits="userSpaceOnUse" x1="120.5482" y1="76.0927" x2="777.3732" y2="732.9177">
		<stop  offset="0" style="stop-color:#0055B8"/>
		<stop  offset="0.5" style="stop-color:#732282"/>
		<stop  offset="1" style="stop-color:#E11383"/>
	</linearGradient>
	<polygon class="st67" points="279.69,207.94 245.95,216.53 250.33,233.16 252.77,232.51 249.04,218.35 280.31,210.39 	"/>
	<linearGradient id="SVGID_69_" gradientUnits="userSpaceOnUse" x1="112.0887" y1="84.5523" x2="768.9136" y2="741.3773">
		<stop  offset="0" style="stop-color:#0055B8"/>
		<stop  offset="0.5" style="stop-color:#732282"/>
		<stop  offset="1" style="stop-color:#E11383"/>
	</linearGradient>
	<polygon class="st68" points="256.16,255.18 258.61,254.54 255.06,241.07 285.6,233.33 284.97,230.88 251.96,239.24 	"/>
	<linearGradient id="SVGID_70_" gradientUnits="userSpaceOnUse" x1="-0.529" y1="197.17" x2="656.2959" y2="853.9949">
		<stop  offset="0" style="stop-color:#0055B8"/>
		<stop  offset="0.5" style="stop-color:#732282"/>
		<stop  offset="1" style="stop-color:#E11383"/>
	</linearGradient>
	<polygon class="st69" points="114.54,327.08 116.84,326.02 111.18,313.71 123.96,308.12 122.94,305.8 107.8,312.43 	"/>
	<linearGradient id="SVGID_71_" gradientUnits="userSpaceOnUse" x1="214.1621" y1="-17.5212" x2="870.9871" y2="639.3038">
		<stop  offset="0" style="stop-color:#0055B8"/>
		<stop  offset="0.5" style="stop-color:#732282"/>
		<stop  offset="1" style="stop-color:#E11383"/>
	</linearGradient>
	<path class="st70" d="M581.12,318.32v-2.53c-5.45,0-9.53-2.05-9.53-3.88h-2.53c0,1.83-4.08,3.88-9.53,3.88
		c-5.45,0-9.53-2.05-9.53-3.88h-2.53c0,1.83-4.07,3.88-9.53,3.88c-5.45,0-9.53-2.05-9.53-3.88h-2.53c0,1.83-4.08,3.88-9.53,3.88
		v2.53c4.85,0,8.85-1.37,10.79-3.46c1.94,2.09,5.95,3.46,10.79,3.46c4.85,0,8.85-1.37,10.79-3.46c1.94,2.09,5.95,3.46,10.79,3.46
		c4.85,0,8.85-1.37,10.79-3.46C572.27,316.95,576.27,318.32,581.12,318.32z"/>
	<linearGradient id="SVGID_72_" gradientUnits="userSpaceOnUse" x1="178.0471" y1="18.5938" x2="834.8721" y2="675.4188">
		<stop  offset="0" style="stop-color:#0055B8"/>
		<stop  offset="0.5" style="stop-color:#732282"/>
		<stop  offset="1" style="stop-color:#E11383"/>
	</linearGradient>
	<path class="st71" d="M540.46,353.01h-2.53c0,1.83-4.08,3.88-9.53,3.88c-5.45,0-9.53-2.05-9.53-3.88h-2.53
		c0,1.83-4.08,3.88-9.53,3.88c-5.45,0-9.53-2.05-9.53-3.88h-2.53c0,1.83-4.07,3.88-9.53,3.88v2.53c4.85,0,8.85-1.37,10.79-3.46
		c1.94,2.09,5.95,3.46,10.79,3.46c4.85,0,8.85-1.37,10.79-3.46c1.94,2.09,5.95,3.46,10.79,3.46c4.85,0,8.85-1.37,10.79-3.46
		c1.94,2.09,5.95,3.46,10.79,3.46v-2.53C544.54,356.89,540.46,354.85,540.46,353.01z"/>
	<linearGradient id="SVGID_73_" gradientUnits="userSpaceOnUse" x1="204.955" y1="-8.314" x2="861.7799" y2="648.5109">
		<stop  offset="0" style="stop-color:#0055B8"/>
		<stop  offset="0.5" style="stop-color:#732282"/>
		<stop  offset="1" style="stop-color:#E11383"/>
	</linearGradient>
	<path class="st72" d="M600.8,381.16c-23.09-1.43-38.86-7.57-38.57-12.2c0.1-1.6,2.43-3.29,6.41-4.62l-0.8-2.4
		c-5.22,1.75-7.95,4.05-8.13,6.86c-0.49,7.99,20.73,13.63,40.94,14.88c3.09,0.19,6.12,0.29,9.07,0.29c3.3,0,6.51-0.12,9.59-0.36
		l-0.2-2.52C613.39,381.54,607.23,381.56,600.8,381.16z"/>
	<linearGradient id="SVGID_74_" gradientUnits="userSpaceOnUse" x1="-16.1934" y1="212.8344" x2="640.6315" y2="869.6593">
		<stop  offset="0" style="stop-color:#0055B8"/>
		<stop  offset="0.5" style="stop-color:#732282"/>
		<stop  offset="1" style="stop-color:#E11383"/>
	</linearGradient>
	<polygon class="st73" points="101.06,315.38 85.76,322.08 92.92,336.66 95.19,335.54 89.19,323.34 102.08,317.7 	"/>
	<linearGradient id="SVGID_75_" gradientUnits="userSpaceOnUse" x1="224.8067" y1="-28.1658" x2="881.6317" y2="628.6592">
		<stop  offset="0" style="stop-color:#0055B8"/>
		<stop  offset="0.5" style="stop-color:#732282"/>
		<stop  offset="1" style="stop-color:#E11383"/>
	</linearGradient>
	<path class="st74" d="M609.42,358.71l0.3-5.04c0.07-1.13,0.58-2.17,1.43-2.92c0.85-0.75,1.95-1.13,3.07-1.06l0.21,0.01
		c0.44,1.56,1.19,2.74,2.43,2.82l10.27,0.63c3.35,0,4.04-8.44,4.14-10.13c0.16-2.53,0.04-4.94-0.31-6.79
		c-0.18-0.91-0.71-3.67-2.66-3.79l-10.15-0.63c-1.39-0.06-2.24,1.27-2.71,2.36l-0.25-0.02c-10.92-0.65-20.32,7.65-21,18.55
		l-0.32,5.1c-3.62-0.02-7.14,0.08-10.5,0.35l0.2,2.52c3.2-0.25,6.62-0.36,10.15-0.35l-0.2,3.23c-2.35,0.14-4.53,0.4-6.42,0.79
		c-4.62,0.96-7.04,2.54-7.17,4.7c-0.13,2.13,2.01,3.98,6.37,5.49l0.83-2.39c-3.88-1.35-4.7-2.61-4.68-2.94
		c0.02-0.34,1.01-1.52,5.16-2.38c1.7-0.35,3.65-0.59,5.75-0.72l-0.18,2.95l2.53,0.16l1.01-16.34c0.28-4.6,2.35-8.82,5.81-11.88
		c3.36-2.97,7.66-4.49,12.11-4.31c-0.37,1.55-0.63,3.36-0.75,5.27c-0.05,0.79-0.15,3.01,0.09,5.22c-1.65,0.01-3.24,0.58-4.5,1.69
		c-1.36,1.2-2.17,2.85-2.28,4.66l-0.98,16.34l2.53,0.15l0.53-8.78c19.07,2.12,31.57,7.45,31.32,11.57c-0.09,1.4-1.85,2.85-4.96,4.09
		l0.94,2.35c4.19-1.67,6.4-3.78,6.55-6.28C643.55,365.92,627.15,360.71,609.42,358.71z M626.57,342.73c0.24-3.81,1-6.35,1.55-7.37
		c0.42,1.08,0.87,3.69,0.63,7.5c-0.24,3.81-1,6.35-1.55,7.37C626.78,349.15,626.33,346.54,626.57,342.73z M616.41,342.1
		c0.27-4.44,1.27-7.15,1.8-7.75l7.39,0.46c-1.16,2.63-1.49,6.65-1.56,7.76c-0.16,2.53-0.04,4.94,0.31,6.79
		c0.05,0.24,0.12,0.6,0.23,1.02l-7.4-0.46C616.75,349.13,616.15,346.37,616.41,342.1z"/>
	<linearGradient id="SVGID_76_" gradientUnits="userSpaceOnUse" x1="217.4499" y1="-20.809" x2="874.2749" y2="636.016">
		<stop  offset="0" style="stop-color:#0055B8"/>
		<stop  offset="0.5" style="stop-color:#732282"/>
		<stop  offset="1" style="stop-color:#E11383"/>
	</linearGradient>
	<path class="st75" d="M616.7,366.28l-0.84,2.39c3.76,1.33,4.53,2.53,4.51,2.88c-0.02,0.34-1.01,1.52-5.16,2.38
		c-3.77,0.78-8.77,1.04-14.06,0.71l-0.16,2.53c1.56,0.1,3.09,0.14,4.58,0.14c3.78,0,7.29-0.31,10.15-0.9
		c4.62-0.96,7.04-2.54,7.17-4.7C623.02,369.6,620.94,367.78,616.7,366.28z"/>
</g>
</svg>
