<?xml version="1.0" encoding="utf-8"?>
<!-- Generator: Adobe Illustrator 21.0.2, SVG Export Plug-In . SVG Version: 6.00 Build 0)  -->
<!DOCTYPE svg PUBLIC "-//W3C//DTD SVG 1.1//EN" "http://www.w3.org/Graphics/SVG/1.1/DTD/svg11.dtd">
<svg version="1.1" id="Layer_1" xmlns="http://www.w3.org/2000/svg" xmlns:xlink="http://www.w3.org/1999/xlink" x="0px" y="0px"
	 width="1000px" height="500px" viewBox="0 0 1000 500" style="enable-background:new 0 0 1000 500;" xml:space="preserve">
<style type="text/css">
	.st0{fill:#FFFFFF;}
	.st1{fill:#0083C1;}
	.st2{fill:none;}
	.st3{fill:#7DDBD4;}
	.st4{fill:#F6921E;}
	.st5{fill:#0085B8;}
	.st6{fill:#C3519D;}
	.st7{fill:#00B38F;}
</style>
<rect x="-0.24" y="0.12" class="st0" width="1000.97" height="500"/>
<rect x="500" y="0.23" class="st1" width="500" height="300.47"/>
<g>
	<rect x="34.13" y="45.55" class="st2" width="432" height="204.68"/>
	<g>
		<path class="st1" d="M85.84,69.94h18.13l9.39,11.87l9.06-11.87h17.61v47.21h-19.43V94.13h-0.13l-8.41,11.09l-8.61-11.09h-0.13
			v23.02H85.84V69.94z"/>
		<path class="st1" d="M198.99,69.94h18.91c7.11,0,22.11,0.72,22.11,12c0,3.98-1.89,7.63-7.11,9.46v0.13
			c6.85,2.54,8.41,6.98,8.41,11.22c0,12.46-13.3,14.41-22.5,14.41h-19.82V69.94z M219.14,89.11c2.48,0,3.65-1.3,3.65-2.93
			c0-1.7-1.24-2.93-3.65-2.93h-0.72v5.87H219.14z M219.27,104.5c3.07,0,4.5-1.63,4.5-3.65c0-2.02-1.5-3.65-4.5-3.65h-0.85v7.3
			H219.27z"/>
		<path class="st1" d="M245.48,69.94h19.43v47.21h-19.43V69.94z"/>
		<path class="st1" d="M270.65,69.94h19.43v30.45h14.61v16.76h-34.04V69.94z"/>
		<path class="st1" d="M309.77,69.94h33.97v15.78H329.2v2.54h11.74v11.22H329.2v2.67h15.46v15h-34.89V69.94z"/>
		<path class="st1" d="M103.46,124.28h18.59l18,47.21h-21l-1.63-6.2h-10.83l-1.83,6.2h-19.3L103.46,124.28z M114.28,153.43
			l-2.09-9.59h-0.13l-2.09,9.59H114.28z"/>
		<path class="st1" d="M143.92,124.28h17.67l13.89,20.15l0.13-0.07v-20.08h17.48v47.21h-17.67l-13.89-20.15l-0.13,0.07v20.08h-17.48
			V124.28z"/>
		<path class="st1" d="M198.82,124.28h19.43v47.21h-19.43V124.28z"/>
		<path class="st1" d="M223.99,124.28h18.13l9.39,11.87l9.06-11.87h17.61v47.21h-19.43v-23.02h-0.13l-8.41,11.09l-8.61-11.09h-0.13
			v23.02h-17.48V124.28z"/>
		<path class="st1" d="M299.43,124.28h18.59l18,47.21h-21l-1.63-6.2h-10.83l-1.83,6.2h-19.3L299.43,124.28z M310.26,153.43
			l-2.09-9.59h-0.13l-2.09,9.59H310.26z"/>
		<path class="st1" d="M339.27,124.28h19.43v30.45h14.61v16.76h-34.04V124.28z"/>
		<path class="st1" d="M85.84,178.62h19.43v14.61h15.16v-14.61h19.43v47.21h-19.43v-17.22h-15.16v17.22H85.84V178.62z"/>
		<path class="st1" d="M198.66,206.66c6.33,4.11,12.72,5.61,15.52,5.61c1.96,0,2.41-0.78,2.41-1.57c0-0.91-0.59-1.3-1.43-1.5
			c-2.28-0.59-8.87-1.3-13.69-5.54c-2.48-2.22-4.17-5.28-4.17-9.85c0-9.46,7.3-15.91,19.24-15.91c5.74,0,12.52,1.5,16.82,3.72v15.46
			c-6.13-3.06-11.87-4.17-14.28-4.17c-1.89,0-2.41,0.72-2.41,1.43c0,0.98,0.72,1.37,1.5,1.63c1.96,0.59,8.48,1.37,13.11,5.02
			c3.2,2.61,4.76,5.93,4.76,10.17c0,9.06-7.3,15.39-19.69,15.39c-5.93,0-13.04-1.44-17.67-3.85V206.66z"/>
		<path class="st1" d="M240.13,178.62H258c11.35,0,24.06,3.26,24.06,16.76c0,12.13-10.17,17.02-21.85,17.02h-0.65v13.43h-19.43
			V178.62z M259.3,200.4c3.33,0,4.89-1.76,4.89-3.98c0-2.22-1.63-3.98-4.89-3.98h-0.52v7.96H259.3z"/>
		<path class="st1" d="M286.23,178.62h19.43v47.21h-19.43V178.62z"/>
		<path class="st1" d="M323.92,194.66h-13.17v-16.04h45.78v16.04h-13.17v31.17h-19.43V194.66z"/>
		<path class="st1" d="M368.65,178.62h18.59l18,47.21h-21l-1.63-6.2h-10.82l-1.83,6.2h-19.3L368.65,178.62z M378.69,207.77
			l-2.09-9.59h-0.13l-2.09,9.59H378.69z"/>
		<path class="st1" d="M408.49,178.62h19.43v30.45h14.61v16.76h-34.04V178.62z"/>
		<path class="st1" d="M151.61,218.96c4.2,4.47,10.05,7.35,16.59,7.67v-20.1L151.61,218.96z"/>
		<path class="st1" d="M170.65,206.52v20.1c6.54-0.32,12.39-3.2,16.59-7.67L170.65,206.52z"/>
		
			<ellipse transform="matrix(0.9962 -0.0872 0.0872 0.9962 -16.148 14.7499)" class="st1" cx="160.84" cy="192.3" rx="4.11" ry="4.89"/>
		
			<ellipse transform="matrix(0.9659 -0.2588 0.2588 0.9659 -47.101 46.4091)" class="st1" cx="152.7" cy="202.09" rx="4.11" ry="4.89"/>
		
			<ellipse transform="matrix(0.0872 -0.9962 0.9962 0.0872 -29.1303 352.8056)" class="st1" cx="177.94" cy="192.3" rx="4.89" ry="4.11"/>
		
			<ellipse transform="matrix(0.2588 -0.9659 0.9659 0.2588 -57.2811 329.5205)" class="st1" cx="186.08" cy="202.09" rx="4.89" ry="4.11"/>
		<path class="st1" d="M147.91,81.9c-0.75,1.39-1.38,2.85-1.85,4.39c-0.71,2.3-1.1,4.74-1.1,7.28c0,4.22,1.07,8.2,2.95,11.66
			c0.57,1.04,1.23,2.03,1.94,2.97l18.35-13.55V69.16C159.43,69.59,151.87,74.61,147.91,81.9z M160.41,78.76
			c2.26-0.2,4.29,1.82,4.52,4.52c0.24,2.69-1.41,5.04-3.67,5.23c-2.26,0.2-4.29-1.82-4.52-4.52
			C156.51,81.3,158.15,78.96,160.41,78.76z M156.67,92.36c0.7,2.61-0.51,5.2-2.7,5.79c-2.19,0.59-4.54-1.05-5.24-3.66
			c-0.7-2.61,0.51-5.2,2.7-5.79C153.63,88.11,155.97,89.75,156.67,92.36z"/>
		<path class="st1" d="M192.79,86.29c-0.48-1.53-1.1-3-1.85-4.39c-3.96-7.29-11.52-12.31-20.29-12.74v25.49L189,108.2
			c0.71-0.95,1.37-1.93,1.94-2.97c1.88-3.47,2.95-7.44,2.95-11.66C193.89,91.03,193.51,88.59,192.79,86.29z M177.52,88.51
			c-2.26-0.2-3.9-2.54-3.67-5.23c0.24-2.69,2.26-4.71,4.52-4.52c2.26,0.2,3.9,2.54,3.67,5.23C181.8,86.69,179.78,88.71,177.52,88.51
			z M190.05,94.49c-0.7,2.61-3.04,4.25-5.24,3.66c-2.19-0.59-3.4-3.18-2.7-5.79c0.7-2.61,3.04-4.25,5.24-3.66
			C189.54,89.29,190.75,91.88,190.05,94.49z"/>
	</g>
	<g>
		<path class="st3" d="M147.91,190.56c-0.75,1.39-1.38,2.85-1.85,4.39c-0.71,2.3-1.1,4.74-1.1,7.28c0,4.22,1.07,8.2,2.95,11.66
			c0.57,1.04,1.23,2.03,1.94,2.97l18.35-13.55v-25.49C159.43,178.25,151.87,183.27,147.91,190.56z M160.41,187.42
			c2.26-0.2,4.29,1.82,4.52,4.52c0.24,2.69-1.41,5.04-3.67,5.23c-2.26,0.2-4.29-1.82-4.52-4.52
			C156.51,189.96,158.15,187.62,160.41,187.42z M156.67,201.02c0.7,2.61-0.51,5.2-2.7,5.79c-2.19,0.59-4.54-1.05-5.24-3.66
			c-0.7-2.61,0.51-5.2,2.7-5.79C153.63,196.77,155.97,198.41,156.67,201.02z"/>
		<path class="st3" d="M68.6,220.01c1.45,0,2.18-1.45,2.18-4.34c0-1.95-0.74-4.41-2.22-7.36l-0.7-1.33
			c-1.02-2.02-1.25-3.15-0.66-3.41c0.16-0.07,0.34-0.1,0.54-0.1c0.21,0,0.41,0.09,0.63,0.25c0.21,0.17,0.45,0.4,0.7,0.68
			c0.26,0.29,0.53,0.62,0.81,1c0.28,0.38,0.56,0.79,0.84,1.21l0.79,1.28c0.26,0.43,0.52,0.9,0.77,1.41l0.94,1.9
			c1.39,2.98,2.09,5.79,2.09,8.43c0,2.31-0.46,4.09-1.37,5.33c-0.81,1.11-1.85,1.67-3.13,1.67c-1.76,0-3.54-0.79-5.33-2.38
			c-1.54-1.37-3-3.25-4.38-5.64c-1.21-2.08-2.2-4.31-2.97-6.67c-0.74-2.23-1.11-4.04-1.11-5.43c0-0.3,0.1-0.54,0.29-0.74
			c0.34-0.37,0.67-0.55,1-0.55c1.28,0,2.32,0.53,3.11,1.6c0.67,0.91,1,1.98,1,3.19c0,1.22-0.12,2.13-0.36,2.74
			c0.88,2.27,2.05,4.11,3.53,5.53c0.62,0.59,1.2,1.03,1.73,1.32C67.86,219.86,68.29,220.01,68.6,220.01z"/>
		<path class="st3" d="M66.7,191.85c0.47,0,0.7-0.4,0.7-1.2c0-0.59-0.29-1.36-0.86-2.32l-0.57-1.04c-0.18-0.32-0.27-0.6-0.27-0.84
			s0.07-0.43,0.22-0.57c0.15-0.14,0.35-0.21,0.61-0.21s0.56,0.09,0.91,0.26c0.34,0.17,0.7,0.41,1.08,0.72s0.75,0.66,1.12,1.07
			c0.37,0.41,0.7,0.85,1,1.32c0.65,1.04,0.98,2.01,0.98,2.91c0,0.95-0.16,1.7-0.48,2.27c-0.1,0.17-0.21,0.34-0.32,0.51
			c1.06,0.93,2.03,2.28,2.92,4.04c0.94,1.88,1.41,3.51,1.41,4.91c0,1.47-0.58,2.63-1.73,3.48c-0.94,0.69-1.89,1.03-2.85,1.03
			c-1.39,0-2.71-0.74-3.97-2.23c-0.92-1.09-1.62-2.15-2.1-3.17c-0.48-1.02-0.85-1.94-1.11-2.77c-0.55-1.75-0.82-3.32-0.82-4.72
			c0-0.63,0.12-1.18,0.36-1.67c0.24-0.49,0.48-0.85,0.72-1.09c0.55-0.56,1.25-0.83,2.1-0.83c0.25,0,0.45,0.03,0.59,0.08
			C66.45,191.82,66.58,191.85,66.7,191.85z M69.16,202.51l0.04,0.01h0.01c0.37,0,0.62-0.08,0.73-0.25c0.24-0.4,0.31-0.82,0.19-1.26
			c-0.12-0.44-0.26-0.86-0.44-1.26c-0.43-0.99-0.96-1.89-1.62-2.69c-0.28,0.14-0.56,0.21-0.86,0.21c-0.63,0-1.25-0.27-1.88-0.82
			c0,0.7,0.33,1.63,0.98,2.81c0.72,1.3,1.46,2.28,2.23,2.93C68.81,202.4,69.01,202.51,69.16,202.51z"/>
		<path class="st3" d="M67.73,173.44c0.79,0,1.19-0.23,1.19-0.69c0-1.13-0.76-2.6-2.29-4.4l-0.3-0.35c-0.47-0.7-0.7-1.27-0.7-1.71
			c0-0.44,0.06-0.72,0.19-0.83c0.13-0.12,0.34-0.18,0.63-0.18c0.64,0,1.32,0.32,2.05,0.98c1.18,0.97,2.3,2.31,3.36,4
			c1.23,1.96,1.85,3.72,1.85,5.28c0,1.09-0.6,1.77-1.81,2.05c-0.31,0.08-0.61,0.14-0.9,0.17c-0.7,0.09-1.08,0.18-1.16,0.27
			c-0.08,0.1-0.07,0.29,0.02,0.57c0.09,0.28,0.24,0.62,0.46,1c0.21,0.39,0.47,0.82,0.78,1.28c1.65,2.48,2.59,3.91,2.83,4.29
			c0.56,0.89,0.83,1.5,0.83,1.81c0,0.31-0.06,0.62-0.19,0.92c-0.13,0.3-0.3,0.56-0.5,0.79c-0.44,0.47-0.9,0.7-1.36,0.7
			c-2.63,0-4.93-0.57-6.91-1.72c-1.33-0.76-2.25-1.7-2.76-2.81c-0.27-0.56-0.4-1.17-0.4-1.82c0-1.19,0.39-1.79,1.17-1.79
			c0.48,0,1.26,0.28,2.35,0.85l0.77,0.39c0.53,0.28,0.83,0.41,0.9,0.4c0.26-0.05,0.39-0.17,0.39-0.35c0-0.2-0.15-0.5-0.44-0.89
			l-1.79-2.4l-0.83-1.2c-0.9-1.38-1.36-2.4-1.36-3.05c0-0.35,0.14-0.66,0.42-0.95c0.5-0.53,0.94-0.79,1.32-0.79
			c0.12,0,0.27,0.01,0.44,0.03c0.17,0.02,0.36,0.05,0.56,0.07l0.61,0.05C67.34,173.42,67.54,173.44,67.73,173.44z"/>
		<path class="st3" d="M66.32,149.44c0.41,0,1.2,0.54,2.37,1.6c1.19,1.1,2.16,2.17,2.91,3.22c1.51,2.03,2.55,4.29,3.1,6.76
			c0.22,0.94,0.33,1.83,0.33,2.66c0,0.84-0.07,1.53-0.21,2.09c-0.14,0.55-0.34,1.05-0.57,1.49c-0.24,0.44-0.51,0.82-0.83,1.14
			c-0.31,0.32-0.64,0.59-0.99,0.81c-0.68,0.43-1.3,0.64-1.88,0.64c-0.57,0-1.08-0.06-1.51-0.19c-0.43-0.13-0.85-0.3-1.24-0.53
			c-1.43-0.79-2.68-2.38-3.78-4.77c-0.88-1.88-1.45-3.68-1.71-5.39c-0.11-0.74-0.17-1.27-0.17-1.58c0-0.31,0.03-0.58,0.1-0.79
			c0.06-0.21,0.15-0.4,0.27-0.55c0.25-0.35,0.59-0.52,1.03-0.52c0.43,0,0.84,0.11,1.23,0.34c0.39,0.23,0.71,0.51,0.97,0.86
			c0.5,0.68,0.76,1.43,0.76,2.27c0,1.14-0.15,2.08-0.44,2.81c0.18,0.51,0.52,0.95,1,1.3c0.4,0.3,0.76,0.44,1.08,0.44
			s0.63-0.07,0.92-0.22c0.3-0.14,0.57-0.34,0.8-0.6c0.5-0.57,0.76-1.27,0.76-2.07c0-1.88-0.99-4.06-2.98-6.56l-0.93-1.19
			c-0.96-1.25-1.43-2.14-1.43-2.68C65.27,149.71,65.62,149.44,66.32,149.44z"/>
		<path class="st3" d="M59.66,141.16c0.21,0.25,0.39,0.53,0.52,0.82c0.14,0.3,0.2,0.63,0.2,0.99c0,0.36-0.06,0.72-0.18,1.06
			c-0.12,0.34-0.29,0.63-0.51,0.89c-0.47,0.55-1.07,0.82-1.8,0.82c-1.12,0-1.95-0.94-2.5-2.81c-0.19-0.63-0.29-1.16-0.29-1.56
			c0-0.41,0.05-0.71,0.14-0.92c0.09-0.2,0.21-0.37,0.36-0.5c0.3-0.26,0.6-0.39,0.91-0.39c0.31,0,0.59,0.04,0.84,0.11
			c0.25,0.07,0.51,0.18,0.78,0.32c0.27,0.14,0.54,0.31,0.81,0.51C59.2,140.68,59.44,140.91,59.66,141.16z M74,144.44
			c0.34,0.66,0.62,1.3,0.82,1.93c0.2,0.63,0.31,1.24,0.31,1.84c0,0.6-0.15,1.23-0.44,1.88c-0.29,0.65-0.68,1.22-1.17,1.73
			c-1.08,1.12-2.29,1.68-3.62,1.68c-1.23,0-2.47-0.37-3.73-1.1c-1.14-0.67-2.09-1.52-2.87-2.55c-0.77-1.03-1.16-1.99-1.16-2.88
			c0-1.27,0.36-1.95,1.07-2.03c0.22-0.03,0.47-0.04,0.76-0.04c0.29,0,0.61,0.07,0.98,0.2c0.37,0.14,0.74,0.31,1.11,0.52
			c0.37,0.21,0.73,0.45,1.08,0.7c0.35,0.26,0.67,0.5,0.96,0.74c0.55,0.45,0.94,0.81,1.19,1.08c0.3,0,0.6-0.22,0.91-0.66
			c0.3-0.42,0.44-0.77,0.44-1.06c0-0.29-0.07-0.63-0.21-1.03c-0.14-0.39-0.33-0.8-0.56-1.22c-0.23-0.42-0.5-0.85-0.81-1.29
			c-0.3-0.44-0.62-0.87-0.94-1.3l-1.86-2.38c-0.69-0.95-1.03-1.72-1.03-2.31c0-0.23,0.08-0.42,0.25-0.54
			c0.17-0.13,0.37-0.19,0.59-0.19c0.23,0,0.54,0.11,0.93,0.34c0.39,0.23,0.83,0.54,1.31,0.93c0.48,0.4,0.98,0.86,1.5,1.39
			c0.52,0.53,1.03,1.1,1.54,1.72c0.5,0.62,0.98,1.26,1.44,1.92C73.26,143.12,73.66,143.78,74,144.44z"/>
		<path class="st3" d="M65.15,121.16c0-0.42,0.23-0.63,0.7-0.63c0.31,0,0.71,0.11,1.18,0.32c0.47,0.21,0.92,0.52,1.33,0.92
			c0.41,0.4,0.84,0.86,1.28,1.37c0.44,0.52,0.91,1.12,1.39,1.81c0.49,0.69,0.97,1.45,1.45,2.29c0.48,0.83,0.91,1.72,1.29,2.66
			c0.85,2.08,1.28,4.09,1.28,6.03c0,1.49-0.39,2.78-1.16,3.9c-0.81,1.16-1.79,1.75-2.94,1.75c-1.82,0-3.54-0.98-5.17-2.93
			c-1.41-1.69-2.5-3.67-3.27-5.96c-0.47-1.39-0.7-2.57-0.7-3.53c0-0.78,0.19-1.44,0.57-1.98c0.42-0.57,0.98-0.86,1.68-0.86
			c1.1,0,2.32,0.87,3.66,2.62c0.22,0.28,0.4,0.53,0.55,0.76l0.31,0.47c0.61,0.87,1.29,2.19,2.05,3.96c0.29-0.55,0.43-1.06,0.43-1.53
			c0-0.47-0.06-0.9-0.17-1.28c-0.11-0.38-0.27-0.8-0.48-1.28c-0.21-0.48-0.46-0.99-0.75-1.53c-0.29-0.54-0.61-1.09-0.96-1.65
			c-0.77-1.24-1.56-2.32-2.37-3.23c-0.44-0.48-0.79-1.09-1.06-1.82C65.19,121.55,65.15,121.34,65.15,121.16z M68.81,135.53
			l-0.37-0.72c-0.12-0.23-0.23-0.44-0.34-0.63c-1.01-1.75-1.63-2.75-1.86-3c-0.23-0.24-0.4-0.37-0.49-0.37
			c-0.09,0-0.2,0.03-0.32,0.08c-0.12,0.05-0.23,0.12-0.32,0.21c-0.24,0.21-0.36,0.43-0.36,0.66c0,0.23,0.04,0.49,0.13,0.78
			c0.09,0.28,0.21,0.57,0.36,0.85c0.15,0.29,0.33,0.56,0.55,0.83c0.21,0.27,0.44,0.5,0.68,0.7c0.55,0.46,1.02,0.69,1.42,0.69
			C68.29,135.62,68.59,135.59,68.81,135.53z"/>
		<path class="st3" d="M70.43,124.37c0,0.17-0.04,0.33-0.12,0.49c-0.08,0.16-0.2,0.31-0.38,0.45c-0.38,0.3-0.9,0.46-1.56,0.46
			c-0.7,0-1.58-0.42-2.63-1.26c-1.02-0.82-1.89-1.77-2.63-2.85c-0.8-1.16-1.2-2.16-1.2-3c0-0.74,0.21-1.24,0.63-1.5l0.29-0.18
			c0.22-0.14,0.33-0.28,0.33-0.42c0-0.14-0.01-0.36-0.04-0.65l-0.13-1.85c-0.03-0.29-0.04-0.51-0.04-0.68s0.06-0.35,0.18-0.57
			c0.12-0.21,0.27-0.4,0.46-0.57c0.43-0.36,0.91-0.55,1.43-0.55c0.54,0,1.39,0.59,2.54,1.79l0.86,0.86c0.63,0.62,1.03,0.92,1.2,0.92
			c0.17,0,0.31-0.08,0.44-0.23c0.13-0.16,0.19-0.33,0.19-0.51c0-0.18-0.05-0.39-0.15-0.62c-0.1-0.23-0.25-0.51-0.44-0.85
			c-0.2-0.34-0.43-0.72-0.71-1.16c-0.78-1.19-1.32-1.98-1.62-2.38l-0.77-1.08c-0.52-0.74-0.78-1.26-0.78-1.58
			c0-0.31,0.07-0.57,0.2-0.77c0.14-0.2,0.37-0.3,0.7-0.3c0.33,0,0.77,0.17,1.33,0.51c0.56,0.34,1.04,0.71,1.45,1.1
			c0.41,0.4,0.79,0.78,1.13,1.15c0.35,0.37,0.72,0.81,1.13,1.32c0.4,0.51,0.81,1.07,1.23,1.69c0.41,0.62,0.78,1.27,1.11,1.96
			c0.76,1.56,1.13,2.98,1.13,4.29c0,1.9-0.49,3.06-1.47,3.48c-0.3,0.13-0.63,0.19-0.99,0.19c-0.36,0-0.76-0.07-1.18-0.21
			c-0.42-0.14-0.84-0.32-1.26-0.55c-0.83-0.45-1.56-0.99-2.19-1.6c-0.55-0.52-0.87-0.78-0.98-0.78c-0.16,0-0.27,0.09-0.31,0.28
			c-0.04,0.19-0.07,0.46-0.07,0.83c0,0.16,0.23,0.49,0.68,1l1.17,1.28C69.81,123.07,70.43,123.96,70.43,124.37z"/>
		<path class="st3" d="M66.05,100.69c0.31,0.59,0.66,1.14,1.03,1.67c0.37,0.53,0.76,1,1.15,1.41c0.39,0.41,0.73,0.61,1.02,0.61
			c0.29,0,0.43-0.23,0.43-0.69c0-0.32-0.16-0.79-0.47-1.41l-1.5-2.83c-0.27-0.52-0.59-0.99-0.95-1.39l-0.81-0.92
			c-0.6-0.66-0.9-1.35-0.9-2.07c0-0.37,0.21-0.75,0.63-1.12c0.42-0.37,0.84-0.56,1.28-0.56c1,0,2.48,0.41,4.43,1.23l-1.71-2.09
			l-3.35-4.3c-0.35-0.46-0.52-0.84-0.52-1.15c0-0.66,0.32-0.99,0.95-0.99c0.65,0,1.49,0.43,2.51,1.28c0.49,0.4,1.01,0.96,1.58,1.67
			l5.47,7.22c0.38,0.48,0.7,0.86,0.95,1.13c1.85,1.15,3.19,2.25,4.03,3.31c1.22,1.54,1.82,2.96,1.82,4.27c0,0.59-0.17,1.07-0.5,1.45
			c-0.29,0.34-0.62,0.51-1,0.51c-0.36,0-0.74-0.1-1.15-0.29c-0.41-0.19-0.83-0.45-1.24-0.77c-0.42-0.32-0.83-0.69-1.24-1.1
			c-0.41-0.41-0.8-0.84-1.19-1.3c-0.96-1.22-1.63-2.08-1.99-2.59l-0.93-1.28c-1.07-0.5-2.22-0.94-3.47-1.3
			c1.48,1.68,2.64,3.46,3.48,5.36c0.43,0.95,0.64,1.73,0.64,2.36c0,0.63-0.13,1.2-0.39,1.72c-0.26,0.52-0.6,0.97-1.03,1.34
			c-0.9,0.77-1.93,1.16-3.11,1.16c-1.23,0-2.27-0.47-3.11-1.39c-1.27-1.4-2.37-3.38-3.31-5.94c-0.91-2.47-1.37-4.56-1.37-6.27
			c0-0.56,0.28-0.85,0.83-0.85c0.38,0,0.68,0.07,0.88,0.22c0.2,0.14,0.4,0.49,0.59,1.03c0.19,0.54,0.42,1.14,0.68,1.8
			C65.45,99.48,65.74,100.1,66.05,100.69z"/>
		<path class="st3" d="M65.15,70.2c0-0.42,0.23-0.63,0.7-0.63c0.31,0,0.71,0.11,1.18,0.32c0.47,0.21,0.92,0.52,1.33,0.92
			c0.41,0.4,0.84,0.86,1.28,1.37c0.44,0.52,0.91,1.12,1.39,1.81c0.49,0.69,0.97,1.45,1.45,2.29c0.48,0.83,0.91,1.72,1.29,2.66
			c0.85,2.08,1.28,4.09,1.28,6.03c0,1.49-0.39,2.78-1.16,3.9c-0.81,1.16-1.79,1.75-2.94,1.75c-1.82,0-3.54-0.98-5.17-2.93
			c-1.41-1.69-2.5-3.67-3.27-5.96c-0.47-1.39-0.7-2.57-0.7-3.53c0-0.78,0.19-1.44,0.57-1.98c0.42-0.57,0.98-0.86,1.68-0.86
			c1.1,0,2.32,0.87,3.66,2.62c0.22,0.28,0.4,0.53,0.55,0.76l0.31,0.47c0.61,0.87,1.29,2.19,2.05,3.96c0.29-0.55,0.43-1.06,0.43-1.53
			c0-0.47-0.06-0.9-0.17-1.28c-0.11-0.38-0.27-0.8-0.48-1.28c-0.21-0.48-0.46-0.99-0.75-1.53c-0.29-0.54-0.61-1.09-0.96-1.65
			c-0.77-1.24-1.56-2.32-2.37-3.23c-0.44-0.48-0.79-1.09-1.06-1.82C65.19,70.6,65.15,70.39,65.15,70.2z M68.81,84.58l-0.37-0.72
			c-0.12-0.23-0.23-0.44-0.34-0.63c-1.01-1.75-1.63-2.75-1.86-3c-0.23-0.24-0.4-0.36-0.49-0.36c-0.09,0-0.2,0.03-0.32,0.08
			c-0.12,0.05-0.23,0.12-0.32,0.21c-0.24,0.21-0.36,0.43-0.36,0.66s0.04,0.49,0.13,0.78c0.09,0.28,0.21,0.57,0.36,0.85
			c0.15,0.29,0.33,0.56,0.55,0.83c0.21,0.27,0.44,0.5,0.68,0.7c0.55,0.46,1.02,0.69,1.42,0.69C68.29,84.67,68.59,84.64,68.81,84.58z
			"/>
		<path class="st3" d="M151.61,110.3c4.2,4.47,10.05,7.35,16.59,7.67v-20.1L151.61,110.3z"/>
		<path class="st3" d="M170.65,97.86v20.1c6.54-0.32,12.39-3.2,16.59-7.67L170.65,97.86z"/>
		<path class="st3" d="M192.79,194.95c-0.48-1.53-1.1-3-1.85-4.39c-3.96-7.29-11.52-12.31-20.29-12.74v25.49L189,216.86
			c0.71-0.95,1.37-1.93,1.94-2.97c1.88-3.47,2.95-7.44,2.95-11.66C193.89,199.69,193.51,197.24,192.79,194.95z M177.52,197.17
			c-2.26-0.2-3.9-2.54-3.67-5.23c0.24-2.69,2.26-4.71,4.52-4.52c2.26,0.2,3.9,2.54,3.67,5.23
			C181.8,195.35,179.78,197.37,177.52,197.17z M190.05,203.15c-0.7,2.61-3.04,4.25-5.24,3.66c-2.19-0.59-3.4-3.18-2.7-5.79
			c0.7-2.61,3.04-4.25,5.24-3.66C189.54,197.95,190.75,200.54,190.05,203.15z"/>
		
			<ellipse transform="matrix(0.9962 -0.0872 0.0872 0.9962 -6.6776 14.3364)" class="st3" cx="160.84" cy="83.64" rx="4.11" ry="4.89"/>
		
			<ellipse transform="matrix(0.9659 -0.2588 0.2588 0.9659 -18.9776 42.707)" class="st3" cx="152.7" cy="93.43" rx="4.11" ry="4.89"/>
		
			<ellipse transform="matrix(0.0872 -0.9962 0.9962 0.0872 79.1154 253.6164)" class="st3" cx="177.94" cy="83.64" rx="4.89" ry="4.11"/>
		
			<ellipse transform="matrix(0.2588 -0.9659 0.9659 0.2588 47.6752 248.9843)" class="st3" cx="186.08" cy="93.43" rx="4.89" ry="4.11"/>
	</g>
</g>
<g>
	<rect x="537.59" y="47.1" class="st2" width="432" height="204.68"/>
	<g>
		<path class="st0" d="M589.29,71.49h18.13l9.39,11.87l9.06-11.87h17.61v47.21h-19.43V95.68h-0.13l-8.41,11.09l-8.61-11.09h-0.13
			v23.02h-17.48V71.49z"/>
		<path class="st0" d="M702.44,71.49h18.91c7.11,0,22.11,0.72,22.11,12c0,3.98-1.89,7.63-7.11,9.46v0.13
			c6.85,2.54,8.41,6.98,8.41,11.22c0,12.46-13.3,14.41-22.5,14.41h-19.82V71.49z M722.59,90.66c2.48,0,3.65-1.3,3.65-2.93
			c0-1.7-1.24-2.93-3.65-2.93h-0.72v5.87H722.59z M722.72,106.05c3.07,0,4.5-1.63,4.5-3.65c0-2.02-1.5-3.65-4.5-3.65h-0.85v7.3
			H722.72z"/>
		<path class="st0" d="M748.93,71.49h19.43v47.21h-19.43V71.49z"/>
		<path class="st0" d="M774.1,71.49h19.43v30.45h14.61v16.76H774.1V71.49z"/>
		<path class="st0" d="M813.22,71.49h33.97v15.78h-14.54v2.54h11.74v11.22h-11.74v2.67h15.46v15h-34.89V71.49z"/>
		<path class="st0" d="M606.91,125.83h18.59l18,47.21h-21l-1.63-6.2h-10.83l-1.83,6.2h-19.3L606.91,125.83z M617.74,154.98
			l-2.09-9.59h-0.13l-2.09,9.59H617.74z"/>
		<path class="st0" d="M647.37,125.83h17.67l13.89,20.15l0.13-0.06v-20.09h17.48v47.21h-17.67l-13.89-20.15l-0.13,0.07v20.08h-17.48
			V125.83z"/>
		<path class="st0" d="M702.28,125.83h19.43v47.21h-19.43V125.83z"/>
		<path class="st0" d="M727.44,125.83h18.13l9.39,11.87l9.06-11.87h17.61v47.21H762.2v-23.02h-0.13l-8.41,11.09l-8.61-11.09h-0.13
			v23.02h-17.48V125.83z"/>
		<path class="st0" d="M802.89,125.83h18.59l18,47.21h-21l-1.63-6.2h-10.83l-1.83,6.2h-19.3L802.89,125.83z M813.71,154.98
			l-2.09-9.59h-0.13l-2.09,9.59H813.71z"/>
		<path class="st0" d="M842.73,125.83h19.43v30.45h14.61v16.76h-34.04V125.83z"/>
		<path class="st0" d="M589.29,180.17h19.43v14.61h15.16v-14.61h19.43v47.21h-19.43v-17.22h-15.16v17.22h-19.43V180.17z"/>
		<path class="st0" d="M702.11,208.21c6.33,4.11,12.72,5.61,15.52,5.61c1.96,0,2.41-0.78,2.41-1.57c0-0.91-0.59-1.3-1.43-1.5
			c-2.28-0.59-8.87-1.3-13.69-5.54c-2.48-2.22-4.17-5.28-4.17-9.85c0-9.46,7.3-15.91,19.24-15.91c5.74,0,12.52,1.5,16.82,3.72v15.45
			c-6.13-3.06-11.87-4.17-14.28-4.17c-1.89,0-2.41,0.72-2.41,1.43c0,0.98,0.72,1.37,1.5,1.63c1.96,0.59,8.48,1.37,13.11,5.02
			c3.2,2.61,4.76,5.93,4.76,10.17c0,9.06-7.3,15.39-19.69,15.39c-5.93,0-13.04-1.44-17.67-3.85V208.21z"/>
		<path class="st0" d="M743.58,180.17h17.87c11.35,0,24.06,3.26,24.06,16.76c0,12.13-10.17,17.02-21.85,17.02h-0.65v13.43h-19.43
			V180.17z M762.76,201.95c3.33,0,4.89-1.76,4.89-3.98c0-2.22-1.63-3.98-4.89-3.98h-0.52v7.96H762.76z"/>
		<path class="st0" d="M789.68,180.17h19.43v47.21h-19.43V180.17z"/>
		<path class="st0" d="M827.37,196.21H814.2v-16.04h45.78v16.04h-13.17v31.17h-19.43V196.21z"/>
		<path class="st0" d="M872.1,180.17h18.59l18,47.21h-21l-1.63-6.2h-10.82l-1.83,6.2h-19.3L872.1,180.17z M882.15,209.32l-2.09-9.59
			h-0.13l-2.09,9.59H882.15z"/>
		<path class="st0" d="M911.94,180.17h19.43v30.45h14.61v16.76h-34.04V180.17z"/>
		<path class="st0" d="M655.06,220.51c4.2,4.47,10.05,7.35,16.59,7.67v-20.1L655.06,220.51z"/>
		<path class="st0" d="M674.1,208.08v20.1c6.54-0.32,12.39-3.2,16.59-7.67L674.1,208.08z"/>
		
			<ellipse transform="matrix(0.9962 -0.0872 0.0872 0.9962 -14.3675 58.6355)" class="st0" cx="664.29" cy="193.85" rx="4.11" ry="4.89"/>
		
			<ellipse transform="matrix(0.9659 -0.2588 0.2588 0.9659 -30.3473 176.768)" class="st0" cx="656.16" cy="203.64" rx="4.11" ry="4.89"/>
		
			<ellipse transform="matrix(0.0872 -0.9962 0.9962 0.0872 428.9004 855.7625)" class="st0" cx="681.4" cy="193.85" rx="4.89" ry="4.11"/>
		
			<ellipse transform="matrix(0.2588 -0.9659 0.9659 0.2588 314.3698 816.9714)" class="st0" cx="689.54" cy="203.64" rx="4.89" ry="4.11"/>
		<path class="st0" d="M651.36,83.45c-0.75,1.39-1.38,2.85-1.85,4.39c-0.71,2.3-1.1,4.74-1.1,7.28c0,4.22,1.07,8.2,2.95,11.66
			c0.57,1.04,1.23,2.03,1.94,2.97l18.35-13.55V70.71C662.89,71.14,655.32,76.16,651.36,83.45z M663.87,80.32
			c2.26-0.2,4.29,1.82,4.52,4.52c0.24,2.69-1.41,5.04-3.67,5.23c-2.26,0.2-4.29-1.82-4.52-4.52
			C659.96,82.86,661.61,80.51,663.87,80.32z M660.13,93.91c0.7,2.61-0.51,5.2-2.7,5.79c-2.19,0.59-4.54-1.05-5.24-3.66
			c-0.7-2.61,0.51-5.2,2.7-5.79C657.09,89.66,659.43,91.3,660.13,93.91z"/>
		<path class="st0" d="M696.25,87.84c-0.48-1.53-1.1-3-1.85-4.39c-3.96-7.29-11.52-12.31-20.29-12.74V96.2l18.35,13.55
			c0.71-0.95,1.37-1.93,1.94-2.97c1.88-3.47,2.95-7.44,2.95-11.66C697.35,92.58,696.96,90.14,696.25,87.84z M680.97,90.07
			c-2.26-0.2-3.9-2.54-3.67-5.23c0.24-2.69,2.26-4.71,4.52-4.52c2.26,0.2,3.9,2.54,3.67,5.23
			C685.26,88.24,683.24,90.26,680.97,90.07z M693.51,96.04c-0.7,2.61-3.04,4.25-5.24,3.66c-2.19-0.59-3.4-3.18-2.7-5.79
			c0.7-2.61,3.04-4.25,5.24-3.66C693,90.84,694.21,93.43,693.51,96.04z"/>
	</g>
	<g>
		<path class="st3" d="M651.36,192.11c-0.75,1.39-1.38,2.85-1.85,4.39c-0.71,2.3-1.1,4.74-1.1,7.28c0,4.22,1.07,8.2,2.95,11.66
			c0.57,1.04,1.23,2.02,1.94,2.97l18.35-13.55v-25.49C662.89,179.8,655.32,184.82,651.36,192.11z M663.87,188.98
			c2.26-0.2,4.29,1.82,4.52,4.52c0.24,2.69-1.41,5.04-3.67,5.23c-2.26,0.2-4.29-1.82-4.52-4.52
			C659.96,191.52,661.61,189.17,663.87,188.98z M660.13,202.57c0.7,2.61-0.51,5.2-2.7,5.79c-2.19,0.59-4.54-1.05-5.24-3.66
			c-0.7-2.61,0.51-5.2,2.7-5.79C657.09,198.32,659.43,199.96,660.13,202.57z"/>
		<path class="st3" d="M572.06,221.56c1.45,0,2.18-1.45,2.18-4.34c0-1.95-0.74-4.41-2.22-7.36l-0.7-1.33
			c-1.02-2.02-1.25-3.15-0.66-3.41c0.16-0.07,0.34-0.1,0.54-0.1c0.21,0,0.41,0.09,0.63,0.25c0.21,0.17,0.45,0.4,0.7,0.68
			c0.26,0.29,0.53,0.62,0.81,1c0.28,0.38,0.56,0.79,0.84,1.21l0.79,1.28c0.26,0.43,0.52,0.9,0.77,1.41l0.94,1.9
			c1.39,2.98,2.09,5.79,2.09,8.43c0,2.31-0.46,4.09-1.37,5.33c-0.81,1.11-1.85,1.67-3.13,1.67c-1.76,0-3.54-0.79-5.33-2.38
			c-1.54-1.37-3-3.25-4.38-5.64c-1.21-2.08-2.2-4.31-2.97-6.67c-0.74-2.23-1.11-4.04-1.11-5.43c0-0.3,0.1-0.54,0.29-0.74
			c0.34-0.36,0.67-0.55,1-0.55c1.28,0,2.32,0.53,3.11,1.6c0.67,0.91,1,1.98,1,3.19c0,1.22-0.12,2.13-0.36,2.74
			c0.88,2.27,2.05,4.11,3.53,5.53c0.62,0.59,1.2,1.03,1.73,1.32C571.32,221.42,571.75,221.56,572.06,221.56z"/>
		<path class="st3" d="M570.16,193.4c0.47,0,0.7-0.4,0.7-1.2c0-0.59-0.29-1.36-0.86-2.32l-0.57-1.04c-0.18-0.32-0.27-0.6-0.27-0.84
			c0-0.24,0.07-0.43,0.22-0.57c0.15-0.14,0.35-0.21,0.61-0.21s0.56,0.09,0.91,0.26c0.34,0.17,0.7,0.41,1.08,0.72
			c0.38,0.3,0.75,0.66,1.12,1.07c0.37,0.41,0.7,0.85,1,1.32c0.65,1.04,0.98,2.01,0.98,2.91c0,0.95-0.16,1.7-0.48,2.27
			c-0.1,0.17-0.21,0.34-0.32,0.51c1.06,0.93,2.03,2.28,2.92,4.04c0.94,1.88,1.41,3.51,1.41,4.91c0,1.47-0.58,2.63-1.73,3.48
			c-0.94,0.69-1.89,1.03-2.85,1.03c-1.39,0-2.71-0.74-3.98-2.23c-0.92-1.1-1.62-2.15-2.1-3.17c-0.48-1.02-0.85-1.94-1.11-2.77
			c-0.55-1.75-0.82-3.32-0.82-4.72c0-0.63,0.12-1.18,0.36-1.67c0.24-0.49,0.48-0.85,0.72-1.09c0.55-0.56,1.25-0.83,2.1-0.83
			c0.25,0,0.45,0.03,0.59,0.08C569.9,193.38,570.03,193.4,570.16,193.4z M572.62,204.06l0.04,0.01h0.01c0.37,0,0.62-0.08,0.73-0.25
			c0.24-0.4,0.31-0.82,0.19-1.26c-0.12-0.44-0.26-0.86-0.44-1.26c-0.43-0.99-0.96-1.89-1.62-2.69c-0.28,0.14-0.56,0.21-0.86,0.21
			c-0.63,0-1.25-0.27-1.88-0.82c0,0.7,0.33,1.63,0.98,2.81c0.72,1.3,1.46,2.28,2.23,2.93C572.27,203.96,572.47,204.06,572.62,204.06
			z"/>
		<path class="st3" d="M571.18,174.99c0.79,0,1.19-0.23,1.19-0.69c0-1.13-0.76-2.6-2.29-4.4l-0.3-0.35c-0.47-0.7-0.7-1.27-0.7-1.71
			c0-0.44,0.06-0.72,0.19-0.83s0.34-0.18,0.63-0.18c0.64,0,1.32,0.32,2.05,0.98c1.18,0.97,2.3,2.31,3.36,4
			c1.23,1.96,1.85,3.72,1.85,5.28c0,1.09-0.6,1.77-1.81,2.05c-0.31,0.08-0.61,0.14-0.9,0.17c-0.7,0.09-1.08,0.18-1.16,0.27
			c-0.08,0.1-0.07,0.29,0.02,0.57c0.09,0.28,0.24,0.62,0.46,1c0.21,0.39,0.47,0.82,0.78,1.28c1.65,2.48,2.59,3.91,2.83,4.29
			c0.56,0.89,0.83,1.5,0.83,1.81c0,0.31-0.06,0.62-0.19,0.92c-0.13,0.3-0.3,0.56-0.5,0.79c-0.44,0.47-0.9,0.7-1.36,0.7
			c-2.63,0-4.93-0.57-6.91-1.72c-1.33-0.76-2.25-1.7-2.76-2.81c-0.27-0.56-0.4-1.17-0.4-1.82c0-1.19,0.39-1.79,1.17-1.79
			c0.48,0,1.26,0.28,2.35,0.85l0.77,0.39c0.53,0.28,0.83,0.41,0.9,0.4c0.26-0.05,0.39-0.17,0.39-0.35c0-0.2-0.15-0.5-0.44-0.89
			l-1.79-2.4l-0.83-1.2c-0.9-1.38-1.36-2.4-1.36-3.05c0-0.35,0.14-0.66,0.42-0.95c0.5-0.53,0.94-0.79,1.32-0.79
			c0.12,0,0.27,0.01,0.44,0.03c0.17,0.02,0.36,0.05,0.56,0.07l0.61,0.05C570.79,174.97,570.99,174.99,571.18,174.99z"/>
		<path class="st3" d="M569.78,151c0.41,0,1.2,0.54,2.37,1.6c1.19,1.1,2.16,2.17,2.91,3.22c1.51,2.03,2.55,4.29,3.1,6.76
			c0.22,0.94,0.33,1.83,0.33,2.66c0,0.84-0.07,1.53-0.21,2.09c-0.14,0.55-0.34,1.05-0.57,1.49c-0.24,0.44-0.51,0.82-0.83,1.14
			c-0.31,0.32-0.64,0.59-0.99,0.81c-0.68,0.43-1.3,0.64-1.88,0.64c-0.57,0-1.08-0.06-1.51-0.19c-0.43-0.13-0.85-0.3-1.24-0.53
			c-1.43-0.79-2.68-2.38-3.78-4.77c-0.88-1.88-1.45-3.68-1.71-5.39c-0.11-0.74-0.17-1.27-0.17-1.58c0-0.31,0.03-0.58,0.1-0.79
			c0.06-0.21,0.15-0.4,0.27-0.55c0.25-0.35,0.59-0.52,1.03-0.52c0.43,0,0.84,0.11,1.23,0.34c0.39,0.23,0.71,0.51,0.97,0.86
			c0.5,0.68,0.76,1.43,0.76,2.27c0,1.14-0.15,2.08-0.44,2.81c0.18,0.51,0.52,0.95,1,1.3c0.4,0.3,0.76,0.44,1.08,0.44
			c0.32,0,0.63-0.07,0.92-0.22c0.3-0.14,0.57-0.34,0.8-0.6c0.5-0.57,0.76-1.27,0.76-2.07c0-1.88-0.99-4.06-2.98-6.56l-0.93-1.19
			c-0.96-1.25-1.43-2.14-1.43-2.68C568.72,151.26,569.07,151,569.78,151z"/>
		<path class="st3" d="M563.11,142.71c0.21,0.25,0.39,0.52,0.52,0.82c0.14,0.3,0.2,0.63,0.2,0.99c0,0.37-0.06,0.72-0.18,1.06
			c-0.12,0.34-0.29,0.63-0.51,0.89c-0.47,0.55-1.07,0.82-1.8,0.82c-1.12,0-1.95-0.94-2.5-2.81c-0.19-0.63-0.29-1.16-0.29-1.56
			c0-0.41,0.05-0.71,0.14-0.92c0.09-0.2,0.21-0.37,0.36-0.5c0.3-0.26,0.6-0.39,0.91-0.39c0.31,0,0.59,0.04,0.84,0.11
			c0.25,0.07,0.51,0.18,0.78,0.32c0.27,0.14,0.54,0.31,0.81,0.51C562.66,142.23,562.9,142.46,563.11,142.71z M577.46,145.99
			c0.34,0.66,0.62,1.3,0.82,1.93c0.2,0.63,0.31,1.24,0.31,1.84c0,0.6-0.15,1.23-0.44,1.88c-0.29,0.65-0.68,1.22-1.17,1.73
			c-1.08,1.12-2.29,1.68-3.62,1.68c-1.23,0-2.47-0.37-3.73-1.1c-1.14-0.67-2.09-1.52-2.87-2.55c-0.77-1.03-1.16-1.99-1.16-2.88
			c0-1.27,0.36-1.95,1.07-2.03c0.22-0.03,0.47-0.04,0.76-0.04c0.29,0,0.61,0.07,0.98,0.2c0.37,0.14,0.74,0.31,1.11,0.52
			c0.37,0.21,0.73,0.45,1.08,0.7c0.35,0.26,0.67,0.5,0.96,0.74c0.55,0.45,0.94,0.81,1.19,1.08c0.3,0,0.6-0.22,0.91-0.66
			c0.3-0.42,0.44-0.77,0.44-1.06c0-0.29-0.07-0.63-0.21-1.03c-0.14-0.39-0.33-0.8-0.56-1.22c-0.23-0.42-0.5-0.85-0.81-1.29
			c-0.3-0.44-0.62-0.87-0.94-1.3l-1.86-2.38c-0.69-0.95-1.03-1.72-1.03-2.31c0-0.23,0.08-0.42,0.25-0.54
			c0.17-0.13,0.37-0.19,0.59-0.19c0.23,0,0.54,0.11,0.93,0.34c0.39,0.23,0.83,0.54,1.31,0.93c0.48,0.4,0.98,0.86,1.5,1.39
			c0.52,0.53,1.03,1.1,1.54,1.72c0.5,0.62,0.98,1.26,1.44,1.92C576.72,144.67,577.12,145.33,577.46,145.99z"/>
		<path class="st3" d="M568.61,122.71c0-0.42,0.23-0.63,0.7-0.63c0.31,0,0.71,0.11,1.18,0.32c0.47,0.21,0.92,0.52,1.33,0.92
			c0.41,0.4,0.84,0.86,1.28,1.37c0.44,0.52,0.91,1.12,1.39,1.81c0.49,0.69,0.97,1.45,1.45,2.29c0.48,0.83,0.91,1.72,1.29,2.66
			c0.85,2.08,1.28,4.09,1.28,6.03c0,1.49-0.39,2.78-1.16,3.9c-0.81,1.16-1.79,1.75-2.94,1.75c-1.82,0-3.54-0.98-5.17-2.93
			c-1.41-1.69-2.5-3.67-3.27-5.96c-0.47-1.39-0.7-2.57-0.7-3.53c0-0.78,0.19-1.44,0.57-1.98c0.42-0.57,0.98-0.86,1.68-0.86
			c1.1,0,2.32,0.87,3.66,2.62c0.22,0.28,0.4,0.53,0.55,0.76l0.31,0.47c0.61,0.87,1.29,2.19,2.05,3.96c0.29-0.55,0.43-1.06,0.43-1.53
			c0-0.47-0.06-0.9-0.17-1.28c-0.11-0.38-0.27-0.8-0.48-1.28c-0.21-0.48-0.46-0.99-0.75-1.53c-0.29-0.54-0.61-1.09-0.96-1.65
			c-0.77-1.24-1.56-2.32-2.37-3.23c-0.44-0.48-0.79-1.09-1.06-1.82C568.64,123.1,568.61,122.89,568.61,122.71z M572.27,137.08
			l-0.36-0.72c-0.12-0.23-0.23-0.44-0.34-0.63c-1.01-1.75-1.63-2.75-1.86-3c-0.23-0.24-0.4-0.37-0.49-0.37
			c-0.09,0-0.2,0.03-0.32,0.08c-0.12,0.05-0.23,0.12-0.33,0.21c-0.24,0.21-0.36,0.43-0.36,0.66c0,0.23,0.04,0.49,0.13,0.78
			c0.09,0.28,0.21,0.57,0.36,0.85c0.15,0.29,0.33,0.56,0.55,0.83c0.21,0.27,0.44,0.5,0.68,0.7c0.55,0.46,1.02,0.69,1.42,0.69
			C571.74,137.17,572.05,137.14,572.27,137.08z"/>
		<path class="st3" d="M573.88,125.93c0,0.17-0.04,0.33-0.12,0.49c-0.08,0.16-0.2,0.31-0.38,0.45c-0.38,0.3-0.9,0.46-1.56,0.46
			c-0.7,0-1.58-0.42-2.63-1.26c-1.02-0.82-1.89-1.77-2.63-2.85c-0.8-1.16-1.2-2.16-1.2-3c0-0.74,0.21-1.24,0.63-1.5l0.29-0.18
			c0.22-0.14,0.33-0.28,0.33-0.42c0-0.14-0.01-0.36-0.04-0.65l-0.13-1.85c-0.03-0.29-0.04-0.51-0.04-0.68s0.06-0.35,0.18-0.57
			c0.12-0.21,0.27-0.4,0.46-0.57c0.43-0.37,0.91-0.55,1.43-0.55c0.54,0,1.39,0.59,2.54,1.79l0.86,0.86c0.63,0.62,1.03,0.92,1.2,0.92
			c0.16,0,0.31-0.08,0.44-0.23c0.13-0.16,0.19-0.33,0.19-0.51c0-0.18-0.05-0.39-0.15-0.62c-0.1-0.23-0.25-0.51-0.44-0.85
			c-0.2-0.34-0.43-0.72-0.71-1.16c-0.78-1.19-1.32-1.98-1.62-2.38l-0.77-1.08c-0.52-0.74-0.78-1.26-0.78-1.58
			c0-0.31,0.07-0.57,0.2-0.77c0.14-0.2,0.37-0.3,0.7-0.3c0.33,0,0.77,0.17,1.33,0.51c0.56,0.34,1.04,0.71,1.45,1.1
			c0.41,0.4,0.79,0.78,1.13,1.15c0.35,0.37,0.72,0.81,1.13,1.32c0.4,0.51,0.81,1.07,1.23,1.69c0.41,0.62,0.78,1.27,1.11,1.96
			c0.76,1.56,1.13,2.98,1.13,4.29c0,1.9-0.49,3.06-1.47,3.48c-0.3,0.13-0.63,0.19-0.99,0.19c-0.36,0-0.76-0.07-1.18-0.21
			c-0.42-0.14-0.84-0.32-1.26-0.55c-0.83-0.45-1.56-0.99-2.19-1.6c-0.55-0.52-0.87-0.78-0.98-0.78c-0.16,0-0.27,0.09-0.31,0.28
			c-0.04,0.19-0.07,0.46-0.07,0.83c0,0.16,0.23,0.49,0.68,1l1.17,1.28C573.27,124.62,573.88,125.51,573.88,125.93z"/>
		<path class="st3" d="M569.5,102.24c0.31,0.59,0.66,1.14,1.03,1.67c0.37,0.53,0.76,1,1.15,1.41c0.39,0.41,0.73,0.61,1.02,0.61
			c0.29,0,0.43-0.23,0.43-0.69c0-0.32-0.16-0.79-0.47-1.41l-1.5-2.83c-0.27-0.52-0.59-0.99-0.95-1.39l-0.81-0.92
			c-0.6-0.66-0.9-1.35-0.9-2.07c0-0.37,0.21-0.75,0.63-1.12c0.42-0.37,0.84-0.56,1.28-0.56c1,0,2.48,0.41,4.43,1.23l-1.71-2.09
			l-3.35-4.3c-0.35-0.46-0.52-0.84-0.52-1.15c0-0.66,0.32-0.99,0.95-0.99c0.65,0,1.49,0.43,2.52,1.28c0.49,0.4,1.01,0.96,1.58,1.67
			l5.47,7.22c0.38,0.48,0.7,0.86,0.95,1.13c1.85,1.15,3.19,2.25,4.03,3.31c1.22,1.54,1.82,2.96,1.82,4.27c0,0.59-0.17,1.07-0.5,1.45
			c-0.29,0.34-0.62,0.51-1,0.51c-0.36,0-0.74-0.1-1.15-0.29c-0.41-0.19-0.83-0.45-1.24-0.77c-0.42-0.32-0.83-0.69-1.24-1.1
			c-0.41-0.41-0.8-0.84-1.19-1.3c-0.96-1.22-1.63-2.08-1.99-2.59l-0.93-1.28c-1.07-0.5-2.22-0.94-3.47-1.3
			c1.48,1.68,2.64,3.46,3.48,5.36c0.43,0.95,0.64,1.73,0.64,2.36c0,0.63-0.13,1.2-0.39,1.72c-0.26,0.52-0.6,0.97-1.03,1.34
			c-0.9,0.77-1.93,1.16-3.11,1.16c-1.23,0-2.27-0.47-3.11-1.39c-1.27-1.4-2.37-3.38-3.31-5.94c-0.91-2.47-1.37-4.56-1.37-6.27
			c0-0.56,0.28-0.85,0.83-0.85c0.38,0,0.68,0.07,0.88,0.22c0.2,0.14,0.4,0.49,0.59,1.03c0.19,0.54,0.42,1.14,0.68,1.8
			C568.9,101.03,569.19,101.65,569.5,102.24z"/>
		<path class="st3" d="M568.61,71.76c0-0.42,0.23-0.63,0.7-0.63c0.31,0,0.71,0.11,1.18,0.32c0.47,0.21,0.92,0.52,1.33,0.92
			c0.41,0.4,0.84,0.86,1.28,1.37c0.44,0.52,0.91,1.12,1.39,1.81c0.49,0.69,0.97,1.45,1.45,2.29c0.48,0.83,0.91,1.72,1.29,2.66
			c0.85,2.08,1.28,4.09,1.28,6.03c0,1.49-0.39,2.78-1.16,3.9c-0.81,1.16-1.79,1.75-2.94,1.75c-1.82,0-3.54-0.98-5.17-2.93
			c-1.41-1.69-2.5-3.67-3.27-5.96c-0.47-1.39-0.7-2.57-0.7-3.53c0-0.78,0.19-1.44,0.57-1.98c0.42-0.57,0.98-0.86,1.68-0.86
			c1.1,0,2.32,0.87,3.66,2.62c0.22,0.28,0.4,0.53,0.55,0.76l0.31,0.47c0.61,0.87,1.29,2.19,2.05,3.96c0.29-0.55,0.43-1.06,0.43-1.53
			c0-0.47-0.06-0.9-0.17-1.28c-0.11-0.38-0.27-0.8-0.48-1.28c-0.21-0.48-0.46-0.99-0.75-1.53c-0.29-0.54-0.61-1.09-0.96-1.65
			c-0.77-1.24-1.56-2.32-2.37-3.23c-0.44-0.48-0.79-1.09-1.06-1.82C568.64,72.15,568.61,71.94,568.61,71.76z M572.27,86.13
			l-0.36-0.72c-0.12-0.23-0.23-0.44-0.34-0.63c-1.01-1.75-1.63-2.75-1.86-3c-0.23-0.24-0.4-0.36-0.49-0.36
			c-0.09,0-0.2,0.03-0.32,0.08c-0.12,0.05-0.23,0.12-0.33,0.21c-0.24,0.21-0.36,0.43-0.36,0.66c0,0.23,0.04,0.49,0.13,0.78
			c0.09,0.28,0.21,0.57,0.36,0.85c0.15,0.29,0.33,0.56,0.55,0.83c0.21,0.27,0.44,0.5,0.68,0.7c0.55,0.46,1.02,0.69,1.42,0.69
			C571.74,86.22,572.05,86.19,572.27,86.13z"/>
		<path class="st3" d="M655.06,111.85c4.2,4.47,10.05,7.35,16.59,7.67v-20.1L655.06,111.85z"/>
		<path class="st3" d="M674.1,99.42v20.1c6.54-0.32,12.39-3.2,16.59-7.67L674.1,99.42z"/>
		<path class="st3" d="M696.25,196.5c-0.48-1.53-1.1-3-1.85-4.39c-3.96-7.29-11.52-12.31-20.29-12.74v25.49l18.35,13.55
			c0.71-0.95,1.37-1.93,1.94-2.97c1.88-3.47,2.95-7.44,2.95-11.66C697.35,201.24,696.96,198.8,696.25,196.5z M680.97,198.72
			c-2.26-0.2-3.9-2.54-3.67-5.23c0.24-2.69,2.26-4.71,4.52-4.52c2.26,0.2,3.9,2.54,3.67,5.23
			C685.26,196.9,683.24,198.92,680.97,198.72z M693.51,204.7c-0.7,2.61-3.04,4.25-5.24,3.66c-2.19-0.59-3.4-3.18-2.7-5.79
			c0.7-2.61,3.04-4.25,5.24-3.66C693,199.5,694.21,202.09,693.51,204.7z"/>
		
			<ellipse transform="matrix(0.9962 -0.0872 0.0872 0.9962 -4.897 58.222)" class="st3" cx="664.29" cy="85.19" rx="4.11" ry="4.89"/>
		
			<ellipse transform="matrix(0.9659 -0.2588 0.2588 0.9659 -2.2236 173.0672)" class="st3" cx="656.16" cy="94.98" rx="4.11" ry="4.89"/>
		
			<ellipse transform="matrix(0.0872 -0.9962 0.9962 0.0872 537.1458 756.5733)" class="st3" cx="681.4" cy="85.19" rx="4.89" ry="4.11"/>
		
			<ellipse transform="matrix(0.2588 -0.9659 0.9659 0.2588 419.3248 736.4349)" class="st3" cx="689.54" cy="94.98" rx="4.89" ry="4.11"/>
	</g>
</g>
<g>
	<g>
		<g>
			<path class="st4" d="M458.19,440.03c-1.87,3.1-4.93,3.1-6.8,0l-39.26-65.08c-1.87-3.1-0.44-5.63,3.18-5.63h78.95
				c3.62,0,5.05,2.54,3.18,5.63L458.19,440.03z"/>
		</g>
	</g>
	<g>
		<g>
			<path class="st5" d="M546.23,446.51c-2.56,2.56-6.75,2.56-9.3,0l-36.44-36.44c-2.56-2.56-2.56-6.75,0-9.3l36.44-36.44
				c2.56-2.56,6.75-2.56,9.3,0l36.44,36.44c2.56,2.56,2.56,6.75,0,9.3L546.23,446.51z"/>
		</g>
	</g>
	<g>
		<path class="st6" d="M598.56,416.24c0-23.52,15.47-43.42,36.78-50.1c21.32,6.68,36.78,26.58,36.78,50.1v12.19
			c0,5.75-4.08,10.54-9.5,11.64l-0.04,0.01l-0.04,0.01l-0.04,0.01c-8.8,1.76-17.88,2.68-27.17,2.68c-9.29,0-18.37-0.92-27.17-2.68
			l-0.04-0.01l-0.04-0.01l-0.04-0.01c-5.42-1.1-9.5-5.89-9.5-11.64C598.56,421.88,598.56,439.76,598.56,416.24z"/>
	</g>
	<g>
		<g>
			<circle class="st0" cx="541.68" cy="413.37" r="11.7"/>
		</g>
		<g>
			<circle class="st0" cx="524.06" cy="403.02" r="5.26"/>
		</g>
		<g>
			<circle class="st0" cx="534.04" cy="391.61" r="5.26"/>
		</g>
		<g>
			<circle class="st0" cx="559.09" cy="403.02" r="5.26"/>
		</g>
		<g>
			<circle class="st0" cx="549.11" cy="391.61" r="5.26"/>
		</g>
	</g>
	<g>
		<g>
			<g>
				<path class="st0" d="M444.82,390.41c-4.03,0-7.29,3.26-7.29,7.29c0,1.6,1.49,5.23,1.69,5.74l3.91,8.41
					c0.93,2.33,2.45,2.33,3.38,0l3.91-8.41c0.21-0.51,1.69-4.14,1.69-5.74C452.11,393.68,448.85,390.41,444.82,390.41z
					 M444.82,402.27c-2.54,0-4.61-2.06-4.61-4.61s2.06-4.61,4.61-4.61c2.54,0,4.61,2.06,4.61,4.61S447.36,402.27,444.82,402.27z"/>
			</g>
		</g>
		<g>
			<g>
				<path class="st0" d="M468.61,375.73c-4.03,0-7.29,3.26-7.29,7.29c0,1.6,1.49,5.23,1.69,5.74l3.91,8.41
					c0.93,2.33,2.45,2.33,3.38,0l3.91-8.41c0.21-0.51,1.69-4.14,1.69-5.74C475.91,378.99,472.64,375.73,468.61,375.73z
					 M468.61,387.59c-2.54,0-4.61-2.06-4.61-4.61c0-2.54,2.06-4.61,4.61-4.61s4.61,2.06,4.61,4.61
					C473.22,385.53,471.16,387.59,468.61,387.59z"/>
			</g>
		</g>
		<g>
			<g>
				<path class="st0" d="M449.42,418.64c-0.13,0-0.27-0.02-0.4-0.06c-0.46-0.15-0.91-0.32-1.35-0.5c-0.67-0.29-0.98-1.06-0.69-1.73
					c0.29-0.67,1.06-0.98,1.73-0.69c0.36,0.15,0.74,0.29,1.12,0.42c0.69,0.22,1.07,0.96,0.85,1.66
					C450.49,418.29,449.98,418.64,449.42,418.64z"/>
			</g>
			<g>
				<path class="st0" d="M454.39,419.4c-0.73,0-1.35-0.59-1.35-1.32c0-0.73,0.56-1.32,1.28-1.32h0.06c0.74,0,1.5-0.05,2.24-0.15
					c0.72-0.1,1.38,0.4,1.48,1.12c0.1,0.72-0.4,1.38-1.12,1.48C456.13,419.34,455.25,419.4,454.39,419.4z M461.57,417.85
					c-0.5,0-0.97-0.28-1.19-0.76c-0.31-0.66-0.02-1.44,0.64-1.75c0.53-0.25,1.04-0.52,1.52-0.83c0.15-0.09,0.3-0.19,0.44-0.29
					c0.6-0.42,1.42-0.27,1.83,0.33c0.41,0.6,0.27,1.42-0.33,1.83c-0.18,0.12-0.36,0.24-0.54,0.36c-0.57,0.36-1.18,0.69-1.82,0.99
					C461.94,417.81,461.75,417.85,461.57,417.85z M467.24,413.13c-0.26,0-0.52-0.08-0.75-0.24c-0.6-0.42-0.74-1.24-0.33-1.83
					c0.43-0.62,0.8-1.27,1.1-1.95c0.3-0.66,1.07-0.96,1.74-0.67c0.66,0.3,0.96,1.07,0.67,1.74c-0.37,0.82-0.82,1.63-1.35,2.38
					C468.07,412.93,467.66,413.13,467.24,413.13z"/>
			</g>
			<g>
				<path class="st0" d="M469.49,406.11c-0.72,0-1.3-0.58-1.32-1.29c-0.01-0.38-0.04-0.77-0.09-1.14c-0.11-0.72,0.39-1.39,1.11-1.49
					c0.72-0.11,1.39,0.39,1.49,1.11c0.07,0.49,0.11,0.98,0.12,1.48c0.01,0.73-0.57,1.33-1.29,1.34
					C469.5,406.11,469.5,406.11,469.49,406.11z"/>
			</g>
		</g>
	</g>
	<g>
		<path class="st0" d="M655.13,389.44c0-2.51-2.04-4.55-4.55-4.55c-2.51,0-4.55,2.04-4.55,4.55c0,2.05,1.35,3.78,3.21,4.35
			c-0.3,7-6.06,12.61-13.13,12.61c-7.07,0-12.84-5.61-13.13-12.61c1.86-0.57,3.21-2.3,3.21-4.35c0-2.51-2.04-4.55-4.55-4.55
			s-4.55,2.04-4.55,4.55c0,2.06,1.37,3.8,3.25,4.36c0.29,8.01,6.56,14.51,14.46,15.17v16.83c0,3.27-2.66,5.92-5.92,5.92
			c-3.1,0-5.65-2.4-5.9-5.43c3.38-0.63,5.95-3.6,5.95-7.16c0-4.03-3.26-7.29-7.29-7.29c-4.03,0-7.29,3.26-7.29,7.29
			c0,3.59,2.59,6.56,6.01,7.17c0.26,4.48,3.98,8.06,8.53,8.06c4.72,0,8.56-3.84,8.56-8.56v-16.83c7.91-0.66,14.18-7.16,14.46-15.17
			C653.76,393.24,655.13,391.5,655.13,389.44z M617.01,419.12c0-2.54,2.06-4.61,4.61-4.61c2.54,0,4.61,2.06,4.61,4.61
			c0,2.54-2.06,4.61-4.61,4.61C619.07,423.73,617.01,421.67,617.01,419.12z"/>
	</g>
	<g>
		<g>
			<path class="st7" d="M353.88,442.67c-1.81,0-4.34-1.05-5.62-2.33l-17.55-17.55c-1.28-1.28-2.33-3.81-2.33-5.62v-24.83
				c0-1.81,1.05-4.34,2.33-5.62l17.55-17.55c1.28-1.28,3.81-2.33,5.62-2.33h24.83c1.81,0,4.34,1.05,5.62,2.33l17.55,17.55
				c1.28,1.28,2.33,3.81,2.33,5.62v24.83c0,1.81-1.05,4.34-2.33,5.62l-17.55,17.55c-1.28,1.28-3.81,2.33-5.62,2.33H353.88z"/>
		</g>
	</g>
	<g>
		<path class="st0" d="M383.59,407.53c-0.8-8.25-7.45-14.78-15.74-15.41v-4.37h4.44c0.73,0,1.32-0.59,1.32-1.32
			c0-0.73-0.59-1.32-1.32-1.32h-11.51c-0.73,0-1.32,0.59-1.32,1.32c0,0.73,0.59,1.32,1.32,1.32h4.44v4.37
			c-8.3,0.63-14.95,7.16-15.74,15.41c0,0-1.63,0.64-1.63,2.19h37.38C385.22,408.17,383.59,407.53,383.59,407.53z"/>
		<path class="st0" d="M383.6,412.36h-34.15c-1.81,0-3.29,1.19-3.29,2.65c0,1.46,1.48,2.65,3.29,2.65h34.15
			c1.81,0,3.29-1.19,3.29-2.65C386.89,413.55,385.41,412.36,383.6,412.36z"/>
	</g>
</g>
</svg>
