<?xml version="1.0" encoding="utf-8"?>
<!-- Generator: Adobe Illustrator 23.0.6, SVG Export Plug-In . SVG Version: 6.00 Build 0)  -->
<svg version="1.1" id="Layer_1" xmlns="http://www.w3.org/2000/svg" xmlns:xlink="http://www.w3.org/1999/xlink" x="0px" y="0px"
	 viewBox="0 0 996.2 387.4" style="enable-background:new 0 0 996.2 387.4;" xml:space="preserve">
<style type="text/css">
	.st0{fill:none;stroke:#41B6E6;stroke-width:1.2477;stroke-miterlimit:10;}
	.st1{fill:#41B6E6;}
	.st2{fill:#F2A900;}
</style>
<circle class="st0" cx="989.7" cy="6.5" r="5.9"/>
<circle class="st1" cx="989.7" cy="43.9" r="3.7"/>
<circle class="st0" cx="989.7" cy="81.4" r="5.9"/>
<circle class="st1" cx="989.7" cy="118.8" r="1.9"/>
<ellipse transform="matrix(0.7071 -0.7071 0.7071 0.7071 195.427 709.4083)" class="st0" cx="954" cy="118.8" rx="5.9" ry="5.9"/>
<circle class="st1" cx="954" cy="156.2" r="3.7"/>
<circle class="st1" cx="916.6" cy="156.2" r="1.9"/>
<circle class="st1" cx="989.7" cy="193.7" r="3.7"/>
<ellipse transform="matrix(0.7071 -0.7071 0.7071 0.7071 142.4864 731.3439)" class="st0" cx="954.1" cy="193.7" rx="5.9" ry="5.9"/>
<circle class="st0" cx="989.7" cy="231.1" r="5.9"/>
<circle class="st1" cx="954" cy="231.1" r="1.9"/>
<ellipse transform="matrix(0.7071 -0.7071 0.7071 0.7071 105.0565 715.8374)" class="st0" cx="916.6" cy="231.1" rx="5.9" ry="5.9"/>
<circle class="st0" cx="989.7" cy="268.5" r="5.9"/>
<ellipse transform="matrix(0.7071 -0.7071 0.7071 0.7071 89.5505 753.2668)" class="st0" cx="954" cy="268.5" rx="5.9" ry="5.9"/>
<circle class="st1" cx="916.6" cy="268.5" r="3.7"/>
<circle class="st1" cx="989.7" cy="306" r="3.7"/>
<circle class="st1" cx="989.7" cy="343.4" r="1.9"/>
<circle class="st1" cx="954" cy="343.4" r="3.7"/>
<circle class="st1" cx="916.6" cy="343.4" r="1.9"/>
<ellipse transform="matrix(0.7071 -0.7071 0.7071 0.7071 10.1446 786.1575)" class="st0" cx="954" cy="380.8" rx="5.9" ry="5.9"/>
<circle class="st1" cx="916.6" cy="380.8" r="3.7"/>
<circle class="st1" cx="712.9" cy="343.8" r="3.7"/>
<ellipse transform="matrix(0.7071 -0.7071 0.7071 0.7071 -66.9681 525.9035)" class="st0" cx="601.3" cy="343.8" rx="5.9" ry="5.9"/>
<circle class="st1" cx="637" cy="306.4" r="3.7"/>
<circle class="st1" cx="712.9" cy="306.4" r="1.9"/>
<circle class="st1" cx="601.3" cy="306.4" r="1.9"/>
<circle class="st1" cx="712.9" cy="268.9" r="3.7"/>
<ellipse transform="matrix(0.7071 -0.7071 0.7071 0.7071 7.6244 556.2502)" class="st0" cx="675.3" cy="268.9" rx="5.9" ry="5.9"/>
<ellipse transform="matrix(0.7071 -0.7071 0.7071 0.7071 40.3532 635.2607)" class="st0" cx="787" cy="268.9" rx="5.9" ry="5.9"/>
<ellipse transform="matrix(0.7071 -0.7071 0.7071 0.7071 55.8603 597.8313)" class="st0" cx="749.6" cy="231.5" rx="5.9" ry="5.9"/>
<circle class="st1" cx="675.3" cy="231.5" r="3.7"/>
<ellipse transform="matrix(0.7071 -0.7071 0.7071 0.7071 12.4378 493.0128)" class="st0" cx="601.3" cy="231.5" rx="5.9" ry="5.9"/>
<circle class="st1" cx="637" cy="194.1" r="1.9"/>
<ellipse transform="matrix(0.7071 -0.7071 0.7071 0.7071 82.3213 586.8669)" class="st0" cx="749.6" cy="194.1" rx="5.9" ry="5.9"/>
<ellipse transform="matrix(0.7071 -0.7071 0.7071 0.7071 60.5604 534.3276)" class="st0" cx="675.3" cy="194.1" rx="5.9" ry="5.9"/>
<circle class="st1" cx="601.3" cy="194.1" r="3.7"/>
<circle class="st1" cx="787" cy="194.1" r="3.7"/>
<circle class="st1" cx="637" cy="156.6" r="3.7"/>
<ellipse transform="matrix(0.7071 -0.7071 0.7071 0.7071 98.0487 549.9608)" class="st0" cx="712.9" cy="156.6" rx="5.9" ry="5.9"/>
<circle class="st0" cx="637" cy="119.2" r="5.9"/>
<circle class="st1" cx="712.9" cy="119.2" r="3.7"/>
<circle class="st1" cx="601.3" cy="119.2" r="1.9"/>
<ellipse transform="matrix(0.7071 -0.7071 0.7071 0.7071 146.2246 591.4146)" class="st0" cx="787" cy="119.2" rx="5.9" ry="5.9"/>
<circle class="st1" cx="749.6" cy="81.8" r="3.7"/>
<circle class="st1" cx="712.9" cy="81.8" r="1.9"/>
<ellipse transform="matrix(0.7071 -0.7071 0.7071 0.7071 139.9667 501.4374)" class="st0" cx="675.3" cy="81.8" rx="5.9" ry="5.9"/>
<ellipse transform="matrix(0.7071 -0.7071 0.7071 0.7071 118.3179 449.1631)" class="st0" cx="601.3" cy="81.8" rx="5.9" ry="5.9"/>
<circle class="st1" cx="637" cy="44.3" r="3.7"/>
<ellipse transform="matrix(0.7071 -0.7071 0.7071 0.7071 188.2015 543.0172)" class="st0" cx="749.6" cy="44.3" rx="5.9" ry="5.9"/>
<ellipse transform="matrix(0.7071 -0.7071 0.7071 0.7071 177.4544 517.0701)" class="st0" cx="712.9" cy="44.3" rx="5.9" ry="5.9"/>
<circle class="st1" cx="675.3" cy="44.3" r="1.9"/>
<circle class="st1" cx="637" cy="6.9" r="1.9"/>
<circle class="st1" cx="749.6" cy="6.9" r="1.9"/>
<ellipse transform="matrix(0.7071 -0.7071 0.7071 0.7071 192.9115 479.5099)" class="st0" cx="675.3" cy="6.9" rx="5.9" ry="5.9"/>
<circle class="st1" cx="601.3" cy="6.9" r="3.7"/>
<g>
	<path class="st2" d="M222.7,121.7c-41.3,0-62.2-32.7-82.4-64.3c-13.7-21.5-28-43.8-48.5-55.3l0.9-1.5
		c20.9,11.7,35.2,34.2,49.1,55.8c19.9,31.2,40.5,63.5,80.9,63.5s61-32.3,81-63.5c13.9-21.7,28.2-44.1,49.1-55.8l0.8,1.5
		c-20.5,11.5-34.8,33.7-48.5,55.3C285,89,264.1,121.7,222.7,121.7L222.7,121.7z M476.5,71.8c-3.2-4.7-6.3-9.7-9.4-14.4
		c-13.6-21.3-27.7-43.3-47.7-54.8l0.9-1.5c20.5,11.8,34.7,33.9,48.4,55.4c3,4.8,6.2,9.7,9.3,14.4L476.5,71.8z"/>
	<path class="st2" d="M253.4,121.7c-41.3,0-62.2-32.7-82.4-64.3c-13.7-21.5-28-43.8-48.5-55.3l0.8-1.5
		c20.9,11.7,35.2,34.2,49.1,55.8c20,31.2,40.6,63.5,81,63.5s61-32.3,81-63.5c13.9-21.7,28.2-44.1,49.1-55.8l0.8,1.5
		c-20.5,11.5-34.8,33.7-48.5,55.3C315.6,89,294.7,121.7,253.4,121.7z M476.5,26.6c-9.1-11.3-17.8-19.1-27.2-24.4l0.8-1.5
		c9.7,5.4,18.5,13.3,27.7,24.8L476.5,26.6z"/>
	<path class="st2" d="M284,121.7c-41.3,0-62.2-32.7-82.4-64.3c-13.7-21.5-28-43.8-48.5-55.3l0.8-1.5c20.9,11.7,35.2,34.2,49.1,55.8
		c20,31.2,40.6,63.5,81,63.5s61-32.3,81-63.5c13.6-21.3,27.6-43.2,47.9-55.1l0.9,1.5c-19.9,11.6-33.8,33.4-47.4,54.5
		C346.2,89,325.3,121.7,284,121.7z"/>
	<path class="st2" d="M130.9,121.7c-41.3,0-62.2-32.7-82.4-64.3C34.8,35.8,20.5,13.6,0,2.1l0.8-1.5C21.7,12.3,36.1,34.7,50,56.4
		c19.9,31.2,40.5,63.5,80.9,63.5s61.1-32.3,81-63.5c13.9-21.7,28.2-44.1,49.1-55.8l0.8,1.5c-20.5,11.5-34.8,33.7-48.5,55.3
		C193.1,89,172.2,121.7,130.9,121.7z M457.6,121.7c-41.3,0-62.2-32.7-82.4-64.3c-13.7-21.5-28-43.7-48.4-55.2l0.8-1.5
		c20.8,11.7,35.2,34.1,49,55.8c20,31.2,40.6,63.5,81,63.5L457.6,121.7z"/>
	<path class="st2" d="M161.5,121.7c-41.3,0-62.2-32.7-82.4-64.3C65.4,35.8,51.2,13.6,30.6,2.1l0.8-1.5
		c20.9,11.7,35.2,34.2,49.1,55.8c19.9,31.2,40.6,63.5,80.9,63.5s61-32.3,81-63.5c13.9-21.7,28.2-44.1,49.1-55.8l0.8,1.5
		c-20.5,11.5-34.8,33.7-48.5,55.3C223.7,89,202.8,121.7,161.5,121.7z M477.1,120.8c-34-5.3-52.9-34.8-71.2-63.4
		c-13.8-21.5-28-43.7-48.5-55.2l0.8-1.5c20.9,11.7,35.2,34.1,49,55.8c18.1,28.3,36.8,57.5,70,62.7L477.1,120.8z"/>
	<path class="st2" d="M192.2,121.7c-41.3,0-62.2-32.7-82.4-64.3C96,35.8,81.8,13.6,61.3,2.1l0.8-1.5C83,12.3,97.3,34.8,111.2,56.4
		c20,31.2,40.6,63.5,81,63.5s61-32.3,81-63.5c13.9-21.7,28.3-44.1,49.1-55.8l0.8,1.5c-20.5,11.5-34.8,33.7-48.5,55.3
		C254.4,89,233.5,121.7,192.2,121.7z M476.7,107.3c-16.2-12.4-28.4-31.5-40.2-49.9c-13.7-21.5-28-43.7-48.4-55.2l0.8-1.5
		c20.9,11.7,35.2,34.1,49,55.8c11.7,18.3,23.8,37.3,39.8,49.5L476.7,107.3z M457.6,119.9h19.6v1.7h-19.6V119.9z"/>
</g>
<g>
	<path class="st2" d="M255.2,231.3c41.3,0,62.2,32.7,82.4,64.3c13.7,21.5,28,43.8,48.5,55.3l-0.9,1.5
		c-20.9-11.7-35.2-34.2-49.1-55.8c-19.9-31.2-40.5-63.5-80.9-63.5s-61,32.3-81,63.5c-13.9,21.7-28.2,44.1-49.1,55.8l-0.8-1.5
		c20.5-11.5,34.8-33.7,48.5-55.3C193,264,213.9,231.3,255.2,231.3L255.2,231.3z M1.5,281.1c3.2,4.7,6.3,9.7,9.4,14.4
		c13.6,21.3,27.7,43.3,47.7,54.8l-0.9,1.5C37.2,340.1,23,317.9,9.3,296.5c-3-4.8-6.2-9.7-9.3-14.4L1.5,281.1z"/>
	<path class="st2" d="M224.5,231.3c41.3,0,62.2,32.7,82.4,64.3c13.7,21.5,28,43.8,48.5,55.3l-0.8,1.5
		c-20.9-11.7-35.2-34.2-49.1-55.8c-20-31.2-40.6-63.5-81-63.5s-61,32.3-81,63.5c-13.9,21.7-28.2,44.1-49.1,55.8l-0.8-1.5
		c20.5-11.5,34.8-33.7,48.5-55.3C162.3,264,183.2,231.3,224.5,231.3z M1.4,326.4c9.1,11.3,17.8,19.1,27.2,24.4l-0.8,1.5
		c-9.7-5.4-18.5-13.3-27.7-24.8L1.4,326.4z"/>
	<path class="st2" d="M193.9,231.3c41.3,0,62.2,32.7,82.4,64.3c13.7,21.5,28,43.8,48.5,55.3l-0.8,1.5
		c-20.9-11.7-35.2-34.2-49.1-55.8c-20-31.2-40.6-63.5-81-63.5s-61,32.3-81,63.5c-13.6,21.3-27.6,43.2-47.9,55.1l-0.9-1.5
		c19.9-11.6,33.8-33.4,47.4-54.5C131.7,264,152.6,231.3,193.9,231.3z"/>
	<path class="st2" d="M347.1,231.3c41.3,0,62.2,32.7,82.4,64.3c13.7,21.5,28,43.8,48.5,55.3l-0.8,1.5
		c-20.9-11.7-35.2-34.1-49.2-55.8c-19.9-31.2-40.5-63.5-80.9-63.5s-61.1,32.3-81,63.5c-13.9,21.7-28.2,44.1-49.1,55.8l-0.8-1.5
		c20.5-11.5,34.8-33.7,48.5-55.3C284.9,264,305.7,231.3,347.1,231.3z M20.3,231.3c41.3,0,62.2,32.7,82.4,64.3
		c13.7,21.5,28,43.7,48.4,55.2l-0.8,1.5c-20.8-11.7-35.2-34.1-49-55.8c-20-31.2-40.6-63.5-81-63.5L20.3,231.3z"/>
	<path class="st2" d="M316.4,231.3c41.3,0,62.2,32.7,82.4,64.3c13.7,21.5,27.9,43.8,48.4,55.3l-0.8,1.5
		c-20.9-11.7-35.2-34.2-49.1-55.8c-19.9-31.2-40.6-63.5-80.9-63.5s-61,32.3-81,63.5c-13.9,21.7-28.2,44.1-49.1,55.8l-0.8-1.5
		c20.5-11.5,34.8-33.7,48.5-55.3C254.2,264,275.1,231.3,316.4,231.3z M0.9,232.1c34,5.3,52.9,34.8,71.2,63.4
		c13.8,21.5,28,43.7,48.5,55.2l-0.8,1.5c-20.9-11.7-35.2-34.1-49-55.8c-18.1-28.3-36.8-57.5-70-62.7L0.9,232.1z"/>
	<path class="st2" d="M285.8,231.3c41.3,0,62.2,32.7,82.4,64.3c13.7,21.5,28,43.8,48.5,55.3l-0.8,1.5
		c-20.9-11.7-35.2-34.2-49.1-55.8c-20-31.2-40.6-63.5-81-63.5s-61,32.3-81,63.5c-13.9,21.7-28.3,44.1-49.1,55.8l-0.8-1.5
		c20.5-11.5,34.8-33.7,48.5-55.3C223.6,264,244.5,231.3,285.8,231.3z M1.3,245.6c16.2,12.4,28.4,31.5,40.2,49.9
		c13.7,21.5,28,43.7,48.4,55.2l-0.8,1.5c-20.9-11.7-35.2-34.1-49-55.8C28.3,278.1,16.2,259.2,0.3,247L1.3,245.6z M20.3,233H0.8v-1.7
		h19.6V233z"/>
</g>
</svg>
