<?xml version="1.0" encoding="utf-8"?>
<!-- Generator: Adobe Illustrator 23.0.4, SVG Export Plug-In . SVG Version: 6.00 Build 0)  -->
<svg version="1.1" id="Layer_1" xmlns="http://www.w3.org/2000/svg" xmlns:xlink="http://www.w3.org/1999/xlink" x="0px" y="0px"
	 width="1000px" height="590.848px" viewBox="0 0 1000 590.848" style="enable-background:new 0 0 1000 590.848;"
	 xml:space="preserve">
<style type="text/css">
	.st0{fill:#FFFFFF;}
	.st1{fill:#007DBA;}
</style>
<polyline class="st0" points="461.23,128.348 444.353,167.348 187.55,167.322 204.412,128.356 461.23,128.348 "/>
<path class="st1" d="M206.137,124.371l18.624-43.038H105.065l-20.349,47.023H200.07l-18.586,42.951l265.487,0.026l20.326-46.97
	L206.137,124.371z M444.353,167.348l-256.803-0.026l16.862-38.966l256.818-0.008L444.353,167.348z"/>
<path class="st0" d="M124.008,93.142v3.962h-7.52v5.237h6.681v3.962h-6.681v6.043h7.52v3.961h-12.22V93.142H124.008z"/>
<path class="st0" d="M132.267,103.684v12.623h-4.7V93.142h4.432l5.137,10.979l5.136-10.979h4.432v23.166h-4.7v-12.624l-3.391,7.118
	h-2.954L132.267,103.684z"/>
<path class="st0" d="M157.954,116.61c-4.633,0-7.655-3.089-7.655-10.24v-3.29c0-7.151,3.022-10.24,7.655-10.24
	c4.633,0,7.655,3.089,7.655,10.24v3.29C165.609,113.521,162.587,116.61,157.954,116.61z M157.954,112.649
	c2.014,0,2.955-1.645,2.955-6.279v-3.29c0-4.633-0.94-6.278-2.955-6.278S155,98.446,155,103.08v3.29
	C155,111.003,155.94,112.649,157.954,112.649z"/>
<path class="st0" d="M179.592,116.308l-3.39-9.098h-2.317v9.098h-4.7V93.142h7.252c4.465,0,7.386,2.384,7.386,7.084
	c0,3.122-1.242,5.171-3.223,6.177l3.928,9.904L179.592,116.308L179.592,116.308z M175.899,103.249c1.981,0,3.223-0.604,3.223-3.022
	c0-2.417-1.242-3.089-3.223-3.089h-2.014v6.111H175.899z"/>
<path class="st0" d="M196.379,93.142h5.372l-5.976,13.698v9.467h-4.7v-9.467l-5.976-13.698h5.372l2.955,8.494L196.379,93.142z"/>
<path class="st1" d="M216.45,136.256c4.498,0,7.251,2.015,7.251,6.077c0,2.383-0.974,3.995-2.35,4.935
	c1.745,0.906,2.954,2.618,2.954,5.506c0,3.592-2.115,6.647-7.251,6.647h-7.285v-23.165H216.45z M214.234,145.422h2.081
	c1.914,0,2.686-1.007,2.686-2.653c0-1.611-0.705-2.551-3.122-2.551h-1.645V145.422z M214.234,155.46h2.317
	c2.149,0,3.055-1.141,3.055-3.055c0-2.149-0.974-3.021-3.391-3.021h-1.981L214.234,155.46L214.234,155.46z"/>
<path class="st1" d="M237.298,159.422l-3.391-9.098h-2.317v9.098h-4.7v-23.166h7.251c4.465,0,7.386,2.384,7.386,7.084
	c0,3.122-1.242,5.171-3.223,6.177l3.929,9.904L237.298,159.422L237.298,159.422z M233.605,146.362c1.98,0,3.223-0.604,3.223-3.022
	c0-2.417-1.242-3.089-3.223-3.089h-2.015v6.111H233.605z"/>
<path class="st1" d="M248.502,159.422H243.6l6.682-23.166h4.566l6.681,23.166h-4.902l-1.108-4.398h-5.908L248.502,159.422z
	 M252.564,142.904l-2.014,8.158h4.029L252.564,142.904z"/>
<path class="st1" d="M275.865,136.256v3.089l-7.386,16.115h7.688v3.961H263.04v-3.088l7.487-16.082h-7.487v-3.995H275.865z"/>
<path class="st1" d="M283.375,159.422h-4.7v-23.166h4.7V159.422z"/>
<path class="st1" d="M291.69,155.46h7.487v3.961H286.99v-23.165h4.7V155.46z"/>
<path class="st1" d="M313.41,159.422h-4.7v-23.166h4.7V159.422z"/>
<path class="st1" d="M332.2,136.256v23.166h-3.928l-6.547-12.657v12.657h-4.699v-23.166h3.894l6.581,12.859v-12.859H332.2z"/>
<path class="st1" d="M340.547,159.422h-4.7v-23.166h4.7V159.422z"/>
<path class="st1" d="M357.618,136.256v3.995h-5.035v19.17h-4.7v-19.17h-5.036v-3.995H357.618z"/>
<path class="st1" d="M364.633,159.422h-4.7v-23.166h4.7V159.422z"/>
<path class="st1" d="M371.69,159.422h-4.902l6.682-23.166h4.566l6.68,23.166h-4.902l-1.108-4.398h-5.908L371.69,159.422z
	 M375.752,142.904l-2.014,8.158h4.029L375.752,142.904z"/>
<path class="st1" d="M398.057,136.256v3.995h-5.035v19.17h-4.7v-19.17h-5.036v-3.995H398.057z"/>
<path class="st1" d="M405.072,159.422h-4.7v-23.166h4.7V159.422z"/>
<path class="st1" d="M424.627,136.256l-6.513,23.166h-4.297l-6.512-23.166h5.002l3.659,15.343l3.66-15.343
	C419.626,136.256,424.627,136.256,424.627,136.256z"/>
<path class="st1" d="M438.972,136.256v3.962h-7.521v5.237h6.682v3.962h-6.682v6.043h7.521v3.961h-12.22v-23.165H438.972z"/>
<polyline class="st0" points="940.712,128.348 923.835,167.348 679.797,167.322 696.659,128.356 940.712,128.348 "/>
<path class="st1" d="M698.384,124.371l18.624-43.038H597.312l-20.349,47.023h115.354l-18.586,42.951l252.722,0.026l20.326-46.97
	L698.384,124.371z M923.835,167.348l-244.038-0.026l16.862-38.966l244.053-0.008L923.835,167.348z"/>
<path class="st0" d="M616.255,93.142v3.962h-7.52v5.237h6.681v3.962h-6.681v6.043h7.52v3.961h-12.22V93.142H616.255z"/>
<path class="st0" d="M624.514,103.684v12.623h-4.7V93.142h4.432l5.137,10.979l5.136-10.979h4.432v23.166h-4.7v-12.624l-3.391,7.118
	h-2.954L624.514,103.684z"/>
<path class="st0" d="M650.201,116.61c-4.633,0-7.655-3.089-7.655-10.24v-3.29c0-7.151,3.022-10.24,7.655-10.24
	s7.655,3.089,7.655,10.24v3.29C657.856,113.521,654.834,116.61,650.201,116.61z M650.201,112.649c2.014,0,2.955-1.645,2.955-6.279
	v-3.29c0-4.633-0.94-6.278-2.955-6.278s-2.954,1.644-2.954,6.278v3.29C647.247,111.003,648.187,112.649,650.201,112.649z"/>
<path class="st0" d="M671.839,116.308l-3.39-9.098h-2.317v9.098h-4.7V93.142h7.252c4.465,0,7.386,2.384,7.386,7.084
	c0,3.122-1.242,5.171-3.223,6.177l3.928,9.904L671.839,116.308L671.839,116.308z M668.146,103.249c1.981,0,3.223-0.604,3.223-3.022
	c0-2.417-1.242-3.089-3.223-3.089h-2.014v6.111H668.146z"/>
<path class="st0" d="M688.626,93.142h5.372l-5.976,13.698v9.467h-4.7v-9.467l-5.976-13.698h5.372l2.955,8.494L688.626,93.142z"/>
<path class="st1" d="M709.643,143.441c-0.235-2.182-0.94-3.525-2.618-3.525c-2.082,0-2.955,1.847-2.955,6.278v3.29
	c0,4.297,0.873,6.279,2.955,6.279c1.678,0,2.316-1.175,2.618-3.526h4.466c-0.672,5.204-3.055,7.487-7.084,7.487
	c-4.533,0-7.655-3.156-7.655-10.24v-3.29c0-7.151,3.122-10.24,7.655-10.24c3.793,0,6.446,2.418,7.084,7.487H709.643z"/>
<path class="st1" d="M721.302,145.456h5.775v-9.2h4.7v23.166h-4.7v-10.005h-5.775v10.004h-4.7v-23.165h4.7V145.456z"/>
<path class="st1" d="M740.124,159.421h-4.7v-23.165h4.7V159.421z"/>
<path class="st1" d="M758.914,136.256v23.166h-3.928l-6.547-12.657v12.657h-4.7v-23.166h3.894l6.581,12.859v-12.859H758.914z"/>
<path class="st1" d="M765.875,159.421h-4.902l6.682-23.166h4.566l6.681,23.166H774l-1.108-4.398h-5.908L765.875,159.421z
	 M769.938,142.904l-2.014,8.158h4.029L769.938,142.904z"/>
<path class="st1" d="M792.866,159.421h-4.7v-23.165h4.7V159.421z"/>
<path class="st1" d="M811.655,136.256v23.166h-3.927l-6.547-12.657v12.657h-4.7v-23.166h3.894l6.581,12.859v-12.859H811.655z"/>
<path class="st1" d="M820.003,159.421h-4.7v-23.165h4.7V159.421z"/>
<path class="st1" d="M837.074,136.256v3.995h-5.035v19.17h-4.7v-19.17h-5.036v-3.995H837.074z"/>
<path class="st1" d="M844.089,159.421h-4.7v-23.165h4.7V159.421z"/>
<path class="st1" d="M851.146,159.421h-4.902l6.682-23.166h4.566l6.681,23.166h-4.902l-1.108-4.398h-5.908L851.146,159.421z
	 M855.208,142.904l-2.014,8.158h4.029L855.208,142.904z"/>
<path class="st1" d="M877.513,136.256v3.995h-5.035v19.17h-4.7v-19.17h-5.036v-3.995H877.513z"/>
<path class="st1" d="M884.527,159.421h-4.7v-23.165h4.7V159.421z"/>
<path class="st1" d="M904.083,136.256l-6.513,23.166h-4.297l-6.512-23.166h5.002l3.659,15.343l3.66-15.343
	C899.082,136.256,904.083,136.256,904.083,136.256z"/>
<path class="st1" d="M918.427,136.256v3.962h-7.521v5.237h6.682v3.962h-6.682v6.043h7.521v3.961h-12.22v-23.165H918.427z"/>
<polyline class="st0" points="489.986,298.55 473.109,337.55 188.469,337.524 205.331,298.558 489.986,298.55 "/>
<path class="st1" d="M207.056,294.573l18.624-43.038H105.984l-20.349,47.023h115.354l-18.586,42.951l293.324,0.026l20.326-46.97
	L207.056,294.573z M473.109,337.55l-284.64-0.026l16.862-38.966l284.655-0.008L473.109,337.55z"/>
<path class="st0" d="M124.927,263.344v3.962h-7.52v5.237h6.681v3.962h-6.681v6.043h7.52v3.961h-12.22v-23.165H124.927z"/>
<path class="st0" d="M133.186,273.886v12.623h-4.7v-23.165h4.432l5.137,10.979l5.136-10.979h4.432v23.166h-4.7v-12.624l-3.391,7.118
	h-2.954L133.186,273.886z"/>
<path class="st0" d="M158.873,286.812c-4.633,0-7.655-3.089-7.655-10.24v-3.29c0-7.151,3.022-10.24,7.655-10.24
	c4.633,0,7.655,3.089,7.655,10.24v3.29C166.528,283.723,163.506,286.812,158.873,286.812z M158.873,282.851
	c2.014,0,2.955-1.645,2.955-6.279v-3.29c0-4.633-0.94-6.278-2.955-6.278s-2.954,1.644-2.954,6.278v3.29
	C155.919,281.205,156.859,282.851,158.873,282.851z"/>
<path class="st0" d="M180.511,286.51l-3.39-9.098h-2.317v9.098h-4.7v-23.166h7.252c4.465,0,7.386,2.384,7.386,7.084
	c0,3.122-1.242,5.171-3.223,6.177l3.928,9.904h-4.936V286.51z M176.818,273.451c1.981,0,3.223-0.604,3.223-3.022
	c0-2.417-1.242-3.089-3.223-3.089h-2.014v6.111H176.818z"/>
<path class="st0" d="M197.298,263.344h5.372l-5.976,13.698v9.467h-4.7v-9.467l-5.976-13.698h5.372l2.955,8.494L197.298,263.344z"/>
<path class="st1" d="M222.909,306.458v3.962h-7.521v5.237h6.682v3.961h-6.682v6.043h7.521v3.962h-12.22v-23.165H222.909z"/>
<path class="st1" d="M239.304,306.458v3.995h-5.035v19.17h-4.7v-19.17h-5.036v-3.995H239.304z"/>
<path class="st1" d="M246.192,315.657h5.775v-9.2h4.7v23.166h-4.7v-10.004h-5.775v10.004h-4.7v-23.165h4.7V315.657z"/>
<path class="st1" d="M265.014,329.623h-4.7v-23.165h4.7V329.623z"/>
<path class="st1" d="M275.774,329.925c-4.633,0-7.655-3.089-7.655-10.24v-3.29c0-7.151,3.021-10.24,7.655-10.24
	c4.633,0,7.655,3.089,7.655,10.24v3.29C283.429,326.837,280.407,329.925,275.774,329.925z M275.774,325.964
	c2.014,0,2.954-1.645,2.954-6.279v-3.29c0-4.633-0.94-6.278-2.954-6.278c-2.015,0-2.955,1.644-2.955,6.278v3.29
	C272.819,324.318,273.759,325.964,275.774,325.964z"/>
<path class="st1" d="M291.101,321.465v8.158h-4.7v-23.165h7.251c4.465,0,7.386,2.451,7.386,7.42c0,4.902-2.888,7.588-7.386,7.588
	h-2.551V321.465z M292.848,317.503c2.517,0,3.491-1.141,3.491-3.626c0-2.215-0.974-3.425-3.491-3.425h-1.746v7.05L292.848,317.503
	L292.848,317.503z"/>
<path class="st1" d="M308.181,329.623h-4.7v-23.165h4.7V329.623z"/>
<path class="st1" d="M315.238,329.623h-4.902l6.682-23.166h4.565l6.681,23.166h-4.902l-1.108-4.398h-5.908L315.238,329.623z
	 M319.3,313.106l-2.014,8.158h4.028L319.3,313.106z"/>
<path class="st1" d="M342.228,329.623h-4.7v-23.165h4.7V329.623z"/>
<path class="st1" d="M361.018,306.458v23.166h-3.928l-6.547-12.657v12.657h-4.7v-23.166h3.894l6.581,12.859v-12.859H361.018z"/>
<path class="st1" d="M369.366,329.623h-4.7v-23.165h4.7V329.623z"/>
<path class="st1" d="M386.437,306.458v3.995h-5.035v19.17h-4.7v-19.17h-5.036v-3.995H386.437z"/>
<path class="st1" d="M393.452,329.623h-4.7v-23.165h4.7V329.623z"/>
<path class="st1" d="M400.508,329.623h-4.902l6.682-23.166h4.566l6.681,23.166h-4.902l-1.108-4.398h-5.908L400.508,329.623z
	 M404.571,313.106l-2.014,8.158h4.029L404.571,313.106z"/>
<path class="st1" d="M426.875,306.458v3.995h-5.035v19.17h-4.7v-19.17h-5.036v-3.995H426.875z"/>
<path class="st1" d="M433.891,329.623h-4.7v-23.165h4.7V329.623z"/>
<path class="st1" d="M453.446,306.458l-6.513,23.166h-4.298l-6.512-23.166h5.002l3.659,15.343l3.66-15.343
	C448.444,306.458,453.446,306.458,453.446,306.458z"/>
<path class="st1" d="M467.79,306.458v3.962h-7.521v5.237h6.682v3.961h-6.682v6.043h7.521v3.962h-12.22v-23.165H467.79z"/>
<polyline class="st0" points="934.398,298.55 917.521,337.55 680.198,337.524 697.06,298.558 934.398,298.55 "/>
<path class="st1" d="M698.785,294.573l18.624-43.038H597.713l-20.349,47.023h115.354l-18.586,42.951l246.007,0.026l20.326-46.97
	L698.785,294.573z M917.521,337.55l-237.323-0.026l16.862-38.966l237.338-0.008L917.521,337.55z"/>
<path class="st0" d="M616.656,263.344v3.962h-7.52v5.237h6.681v3.962h-6.681v6.043h7.52v3.961h-12.22v-23.165H616.656z"/>
<path class="st0" d="M624.915,273.886v12.623h-4.7v-23.165h4.432l5.137,10.979l5.136-10.979h4.432v23.166h-4.7v-12.624l-3.391,7.118
	h-2.954L624.915,273.886z"/>
<path class="st0" d="M650.602,286.812c-4.633,0-7.655-3.089-7.655-10.24v-3.29c0-7.151,3.022-10.24,7.655-10.24
	s7.655,3.089,7.655,10.24v3.29C658.257,283.723,655.235,286.812,650.602,286.812z M650.602,282.851c2.014,0,2.955-1.645,2.955-6.279
	v-3.29c0-4.633-0.94-6.278-2.955-6.278s-2.954,1.644-2.954,6.278v3.29C647.648,281.205,648.588,282.851,650.602,282.851z"/>
<path class="st0" d="M672.24,286.51l-3.39-9.098h-2.317v9.098h-4.7v-23.166h7.252c4.465,0,7.386,2.384,7.386,7.084
	c0,3.122-1.242,5.171-3.223,6.177l3.928,9.904h-4.936V286.51z M668.547,273.451c1.981,0,3.223-0.604,3.223-3.022
	c0-2.417-1.242-3.089-3.223-3.089h-2.014v6.111H668.547z"/>
<path class="st0" d="M689.027,263.344h5.372l-5.976,13.698v9.467h-4.7v-9.467l-5.976-13.698h5.372l2.955,8.494L689.027,263.344z"/>
<path class="st1" d="M707.385,329.623h-4.7v-23.166h4.7V329.623z"/>
<path class="st1" d="M726.176,306.457v23.166h-3.928l-6.547-12.657v12.657h-4.7v-23.166h3.894l6.581,12.859v-12.859H726.176z"/>
<path class="st1" d="M729.706,329.623v-23.166h7.184c4.499,0,7.621,2.686,7.621,10.073v3.021c0,7.352-3.122,10.072-7.621,10.072
	C736.89,329.623,729.706,329.623,729.706,329.623z M739.811,319.551v-3.021c0-3.895-0.504-6.077-2.921-6.077h-2.484v15.175h2.484
	C739.307,325.628,739.811,323.445,739.811,319.551z"/>
<path class="st1" d="M752.332,329.623h-4.7v-23.166h4.7V329.623z"/>
<path class="st1" d="M759.388,329.623h-4.902l6.682-23.166h4.566l6.681,23.166h-4.902l-1.108-4.398h-5.908L759.388,329.623z
	 M763.451,313.105l-2.014,8.158h4.029L763.451,313.105z"/>
<path class="st1" d="M786.379,329.623h-4.7v-23.166h4.7V329.623z"/>
<path class="st1" d="M805.168,306.457v23.166h-3.928l-6.547-12.657v12.657h-4.7v-23.166h3.894l6.581,12.859v-12.859H805.168z"/>
<path class="st1" d="M813.516,329.623h-4.699v-23.166h4.699V329.623z"/>
<path class="st1" d="M830.587,306.457v3.995h-5.035v19.17h-4.7v-19.17h-5.036v-3.995H830.587z"/>
<path class="st1" d="M837.602,329.623h-4.7v-23.166h4.7V329.623z"/>
<path class="st1" d="M844.659,329.623h-4.902l6.682-23.166h4.566l6.681,23.166h-4.902l-1.108-4.398h-5.908L844.659,329.623z
	 M848.721,313.105l-2.014,8.158h4.029L848.721,313.105z"/>
<path class="st1" d="M871.026,306.457v3.995h-5.035v19.17h-4.7v-19.17h-5.036v-3.995H871.026z"/>
<path class="st1" d="M878.04,329.623h-4.7v-23.166h4.7V329.623z"/>
<path class="st1" d="M897.596,306.457l-6.513,23.166h-4.297l-6.512-23.166h5.002l3.659,15.343l3.66-15.343
	C892.595,306.457,897.596,306.457,897.596,306.457z"/>
<path class="st1" d="M911.94,306.457v3.962h-7.521v5.237h6.682v3.961h-6.682v6.043h7.521v3.962h-12.22v-23.165H911.94z"/>
<path class="st0" d="M547.93,467.615l-16.88,39l-343.65-0.03l16.87-38.97L547.93,467.615"/>
<path class="st1" d="M205.99,463.645l18.62-43H104.92l-20.35,47h115.35l-18.59,43H533.7l20.33-47L205.99,463.645z M531.05,506.645
	H187.4l16.86-39h343.66L531.05,506.645z"/>
<path class="st0" d="M123.86,432.405v4h-7.52v5.24h6.68v4h-6.68v6h7.52v4h-12.22v-23.24H123.86z M132.12,442.945v12.63h-4.7v-23.17
	h4.43l5.14,11l5.14-11h4.43v23.17h-4.7v-12.63l-3.39,7.12h-3L132.12,442.945z M157.81,455.875c-4.63,0-7.65-3.09-7.65-10.24v-3.29
	c0-7.15,3-10.24,7.65-10.24c4.65,0,7.65,3.09,7.65,10.24v3.3C165.46,452.785,162.44,455.875,157.81,455.875z M157.81,451.875
	c2,0,3-1.65,3-6.28v-3.25c0-4.63-0.94-6.28-3-6.28s-3,1.64-3,6.28v3.3c0.04,4.62,0.98,6.27,3,6.27V451.875z M179.44,455.575
	l-3.39-9.1h-2.35v9.1H169v-23.17h7.25c4.47,0,7.39,2.38,7.39,7.08c0.06,3.16-1.21,5.16-3.19,6.16l3.93,9.9L179.44,455.575z
	 M175.75,442.515c2,0,3.22-0.6,3.22-3c0-2.4-1.24-3.09-3.22-3.09h-2v6.11L175.75,442.515z M196.23,432.405h5.37l-6,13.7v9.47h-4.7
	v-9.47l-6-13.7h5.37l3,8.49L196.23,432.405z"/>
<path class="st1" d="M217.57,481.435c-0.94-1.38-1.95-2.25-3.32-2.25c-1.61,0-2.38,1-2.38,2.55c0,1.81,1,2.55,3.46,3.36
	c4.16,1.34,5.91,3.06,5.91,7.15c0,3.79-2.42,6.75-6.88,6.75c-3.46,0-5.84-1.11-7.65-3.79l3.53-2.48c1.07,1.34,2.08,2.32,3.79,2.32
	c1.257,0.139,2.389-0.767,2.528-2.025c0.021-0.188,0.018-0.378-0.008-0.565c0-1.61-0.74-2.52-3.66-3.46
	c-3.89-1.28-5.71-3.42-5.71-7.25c0-3.66,2.18-6.51,6.88-6.51c3.09,0,5.57,1.21,6.92,3.76L217.57,481.435z M231.12,498.985
	c-4.63,0-7.65-3.09-7.65-10.24v-3.29c0-7.15,3-10.24,7.65-10.24s7.65,3.09,7.65,10.24v3.29
	C238.77,495.905,235.75,498.985,231.12,498.985z M231.12,494.985c2,0,3-1.65,3-6.28v-3.25c0-4.63-0.94-6.28-3-6.28s-3,1.64-3,6.28
	v3.29c0.04,4.64,0.98,6.28,3,6.28V494.985z M241.6,489.325v-13.8h4.7v13.8c0,4,0.74,5.71,2.92,5.71s2.92-1.75,2.92-5.71v-13.8h4.7
	v13.8c0,6.81-3.12,9.67-7.62,9.67S241.6,496.135,241.6,489.325z M273.8,475.525v4h-5v19.12h-4.7v-19.13h-5v-4L273.8,475.525z
	 M280.7,484.725h5.77v-9.2h4.7v23.12h-4.7v-10h-5.77v10H276v-23.12h4.7V484.725z M313.15,498.645l-4-9.67l-2.25,3.76v5.91h-4.7
	v-23.12h4.7v9.64l5.07-9.64h5.37l-5.2,8.59l6.12,14.53L313.15,498.645z M326.61,498.985c-4.63,0-7.65-3.09-7.65-10.24v-3.29
	c0-7.15,3-10.24,7.65-10.24s7.65,3.09,7.65,10.24v3.29C334.27,495.905,331.25,498.985,326.61,498.985z M326.61,494.985
	c2,0,3-1.65,3-6.28v-3.25c0-4.63-0.94-6.28-3-6.28s-3,1.64-3,6.28v3.29c0.09,4.64,0.99,6.28,3,6.28V494.985z M347.65,498.645
	l-3.39-9.1h-2.32v9.1h-4.7v-23.12h7.25c4.47,0,7.39,2.38,7.39,7.08c0,3.12-1.24,5.17-3.22,6.18l3.93,9.9L347.65,498.645z
	 M343.96,485.645c2,0,3.22-0.6,3.22-3c0-2.4-1.24-3.09-3.22-3.09h-2v6.09H343.96z M367.14,475.525v4h-7.52v5.24h6.68v4h-6.68v6h7.52
	v4h-12.22v-23.24H367.14z M373.52,498.645h-4.9l6.68-23.17h4.57l6.68,23.17h-4.9l-1.11-4.4h-5.91L373.52,498.645z M377.58,482.125
	l-2,8.16h4L377.58,482.125z M400.51,498.645h-4.7v-23.12h4.7V498.645z M419.3,475.525v23.12h-3.93l-6.55-12.66v12.66h-4.7v-23.12
	h3.9l6.58,12.86v-12.86H419.3z M427.65,498.645h-4.7v-23.12h4.7V498.645z M444.7,475.525v4h-5v19.12H435v-19.13h-5v-4L444.7,475.525
	z M451.7,498.645H447v-23.12h4.7V498.645z M458.79,498.645h-4.9l6.68-23.17h4.57l6.68,23.17h-4.9l-1.11-4.4h-5.91L458.79,498.645z
	 M462.85,482.125l-2,8.16h4L462.85,482.125z M485.16,475.525v4h-5v19.12h-4.7v-19.13h-5v-4L485.16,475.525z M492.17,498.645h-4.7
	v-23.12h4.7V498.645z M511.7,475.525l-6.49,23.12h-4.3l-6.51-23.17h5l3.66,15.34l3.64-15.29H511.7z M526.07,475.525v4h-7.52v5.24
	h6.68v4h-6.68v6h7.52v4h-12.22v-23.24H526.07z"/>
</svg>
