<?xml version="1.0" encoding="utf-8"?>
<!-- Generator: Adobe Illustrator 21.0.2, SVG Export Plug-In . SVG Version: 6.00 Build 0)  -->
<!DOCTYPE svg PUBLIC "-//W3C//DTD SVG 1.1//EN" "http://www.w3.org/Graphics/SVG/1.1/DTD/svg11.dtd">
<svg version="1.1" id="Layer_1" xmlns="http://www.w3.org/2000/svg" xmlns:xlink="http://www.w3.org/1999/xlink" x="0px" y="0px"
	 width="300px" height="161.06px" viewBox="0 0 300 161.06" style="enable-background:new 0 0 300 161.06;" xml:space="preserve">
<g>
	<path d="M253.2,160.06h16.57v-29.69c0-4.53,2.81-7.88,7.51-7.88c4.07,0,6.16,2.72,6.16,6.07v31.51H300v-33.13
		c0-9.96-6.79-16.48-16.75-16.48c-6.16,0-11.32,2.72-14.3,7.6h-0.18l-0.36-6.61H253.2V160.06z M221.46,122.31
		c6.34,0,9.14,5.88,9.14,13.49c0,7.51-2.81,13.4-9.32,13.4c-6.34,0-9.14-5.88-9.14-13.4C212.13,128.19,214.94,122.31,221.46,122.31
		 M221.37,161.06c17.11,0,25.98-10.86,25.98-25.35c0-14.58-8.96-25.26-25.98-25.26c-17.11,0-25.98,10.86-25.98,25.44
		C195.38,150.37,204.35,161.06,221.37,161.06 M156.13,122.4h8.42v23.72c0,9.69,5.25,14.94,17.2,14.94c3.53,0,7.15-0.45,9.6-1.09
		v-11.04c-1.09,0.18-2.44,0.27-3.44,0.27c-5.52,0-6.97-2.35-6.97-6.16V122.4h10.41v-10.95h-10.41V96.05h-16.39v15.39h-8.42V122.4z
		 M125.89,160.06h16.57V122.4h10.32v-10.95h-10.32v-4.53c0-3.89,1.36-5.52,6.34-5.52c1.63,0,2.9,0.18,3.98,0.45V90.62
		c-2.08-0.54-4.71-1.09-8.51-1.09c-13.22,0-18.38,6.7-18.38,17.29v4.62h-8.33v10.95h8.33V160.06z M111.79,111.44H95.22v48.62h16.57
		V111.44z M95.13,103.93h16.75v-13.4H95.13V103.93z M85.4,90.53H68.83v69.53H85.4V90.53z M34.76,161.06
		c13.49,0,22.45-5.52,28.61-14.94l-12.58-7.97c-3.62,6.34-8.51,9.51-15.21,9.51c-12.31,0-17.65-10.23-17.65-22.36
		c0-12.22,5.52-22.36,17.47-22.36c6.7,0,11.5,3.26,15.12,9.87l12.67-8.33c-6.07-9.6-15.48-14.94-28.52-14.94
		C12.31,89.54,0,105.11,0,125.57C0,146.12,12.49,161.06,34.76,161.06"/>
	<path d="M216.15,69.53h18.83l-14.85-25.35l14.39-23.27h-18.65l-9.78,17.93h-2.9V0h-16.57v69.53h16.57V49.79h2.72L216.15,69.53z
		 M148.7,69.53h16.57V43.55c0-5.25,4.07-9.51,11.41-9.51c1.54,0,3.44,0.18,4.62,0.36V20.91c-1.36-0.54-2.99-0.91-4.71-0.91
		c-5.52,0-9.51,3.62-12.13,8.69h-0.18l-0.36-7.79H148.7V69.53z M114.09,58.57c-6.07,0-8.96-5.79-8.96-13.22
		c0-7.88,3.17-13.49,9.05-13.49s8.78,5.61,8.78,13.31C122.96,52.69,120.24,58.57,114.09,58.57 M108.2,70.52
		c6.25,0,11.41-2.9,14.58-7.06h0.18l0.36,6.07h15.3V20.91h-14.39l-0.36,6.25h-0.18c-2.9-3.8-8.06-7.24-14.67-7.24
		c-12.67,0-20.64,11.14-20.64,25.8C88.38,59.66,95.89,70.52,108.2,70.52 M56.22,0L41.37,47.71h-0.18L26.25,0H2.81v69.53h16.84V26.07
		h0.18l13.94,43.46h14.85l13.67-43.27h0.18v43.27h17.38V0H56.22z"/>
</g>
</svg>
