<?xml version="1.0" encoding="utf-8"?>
<!-- Generator: Adobe Illustrator 21.1.0, SVG Export Plug-In . SVG Version: 6.00 Build 0)  -->
<!DOCTYPE svg PUBLIC "-//W3C//DTD SVG 1.1//EN" "http://www.w3.org/Graphics/SVG/1.1/DTD/svg11.dtd">
<svg version="1.1" id="Layer_1" xmlns="http://www.w3.org/2000/svg" xmlns:xlink="http://www.w3.org/1999/xlink" x="0px" y="0px"
	 width="1000px" height="724.82px" viewBox="0 0 1000 724.82" style="enable-background:new 0 0 1000 724.82;" xml:space="preserve"
	>
<style type="text/css">
	.st0{fill:#000006;}
	.st1{fill:#FFFFFF;}
</style>
<g>
	<rect x="-0.76" class="st0" width="1000.76" height="724.82"/>
</g>
<g>
	<g>
		<path class="st1" d="M86.2,385.92c0.26,0.31,26.21,31.05,70.74,31.05c44.53,0,70.49-30.74,70.74-31.05
			c0.1-0.12,0.14-0.25,0.15-0.4c0.01-0.12,0-0.24-0.06-0.36c-0.12-0.25-0.37-0.41-0.64-0.41h-10.78
			c-0.41-12.77-10.81-23.05-23.63-23.23c-7.23-9.44-18.61-15.55-31.4-15.55c-9.21,0-17.69,3.18-24.42,8.48
			c-2.14-0.46-4.36-0.71-6.64-0.71c-17.26,0-31.32,13.84-31.73,31.01H86.75c-0.28,0-0.53,0.16-0.64,0.41
			c-0.05,0.11-0.07,0.24-0.06,0.36C86.06,385.66,86.11,385.8,86.2,385.92z M130.26,355.17c16.48,0,29.9,13.21,30.31,29.59h-6.34
			c-0.41-12.88-10.99-23.24-23.97-23.24c-12.98,0-23.56,10.36-23.97,23.24h-6.34C100.36,368.37,113.79,355.17,130.26,355.17z
			 M146.47,384.75c-0.4-8.6-7.51-15.48-16.2-15.48c-8.7,0-15.8,6.88-16.2,15.48h-6.34c0.41-12.1,10.35-21.82,22.55-21.82
			s22.14,9.72,22.55,21.82H146.47z M138.66,384.75c-0.39-4.31-3.99-7.71-8.4-7.71s-8.01,3.4-8.4,7.71h-6.38
			c0.4-7.82,6.87-14.06,14.78-14.06s14.38,6.24,14.78,14.06H138.66z M123.29,384.75c0.39-3.53,3.35-6.29,6.98-6.29
			c3.63,0,6.59,2.76,6.98,6.29H123.29z M162,384.75c-0.05-2.15-0.31-4.25-0.77-6.28c0.04,0,0.07-0.01,0.1-0.01
			c3.63,0,6.59,2.76,6.98,6.29H162z M147.2,358.68c4.22-2.23,9.03-3.51,14.13-3.51c8.18,0,15.6,3.27,21.07,8.55
			c-2.01,0.92-3.87,2.11-5.54,3.53c-4.19-3.57-9.61-5.73-15.53-5.73c-3.02,0-5.9,0.58-8.56,1.6
			C151.09,361.43,149.21,359.96,147.2,358.68z M161.33,362.93c5.51,0,10.55,1.99,14.48,5.27c-1.53,1.47-2.86,3.14-3.96,4.96
			c-2.84-2.42-6.51-3.89-10.52-3.89c-1.22,0-2.41,0.15-3.56,0.4c-1.13-1.95-2.46-3.77-3.97-5.43
			C156.16,363.41,158.69,362.93,161.33,362.93z M161.33,370.7c3.76,0,7.18,1.42,9.79,3.73c-1.14,2.18-1.95,4.57-2.37,7.08
			c-1.44-2.64-4.21-4.46-7.42-4.46c-0.16,0-0.3,0.04-0.46,0.05c-0.59-2.13-1.39-4.18-2.38-6.11
			C159.4,370.8,160.35,370.7,161.33,370.7z M200.79,384.75c-0.39-4.31-3.99-7.71-8.4-7.71s-8.01,3.4-8.4,7.71h-6.38
			c0.4-7.82,6.87-14.06,14.78-14.06c7.91,0,14.38,6.24,14.78,14.06H200.79z M185.41,384.75c0.39-3.53,3.35-6.29,6.98-6.29
			c3.63,0,6.59,2.76,6.98,6.29H185.41z M208.59,384.75c-0.4-8.6-7.51-15.48-16.2-15.48c-8.7,0-15.8,6.88-16.2,15.48h-6.34
			c0.41-12.1,10.35-21.82,22.55-21.82c12.2,0,22.14,9.72,22.55,21.82H208.59z M183.83,363.12c-5.76-5.78-13.72-9.37-22.51-9.37
			c-5.64,0-10.93,1.49-15.53,4.08c-2.23-1.26-4.63-2.23-7.15-2.92c6.34-4.71,14.19-7.5,22.68-7.5c11.96,0,22.64,5.54,29.64,14.18
			C188.46,361.73,186.07,362.26,183.83,363.12z M156.95,415.54c-38.89,0-63.38-23.78-68.6-29.37h137.21
			C220.33,391.77,195.83,415.54,156.95,415.54z"/>
	</g>
	<g>
		<path class="st1" d="M366.87,346.93l0.18-0.05c1.02-0.26,1.63-1.29,1.37-2.31c-0.26-1.02-1.29-1.63-2.31-1.37l-0.14,0.04
			c-1.02,0.25-1.65,1.27-1.4,2.29c0.21,0.87,0.99,1.45,1.84,1.45C366.57,346.99,366.72,346.97,366.87,346.93z"/>
	</g>
	<g>
		<path class="st1" d="M422.91,366.69c0.85-0.62,1.04-1.8,0.42-2.65l-0.11-0.15c-0.62-0.84-1.77-0.95-2.61-0.33
			c-0.84,0.63-0.97,1.88-0.34,2.72c0.37,0.51,0.95,0.78,1.54,0.78C422.18,367.06,422.57,366.94,422.91,366.69z"/>
	</g>
	<g>
		<path class="st1" d="M413.41,353.68l-0.1-0.08c-0.82-0.66-2.01-0.54-2.67,0.28c-0.66,0.82-0.54,2.01,0.28,2.67l0.16,0.13
			c0.35,0.27,0.76,0.4,1.16,0.4c0.57,0,1.13-0.25,1.5-0.73C414.39,355.52,414.24,354.33,413.41,353.68z"/>
	</g>
	<g>
		<path class="st1" d="M380.26,345.44c0.02,0,0.04,0,0.06,0c1.02,0,1.87-0.81,1.9-1.84c0.03-1.05-0.79-1.92-1.84-1.95l-0.2,0
			c-1.08,0.03-1.84,0.82-1.86,1.87C378.3,344.56,379.21,345.43,380.26,345.44z"/>
	</g>
	<g>
		<path class="st1" d="M418.65,361.24c0.76-0.72,0.8-1.92,0.08-2.69l-0.15-0.15c-0.73-0.75-1.89-0.71-2.64,0.02
			c-0.75,0.73-0.72,1.98,0.02,2.73c0.37,0.4,0.88,0.6,1.38,0.6C417.81,361.76,418.28,361.59,418.65,361.24z"/>
	</g>
	<g>
		<path class="st1" d="M405.59,352.83c0.31,0.19,0.65,0.28,0.99,0.28c0.64,0,1.27-0.32,1.62-0.91c0.55-0.9,0.26-2.06-0.63-2.61
			c0,0-0.15-0.09-0.15-0.09c-0.89-0.54-1.99-0.21-2.53,0.69C404.34,351.08,404.7,352.28,405.59,352.83z"/>
	</g>
	<g>
		<path class="st1" d="M426.59,377.8l0.06,0.16c0.29,0.75,1.01,1.21,1.77,1.21c0.23,0,0.46-0.04,0.69-0.13
			c0.98-0.38,1.46-1.48,1.08-2.46l-0.06-0.16c-0.38-0.98-1.48-1.46-2.46-1.08C426.69,375.72,426.21,376.83,426.59,377.8z"/>
	</g>
	<g>
		<path class="st1" d="M423.76,371.76l0.08,0.15c0.35,0.63,1,0.98,1.67,0.98c0.31,0,0.62-0.08,0.91-0.23
			c0.92-0.51,1.25-1.66,0.75-2.58l-0.08-0.15c-0.51-0.92-1.66-1.26-2.58-0.75C423.59,369.69,423.26,370.84,423.76,371.76z"/>
	</g>
	<g>
		<path class="st1" d="M329.96,376.94c0.23,0.1,0.47,0.15,0.71,0.15c0.76,0,1.5-0.47,1.82-1.19c0.43-0.96,0-2.08-0.96-2.51
			c-0.96-0.43-2.08,0.01-2.51,0.96c0,0-0.07,0.16-0.07,0.17C328.53,375.48,329,376.52,329.96,376.94z"/>
	</g>
	<g>
		<path class="st1" d="M332.89,370.76c0.31,0.18,0.64,0.27,0.98,0.27c0.64,0,1.27-0.33,1.63-0.92c0,0,0.09-0.15,0.09-0.16
			c0.54-0.9,0.24-2.07-0.66-2.6c-0.9-0.54-2.07-0.24-2.6,0.66l1.55,1.11l-1.63-0.98C331.7,369.05,331.99,370.22,332.89,370.76z"/>
	</g>
	<g>
		<path class="st1" d="M337.82,365.36c0.55,0,1.1-0.24,1.48-0.7l0.13-0.16c0.64-0.83,0.49-2.02-0.33-2.67
			c-0.83-0.64-2.02-0.49-2.67,0.33l-0.08,0.1c-0.66,0.82-0.54,2.01,0.28,2.67C336.97,365.22,337.4,365.36,337.82,365.36z"/>
	</g>
	<g>
		<path class="st1" d="M373.39,345.75c0.07,0,0.14,0,0.2-0.01c1.04-0.11,1.8-1.04,1.69-2.09c-0.11-1.04-1.04-1.79-2.09-1.69
			c-0.01,0-0.18,0.02-0.19,0.02c-1.04,0.12-1.7,1.05-1.58,2.09C371.54,345.04,372.43,345.75,373.39,345.75z"/>
	</g>
	<g>
		<path class="st1" d="M327.83,383.62c0.18,0.05,0.35,0.07,0.53,0.07c0.83,0,1.58-0.54,1.82-1.37c0,0,0.05-0.17,0.05-0.17
			c0.28-1.01-0.3-2.06-1.31-2.34c-1.01-0.28-2.06,0.31-2.34,1.31l1.78,0.68l-1.83-0.53C326.24,382.27,326.82,383.33,327.83,383.62z"
			/>
	</g>
	<g>
		<path class="st1" d="M359.83,349.08c0.23,0,0.46-0.04,0.69-0.13l0.17-0.07c0.98-0.39,1.45-1.49,1.07-2.47
			c-0.39-0.97-1.49-1.45-2.47-1.07l-0.15,0.06c-0.98,0.38-1.46,1.48-1.08,2.46C358.36,348.62,359.07,349.08,359.83,349.08z"/>
	</g>
	<g>
		<path class="st1" d="M343.98,356.92c-0.72-0.76-1.92-0.8-2.69-0.08l-0.15,0.15c-0.75,0.73-0.71,1.89,0.02,2.64
			c0.36,0.37,0.85,0.55,1.34,0.55c0.51,0,1.02-0.19,1.4-0.56C344.66,358.88,344.69,357.68,343.98,356.92z"/>
	</g>
	<g>
		<path class="st1" d="M346.77,352.23l-0.15,0.11c-0.84,0.63-0.96,1.77-0.33,2.61c0.36,0.49,0.94,0.74,1.52,0.74
			c0.42,0,0.85-0.13,1.2-0.39c0.85-0.62,1.04-1.8,0.42-2.65C348.8,351.8,347.61,351.61,346.77,352.23z"/>
	</g>
	<g>
		<path class="st1" d="M352.8,348.38l-0.15,0.08c-0.92,0.51-1.25,1.66-0.75,2.58c0.35,0.63,1,0.98,1.67,0.98
			c0.31,0,0.62-0.08,0.91-0.23l0.15-0.08c0.92-0.51,1.25-1.66,0.75-2.58C354.88,348.21,353.72,347.87,352.8,348.38z"/>
	</g>
	<g>
		<path class="st1" d="M393.26,347.41c0,0,0.17,0.05,0.17,0.05c0.18,0.05,0.35,0.08,0.53,0.08c0.83,0,1.58-0.54,1.82-1.38
			c0.29-1.01-0.29-2.06-1.3-2.35l-0.69,1.78l0.53-1.82c-1-0.3-2.06,0.28-2.36,1.29C391.67,346.06,392.25,347.12,393.26,347.41z"/>
	</g>
	<g>
		<path class="st1" d="M386.92,346.02c0.09,0.01,0.19,0.02,0.28,0.02c0.93,0,1.74-0.68,1.88-1.62c0.15-1.04-0.56-2-1.6-2.15
			l-0.44,1.85l0.28-1.88c-1.04-0.16-2,0.56-2.16,1.6c-0.15,1.04,0.56,2,1.6,2.16C386.76,346,386.92,346.02,386.92,346.02z"/>
	</g>
	<g>
		<path class="st1" d="M401.22,346.27c0,0-0.16-0.07-0.17-0.07c-0.96-0.42-2,0.05-2.42,1.01c-0.42,0.96,0.09,2.11,1.04,2.53
			c0.25,0.11,0.51,0.16,0.77,0.16c0.73,0,1.42-0.42,1.74-1.13C402.61,347.82,402.18,346.7,401.22,346.27z"/>
	</g>
	<g>
		<path class="st1" d="M348.25,362.39l-0.1,0.09c-0.78,0.7-0.84,1.9-0.14,2.68c0.38,0.42,0.89,0.63,1.41,0.63
			c0.45,0,0.91-0.16,1.27-0.49l0.15-0.14c0.76-0.72,0.8-1.92,0.08-2.69C350.21,361.7,349.01,361.67,348.25,362.39z"/>
	</g>
	<g>
		<path class="st1" d="M417.61,379.15c0.32,0.69,1.01,1.09,1.72,1.09c0.27,0,0.54-0.06,0.8-0.18c0.95-0.44,1.36-1.57,0.92-2.52
			l-1.79,0.65l1.73-0.78c-0.43-0.96-1.56-1.38-2.51-0.95c-0.96,0.43-1.38,1.56-0.95,2.51C417.53,378.98,417.61,379.14,417.61,379.15
			z"/>
	</g>
	<g>
		<path class="st1" d="M353.98,357.94l-0.16,0.11c-0.87,0.58-1.05,1.72-0.47,2.59c0.36,0.54,0.97,0.82,1.59,0.82
			c0.38,0,0.77-0.11,1.11-0.33c0.88-0.57,1.13-1.75,0.56-2.63C356.04,357.62,354.86,357.37,353.98,357.94z"/>
	</g>
	<g>
		<path class="st1" d="M338.63,379c-0.98-0.37-2.08,0.13-2.45,1.11l-0.06,0.16c-0.37,0.98,0.13,2.08,1.11,2.45
			c0.22,0.08,0.45,0.12,0.67,0.12c0.77,0,1.49-0.47,1.78-1.23l0.06-0.16C340.11,380.46,339.61,379.37,338.63,379z"/>
	</g>
	<g>
		<path class="st1" d="M344.71,370.84c0.55,0,1.1-0.24,1.48-0.7l0.13-0.16c0.64-0.83,0.49-2.02-0.33-2.67
			c-0.83-0.64-2.02-0.49-2.67,0.33l-0.08,0.1c-0.66,0.82-0.54,2.01,0.28,2.67C343.86,370.71,344.29,370.84,344.71,370.84z"/>
	</g>
	<g>
		<path class="st1" d="M394.12,356.98c0.22,0.08,0.45,0.13,0.68,0.13c0.77,0,1.49-0.47,1.77-1.22c0.37-0.98-0.12-2.08-1.1-2.45
			c0,0-0.16-0.06-0.17-0.06c-0.98-0.37-1.99,0.16-2.37,1.14C392.57,355.48,393.14,356.6,394.12,356.98z"/>
	</g>
	<g>
		<path class="st1" d="M340.83,376.57c0.66,0,1.3-0.34,1.65-0.95c0-0.01,0.09-0.16,0.1-0.17c0.51-0.92,0.18-2.07-0.73-2.59
			c-0.92-0.51-2.07-0.18-2.59,0.73l1.57,1.07l-1.65-0.95c-0.52,0.91-0.21,2.07,0.7,2.59C340.18,376.49,340.51,376.57,340.83,376.57z
			"/>
	</g>
	<g>
		<path class="st1" d="M374.38,354.5c0.07,0,0.14,0,0.2-0.01c1.04-0.11,1.8-1.04,1.69-2.09c-0.11-1.04-1.04-1.79-2.09-1.69
			c-0.01,0-0.18,0.02-0.19,0.02c-1.04,0.12-1.7,1.05-1.58,2.09C372.52,353.79,373.42,354.5,374.38,354.5z"/>
	</g>
	<g>
		<path class="st1" d="M360.29,354.48l-0.14,0.06c-0.96,0.43-1.38,1.56-0.95,2.51c0.32,0.7,1.01,1.12,1.73,1.12
			c0.26,0,0.53-0.05,0.78-0.17l0.17-0.08c0.95-0.44,1.37-1.57,0.93-2.52C362.37,354.46,361.24,354.05,360.29,354.48z"/>
	</g>
	<g>
		<path class="st1" d="M407.91,360.56l-0.1-0.08c-0.82-0.66-2.01-0.54-2.67,0.28c-0.66,0.82-0.54,2.01,0.28,2.67l0.16,0.13
			c0.35,0.27,0.76,0.4,1.16,0.4c0.57,0,1.13-0.25,1.5-0.73C408.89,362.4,408.74,361.21,407.91,360.56z"/>
	</g>
	<g>
		<path class="st1" d="M381.21,350.48c-1.07-0.03-1.85,0.77-1.9,1.82c-0.05,1.05,0.85,1.94,1.9,1.99c0.03,0,0.06,0,0.09,0
			c1.01,0,1.85-0.8,1.9-1.82c0.05-1.05-0.77-1.94-1.81-1.98L381.21,350.48z"/>
	</g>
	<g>
		<path class="st1" d="M413.17,365.5l-0.09-0.1c-0.7-0.78-1.9-0.84-2.68-0.14c-0.78,0.7-0.84,1.9-0.14,2.68l0.14,0.15
			c0.37,0.4,0.88,0.6,1.38,0.6c0.47,0,0.93-0.17,1.3-0.52C413.85,367.47,413.89,366.27,413.17,365.5z"/>
	</g>
	<g>
		<path class="st1" d="M400.89,358.08l0.95-1.65c-0.91-0.52-2.07-0.21-2.59,0.7c-0.52,0.91-0.21,2.07,0.7,2.59
			c0.01,0,0.16,0.09,0.17,0.1c0.29,0.16,0.61,0.24,0.93,0.24c0.67,0,1.31-0.35,1.66-0.97c0.51-0.92,0.18-2.07-0.73-2.59
			L400.89,358.08z"/>
	</g>
	<g>
		<path class="st1" d="M387.6,355.09c0.01,0,0.18,0.04,0.19,0.04c0.12,0.02,0.25,0.04,0.37,0.04c0.89,0,1.68-0.63,1.86-1.53
			c0.2-1.03-0.47-2.03-1.5-2.23l-0.53,1.83l0.39-1.86c-1.03-0.22-2.03,0.44-2.25,1.47C385.92,353.87,386.58,354.87,387.6,355.09z"/>
	</g>
	<g>
		<path class="st1" d="M416.02,374.18c0.35,0,0.71-0.1,1.03-0.31c0.88-0.57,1.13-1.75,0.56-2.63l-0.11-0.16
			c-0.58-0.87-1.72-1.05-2.59-0.47c-0.87,0.58-1.07,1.82-0.49,2.69C414.79,373.87,415.4,374.18,416.02,374.18z"/>
	</g>
	<g>
		<path class="st1" d="M367.43,355.83c0.16,0,0.33-0.02,0.5-0.07l0.16-0.04c1.01-0.28,1.61-1.32,1.33-2.33
			c-0.28-1.01-1.32-1.61-2.33-1.33l-0.16,0.04c-1.01,0.28-1.61,1.32-1.33,2.33C365.83,355.27,366.59,355.83,367.43,355.83z"/>
	</g>
	<g>
		<path class="st1" d="M362.1,367.44c0.31,0,0.62-0.08,0.91-0.23l0.15-0.08c0.92-0.51,1.25-1.66,0.75-2.58
			c-0.51-0.92-1.66-1.26-2.58-0.75l-0.15,0.08c-0.92,0.51-1.25,1.66-0.75,2.58C360.78,367.08,361.43,367.44,362.1,367.44z"/>
	</g>
	<g>
		<path class="st1" d="M375.07,359.47c0,0-0.09,0.01-0.09,0.01c-1.04,0.12-1.79,1.07-1.66,2.11c0.11,0.97,0.93,1.68,1.88,1.68
			c0.07,0,0.15,0,0.22-0.01c0,0,0.17-0.02,0.17-0.02c1.04-0.12,1.74-1.06,1.62-2.1C377.09,360.1,376.11,359.35,375.07,359.47z"/>
	</g>
	<g>
		<path class="st1" d="M357.76,370.8c0.8-0.68,0.9-1.88,0.22-2.68c-0.68-0.8-1.88-0.9-2.68-0.22l-0.13,0.11
			c-0.8,0.68-0.9,1.88-0.22,2.68c0.38,0.44,0.91,0.67,1.45,0.67c0.43,0,0.87-0.15,1.23-0.45L357.76,370.8z"/>
	</g>
	<g>
		<path class="st1" d="M351.59,376.33c0.55,0,1.1-0.24,1.48-0.7l0.13-0.16c0.64-0.83,0.49-2.02-0.33-2.67
			c-0.83-0.64-2.02-0.49-2.67,0.33l-0.08,0.1c-0.66,0.82-0.54,2.01,0.28,2.67C350.75,376.19,351.17,376.33,351.59,376.33z"/>
	</g>
	<g>
		<path class="st1" d="M382.11,361.27l0.17-1.89c-1.02-0.09-1.97,0.68-2.06,1.73c-0.09,1.04,0.68,1.97,1.72,2.06
			c0.01,0,0.19,0.02,0.2,0.02c0.05,0,0.09,0,0.14,0c0.99,0,1.82-0.76,1.89-1.76c0.08-1.05-0.71-1.96-1.76-2.03L382.11,361.27z"/>
	</g>
	<g>
		<path class="st1" d="M346.96,381.91c0.28,0.15,0.58,0.21,0.87,0.21c0.69,0,1.35-0.37,1.69-1.03l0.08-0.15
			c0.48-0.93,0.12-2.08-0.82-2.56c-0.93-0.48-2.08-0.12-2.56,0.82l-0.08,0.15C345.67,380.29,346.03,381.43,346.96,381.91z"/>
	</g>
	<g>
		<path class="st1" d="M404.74,375.01c0.38,0.44,0.91,0.67,1.45,0.67c0.43,0,0.87-0.15,1.23-0.45c0.8-0.68,0.9-1.88,0.22-2.68
			l-0.11-0.13c-0.68-0.8-1.88-0.9-2.68-0.22c-0.8,0.68-0.9,1.88-0.22,2.68L404.74,375.01z"/>
	</g>
	<g>
		<path class="st1" d="M368.58,364.66c0.19,0,0.39-0.03,0.58-0.09c1-0.31,1.56-1.37,1.26-2.37c-0.31-1-1.38-1.57-2.37-1.26
			c-0.01,0-0.18,0.06-0.19,0.06c-0.99,0.32-1.46,1.36-1.15,2.35C366.97,364.16,367.76,364.66,368.58,364.66z"/>
	</g>
	<g>
		<path class="st1" d="M388.38,364.34c0,0,0.17,0.05,0.17,0.05c0.18,0.05,0.35,0.08,0.53,0.08c0.83,0,1.58-0.54,1.82-1.38
			c0.29-1.01-0.29-2.06-1.3-2.35l-0.69,1.78l0.53-1.82c-1-0.3-2.06,0.28-2.36,1.29C386.79,362.99,387.37,364.04,388.38,364.34z"/>
	</g>
	<g>
		<path class="st1" d="M394.6,366.83c0.28,0.15,0.58,0.22,0.88,0.22c0.68,0,1.34-0.37,1.68-1.02c0.49-0.93,0.13-2.08-0.8-2.56
			c0,0-0.16-0.08-0.16-0.08c-0.93-0.48-2-0.08-2.48,0.85C393.24,365.16,393.67,366.35,394.6,366.83z"/>
	</g>
	<g>
		<path class="st1" d="M408.42,380.41c0.35,0.63,1,0.98,1.67,0.98c0.31,0,0.62-0.08,0.91-0.24c0.92-0.5,1.25-1.66,0.75-2.58
			l-0.08-0.15c-0.51-0.92-1.66-1.26-2.58-0.75c-0.92,0.5-1.25,1.66-0.75,2.58L408.42,380.41z"/>
	</g>
	<g>
		<path class="st1" d="M402.42,367.45l-0.1-0.08c-0.82-0.66-2.01-0.54-2.67,0.28c-0.66,0.82-0.54,2.01,0.28,2.67l0.16,0.13
			c0.35,0.27,0.76,0.4,1.16,0.4c0.57,0,1.13-0.25,1.5-0.73C403.4,369.28,403.25,368.09,402.42,367.45z"/>
	</g>
	<g>
		<path class="st1" d="M358.49,381.73c0.59,0,1.19-0.27,1.58-0.75c0.66-0.82,0.53-2.01-0.28-2.67c-0.82-0.66-2.01-0.53-2.67,0.28
			l-0.11,0.14c-0.65,0.82-0.47,1.96,0.35,2.61C357.68,381.61,358.09,381.73,358.49,381.73z"/>
	</g>
	<g>
		<path class="st1" d="M363.51,376.93c0.41,0,0.82-0.12,1.17-0.37c0.86-0.61,1.06-1.79,0.45-2.65c-0.61-0.86-1.79-1.06-2.65-0.45
			c-0.01,0.01-0.16,0.12-0.17,0.13c-0.83,0.62-0.94,1.75-0.33,2.59C362.34,376.68,362.92,376.93,363.51,376.93z"/>
	</g>
	<g>
		<path class="st1" d="M394.58,377.32c0.35,0.28,0.77,0.41,1.18,0.41c0.56,0,1.12-0.25,1.49-0.72c0.65-0.82,0.51-2.02-0.31-2.67
			l-1.31,1.38l1.2-1.47c-0.82-0.66-2.01-0.54-2.67,0.28c-0.66,0.82-0.54,2.01,0.28,2.67C394.44,377.2,394.57,377.31,394.58,377.32z"
			/>
	</g>
	<g>
		<path class="st1" d="M389.08,373.95c0.26,0.12,0.53,0.17,0.79,0.17c0.72,0,1.41-0.41,1.73-1.11c0.44-0.95,0.02-2.08-0.93-2.52
			c-0.01-0.01-0.18-0.08-0.19-0.08c-0.96-0.42-1.99,0.05-2.41,1C387.64,372.36,388.13,373.51,389.08,373.95z"/>
	</g>
	<g>
		<path class="st1" d="M375.97,368.23c-1.04,0.12-1.7,1.05-1.58,2.09c0.11,0.97,1,1.68,1.97,1.68c0.07,0,0.14,0,0.2-0.01
			c1.04-0.11,1.79-1.04,1.68-2.09c-0.11-1.04-1.06-1.8-2.09-1.69C376.13,368.21,375.97,368.23,375.97,368.23z"/>
	</g>
	<g>
		<path class="st1" d="M369.6,373.63c0.24,0,0.49-0.04,0.72-0.13c0.98-0.37,1.47-1.47,1.1-2.45c-0.37-0.98-1.47-1.47-2.45-1.1
			l-0.17,0.07c-0.98,0.38-1.39,1.46-1.01,2.43C368.08,373.18,368.83,373.63,369.6,373.63z"/>
	</g>
	<g>
		<path class="st1" d="M383.37,368.36c-1.04-0.16-1.91,0.57-2.07,1.6c-0.16,1.03,0.63,2.01,1.66,2.18c0.1,0.02,0.2,0.02,0.31,0.02
			c0.92,0,1.72-0.66,1.87-1.6c0.17-1.04-0.54-2.01-1.57-2.18C383.55,368.39,383.38,368.36,383.37,368.36z"/>
	</g>
	<g>
		<path class="st1" d="M399.3,379.16c-0.85,0.62-1.03,1.81-0.41,2.66c0,0,0.1,0.14,0.11,0.15c0.36,0.49,0.91,0.74,1.47,0.74
			c0.4,0,0.8-0.13,1.15-0.38c0.84-0.62,1-1.84,0.39-2.69c0,0-0.04-0.06-0.05-0.06C401.33,378.72,400.14,378.54,399.3,379.16z"/>
	</g>
	<g>
		<path class="st1" d="M377.17,376.96c-0.02,0-0.2,0.02-0.22,0.02c-1.03,0.12-1.69,1.04-1.58,2.07c0.1,0.98,1,1.69,1.97,1.69
			c0.06,0,0.12,0,0.17-0.01c1.04-0.09,1.82-1.02,1.72-2.06C379.14,377.64,378.21,376.84,377.17,376.96z"/>
	</g>
	<g>
		<path class="st1" d="M370.62,382.86c0.32,0,0.64-0.08,0.93-0.25l0.15-0.08c0.91-0.51,1.19-1.65,0.69-2.56
			c-0.51-0.91-1.7-1.22-2.61-0.72c-0.01,0-0.09,0.05-0.1,0.05c-0.91,0.52-1.23,1.68-0.72,2.59
			C369.32,382.51,369.96,382.86,370.62,382.86z"/>
	</g>
	<g>
		<path class="st1" d="M383.52,381.27c0,0,0.17,0.05,0.17,0.05c0.16,0.05,0.33,0.07,0.49,0.07c0.82,0,1.56-0.56,1.79-1.4
			c0.28-1-0.34-2.06-1.34-2.35c-0.01,0-0.09-0.03-0.1-0.03c-1.02-0.29-2.06,0.31-2.34,1.32
			C381.92,379.95,382.51,380.99,383.52,381.27z"/>
	</g>
	<g>
		<path class="st1" d="M390.27,384.61c0.54,0,1.09-0.23,1.46-0.69c0.67-0.81,0.56-2-0.25-2.67c-0.01-0.01-0.15-0.12-0.16-0.13
			c-0.82-0.65-1.93-0.46-2.59,0.34c-0.66,0.81-0.47,2.05,0.33,2.71C389.41,384.46,389.84,384.61,390.27,384.61z"/>
	</g>
	<g>
		<path class="st1" d="M337.63,124.67c0,6.75,2.45,11.01,3.07,11.99l-3.07,76.89c-0.01,0.27,0.13,0.52,0.37,0.65
			c0.11,0.06,0.22,0.09,0.34,0.09c0.15,0,0.29-0.04,0.41-0.13l12.25-8.73c0.19-0.14,0.3-0.36,0.3-0.59l-1.19-68.12
			c0.73-0.9,3.07-4.37,3.07-12.05c0-8.82-6.88-19.89-7.18-20.35c-0.13-0.21-0.43-0.36-0.62-0.33c-0.25,0.01-0.48,0.14-0.6,0.36
			C344.5,104.87,337.63,117.15,337.63,124.67z M351.77,124.67c0,1.57-0.1,2.94-0.27,4.15l-1.25-2.28l1.48-2.71
			C351.75,124.11,351.77,124.4,351.77,124.67z M339.05,124.67c0-0.27,0.02-0.55,0.04-0.83l1.48,2.7l-1.19,2.17
			C339.18,127.5,339.05,126.15,339.05,124.67z M342.19,126.54l3.22-5.89l3.22,5.89l0.02,0.03l-3.24,7.15l-3.24-7.15L342.19,126.54z
			 M341.77,114l2.83,5.17l0,0l-3.16,5.78l0,0l-0.06,0.11l-1.96-3.59c0.15-0.75,0.34-1.52,0.56-2.3
			C340.46,117.45,341.09,115.69,341.77,114z M349.44,125.06l-0.06-0.11l0,0l-3.16-5.78l0,0l2.95-5.4c0.7,1.71,1.34,3.55,1.81,5.4
			c0.19,0.74,0.34,1.47,0.47,2.2L349.44,125.06z M345.41,117.7l-2.94-5.37c1.14-2.64,2.29-4.91,2.97-6.19
			c0.7,1.21,1.87,3.38,3.03,5.97L345.41,117.7z M339.11,212.16l3.02-75.67c0.01-0.16-0.04-0.31-0.13-0.44
			c-0.01-0.02-0.53-0.77-1.12-2.14c-0.35-0.81-0.72-1.83-1.04-3.06l1.49-2.72l2.61,5.78l1.48,3.26l1.48-3.26l2.61-5.78l1.58,2.89
			c-0.29,1.2-0.63,2.15-0.96,2.88c-0.63,1.41-1.21,2.03-1.22,2.05c-0.14,0.14-0.21,0.32-0.21,0.52l1.18,68.02L339.11,212.16z"/>
	</g>
	<g>
		<line class="st1" x1="397.46" y1="109.08" x2="397.46" y2="109.08"/>
	</g>
	<g>
		<line class="st1" x1="389.4" y1="109.08" x2="389.4" y2="109.08"/>
	</g>
	<g>
		<path class="st1" d="M385.66,107.21c0,6.75,2.45,11.01,3.07,11.99l-3.07,76.89c-0.01,0.27,0.13,0.52,0.37,0.65
			c0.11,0.06,0.22,0.09,0.34,0.09c0.15,0,0.29-0.04,0.41-0.13l12.25-8.73c0.19-0.14,0.3-0.36,0.3-0.59l-1.19-68.12
			c0.73-0.9,3.07-4.37,3.07-12.05c0-8.82-6.88-19.89-7.18-20.35c-0.13-0.21-0.43-0.35-0.62-0.33c-0.25,0.01-0.48,0.14-0.6,0.36
			C392.52,87.41,385.66,99.69,385.66,107.21z M399.79,107.21c0,1.57-0.1,2.94-0.27,4.15l-1.25-2.28l1.48-2.71
			C399.77,106.65,399.79,106.94,399.79,107.21z M387.08,107.21c0-0.27,0.02-0.55,0.04-0.83l1.48,2.7l-1.19,2.17
			C387.21,110.04,387.08,108.69,387.08,107.21z M390.21,109.08l3.22-5.89l3.22,5.89l0.02,0.03l-3.24,7.15l-3.24-7.15L390.21,109.08z
			 M389.8,96.54l2.83,5.17l0,0l-3.16,5.78v0l-0.06,0.11l-1.96-3.59c0.15-0.75,0.34-1.52,0.56-2.3
			C388.49,99.99,389.12,98.23,389.8,96.54z M389.4,109.08L389.4,109.08L389.4,109.08L389.4,109.08L389.4,109.08L389.4,109.08z
			 M397.46,109.08L397.46,109.08L397.46,109.08L397.46,109.08L397.46,109.08L397.46,109.08L397.46,109.08z M397.46,107.6l-0.06-0.11
			v0l-3.16-5.78l0,0l2.95-5.4c0.7,1.71,1.34,3.55,1.81,5.4c0.19,0.74,0.34,1.47,0.47,2.2L397.46,107.6z M393.43,100.24l-2.94-5.37
			c1.14-2.64,2.29-4.91,2.96-6.19c0.7,1.21,1.87,3.38,3.03,5.97L393.43,100.24z M387.13,194.7l3.02-75.67
			c0.01-0.16-0.04-0.31-0.13-0.44c-0.01-0.02-0.53-0.77-1.12-2.14c-0.35-0.81-0.72-1.83-1.04-3.06l1.49-2.72l2.61,5.78l1.48,3.26
			l1.48-3.26l2.61-5.78l1.58,2.89c-0.29,1.2-0.63,2.15-0.96,2.88c-0.63,1.41-1.21,2.03-1.22,2.05c-0.14,0.14-0.21,0.32-0.21,0.52
			l1.18,68.02L387.13,194.7z"/>
	</g>
	<g>
		<path class="st1" d="M360.6,134.12c0,6.76,2.46,11.03,3.07,12l-1.23,69.19c0,0.25,0.12,0.48,0.33,0.61l12.29,7.7
			c0.12,0.07,0.25,0.11,0.38,0.11c0.12,0,0.25-0.03,0.36-0.1c0.23-0.13,0.36-0.38,0.35-0.64l-3.07-76.84
			c0.74-0.91,3.07-4.39,3.07-12.04c0-8.82-6.88-19.89-7.18-20.35c-0.13-0.21-0.42-0.36-0.62-0.33c-0.25,0.01-0.48,0.14-0.6,0.36
			C367.47,114.32,360.6,126.6,360.6,134.12z M374.73,134.12c0,1.57-0.1,2.94-0.27,4.15l-1.25-2.28l1.48-2.71
			C374.72,133.56,374.73,133.85,374.73,134.12z M362.02,134.12c0-0.27,0.02-0.55,0.04-0.83l1.48,2.7l-1.19,2.17
			C362.15,136.95,362.02,135.6,362.02,134.12z M365.16,135.99l3.22-5.89l3.22,5.89l0.02,0.03l-3.24,7.15l-3.24-7.15L365.16,135.99z
			 M364.74,123.45l2.83,5.17l0,0l-3.16,5.78l0,0l-0.06,0.11l-1.96-3.59c0.15-0.75,0.34-1.52,0.56-2.3
			C363.43,126.9,364.06,125.14,364.74,123.45z M372.41,134.51l-0.06-0.11l0,0l-3.16-5.78l0,0l2.95-5.4c0.7,1.71,1.34,3.55,1.81,5.4
			c0.19,0.74,0.34,1.47,0.47,2.2L372.41,134.51z M368.38,127.15l-2.94-5.37c1.14-2.64,2.29-4.91,2.96-6.19
			c0.7,1.21,1.87,3.38,3.03,5.97L368.38,127.15z M363.88,214.94l1.22-69.01c0-0.15-0.04-0.3-0.13-0.42
			c-0.01-0.02-0.53-0.77-1.12-2.14c-0.35-0.81-0.72-1.83-1.04-3.06l1.49-2.72l2.61,5.78l1.48,3.26l1.48-3.26l2.61-5.78l1.58,2.89
			c-0.29,1.2-0.63,2.15-0.96,2.88c-0.63,1.41-1.21,2.03-1.22,2.05c-0.14,0.14-0.22,0.33-0.21,0.53l3.02,75.78L363.88,214.94z"/>
	</g>
	<g>
		<path class="st1" d="M407.63,134.12c0,6.76,2.46,11.03,3.07,12l-1.23,69.19c0,0.25,0.12,0.48,0.33,0.61l12.29,7.7
			c0.12,0.07,0.25,0.11,0.38,0.11c0.12,0,0.25-0.03,0.36-0.1c0.23-0.13,0.36-0.38,0.35-0.64l-3.07-76.84
			c0.74-0.91,3.07-4.39,3.07-12.04c0-8.82-6.88-19.89-7.18-20.35c-0.13-0.21-0.42-0.36-0.62-0.33c-0.25,0.01-0.48,0.14-0.6,0.36
			C414.5,114.32,407.63,126.6,407.63,134.12z M421.77,134.12c0,1.57-0.1,2.94-0.27,4.15l-1.25-2.28l1.48-2.71
			C421.75,133.56,421.77,133.85,421.77,134.12z M409.06,134.12c0-0.27,0.02-0.55,0.04-0.83l1.48,2.7l-1.19,2.17
			C409.19,136.95,409.06,135.6,409.06,134.12z M412.19,135.99l3.22-5.89l3.22,5.89l0.02,0.03l-3.24,7.15l-3.24-7.15L412.19,135.99z
			 M411.77,123.45l2.83,5.17l0,0l-3.16,5.78l0,0l-0.06,0.11l-1.96-3.59c0.15-0.75,0.34-1.52,0.56-2.3
			C410.46,126.9,411.1,125.14,411.77,123.45z M419.44,134.51l-0.06-0.11l0,0l-3.16-5.78l0,0l2.95-5.4c0.7,1.71,1.34,3.55,1.81,5.4
			c0.19,0.74,0.34,1.47,0.47,2.2L419.44,134.51z M415.41,127.15l-2.94-5.37c1.14-2.64,2.29-4.91,2.97-6.19
			c0.7,1.21,1.87,3.38,3.03,5.97L415.41,127.15z M410.91,214.94l1.23-69.01c0-0.15-0.04-0.3-0.13-0.42
			c-0.01-0.02-0.53-0.77-1.12-2.14c-0.35-0.81-0.72-1.83-1.04-3.06l1.49-2.72l2.61,5.78l1.48,3.26l1.48-3.26l2.61-5.78l1.58,2.89
			c-0.29,1.2-0.63,2.15-0.96,2.88c-0.63,1.41-1.21,2.03-1.22,2.05c-0.14,0.14-0.22,0.33-0.21,0.53l3.02,75.78L410.91,214.94z"/>
	</g>
	<g>
		<path class="st1" d="M391.97,612.23c12.58-4.66,24.47-9.06,33.69-18.29c17.05-17.05,11.15-35.02,11.08-35.2l-31.27-31.37
			l-0.42,0.15c-0.17,0.06-17.4,6.23-33.71,22.54c-16.24,16.24-49.21,63.19-49.54,63.66l-0.34,0.49l24.57,24.57l0.5-0.5
			C361.17,623.63,376.83,617.83,391.97,612.23z M434.64,577.28c-4.69,1.89-9.74,2.89-14.95,2.89c-10.44,0-20.25-3.98-27.74-11.21
			l8.59-8.59c5.19,4.94,11.95,7.67,19.15,7.67c5.99,0,11.68-1.91,16.42-5.39C436.54,565.88,436.68,571.15,434.64,577.28z
			 M424.02,593.53c-1.43,0.11-2.88,0.19-4.33,0.19c-14.06,0-27.28-5.39-37.33-15.18l8.58-8.58c7.75,7.5,17.93,11.63,28.75,11.63
			c4.96,0,9.78-0.87,14.3-2.53c-1.74,4.41-4.62,9.17-9.33,13.88C424.45,593.14,424.23,593.33,424.02,593.53z M352.74,608.15
			c4.84,4.78,10.05,8.96,15.54,12.56c-3.71,1.95-7.43,4.16-11.11,6.76c-4.47-3.27-8.75-6.92-12.81-10.93L352.74,608.15z
			 M353.75,607.15l8.36-8.36c6.33,6.22,13.47,11.31,21.19,15.19c-4.43,1.73-8.98,3.67-13.54,5.97
			C364.09,616.32,358.72,612.05,353.75,607.15z M363.11,597.78l8.66-8.66c8.73,8.56,19.35,14.51,30.91,17.45
			c-3.63,1.51-7.39,2.9-11.21,4.32c-2.09,0.77-4.23,1.57-6.39,2.4C377.06,609.41,369.65,604.21,363.11,597.78z M372.78,588.12
			l8.58-8.58c10.32,10.06,23.89,15.6,38.33,15.6c0.89,0,1.77-0.02,2.65-0.06c-5.16,4.52-11.08,7.77-17.44,10.55
			C392.86,602.93,381.79,596.95,372.78,588.12z M419.69,566.61c-6.81,0-13.22-2.58-18.14-7.26l8.58-8.58
			c2.71,2.45,6.13,3.69,9.56,3.69c2.89,0,5.78-0.89,8.24-2.63l7.52,7.52c0.08,0.26,0.24,0.85,0.41,1.7
			C431.24,564.64,425.62,566.61,419.69,566.61z M411.13,549.76l7.36-7.36l8.42,8.42C422.11,554.09,415.57,553.73,411.13,549.76z
			 M410.13,548.76c-3.97-4.43-4.33-10.97-1.06-15.78l8.42,8.42L410.13,548.76z M409.12,549.76l-8.58,8.58
			c-6.22-6.56-8.42-15.54-6.6-23.83c5.65-3.27,9.88-5,11.17-5.5l2.95,2.95C404.25,537.34,404.6,544.77,409.12,549.76z
			 M399.54,559.35l-8.59,8.59c-6.3-6.52-10.13-14.8-11.01-23.72c4.4-3.6,8.64-6.48,12.37-8.73
			C390.87,543.87,393.28,552.77,399.54,559.35z M389.94,568.95l-8.58,8.58c-6.29-6.46-10.63-14.11-13-22.23
			c1.41-1.56,2.75-2.99,3.99-4.23c2.09-2.09,4.2-4,6.28-5.76C379.72,554.19,383.63,562.42,389.94,568.95z M380.35,578.53l-8.58,8.58
			c-5.82-5.94-10.31-12.71-13.47-19.93c3.14-3.9,6.17-7.53,8.95-10.66C369.74,564.56,374.11,572.12,380.35,578.53z M370.77,588.12
			l-8.66,8.66c-5.24-5.33-9.65-11.24-13.21-17.59c2.8-3.65,5.63-7.29,8.4-10.75C360.51,575.56,365,582.23,370.77,588.12z
			 M361.1,597.78l-8.36,8.36c-4.72-4.79-8.89-9.97-12.49-15.48c2.46-3.32,5.06-6.78,7.71-10.25
			C351.53,586.67,355.92,592.51,361.1,597.78z M351.74,607.15l-8.38,8.38c-4.22-4.27-8.02-8.79-11.43-13.52
			c2.21-3.05,4.72-6.48,7.41-10.12C342.93,597.31,347.07,602.42,351.74,607.15z M342.35,616.53l-8.28,8.28l-10.76-10.76
			c0.95-1.35,3.8-5.37,7.73-10.82C334.42,607.88,338.19,612.33,342.35,616.53z M343.36,617.54c4,3.95,8.21,7.56,12.61,10.81
			c-3.36,2.46-6.69,5.22-9.94,8.42l-10.95-10.95L343.36,617.54z"/>
	</g>
	<g>
		<path class="st1" d="M199.35,527.97c-4.39-0.93-9.25,0.66-15.3,5.02l-69.29,50.02c-8.47,6.12-15.14,15.12-0.41,35.53
			c8.28,11.47,15.07,15.74,21.39,15.74c4.27,0,8.32-1.95,12.47-4.94c22.91-16.54,29.72-28.54,35.73-39.12
			c4.88-8.59,9.48-16.71,22.18-25.87h0c10.28-7.42,11.9-17.12,4.55-27.31C206.73,531.6,203.24,528.8,199.35,527.97z M205.28,563.19
			L205.28,563.19c-12.95,9.35-17.63,17.59-22.59,26.32c-5.94,10.46-12.66,22.31-35.32,38.67c-8.09,5.83-17.21,9.83-31.87-10.48
			c-14-19.39-7.81-27.84,0.09-33.55l69.29-50.02c4.69-3.38,8.56-5.01,12-5.01c0.74,0,1.46,0.08,2.17,0.23
			c3.53,0.75,6.75,3.38,10.46,8.51C216.42,547.45,214.96,556.2,205.28,563.19z"/>
	</g>
	<g>
		<path class="st1" d="M154.44,136.11c0.76,0.69,1.81,1.62,1.81,2.01c0.01,0.11,0.84,10.93,0.5,26.94
			c-0.25,12.08-1.67,20.93-2.81,28.04c-0.9,5.61-1.67,10.45-1.67,15.35c0,2.89,1.23,6.34,7.08,6.34c5.85,0,7.08-3.45,7.08-6.34
			c0-4.89-0.78-9.74-1.67-15.35c-1.14-7.11-2.56-15.96-2.81-28.04c-0.34-16.01,0.63-26.83,0.64-26.93l0-0.06
			c0-0.33,1.05-1.27,1.81-1.96c2.54-2.28,6.37-5.72,6.37-11.74c0-6.86-2.07-20.09-3.06-26.44c-0.25-1.58-0.43-2.78-0.52-3.4
			c-0.18-1.39-1.12-1.5-1.4-1.5c-0.29,0-0.56,0.11-0.76,0.31c-0.38,0.39-0.38,0.97-0.38,1.28c0,2.84-0.6,11.62-1.04,18.04
			c-0.26,3.76-0.46,6.73-0.49,7.67l-0.16,0.16l-0.16-0.16c-0.04-1.29-0.51-6.81-1.01-12.66c-0.5-5.79-1.01-11.78-1.04-13.09
			c-0.04-1.44-1.02-1.55-1.32-1.55c-0.29,0-1.26,0.11-1.32,1.56c-0.07,1.22-0.54,7.13-1.01,12.85c-0.49,6.05-0.95,11.76-1.01,12.91
			c0,0.05-0.01,0.13,0.02,0.14c-0.03,0.01-0.08,0.01-0.16,0.01c-0.08,0-0.13,0-0.15,0c-0.01-0.06-0.01-0.13-0.01-0.17
			c-0.01-0.8-0.24-4-0.53-8.06c-0.45-6.28-1.07-14.88-1.07-17.66c0-0.28,0-0.87-0.38-1.25c-0.2-0.2-0.47-0.31-0.76-0.31
			c-0.74,0-1.28,0.58-1.4,1.5c-0.08,0.61-0.27,1.8-0.51,3.38c-0.99,6.36-3.06,19.6-3.06,26.46
			C148.07,130.39,151.91,133.83,154.44,136.11z M152.54,98.13c0.1-0.66,0.2-1.26,0.28-1.77c0.14,3.67,0.63,10.41,1.03,16
			c0.28,3.88,0.52,7.22,0.53,7.98c0.02,1.31,0.87,1.58,1.58,1.58c0.68,0,1.5-0.26,1.56-1.56c0.05-1.07,0.54-7.04,1-12.81
			c0.35-4.38,0.72-8.88,0.9-11.33c0.17,2.42,0.55,6.9,0.95,11.57c0.48,5.57,0.97,11.33,1.01,12.58c0.03,0.93,0.65,1.54,1.58,1.54
			c0.93,0,1.55-0.6,1.58-1.54c0.03-0.92,0.24-4.02,0.49-7.61c0.37-5.43,0.86-12.55,1-16.4c0.08,0.52,0.17,1.12,0.28,1.78
			c0.99,6.32,3.04,19.48,3.04,26.22c0,5.39-3.55,8.57-5.9,10.68c-1.36,1.22-2.26,2.03-2.28,2.98c-0.06,0.63-0.97,11.37-0.64,27.07
			c0.26,12.18,1.68,21.08,2.83,28.23c0.89,5.55,1.66,10.34,1.66,15.12c0,3.35-1.8,4.92-5.66,4.92c-3.86,0-5.66-1.56-5.66-4.92
			c0-4.78,0.77-9.57,1.66-15.12c1.15-7.15,2.57-16.05,2.83-28.23c0.34-16.09-0.49-26.98-0.5-27.03c0-0.97-0.91-1.78-2.28-3.01
			c-2.35-2.11-5.9-5.3-5.9-10.68C149.49,117.62,151.55,104.46,152.54,98.13z"/>
	</g>
	<g>
		<path class="st1" d="M117.25,150.93c0.83,2.43,3.94,11.85,7.24,25.28c2.88,11.74,3.8,20.65,4.54,27.81
			c0.58,5.65,1.09,10.53,2.35,15.25c0.84,3.13,2.73,4.71,5.63,4.7c0.86,0,1.81-0.14,2.85-0.42c4.54-1.22,6.29-3.89,5.2-7.95
			c-1.27-4.73-3.27-9.2-5.59-14.39c-2.94-6.57-6.6-14.75-9.97-26.36c-3.9-13.42-5.79-23.09-6.25-25.58c4.47-2.25,8.8-7.61,5.4-20.29
			c-3.03-11.29-13.06-26.55-20.7-24.51c-7.65,2.05-8.7,20.29-5.68,31.58C105.71,148.84,112.22,151.26,117.25,150.93z M108.33,105.85
			c6.08-1.64,15.84,11.86,18.96,23.51c2.62,9.79,0.9,16.14-5.12,18.87l-0.5,0.23l0.1,0.54c0.2,1.12,2.06,11.41,6.38,26.26
			c3.4,11.7,7.08,19.93,10.04,26.54c2.29,5.13,4.28,9.56,5.51,14.17c0.87,3.24-0.47,5.21-4.2,6.21c-3.73,1-5.87-0.04-6.74-3.28
			c-1.24-4.62-1.74-9.44-2.31-15.03c-0.74-7.21-1.67-16.17-4.58-28.01c-3.65-14.86-7.08-24.84-7.46-25.93l-0.19-0.53l-0.56,0.06
			c-6.65,0.73-11.36-3.91-14-13.77C100.54,124.05,102.25,107.49,108.33,105.85z"/>
	</g>
	<g>
		<path class="st1" d="M179.07,224.02c1.04,0.28,1.99,0.42,2.85,0.42c2.9,0,4.79-1.58,5.63-4.71c1.18-4.39,1.42-9.19,1.71-14.74
			c0.43-8.31,0.96-18.63,4.66-33.24c2.06-0.48,9.71-3.41,14.35-20.73c6.3-23.51,4.56-45.57-1.28-47.14l-0.69-0.18l-17.74,66.22
			c-0.18,0.66-0.35,1.33-0.53,2.01c-0.24,0.92-0.48,1.87-0.76,2.82c-3.24,11.16-6.11,19.34-8.41,25.91
			c-1.97,5.62-3.67,10.47-4.99,15.41c-0.53,1.98-0.37,3.65,0.47,4.98C175.2,222.41,176.8,223.41,179.07,224.02z M175.25,216.43
			c1.31-4.89,3-9.72,4.96-15.31c2.31-6.59,5.18-14.78,8.44-25.98c0.28-0.97,0.53-1.93,0.77-2.86c0.17-0.68,0.34-1.34,0.52-1.99
			l17.34-64.7c3.61,2.92,5.82,21.97-0.37,45.06c-5,18.65-13.54,19.77-13.62,19.77l-0.5,0.05l-0.12,0.49
			c-3.84,14.99-4.38,25.51-4.82,33.97c-0.29,5.7-0.52,10.2-1.66,14.45c-0.87,3.24-3.01,4.28-6.74,3.28
			c-1.92-0.52-3.23-1.31-3.9-2.36C174.91,219.29,174.82,218.03,175.25,216.43z"/>
	</g>
	<g>
		<path class="st1" d="M197.08,535.04c-2.92-0.45-6.26,0.97-11.18,4.77c-5.39,4.16-15.58,11.57-26.34,19.3l-0.03,0l0,0.02
			c-9.27,6.66-18.95,13.55-26.34,18.81c-4.92,3.5-8.73,6.21-10.58,7.55c-3.22,2.33-7.61,6.07-8.47,11.68
			c-0.76,4.98,1.27,10.61,6.2,17.22c6.69,8.95,11.54,12.38,16.25,12.38c3.75,0,7.42-2.17,11.88-5.45
			c16.6-12.23,22.84-22.92,28.88-33.26c5.57-9.54,10.84-18.55,23.87-28.17c8.07-5.96,8.96-10.64,3.52-18.53
			C202.01,537.33,199.71,535.45,197.08,535.04z M159.16,610.38c-2.75,2.72-5.93,5.5-9.68,8.37l0.37-50.95
			c3.19-2.28,6.45-4.61,9.67-6.92L159.16,610.38z M115.56,597.37c0.59-3.87,3.1-7.28,7.89-10.74c0.47-0.34,1.08-0.78,1.8-1.29
			l-0.23,32.58c-1.11-1.28-2.28-2.73-3.53-4.39C116.8,607.24,114.86,601.96,115.56,597.37z M126.43,619.47l0.25-35.15
			c1.95-1.39,4.45-3.17,7.34-5.23c0.89-0.63,1.82-1.29,2.77-1.97l-0.35,48.24C133.47,625.26,130.33,623.57,126.43,619.47z
			 M137.86,625.29l0.36-49.19c3.18-2.26,6.63-4.73,10.21-7.28l-0.37,51.02c-0.14,0.1-0.27,0.21-0.41,0.31
			C144,622.84,140.97,624.88,137.86,625.29z M160.6,608.95l0.36-49.09c3.56-2.56,7.04-5.07,10.31-7.44l-0.39,43.57
			C168.14,600.17,164.92,604.47,160.6,608.95z M176.14,587.32c-1.24,2.11-2.49,4.25-3.83,6.4l0.38-42.35
			c4.14-3.01,7.87-5.75,10.85-7.99l-0.25,32.53C180.61,579.69,178.39,583.46,176.14,587.32z M184.72,573.97l0.24-31.66
			c0.65-0.49,1.26-0.96,1.81-1.38c3.78-2.92,6.49-4.33,8.73-4.51l-0.2,26.36C190.9,566.56,187.54,570.27,184.72,573.97z
			 M200.4,558.72c-1.3,0.96-2.5,1.91-3.66,2.86l0.19-25.12c2.18,0.37,4.18,2.07,6.67,5.68C208.57,549.37,207.82,553.24,200.4,558.72
			z"/>
	</g>
	<g>
		<path class="st1" d="M660.09,539.4l0-0.07l-0.1,0c-3.5-2.48-7.46-4.37-11.4-5.03c-9.76-1.66-17.91,1.22-25.36,6.42l-0.16,0l0,0.12
			c-7.15,5.03-13.67,12.2-20.37,19.58c-2.22,2.44-4.51,4.97-6.81,7.39c-13.05,13.73-37.27,55.57-25.26,67.58
			c2.09,2.09,6.02,2.92,10.77,2.92c6.05,0,13.43-1.35,20.03-3.16c15.43-4.24,29.21-11.33,36.87-18.99
			c4.41-4.41,9.5-9.22,13.59-13.08c2.72-2.57,5.06-4.78,6.41-6.13c6.02-6.02,4.59-12.32,3.55-16.92c-0.62-2.72-1.1-4.87-0.03-6.16
			c6.3-7.58,6.75-8.27,9.59-14.68c1.04-2.35,0.62-5.41-1.23-8.86C668.19,546.6,664.51,542.54,660.09,539.4z M658.66,540.12
			l-0.19,24.55c-3.31,0.78-6.71,2.1-10.44,4.21l0.18-33.21c0.05,0.01,0.09,0.01,0.14,0.02C651.9,536.3,655.46,537.95,658.66,540.12z
			 M646.8,535.5l-0.19,34.24c-3.15,1.91-6.56,4.38-10.35,7.57l0.24-41.23c2.15-0.51,4.38-0.82,6.7-0.82
			C644.38,535.25,645.58,535.35,646.8,535.5z M632.86,580.26c-2.85,2.56-5.8,5.59-8.75,8.89l0.38-47.56
			c3.36-2.29,6.87-4.07,10.6-5.16l-0.25,42.1C634.18,579.09,633.53,579.65,632.86,580.26z M622.68,590.81
			c-3.45,3.99-6.86,8.32-10.03,12.74l0.35-52.07c3.28-3.31,6.6-6.33,10.06-8.85L622.68,590.81z M603.76,561.36
			c2.61-2.88,5.2-5.72,7.81-8.42l-0.35,52.53l0.08,0c-3.65,5.22-6.91,10.45-9.52,15.29l0.36-57.61
			C602.67,562.55,603.22,561.95,603.76,561.36z M596.93,568.77c1.27-1.33,2.52-2.69,3.77-4.05l-0.36,58.52l0.14,0
			c-2.22,4.4-3.81,8.36-4.47,11.49l0.67,0.14c-2.18,0.5-4.29,0.91-6.3,1.21l0.36-59.79C592.92,573.35,595.03,570.78,596.93,568.77z
			 M578.01,596.93l-0.23,39.71c-2.82-0.34-4.96-1.08-6.13-2.26C565.37,628.09,570.23,612.08,578.01,596.93z M579.2,636.77
			l0.24-42.57c3.09-5.73,6.52-11.23,9.86-15.93l-0.35,58.03C585.27,636.79,581.96,636.95,579.2,636.77z M660.73,572.95
			c-1.52,1.82-0.93,4.4-0.26,7.38c1.02,4.52,2.3,10.14-3.17,15.6c-1.33,1.34-3.67,3.54-6.38,6.1c-4.1,3.87-9.19,8.68-13.62,13.11
			c-7.38,7.38-21.26,14.52-36.24,18.63c-1.21,0.33-2.4,0.63-3.57,0.91c2.95-12.96,21.12-39.7,36.31-53.36
			c5.33-4.79,9.89-8.21,14.01-10.64l0.21,0l0-0.13c6.98-4.09,12.72-5.32,18.83-5.46C665.63,566.99,663.96,569.06,660.73,572.95z
			 M670.12,558.6c-0.98,2.2-1.65,3.69-2.41,5.06c-2.65,0.02-5.21,0.22-7.81,0.72l0.18-23.24c3.86,2.91,7.07,6.52,8.86,9.85
			C670.07,553.11,671.2,556.15,670.12,558.6z"/>
	</g>
	<g>
		<path class="st1" d="M816.82,169.2c2.59,0,5.11-0.33,7.49-0.93l17.17,21.33l-2.4,26c-0.03,0.28,0.11,0.55,0.36,0.68
			c0.11,0.06,0.23,0.09,0.35,0.09c0.15,0,0.3-0.05,0.42-0.14l20.09-14.77c0.2-0.15,0.31-0.39,0.29-0.64l-1.5-15.62l17.67-18.38
			c1.61,0.25,3.24,0.42,4.9,0.42c14.67,0,24.92-10.06,24.92-24.47c0-12.84-10.51-24.13-22.61-24.39
			c-6.01-10.71-19.81-17.6-35.32-17.6c-19.87,0-36.5,11.53-38.16,26.34c-7.43,1.66-15.85,7.99-15.85,20.7
			C794.64,159.33,806.83,169.2,816.82,169.2z M811.84,127.76c1.26-14.34,17.43-25.57,36.8-25.57c15.17,0,28.62,6.76,34.27,17.23
			c0.12,0.23,0.36,0.37,0.62,0.37c11.51,0,21.61,10.73,21.61,22.97c0,13.57-9.66,23.05-23.5,23.05c-8.69,0-16.89-3.65-21.94-9.77
			c-0.17-0.21-0.44-0.3-0.7-0.24c-6.41,1.39-12.94,1.5-19.65,0.21c-0.31-0.06-0.6,0.08-0.75,0.34
			c-3.99,6.94-12.54,11.42-21.79,11.42c-11.18,0-20.76-10.98-20.76-19.96c0-15.65,12.67-18.92,15.22-19.41
			C811.58,128.34,811.82,128.08,811.84,127.76z M859.13,200.55l-18.49,13.6l2.28-24.71c0.02-0.18-0.04-0.37-0.15-0.51l-16.97-21.08
			c2.49-0.78,4.82-1.88,6.89-3.26l10.57,11.6c0.19,0.21,0.49,0.29,0.75,0.19c0.27-0.09,0.46-0.33,0.48-0.61l1.59-17.51
			c2.88,0.15,5.74,0.06,8.56-0.28l1.34,13.79c0.03,0.27,0.2,0.5,0.45,0.59c0.25,0.1,0.53,0.05,0.73-0.13l9.74-8.64
			c2.52,1.34,5.26,2.36,8.14,2.97l-17.21,17.9c-0.14,0.15-0.21,0.35-0.19,0.56L859.13,200.55z M856.05,157.78
			c0.95-0.14,1.9-0.3,2.84-0.5c1.87,2.19,4.15,4.05,6.69,5.57l-8.32,7.38L856.05,157.78z M833.86,163.75
			c2.3-1.74,4.26-3.83,5.73-6.25c1.7,0.31,3.4,0.53,5.08,0.67l-1.44,15.86L833.86,163.75z"/>
	</g>
	<g>
		<path class="st1" d="M850.47,568.32C850.47,568.32,850.47,568.32,850.47,568.32c0.4,0,0.71-0.31,0.72-0.7l0.26-25.03
			c0-0.39-0.31-0.71-0.7-0.72c0,0,0,0-0.01,0c-0.39,0-0.71,0.31-0.71,0.7l-0.26,25.03C849.76,567.99,850.08,568.31,850.47,568.32z"
			/>
	</g>
	<g>
		<path class="st1" d="M857.17,561.58C857.17,561.58,857.17,561.58,857.17,561.58c0.4,0,0.72-0.31,0.72-0.7l0.2-15.4
			c0-0.39-0.31-0.72-0.7-0.72c0,0-0.01,0-0.01,0c-0.39,0-0.71,0.31-0.71,0.7l-0.2,15.4C856.46,561.25,856.77,561.57,857.17,561.58z"
			/>
	</g>
	<g>
		<path class="st1" d="M876.85,562.39c-0.44,0-0.87,0.05-1.3,0.07c-0.35-16.43-13.79-29.69-30.31-29.69
			c-16.73,0-30.34,13.61-30.34,30.34c0,6.64,2.17,12.77,5.81,17.78c-13.02,3.41-22.66,15.24-22.66,29.32
			c0,16.73,13.61,30.34,30.34,30.34c14.57,0,26.76-10.32,29.67-24.03c5.17,4.1,11.69,6.57,18.79,6.57
			c16.73,0,30.34-13.61,30.34-30.34S893.58,562.39,876.85,562.39z M876.85,621.64c-7.05,0-13.51-2.54-18.53-6.74
			c0.24-1.54,0.4-3.1,0.4-4.71c0-9.04-4-17.15-10.29-22.71c2.48-13.44,14.26-23.67,28.42-23.67c15.94,0,28.92,12.97,28.92,28.92
			S892.79,621.64,876.85,621.64z M799.47,610.19c0-15.95,12.97-28.92,28.92-28.92c15.95,0,28.92,12.97,28.92,28.92
			c0,15.94-12.97,28.92-28.92,28.92C812.44,639.1,799.47,626.13,799.47,610.19z M845.24,534.18c15.75,0,28.58,12.66,28.89,28.34
			c-3.33,0.3-6.5,1.13-9.43,2.42l0.19-11.76c0.01-0.39-0.31-0.72-0.7-0.72c0,0-0.01,0-0.01,0c-0.39,0-0.7,0.31-0.71,0.7l-0.2,12.44
			c0,0.01,0.01,0.02,0.01,0.03c-8.11,4.08-14.16,11.67-16.09,20.78c-5.17-4.1-11.69-6.57-18.79-6.57c-2.12,0-4.19,0.22-6.19,0.64
			c-3.67-4.85-5.87-10.86-5.87-17.39C816.33,547.15,829.3,534.18,845.24,534.18z"/>
	</g>
	<g>
		<path class="st1" d="M882.35,571.49C882.35,571.49,882.34,571.49,882.35,571.49c-0.4,0-0.72,0.31-0.72,0.7l-0.26,18.77
			c0,0.39,0.31,0.72,0.7,0.72c0,0,0.01,0,0.01,0c0.39,0,0.71-0.31,0.71-0.7l0.26-18.77C883.05,571.82,882.74,571.49,882.35,571.49z"
			/>
	</g>
	<g>
		<path class="st1" d="M889,574.38c0,0-0.01,0-0.01,0c-0.39,0-0.7,0.31-0.71,0.7l-0.2,11.08c-0.01,0.39,0.3,0.72,0.7,0.72
			c0,0,0.01,0,0.01,0c0.39,0,0.7-0.31,0.71-0.7l0.2-11.08C889.7,574.71,889.39,574.39,889,574.38z"/>
	</g>
	<g>
		<path class="st1" d="M895.79,582.09c-0.47,0-0.72,0.31-0.72,0.7l-0.2,15.49c0,0.39,0.31,0.72,0.7,0.72c0,0,0.01,0,0.01,0
			c0.39,0,0.71-0.31,0.71-0.7l0.2-15.49C896.5,582.42,896.19,582.1,895.79,582.09z"/>
	</g>
	<g>
		<path class="st1" d="M834.59,589.68c0.01-0.39-0.3-0.72-0.7-0.72c0,0-0.01,0-0.01,0c-0.39,0-0.7,0.31-0.71,0.7l-0.26,13.03
			c-0.01,0.39,0.31,0.72,0.7,0.72c0,0,0.01,0,0.01,0c0.39,0,0.7-0.31,0.71-0.7L834.59,589.68z"/>
	</g>
	<g>
		<path class="st1" d="M841.23,592.56c0-0.39-0.31-0.71-0.71-0.72c0,0,0,0,0,0c-0.39,0-0.71,0.31-0.71,0.71l-0.2,27.24
			c0,0.39,0.31,0.71,0.71,0.72c0,0,0,0,0,0c0.39,0,0.71-0.31,0.71-0.71L841.23,592.56z"/>
	</g>
	<g>
		<path class="st1" d="M848.03,600.28c0.01-0.39-0.31-0.72-0.7-0.72c0,0-0.01,0-0.01,0c-0.39,0-0.7,0.31-0.71,0.7l-0.2,10.75
			c-0.01,0.39,0.31,0.72,0.7,0.72c0,0,0.01,0,0.01,0c0.39,0,0.7-0.31,0.71-0.7L848.03,600.28z"/>
	</g>
	<g>
		<path class="st1" d="M570.73,223.43c2.11,0,2.56-3.03,2.6-3.38c0-0.02,0-0.04,0-0.06c0.01-0.17,0.64-17.41,0.64-44.64
			c0-7.11-0.69-12.72-1.36-18.14c-0.64-5.18-1.25-10.08-1.25-16.05c0-11.07,6.3-28.29,6.37-28.46c0.12-0.33-0.02-0.71-0.34-0.88
			c-0.32-0.16-0.71-0.07-0.91,0.22c-0.15,0.21-14.48,21.03-14.48,47.44c0,26.67,6.07,60.27,6.13,60.57
			C568.17,220.4,568.61,223.43,570.73,223.43z M574.28,118.52c-1.88,6.12-4.35,15.49-4.35,22.64c0,6.05,0.61,10.99,1.26,16.22
			c0.67,5.38,1.35,10.94,1.35,17.97c0,26.63-0.6,43.69-0.63,44.55c-0.08,0.59-0.5,2.11-1.19,2.11c-0.68,0-1.11-1.47-1.2-2.17
			c-0.06-0.33-6.11-33.82-6.11-60.35C563.42,141.64,570.08,126.38,574.28,118.52z"/>
	</g>
	<g>
		<path class="st1" d="M612.95,223.43c2.11,0,2.56-3.03,2.6-3.38c0-0.02,0-0.04,0-0.06c0.01-0.17,0.64-17.41,0.64-44.64
			c0-7.11-0.69-12.72-1.36-18.14c-0.64-5.18-1.25-10.08-1.25-16.05c0-11.07,6.3-28.29,6.37-28.46c0.12-0.33-0.02-0.71-0.34-0.88
			c-0.32-0.16-0.71-0.07-0.91,0.22c-0.15,0.21-14.48,21.03-14.48,47.44c0,26.67,6.07,60.27,6.13,60.57
			C610.39,220.4,610.84,223.43,612.95,223.43z M616.51,118.52c-1.88,6.12-4.35,15.49-4.35,22.64c0,6.05,0.61,10.99,1.26,16.22
			c0.67,5.38,1.35,10.94,1.35,17.97c0,26.63-0.6,43.69-0.63,44.55c-0.08,0.59-0.5,2.11-1.19,2.11c-0.68,0-1.11-1.47-1.2-2.17
			c-0.06-0.33-6.11-33.82-6.11-60.35C605.64,141.64,612.3,126.38,616.51,118.52z"/>
	</g>
	<g>
		<path class="st1" d="M629.26,116.69c0,5.96-0.61,10.86-1.25,16.05c-0.67,5.42-1.36,11.03-1.36,18.14
			c0,27.23,0.63,44.47,0.64,44.64c0,0.02,0,0.04,0,0.06c0.04,0.35,0.49,3.38,2.6,3.38c2.11,0,2.56-3.03,2.6-3.34
			c0.06-0.34,6.13-33.94,6.13-60.61c0-26.41-14.33-47.23-14.48-47.44c-0.21-0.29-0.59-0.39-0.91-0.22
			c-0.32,0.17-0.46,0.54-0.34,0.88C622.96,88.4,629.26,105.62,629.26,116.69z M637.2,135.02c0,26.53-6.05,60.02-6.12,60.39
			c-0.09,0.67-0.51,2.14-1.19,2.14c-0.67,0-1.09-1.42-1.19-2.11c-0.03-0.88-0.63-17.93-0.63-44.55c0-7.03,0.69-12.59,1.35-17.97
			c0.65-5.23,1.26-10.17,1.26-16.22c0-7.15-2.46-16.51-4.35-22.64C630.54,101.91,637.2,117.17,637.2,135.02z"/>
	</g>
	<g>
		<path class="st1" d="M587.04,116.69c0,5.96-0.61,10.86-1.25,16.05c-0.67,5.42-1.36,11.03-1.36,18.14
			c0,27.23,0.63,44.47,0.64,44.64c0,0.02,0,0.04,0,0.06c0.04,0.35,0.49,3.38,2.6,3.38c2.11,0,2.56-3.03,2.6-3.34
			c0.06-0.34,6.13-33.94,6.13-60.61c0-26.41-14.33-47.23-14.48-47.44c-0.2-0.29-0.6-0.39-0.91-0.22c-0.32,0.17-0.46,0.54-0.34,0.88
			C580.73,88.4,587.04,105.62,587.04,116.69z M594.98,135.02c0,26.53-6.05,60.02-6.12,60.39c-0.09,0.67-0.51,2.14-1.19,2.14
			c-0.67,0-1.09-1.42-1.19-2.11c-0.03-0.88-0.63-17.93-0.63-44.55c0-7.03,0.69-12.59,1.35-17.97c0.65-5.23,1.26-10.17,1.26-16.22
			c0-7.15-2.46-16.51-4.35-22.64C588.32,101.91,594.98,117.17,594.98,135.02z"/>
	</g>
	<g>
		<path class="st1" d="M655.17,223.43c2.11,0,2.56-3.03,2.6-3.38c0-0.02,0-0.04,0-0.06c0.01-0.17,0.64-17.41,0.64-44.64
			c0-7.11-0.69-12.72-1.36-18.14c-0.64-5.18-1.25-10.08-1.25-16.05c0-11.07,6.3-28.29,6.37-28.46c0.12-0.33-0.02-0.71-0.34-0.88
			c-0.32-0.16-0.71-0.07-0.91,0.22c-0.15,0.21-14.48,21.03-14.48,47.44c0,26.67,6.07,60.27,6.13,60.57
			C652.62,220.4,653.06,223.43,655.17,223.43z M658.73,118.52c-1.88,6.12-4.35,15.49-4.35,22.64c0,6.05,0.61,10.99,1.26,16.22
			c0.67,5.38,1.35,10.94,1.35,17.97c0,26.63-0.6,43.69-0.63,44.55c-0.08,0.59-0.5,2.11-1.19,2.11c-0.68,0-1.11-1.47-1.2-2.17
			c-0.06-0.33-6.11-33.82-6.11-60.35C647.86,141.64,654.53,126.38,658.73,118.52z"/>
	</g>
	<g>
		<path class="st1" d="M308.63,385.92c0.26,0.31,26.21,31.05,70.74,31.05c44.53,0,70.49-30.74,70.74-31.05
			c0.1-0.13,0.14-0.28,0.15-0.44c0-0.11,0-0.22-0.05-0.32c-0.12-0.25-0.37-0.41-0.64-0.41h-17.41c0.21-0.4,0.3-0.88,0.17-1.36
			l-1.88,0.31l1.85-0.45c-0.25-1.02-1.27-1.64-2.29-1.4c-1.02,0.25-1.65,1.27-1.4,2.29c0,0.01,0.04,0.18,0.05,0.19
			c0.04,0.15,0.11,0.28,0.18,0.41h-5.32c-0.01-0.13,0.01-0.26-0.03-0.39l-0.04-0.16c-0.28-1.01-1.32-1.61-2.33-1.33
			c-0.86,0.23-1.39,1.03-1.36,1.89h-5.42c-0.44-0.74-1.32-1.14-2.18-0.86c-0.47,0.15-0.82,0.47-1.05,0.86h-43.82
			c-0.1-0.36-0.27-0.7-0.58-0.95c-0.81-0.67-2-0.56-2.67,0.25l-0.13,0.16c-0.13,0.17-0.21,0.35-0.27,0.54h-7
			c-0.19-0.34-0.46-0.64-0.84-0.81c-0.9-0.41-1.94-0.04-2.42,0.81h-7.32c-0.07-0.03-0.12-0.08-0.19-0.1
			c-0.42-0.12-0.84-0.06-1.22,0.1h-35.45c-0.28,0-0.53,0.16-0.64,0.41c-0.05,0.1-0.05,0.21-0.05,0.32
			C308.49,385.64,308.53,385.79,308.63,385.92z M379.37,415.54c-38.89,0-63.38-23.78-68.6-29.37h137.21
			C442.76,391.77,418.28,415.54,379.37,415.54z"/>
	</g>
	<g>
		<path class="st1" d="M910.68,339.3c-3.05-12.17-8.01-20.28-13.27-21.69c-5.28-1.41-13.61,3.13-22.33,12.15
			c-1.07,1.11-2.11,2.24-3.12,3.4c-5.53-16.28-16.3-31.45-24.54-31.45c-8.57,0-19.88,16.41-25.18,33.42
			c-1.1-1.29-2.25-2.55-3.43-3.77c-8.73-9.01-17.08-13.56-22.33-12.15c-5.26,1.41-10.22,9.51-13.27,21.69
			c-3.05,12.16-3.34,25.13-0.77,34.7c3.02,11.27,10.79,15.97,16.78,17.93c3.74,1.22,7.45,1.63,10.56,1.63
			c2.58,0,4.75-0.28,6.19-0.59c3.71,12.78,14.09,19.98,14.54,20.29c0.12,0.08,0.26,0.12,0.4,0.12c0.23,0,0.45-0.11,0.59-0.31
			c0.22-0.32,0.14-0.77-0.19-0.99c-0.11-0.07-10.39-7.22-13.97-19.49c3.09-0.99,9.14-3.89,13.94-9.25c1.81-2.02,3.66-4.66,4.93-7.9
			c3.84,1.62,7.62,2.39,10.49,2.5c-0.29,12.77-8.37,22.33-8.45,22.43c-0.26,0.3-0.22,0.75,0.08,1c0.13,0.12,0.3,0.17,0.46,0.17
			c0.2,0,0.4-0.08,0.54-0.25c0.35-0.41,8.51-10.05,8.79-23.35c2.84-0.1,6.57-0.86,10.38-2.44c4.1,8.5,12.53,13.77,18.07,15.5
			c-3.59,12.26-13.86,19.4-13.97,19.48c-0.32,0.22-0.41,0.66-0.19,0.99c0.14,0.2,0.36,0.31,0.59,0.31c0.14,0,0.28-0.04,0.4-0.12
			c0.45-0.31,10.83-7.51,14.54-20.29c1.44,0.31,3.61,0.59,6.19,0.59c3.11,0,6.82-0.4,10.56-1.63c5.99-1.96,13.76-6.67,16.78-17.94
			C914.02,364.44,913.73,351.46,910.68,339.3z M894.23,390.59c-6.51,2.13-12.88,1.66-15.91,1.02l9.7-36.21l-1.37-0.37l-9.7,36.2
			c-3.92-1.3-12.94-6.04-17.18-14.69c7.97-3.7,15.81-11.13,15.81-24c0-5.54-1.17-11.71-3.1-17.79c1.16-1.37,2.37-2.71,3.62-4
			c7.33-7.57,14.48-11.97,19.27-11.97c0.6,0,1.15,0.07,1.67,0.21c4.68,1.25,9.38,9.17,12.26,20.66c2.99,11.94,3.29,24.64,0.78,33.99
			C907.23,384.3,899.89,388.74,894.23,390.59z M847.42,339.93c-0.39,0-0.71,0.32-0.71,0.71v37.48c-2.17-0.13-5.97-0.81-10.01-2.5
			c1.29-4.02,1.66-8.88,0.13-14.6c-2.09-7.81-6.96-16.63-13.42-24.5c4.89-16.31,15.45-33.39,24.01-33.39
			c11.54,0,26.74,31.08,26.74,49.41c0,20.21-19.76,25.21-26.03,25.58v-37.48C848.13,340.25,847.81,339.93,847.42,339.93z
			 M816.94,392.83l-9.7-36.2l-1.37,0.37l9.7,36.21c-3.03,0.65-9.4,1.11-15.91-1.02c-5.65-1.85-12.99-6.3-15.85-16.95
			c-2.5-9.35-2.21-22.06,0.78-33.99c2.88-11.49,7.58-19.4,12.26-20.66c0.52-0.14,1.08-0.21,1.67-0.21c4.79,0,11.94,4.4,19.27,11.97
			c8.56,8.84,15.17,19.7,17.67,29.05c2.86,10.66-1.28,18.17-5.25,22.6C825.62,389.12,819.88,391.88,816.94,392.83z"/>
	</g>
	<g>
		<path class="st1" d="M650.74,355.94c0.78-3.25,1.19-6.42,1.14-9.46c-0.13-8.63-3.59-16.19-10.28-22.48
			c-16.84-15.85-29.09-3.54-49.38,16.84l-3.49,3.51c-6.74,6.74-15.3,11.87-22.85,16.4c-10.75,6.44-20.04,12.01-21.04,20.14
			c-0.68,5.5,2.58,11.76,9.97,19.14c7.69,7.69,18.1,11.42,29.26,11.42c10.63,0,21.93-3.4,32.19-9.99
			c2.17,11.95,7.19,20.13,13.19,20.13c25.97,0,50-4.05,50-33.45C679.46,366.98,669.5,358.73,650.74,355.94z M633.74,420.12
			c5.88-4.16,10.04-16.72,10.04-31.98c0-15.27-4.17-27.85-10.06-31.99c29.39,0.46,44.31,6.14,44.31,31.99
			C678.03,414.69,657.27,419.64,633.74,420.12z M555.82,399.02c-7.06-7.06-10.19-12.93-9.56-17.97c0.92-7.44,9.93-12.84,20.36-19.09
			c7.62-4.57,16.26-9.75,23.13-16.61l3.5-3.51c13.89-13.96,23.52-23.64,33.27-23.64c4.53,0,9.1,2.09,14.12,6.82
			c6.4,6.02,9.7,13.24,9.83,21.47c0.04,2.97-0.35,6.07-1.13,9.25c-5.83-0.77-12.46-1.05-19.87-1.05c-8.04,0-14.33,14.69-14.33,33.45
			c0,4.18,0.33,8.15,0.9,11.81c-8.17,5.38-17.19,8.78-26.3,9.8C576.3,411.27,564.26,407.46,555.82,399.02z M616.54,388.14
			c0-17.36,5.91-32.03,12.91-32.03s12.91,14.67,12.91,32.03c0,17.36-5.91,32.03-12.91,32.03S616.54,405.5,616.54,388.14z"/>
	</g>
</g>
</svg>
