<?xml version="1.0" encoding="utf-8"?>
<!-- Generator: Adobe Illustrator 21.1.0, SVG Export Plug-In . SVG Version: 6.00 Build 0)  -->
<!DOCTYPE svg PUBLIC "-//W3C//DTD SVG 1.1//EN" "http://www.w3.org/Graphics/SVG/1.1/DTD/svg11.dtd">
<svg version="1.1" id="Layer_1" xmlns="http://www.w3.org/2000/svg" xmlns:xlink="http://www.w3.org/1999/xlink" x="0px" y="0px"
	 width="1000px" height="1000px" viewBox="0 0 1000 1000" style="enable-background:new 0 0 1000 1000;" xml:space="preserve">
<style type="text/css">
	.st0{fill:none;}
	.st1{fill:#000006;}
	.st2{fill:#00B156;}
	.st3{fill:#00643C;}
	.st4{fill:#FFFFFF;}
</style>
<rect x="52.24" y="65.86" class="st0" width="396" height="368.28"/>
<path class="st1" d="M253.32,219.6"/>
<g>
	<path class="st1" d="M253.78,216.84c0,0-1.41,15.49-0.92,38.87c0.65,30.92,6.45,46.41,6.45,62.4c0,5.2-2.75,8.09-9.17,8.09
		c-6.42,0-9.17-2.9-9.17-8.09c0-15.98,5.8-31.48,6.45-62.4c0.49-23.37-0.72-38.87-0.72-38.87c0-2.86-11.77-7.52-11.77-19.7
		c0-12.18,4.54-38.27,5.13-42.8c0.04-0.31,0.22-1.27,1-1.27c0.66,0,0.63,0.9,0.63,1.27c0,6.43-0.04,34.04,0,36.97
		c0.01,0.55,0.03,1.27,1.25,1.27c1.22,0,1.2-0.76,1.22-1.27c0.15-3.11,1.87-33.43,2.07-36.97c0.01-0.27,0-1.27,0.88-1.27
		c0.88,0,0.87,1.01,0.88,1.27c0.1,3.71,0.89,33.31,1,37.02c0.02,0.66,0.35,1.22,1.25,1.22c0.91,0,1.23-0.56,1.25-1.22
		c0.11-3.71,0.9-33.31,1-37.02c0.01-0.27,0.03-1.27,0.88-1.27s0.86,1.01,0.88,1.27c0.19,3.55,1.91,33.87,2.07,36.97
		c0.02,0.5,0,1.27,1.22,1.27s1.25-0.72,1.25-1.27c0.04-2.93,0-30.54,0-36.97c0-0.37-0.03-1.27,0.63-1.27c0.82,0,0.96,0.96,1,1.27
		c0.59,4.53,5.13,30.61,5.13,42.8C265.54,209.31,253.78,213.98,253.78,216.84"/>
	<g>
		<path class="st1" d="M126.38,182.33l4.91-8.95l21.76,11.94l6.15-11.21l7.8,4.28l-11.07,20.16L126.38,182.33z"/>
		<path class="st1" d="M150.88,145.23l19.06-17.06l5.66,6.33l-11.45,10.25l2.63,2.94l11.19-10.01l5.66,6.33l-11.19,10.01l2.87,3.2
			l11.45-10.25l5.66,6.33l-19.06,17.06L150.88,145.23z"/>
		<path class="st1" d="M197.6,122.81l-8.37,3.43l-3.38-8.23l26.14-10.72l3.38,8.23l-8.32,3.41l9.42,22.96l-9.44,3.87L197.6,122.81z"
			/>
		<path class="st1" d="M238.4,111.9l-9.03,0.48l-0.47-8.88l28.21-1.5l0.47,8.88l-8.98,0.48l1.32,24.78l-10.19,0.54L238.4,111.9z"/>
		<path class="st1" d="M276.72,104.15l9.86,3.2l-6.03,18.56c-1,3.08-0.21,6.04,3.78,7.34c3.94,1.28,6.33-0.66,7.33-3.73l6.03-18.56
			l9.86,3.2l-6.13,18.85c-2.59,7.98-9.05,12.31-19.87,8.8c-10.82-3.52-13.54-10.83-10.96-18.77L276.72,104.15z"/>
		<path class="st1" d="M314.43,136.92c6.76-7.92,17.4-8.08,25.24-1.38c6.92,5.91,6.96,12.72,5.47,17.57l-9.35-2.6
			c1.05-2.56,0.53-5.99-1.97-8.13c-3.54-3.02-8.46-2.31-11.52,1.27c-3.05,3.58-2.98,8.55,0.55,11.57c2.5,2.13,5.98,2.11,8.33,0.67
			l4.06,8.79c-4.42,2.14-11.32,3.3-18.24-2.61C309.18,155.37,307.7,144.8,314.43,136.92z"/>
		<path class="st1" d="M363.36,162.55l12.2,22.47l-7.46,4.05l-7.33-13.5l-3.46,1.88l7.16,13.19L357,194.7l-7.16-13.19l-3.78,2.05
			l7.33,13.5l-7.46,4.05l-12.2-22.47L363.36,162.55z"/>
	</g>
	<g>
		<path class="st1" d="M133,268.4l-37.4-6.61L94.83,256l34.35-16.07l-35.86,4.81l-1.79-13.35l56.02-7.52l2.42,18.06l-29.38,13.61
			l31.94,5.46l2.4,17.89l-56.02,7.52l-1.77-13.19L133,268.4z"/>
		<path class="st1" d="M157.19,283.08l19.56,27.89l-9.64,6.76l-11.68-16.65l-8.33,5.84l11.34,16.16l-9.64,6.77l-11.34-16.17
			l-9.02,6.33l11.68,16.65l-9.64,6.76l-19.56-27.89L157.19,283.08z"/>
		<path class="st1" d="M174.9,367.72l-14.49-9.59l-6.63,6.18l-11.8-7.81l45.13-37.92l13.78,9.12l-17.28,56.35l-11.8-7.81
			L174.9,367.72z M169.18,349.8l10.04,6.64l8.17-23.25L169.18,349.8z"/>
		<path class="st1" d="M213.55,334.39l13.4,2.97l-9.65,43.51l17.79,3.94l-2.59,11.66l-31.19-6.92L213.55,334.39z"/>
		<path class="st1" d="M261.07,341.25l21.77-6.45c11.78-3.49,20.09,3.06,22.93,12.65c2.82,9.5-0.62,19.36-12.41,22.85l-8.61,2.55
			l5.54,18.69l-13.16,3.9L261.07,341.25z M284.56,346.57l-6.99,2.07l3.83,12.92l6.99-2.07c3.5-1.03,5.19-4.28,4.03-8.17
			C291.24,347.33,288.06,345.54,284.56,346.57z"/>
		<path class="st1" d="M340.39,343.94l-3.85,3.32l12.73,14.76l-10.39,8.97l-36.93-42.8l17.45-15.06c8.34-7.2,18.87-5.76,25.68,2.13
			c6.26,7.25,5.69,14.12,3.7,18.3l21.53,10.3l-11.55,9.97L340.39,343.94z M325.49,323.43l-5.45,4.7l8.8,10.2l5.45-4.71
			c2.76-2.38,3.03-6.08,0.37-9.16C331.9,321.26,328.25,321.05,325.49,323.43z"/>
		<path class="st1" d="M333.77,298.95l15.56-30.3l10.48,5.38l-9.29,18.09l9.05,4.65l9.02-17.56l10.48,5.38l-9.02,17.56l9.8,5.03
			l9.29-18.09l10.48,5.38l-15.56,30.3L333.77,298.95z"/>
		<path class="st1" d="M351.08,263.22l1.38-22.67c0.75-12.26,9.74-17.83,19.72-17.22c9.9,0.6,17.99,7.21,17.24,19.47l-0.54,8.97
			l19.45,1.18l-0.83,13.7L351.08,263.22z M364.11,242.95l-0.44,7.27l13.45,0.82l0.44-7.27c0.22-3.64-2.25-6.33-6.31-6.58
			C367.11,236.94,364.33,239.32,364.11,242.95z"/>
	</g>
</g>
<g>
	<path class="st2" d="M324.21,203.13c-35.81,0-55.79,15.4-65.72,26.89c-1.38-0.57-3.89-1.22-8.31-1.22c-4.24,0-6.72,0.6-8.14,1.15
		c-9.84-11.48-29.68-26.82-65.42-26.82c0,0-9.84,16.05-9.84,39.17c0,23.11,9.84,39.17,9.84,39.17c32.33,0,53.53-16.24,64.54-27.8
		c1.01,0.57,3.38,1.25,9.01,1.25c5.91,0,8.23-0.75,9.15-1.33c11.09,11.57,32.47,27.89,64.88,27.89c0,0,9.48-14.87,9.48-39.17
		C333.69,218,324.21,203.13,324.21,203.13z"/>
</g>
<g>
	<g>
		<path class="st3" d="M239.41,238.35c-2.33,0.53-7.63,1.71-13.16,2.65c-0.79,0.13-1.29-0.15-1.81-0.71
			c-9.38-10.32-16.66-14.88-20.84-17.5c-0.23-0.14-0.66,0.13-0.37,0.43c9.29,9.27,11.34,11.29,15.2,17.88
			c0.53,0.9-0.26,1.16-1.08,1.26c-1,0.13-4.32,0.33-5.88,0.39c-1.19,0.04-3.13,0.06-5.13,0.11c-1.33,0.03-1.84-0.37-2.66-1.13
			c-5.06-4.73-9.38-8.68-15.14-11.75c-0.23-0.12-0.52,0.23-0.37,0.36c5.71,5.21,8.45,8,10.02,11.6c0.31,0.71-0.01,0.96-0.4,0.93
			c-1.5-0.1-3.5-0.27-4.66-0.37c-4.19-0.35-8.37-0.93-12.53-1.65c-0.26-0.04-0.33,0.27-0.07,0.34c4.08,1.13,8.21,2.11,12.39,2.87
			c1.34,0.24,3.12,0.5,4.46,0.72c0.58,0.09,0.64,0.37,0.15,1.1c-3.72,5.59-11.15,14.08-15.85,17.97c-0.2,0.16,0.02,0.45,0.26,0.31
			c5.8-3.33,14.12-11.27,21.13-17.6c0.72-0.65,1.26-0.98,1.85-0.96c1.53,0.07,6.34,0.47,11.71,0.51c0.8,0.01,0.61,0.54,0.44,0.84
			c-2.56,4.61-11.23,13.41-14.34,16.15c-0.23,0.2-0.07,0.51,0.21,0.4c1.28-0.49,13.86-9.64,21.02-16.6c0.9-0.88,1.49-1.16,2.31-1.27
			c5.08-0.66,8.12-0.79,13-1.73c-0.02-0.65-0.03-1.32-0.03-2.06C239.28,240.55,239.33,239.39,239.41,238.35z"/>
		<path class="st3" d="M261.13,243.7c2.48-0.56,7.85-1.76,13.15-2.65c0.79-0.13,1.29,0.15,1.81,0.71
			c9.38,10.32,19.93,19.2,24.11,21.82c0.23,0.14,0.66-0.13,0.37-0.43c-9.29-9.27-14.61-15.61-18.47-22.2
			c-0.53-0.9,0.26-1.16,1.08-1.26c1-0.13,4.32-0.33,5.88-0.39c1.19-0.05,3.13-0.06,5.13-0.11c1.33-0.03,2.16,1,2.95,1.78
			c4.6,4.56,11.09,9.91,19.28,14.97c0.22,0.13,0.4-0.09,0.26-0.23c-6.35-6.14-11.31-10.85-14.34-15.6c-0.42-0.65,0.01-0.96,0.4-0.93
			c1.5,0.1,3.5,0.27,4.66,0.37c4.19,0.35,8.37,0.93,12.53,1.65c0.26,0.04,0.33-0.27,0.07-0.34c-4.08-1.13-8.21-2.11-12.39-2.87
			c-1.34-0.24-3.12-0.5-4.46-0.72c-0.58-0.09-0.64-0.37-0.15-1.1c3.72-5.59,8.89-10.34,13.58-14.23c0.2-0.16-0.02-0.45-0.26-0.31
			c-5.8,3.33-11.86,7.53-18.87,13.86c-0.72,0.65-1.26,0.98-1.85,0.96c-1.53-0.07-6.34-0.47-11.71-0.51
			c-0.8-0.01-0.61-0.54-0.44-0.84c2.56-4.61,9.25-10.11,12.36-12.84c0.23-0.2,0.07-0.51-0.21-0.4c-1.28,0.49-10.88,6.07-18.03,13.03
			c-0.9,0.88-1.49,1.16-2.31,1.27c-5.06,0.66-9.12,1.05-14.21,2.05c0.08,1.12,0.13,2.37,0.13,3.81
			C261.15,242.6,261.14,243.16,261.13,243.7z"/>
	</g>
	<path class="st3" d="M261.13,243.7c0.01-0.54,0.02-1.1,0.02-1.71c0-1.44-0.05-2.69-0.13-3.81c-0.53-7.21-2.49-8.17-2.49-8.17
		s-0.73,14.16-5.2,19.04c-3.62,3.95-12.16,4.6-12.16,4.6c1.01,0.57,3.38,1.25,9.01,1.25c3.48,0,5.69-0.26,7.13-0.59
		c1.33-0.38,2.02-0.74,2.02-0.74S260.95,252.8,261.13,243.7z"/>
</g>
<g>
	<rect x="500" class="st1" width="500" height="500"/>
	<rect x="0.24" y="500" class="st1" width="500" height="500"/>
</g>
<rect x="552" y="65.86" class="st0" width="396" height="368.28"/>
<path class="st1" d="M753.08,219.6"/>
<g>
	<path class="st4" d="M753.54,216.84c0,0-1.41,15.49-0.92,38.87c0.65,30.92,6.45,46.41,6.45,62.4c0,5.2-2.75,8.09-9.17,8.09
		s-9.17-2.9-9.17-8.09c0-15.98,5.8-31.48,6.45-62.4c0.49-23.37-0.72-38.87-0.72-38.87c0-2.86-11.77-7.52-11.77-19.7
		c0-12.18,4.54-38.27,5.13-42.8c0.04-0.31,0.22-1.27,1-1.27c0.66,0,0.63,0.9,0.63,1.27c0,6.43-0.04,34.04,0,36.97
		c0.01,0.55,0.03,1.27,1.25,1.27s1.2-0.76,1.22-1.27c0.15-3.11,1.87-33.43,2.07-36.97c0.01-0.27,0-1.27,0.88-1.27
		c0.88,0,0.87,1.01,0.88,1.27c0.1,3.71,0.89,33.31,1,37.02c0.02,0.66,0.35,1.22,1.25,1.22c0.91,0,1.23-0.56,1.25-1.22
		c0.11-3.71,0.9-33.31,1-37.02c0.01-0.27,0.03-1.27,0.88-1.27s0.86,1.01,0.88,1.27c0.19,3.55,1.91,33.87,2.07,36.97
		c0.02,0.5,0,1.27,1.22,1.27s1.25-0.72,1.25-1.27c0.04-2.93,0-30.54,0-36.97c0-0.37-0.03-1.27,0.63-1.27c0.82,0,0.96,0.96,1,1.27
		c0.59,4.53,5.13,30.61,5.13,42.8C765.3,209.31,753.54,213.98,753.54,216.84"/>
	<g>
		<path class="st4" d="M626.14,182.33l4.91-8.95l21.76,11.94l6.15-11.21l7.8,4.28l-11.07,20.16L626.14,182.33z"/>
		<path class="st4" d="M650.64,145.23l19.06-17.06l5.66,6.33l-11.45,10.25l2.63,2.94l11.19-10.01l5.66,6.33l-11.19,10.01l2.87,3.2
			l11.45-10.25l5.66,6.33l-19.06,17.06L650.64,145.23z"/>
		<path class="st4" d="M697.36,122.81l-8.37,3.43l-3.38-8.23l26.14-10.72l3.38,8.23l-8.32,3.41l9.42,22.96l-9.44,3.87L697.36,122.81
			z"/>
		<path class="st4" d="M738.16,111.9l-9.03,0.48l-0.47-8.88l28.21-1.5l0.47,8.88l-8.98,0.48l1.32,24.78l-10.19,0.54L738.16,111.9z"
			/>
		<path class="st4" d="M776.48,104.15l9.86,3.2l-6.03,18.56c-1,3.08-0.21,6.04,3.78,7.34c3.94,1.28,6.33-0.66,7.33-3.73l6.03-18.56
			l9.86,3.2l-6.13,18.85c-2.59,7.98-9.05,12.31-19.87,8.8c-10.82-3.52-13.54-10.83-10.96-18.77L776.48,104.15z"/>
		<path class="st4" d="M814.18,136.92c6.76-7.92,17.4-8.08,25.24-1.38c6.92,5.91,6.96,12.72,5.47,17.57l-9.35-2.6
			c1.05-2.56,0.53-5.99-1.97-8.13c-3.54-3.02-8.46-2.31-11.52,1.27c-3.05,3.58-2.98,8.55,0.55,11.57c2.5,2.13,5.98,2.11,8.33,0.67
			l4.06,8.79c-4.42,2.14-11.32,3.3-18.24-2.61C808.94,155.37,807.46,144.8,814.18,136.92z"/>
		<path class="st4" d="M863.11,162.55l12.2,22.47l-7.46,4.05l-7.33-13.5l-3.46,1.88l7.16,13.19l-7.46,4.05l-7.16-13.19l-3.78,2.05
			l7.33,13.5l-7.46,4.05l-12.2-22.47L863.11,162.55z"/>
	</g>
	<g>
		<path class="st4" d="M632.76,268.4l-37.4-6.61l-0.78-5.79l34.35-16.07l-35.86,4.81l-1.79-13.35l56.02-7.52l2.42,18.06
			l-29.38,13.61l31.94,5.46l2.4,17.89l-56.02,7.52l-1.77-13.19L632.76,268.4z"/>
		<path class="st4" d="M656.95,283.08l19.56,27.89l-9.64,6.76l-11.68-16.65l-8.33,5.84l11.34,16.16l-9.64,6.77l-11.34-16.17
			l-9.02,6.33l11.68,16.65l-9.64,6.76l-19.56-27.89L656.95,283.08z"/>
		<path class="st4" d="M674.66,367.72l-14.49-9.59l-6.63,6.18l-11.8-7.81l45.13-37.92l13.78,9.12l-17.28,56.35l-11.8-7.81
			L674.66,367.72z M668.94,349.8l10.04,6.64l8.17-23.25L668.94,349.8z"/>
		<path class="st4" d="M713.31,334.39l13.4,2.97l-9.65,43.51l17.79,3.94l-2.59,11.66l-31.19-6.92L713.31,334.39z"/>
		<path class="st4" d="M760.83,341.25l21.77-6.45c11.78-3.49,20.09,3.06,22.93,12.65c2.82,9.5-0.62,19.36-12.41,22.85l-8.61,2.55
			l5.54,18.69l-13.16,3.9L760.83,341.25z M784.32,346.57l-6.99,2.07l3.83,12.92l6.99-2.07c3.5-1.03,5.19-4.28,4.03-8.17
			C791,347.33,787.81,345.54,784.32,346.57z"/>
		<path class="st4" d="M840.15,343.94l-3.85,3.32l12.73,14.76l-10.39,8.97l-36.93-42.8l17.45-15.06c8.34-7.2,18.87-5.76,25.68,2.13
			c6.26,7.25,5.69,14.12,3.7,18.3l21.53,10.3l-11.55,9.97L840.15,343.94z M825.25,323.43l-5.45,4.7l8.8,10.2l5.45-4.71
			c2.76-2.38,3.03-6.08,0.37-9.16C831.66,321.26,828.01,321.05,825.25,323.43z"/>
		<path class="st4" d="M833.53,298.95l15.56-30.3l10.48,5.38l-9.29,18.09l9.05,4.65l9.02-17.56l10.48,5.38l-9.02,17.56l9.8,5.03
			l9.29-18.09l10.48,5.38l-15.56,30.3L833.53,298.95z"/>
		<path class="st4" d="M850.84,263.22l1.38-22.67c0.75-12.26,9.74-17.83,19.72-17.22c9.9,0.6,17.99,7.21,17.24,19.47l-0.54,8.97
			l19.45,1.18l-0.83,13.7L850.84,263.22z M863.87,242.95l-0.44,7.27l13.45,0.82l0.44-7.27c0.22-3.64-2.25-6.33-6.31-6.58
			C866.87,236.94,864.09,239.32,863.87,242.95z"/>
	</g>
</g>
<g>
	<path class="st2" d="M823.97,203.13c-35.81,0-55.79,15.4-65.72,26.89c-1.38-0.57-3.89-1.22-8.31-1.22c-4.24,0-6.72,0.6-8.14,1.15
		c-9.84-11.48-29.68-26.82-65.42-26.82c0,0-9.84,16.05-9.84,39.17c0,23.11,9.84,39.17,9.84,39.17c32.33,0,53.53-16.24,64.54-27.8
		c1.01,0.57,3.38,1.25,9.01,1.25c5.91,0,8.23-0.75,9.15-1.33c11.09,11.57,32.47,27.89,64.88,27.89c0,0,9.48-14.87,9.48-39.17
		C833.45,218,823.97,203.13,823.97,203.13z"/>
</g>
<g>
	<g>
		<path class="st3" d="M739.17,238.35c-2.33,0.53-7.63,1.71-13.16,2.65c-0.79,0.13-1.29-0.15-1.81-0.71
			c-9.38-10.32-16.66-14.88-20.84-17.5c-0.23-0.14-0.66,0.13-0.37,0.43c9.29,9.27,11.34,11.29,15.2,17.88
			c0.53,0.9-0.26,1.16-1.08,1.26c-1,0.13-4.32,0.33-5.88,0.39c-1.19,0.04-3.13,0.06-5.13,0.11c-1.33,0.03-1.84-0.37-2.66-1.13
			c-5.06-4.73-9.38-8.68-15.14-11.75c-0.23-0.12-0.52,0.23-0.37,0.36c5.71,5.21,8.45,8,10.02,11.6c0.31,0.71-0.01,0.96-0.4,0.93
			c-1.5-0.1-3.5-0.27-4.66-0.37c-4.19-0.35-8.37-0.93-12.53-1.65c-0.26-0.04-0.33,0.27-0.07,0.34c4.08,1.13,8.21,2.11,12.39,2.87
			c1.34,0.24,3.12,0.5,4.46,0.72c0.58,0.09,0.64,0.37,0.15,1.1c-3.72,5.59-11.15,14.08-15.85,17.97c-0.2,0.16,0.02,0.45,0.26,0.31
			c5.8-3.33,14.12-11.27,21.13-17.6c0.72-0.65,1.26-0.98,1.85-0.96c1.53,0.07,6.34,0.47,11.71,0.51c0.8,0.01,0.61,0.54,0.44,0.84
			c-2.56,4.61-11.23,13.41-14.34,16.15c-0.23,0.2-0.07,0.51,0.21,0.4c1.28-0.49,13.86-9.64,21.02-16.6c0.9-0.88,1.49-1.16,2.31-1.27
			c5.08-0.66,8.12-0.79,13-1.73c-0.02-0.65-0.03-1.32-0.03-2.06C739.04,240.55,739.09,239.39,739.17,238.35z"/>
		<path class="st3" d="M760.89,243.7c2.48-0.56,7.85-1.76,13.15-2.65c0.79-0.13,1.29,0.15,1.81,0.71
			c9.38,10.32,19.93,19.2,24.11,21.82c0.23,0.14,0.66-0.13,0.37-0.43c-9.29-9.27-14.61-15.61-18.47-22.2
			c-0.53-0.9,0.26-1.16,1.08-1.26c1-0.13,4.32-0.33,5.88-0.39c1.19-0.05,3.13-0.06,5.13-0.11c1.33-0.03,2.16,1,2.95,1.78
			c4.6,4.56,11.09,9.91,19.28,14.97c0.22,0.13,0.4-0.09,0.26-0.23c-6.35-6.14-11.31-10.85-14.34-15.6c-0.42-0.65,0.01-0.96,0.4-0.93
			c1.5,0.1,3.5,0.27,4.66,0.37c4.19,0.35,8.37,0.93,12.53,1.65c0.26,0.04,0.33-0.27,0.07-0.34c-4.08-1.13-8.21-2.11-12.39-2.87
			c-1.34-0.24-3.12-0.5-4.46-0.72c-0.58-0.09-0.64-0.37-0.15-1.1c3.72-5.59,8.89-10.34,13.58-14.23c0.2-0.16-0.02-0.45-0.26-0.31
			c-5.8,3.33-11.86,7.53-18.87,13.86c-0.72,0.65-1.26,0.98-1.85,0.96c-1.53-0.07-6.34-0.47-11.71-0.51
			c-0.8-0.01-0.61-0.54-0.44-0.84c2.56-4.61,9.25-10.11,12.36-12.84c0.23-0.2,0.07-0.51-0.21-0.4c-1.28,0.49-10.88,6.07-18.03,13.03
			c-0.9,0.88-1.49,1.16-2.31,1.27c-5.06,0.66-9.12,1.05-14.21,2.05c0.08,1.12,0.13,2.37,0.13,3.81
			C760.91,242.6,760.9,243.16,760.89,243.7z"/>
	</g>
	<path class="st3" d="M760.89,243.7c0.01-0.54,0.02-1.1,0.02-1.71c0-1.44-0.05-2.69-0.13-3.81c-0.53-7.21-2.49-8.17-2.49-8.17
		s-0.73,14.16-5.2,19.04c-3.62,3.95-12.16,4.6-12.16,4.6c1.01,0.57,3.38,1.25,9.01,1.25c3.48,0,5.69-0.26,7.13-0.59
		c1.33-0.38,2.02-0.74,2.02-0.74S760.71,252.8,760.89,243.7z"/>
</g>
<rect x="52.14" y="565.69" class="st0" width="396" height="368.28"/>
<g>
	<g>
		<path class="st4" d="M126.28,682.16l4.91-8.95l21.76,11.94l6.15-11.21l7.8,4.28l-11.07,20.16L126.28,682.16z"/>
		<path class="st4" d="M150.78,645.06l19.06-17.06l5.66,6.33l-11.45,10.25l2.63,2.94l11.19-10.01l5.66,6.33l-11.19,10.01l2.87,3.2
			l11.45-10.25l5.66,6.33l-19.06,17.06L150.78,645.06z"/>
		<path class="st4" d="M197.5,622.65l-8.37,3.43l-3.38-8.23l26.14-10.72l3.38,8.23l-8.32,3.41l9.42,22.96l-9.44,3.87L197.5,622.65z"
			/>
		<path class="st4" d="M238.3,611.74l-9.03,0.48l-0.47-8.88l28.21-1.5l0.47,8.88l-8.98,0.48l1.32,24.78l-10.19,0.54L238.3,611.74z"
			/>
		<path class="st4" d="M276.62,603.99l9.86,3.2l-6.03,18.56c-1,3.08-0.21,6.04,3.78,7.34c3.94,1.28,6.33-0.66,7.33-3.73l6.03-18.56
			l9.86,3.2l-6.13,18.85c-2.59,7.98-9.05,12.31-19.87,8.8c-10.82-3.52-13.54-10.83-10.96-18.77L276.62,603.99z"/>
		<path class="st4" d="M314.33,636.76c6.76-7.92,17.4-8.08,25.24-1.38c6.92,5.91,6.96,12.72,5.47,17.57l-9.35-2.6
			c1.05-2.56,0.53-5.99-1.97-8.13c-3.54-3.02-8.46-2.31-11.52,1.27c-3.05,3.58-2.98,8.55,0.55,11.57c2.5,2.13,5.98,2.11,8.33,0.67
			l4.06,8.79c-4.42,2.14-11.32,3.3-18.24-2.61C309.08,655.2,307.6,644.64,314.33,636.76z"/>
		<path class="st4" d="M363.26,662.39l12.2,22.47l-7.46,4.05l-7.33-13.5l-3.46,1.88l7.16,13.19l-7.46,4.05l-7.16-13.19l-3.78,2.05
			l7.33,13.5l-7.46,4.05l-12.2-22.47L363.26,662.39z"/>
	</g>
	<g>
		<path class="st4" d="M132.9,768.23l-37.4-6.61l-0.78-5.79l34.35-16.07l-35.86,4.81l-1.79-13.35l56.02-7.52l2.42,18.06
			l-29.38,13.61l31.94,5.46l2.4,17.89l-56.02,7.52l-1.77-13.19L132.9,768.23z"/>
		<path class="st4" d="M157.09,782.91l19.56,27.89l-9.64,6.76l-11.68-16.65l-8.33,5.84l11.34,16.16l-9.64,6.77l-11.34-16.17
			l-9.02,6.33l11.68,16.65l-9.64,6.76l-19.56-27.89L157.09,782.91z"/>
		<path class="st4" d="M174.8,867.55l-14.49-9.59l-6.63,6.18l-11.8-7.81l45.13-37.92l13.78,9.12l-17.28,56.35l-11.8-7.81
			L174.8,867.55z M169.08,849.63l10.04,6.64l8.17-23.25L169.08,849.63z"/>
		<path class="st4" d="M213.45,834.23l13.4,2.97l-9.65,43.51l17.79,3.94l-2.59,11.66l-31.19-6.92L213.45,834.23z"/>
		<path class="st4" d="M260.97,841.08l21.77-6.45c11.78-3.49,20.09,3.06,22.93,12.65c2.82,9.5-0.63,19.36-12.41,22.85l-8.61,2.55
			l5.54,18.69l-13.16,3.9L260.97,841.08z M284.46,846.41l-6.99,2.07l3.83,12.92l6.99-2.07c3.5-1.03,5.19-4.28,4.03-8.17
			C291.14,847.17,287.96,845.37,284.46,846.41z"/>
		<path class="st4" d="M340.29,843.77l-3.85,3.32l12.73,14.76l-10.39,8.97l-36.93-42.8l17.45-15.06c8.34-7.2,18.87-5.76,25.68,2.13
			c6.26,7.25,5.69,14.12,3.7,18.3l21.53,10.3l-11.55,9.97L340.29,843.77z M325.39,823.27l-5.45,4.7l8.8,10.2l5.45-4.71
			c2.76-2.38,3.03-6.08,0.37-9.16C331.8,821.09,328.15,820.88,325.39,823.27z"/>
		<path class="st4" d="M333.67,798.78l15.56-30.3l10.48,5.38l-9.29,18.09l9.05,4.65l9.02-17.56l10.48,5.38l-9.02,17.56l9.8,5.03
			l9.29-18.09l10.48,5.38l-15.56,30.3L333.67,798.78z"/>
		<path class="st4" d="M350.98,763.05l1.38-22.67c0.75-12.26,9.74-17.83,19.72-17.22c9.9,0.6,17.99,7.21,17.24,19.47l-0.54,8.97
			l19.45,1.18l-0.83,13.7L350.98,763.05z M364.01,742.79l-0.44,7.27l13.45,0.82l0.44-7.27c0.22-3.64-2.25-6.33-6.31-6.58
			C367.01,736.77,364.23,739.15,364.01,742.79z"/>
	</g>
</g>
<g>
	<path class="st4" d="M252.35,754.7c-0.25,0.01-0.52,0.02-0.79,0.02c-0.1,0-0.2,0.01-0.3,0.01c-0.38,0.01-0.76,0.01-1.17,0.01
		c-0.7,0-1.36-0.01-1.96-0.03c-0.27-0.01-0.53-0.02-0.78-0.03c-0.01,0.28-0.01,0.56-0.02,0.85c-0.65,30.92-6.45,46.41-6.45,62.4
		c0,5.2,2.75,8.09,9.17,8.09s9.17-2.9,9.17-8.09c0-15.98-5.8-31.48-6.45-62.4c-0.01-0.29-0.01-0.57-0.02-0.85
		c-0.04,0-0.08,0-0.12,0.01C252.53,754.69,252.44,754.7,252.35,754.7z"/>
	<path class="st4" d="M252.98,728.74c0.3-7.66,0.7-12.07,0.7-12.07c0-2.86,11.77-7.52,11.77-19.7c0-12.18-4.54-38.27-5.13-42.8
		c-0.04-0.31-0.18-1.27-1-1.27c-0.66,0-0.63,0.9-0.63,1.27c0,6.43,0.04,34.04,0,36.97c-0.01,0.55-0.03,1.27-1.25,1.27
		s-1.2-0.76-1.22-1.27c-0.15-3.11-1.87-33.43-2.07-36.97c-0.01-0.27-0.03-1.27-0.88-1.27c-0.84,0-0.87,1.01-0.88,1.27
		c-0.1,3.71-0.89,33.31-1,37.02c-0.02,0.66-0.34,1.22-1.25,1.22c-0.91,0-1.23-0.56-1.25-1.22c-0.11-3.71-0.9-33.31-1-37.02
		c-0.01-0.27,0-1.27-0.88-1.27c-0.88,0-0.86,1.01-0.88,1.27c-0.19,3.55-1.91,33.87-2.07,36.97c-0.02,0.5,0,1.27-1.22,1.27
		c-1.22,0-1.25-0.72-1.25-1.27c-0.04-2.93,0-30.54,0-36.97c0-0.37,0.03-1.27-0.63-1.27c-0.78,0-0.96,0.96-1,1.27
		c-0.59,4.53-5.13,30.61-5.13,42.8c0,12.18,11.77,16.84,11.77,19.7c0,0,0.34,4.41,0.59,12.07c0.86-0.07,1.81-0.1,2.89-0.1
		C251.16,728.63,252.12,728.67,252.98,728.74z"/>
	<g>
		<path class="st4" d="M324.11,702.97c-35.81,0-55.79,15.4-65.72,26.89c-1.04-0.43-2.74-0.91-5.42-1.11
			c-0.86-0.07-1.82-0.11-2.89-0.11c-1.07,0-2.03,0.04-2.89,0.1c-2.54,0.2-4.2,0.64-5.25,1.05c-9.84-11.48-29.68-26.82-65.42-26.82
			c0,0-9.84,16.05-9.84,39.17c0,23.11,9.84,39.17,9.84,39.17c32.33,0,53.53-16.24,64.54-27.8c0,0,8.54-0.65,12.16-4.6
			c4.46-4.88,5.2-19.04,5.2-19.04s1.96,0.96,2.49,8.17c5.09-0.99,9.15-1.39,14.21-2.05c0.83-0.11,1.41-0.39,2.31-1.27
			c7.15-6.96,16.75-12.54,18.03-13.03c0.28-0.11,0.44,0.19,0.21,0.4c-3.11,2.74-9.8,8.23-12.36,12.84c-0.17,0.3-0.36,0.83,0.44,0.84
			c5.37,0.04,10.19,0.44,11.71,0.51c0.59,0.03,1.13-0.3,1.85-0.96c7.01-6.32,13.07-10.53,18.87-13.86c0.24-0.14,0.46,0.14,0.26,0.31
			c-4.69,3.89-9.86,8.64-13.58,14.23c-0.49,0.73-0.42,1.01,0.15,1.1c1.34,0.22,3.12,0.48,4.46,0.72c4.18,0.76,8.31,1.74,12.39,2.87
			c0.26,0.07,0.19,0.39-0.07,0.34c-4.16-0.72-8.34-1.3-12.53-1.65c-1.16-0.09-3.15-0.27-4.66-0.37c-0.39-0.03-0.81,0.28-0.4,0.93
			c3.03,4.75,7.99,9.46,14.34,15.6c0.14,0.14-0.04,0.37-0.26,0.23c-8.19-5.06-14.68-10.4-19.28-14.97
			c-0.79-0.78-1.63-1.81-2.95-1.78c-1.99,0.05-3.94,0.07-5.13,0.11c-1.56,0.06-4.87,0.26-5.88,0.39c-0.82,0.11-1.61,0.37-1.08,1.26
			c3.86,6.59,9.18,12.93,18.47,22.2c0.3,0.3-0.14,0.57-0.37,0.43c-4.18-2.63-14.72-11.5-24.11-21.82c-0.51-0.57-1.02-0.85-1.81-0.71
			c-5.3,0.89-10.67,2.09-13.15,2.65c-0.18,9.1-1.79,9.88-1.79,9.88l0,0c11.09,11.57,32.47,27.89,64.88,27.89
			c0,0,9.48-14.87,9.48-39.17C333.59,717.84,324.11,702.97,324.11,702.97z M239.21,743.75c-4.88,0.94-7.92,1.07-13,1.73
			c-0.83,0.11-1.41,0.39-2.31,1.27c-7.15,6.96-19.74,16.11-21.02,16.6c-0.28,0.11-0.44-0.19-0.21-0.4
			c3.11-2.74,11.79-11.54,14.34-16.15c0.17-0.3,0.36-0.83-0.44-0.84c-5.37-0.04-10.19-0.44-11.71-0.51
			c-0.59-0.03-1.13,0.3-1.85,0.96c-7.01,6.32-15.34,14.27-21.13,17.6c-0.24,0.14-0.46-0.14-0.26-0.31
			c4.69-3.89,12.12-12.38,15.85-17.97c0.49-0.73,0.42-1.01-0.15-1.1c-1.34-0.22-3.12-0.48-4.46-0.72
			c-4.18-0.76-8.31-1.74-12.39-2.87c-0.26-0.07-0.19-0.39,0.07-0.34c4.16,0.72,8.34,1.3,12.53,1.65c1.16,0.09,3.15,0.26,4.66,0.37
			c0.39,0.03,0.7-0.22,0.4-0.93c-1.57-3.6-4.31-6.39-10.02-11.6c-0.15-0.13,0.14-0.49,0.37-0.36c5.76,3.07,10.08,7.02,15.14,11.75
			c0.81,0.76,1.33,1.16,2.66,1.13c1.99-0.05,3.94-0.07,5.13-0.11c1.56-0.06,4.87-0.26,5.88-0.39c0.82-0.11,1.61-0.37,1.08-1.26
			c-3.86-6.59-5.91-8.61-15.2-17.88c-0.3-0.3,0.14-0.57,0.37-0.43c4.18,2.63,11.45,7.19,20.84,17.5c0.51,0.57,1.02,0.85,1.81,0.71
			c5.53-0.93,10.83-2.12,13.16-2.65c-0.08,1.04-0.13,2.2-0.13,3.5C239.18,742.42,239.19,743.1,239.21,743.75z"/>
	</g>
	<g>
		<path class="st4" d="M251.56,754.73c0.27-0.01,0.54-0.01,0.79-0.02C252.1,754.71,251.83,754.72,251.56,754.73z"/>
	</g>
	<g>
		<path class="st4" d="M250.08,754.74c0.41,0,0.8,0,1.17-0.01C250.88,754.74,250.49,754.74,250.08,754.74z"/>
	</g>
</g>
<rect x="552" y="564.86" class="st0" width="396" height="368.28"/>
<g>
	<g>
		<g>
			<path class="st1" d="M626.14,681.33l4.91-8.95l21.76,11.94l6.15-11.21l7.8,4.28l-11.07,20.16L626.14,681.33z"/>
			<path class="st1" d="M650.64,644.23l19.06-17.06l5.66,6.33l-11.45,10.25l2.63,2.94l11.19-10.01l5.66,6.33l-11.19,10.01l2.87,3.2
				l11.45-10.25l5.66,6.33l-19.06,17.06L650.64,644.23z"/>
			<path class="st1" d="M697.36,621.81l-8.37,3.43l-3.38-8.23l26.14-10.72l3.38,8.23l-8.32,3.41l9.42,22.96l-9.44,3.87
				L697.36,621.81z"/>
			<path class="st1" d="M738.16,610.9l-9.03,0.48l-0.47-8.88l28.21-1.5l0.47,8.88l-8.98,0.48l1.32,24.78l-10.19,0.54L738.16,610.9z"
				/>
			<path class="st1" d="M776.48,603.15l9.86,3.2l-6.03,18.56c-1,3.08-0.21,6.04,3.78,7.34c3.94,1.28,6.33-0.66,7.33-3.73l6.03-18.56
				l9.86,3.2l-6.13,18.85c-2.59,7.98-9.05,12.31-19.87,8.8c-10.82-3.52-13.54-10.83-10.96-18.77L776.48,603.15z"/>
			<path class="st1" d="M814.18,635.92c6.76-7.92,17.4-8.08,25.24-1.38c6.92,5.91,6.96,12.72,5.47,17.57l-9.35-2.6
				c1.05-2.56,0.53-5.99-1.97-8.13c-3.54-3.02-8.46-2.31-11.52,1.27c-3.05,3.58-2.98,8.55,0.55,11.57c2.5,2.13,5.98,2.11,8.33,0.67
				l4.06,8.79c-4.42,2.14-11.32,3.3-18.24-2.61C808.94,654.37,807.46,643.8,814.18,635.92z"/>
			<path class="st1" d="M863.11,661.55l12.2,22.47l-7.46,4.05l-7.33-13.5l-3.46,1.88l7.16,13.19l-7.46,4.05l-7.16-13.19l-3.78,2.05
				l7.33,13.5l-7.46,4.05l-12.2-22.47L863.11,661.55z"/>
		</g>
		<g>
			<path class="st1" d="M632.76,767.4l-37.4-6.61l-0.78-5.79l34.35-16.07l-35.86,4.81l-1.79-13.35l56.02-7.52l2.42,18.06
				l-29.38,13.61l31.94,5.46l2.4,17.89l-56.02,7.52l-1.77-13.19L632.76,767.4z"/>
			<path class="st1" d="M656.95,782.07l19.56,27.89l-9.64,6.76l-11.68-16.65l-8.33,5.84l11.34,16.16l-9.64,6.77l-11.34-16.17
				l-9.02,6.33l11.68,16.65l-9.64,6.76l-19.56-27.89L656.95,782.07z"/>
			<path class="st1" d="M674.66,866.71l-14.49-9.59l-6.63,6.18l-11.8-7.81l45.13-37.92l13.78,9.12l-17.28,56.35l-11.8-7.81
				L674.66,866.71z M668.94,848.8l10.04,6.64l8.17-23.25L668.94,848.8z"/>
			<path class="st1" d="M713.31,833.39l13.4,2.97l-9.65,43.51l17.79,3.94l-2.59,11.66l-31.19-6.92L713.31,833.39z"/>
			<path class="st1" d="M760.83,840.25l21.77-6.45c11.78-3.49,20.09,3.06,22.93,12.65c2.82,9.5-0.62,19.36-12.41,22.85l-8.61,2.55
				l5.54,18.69l-13.16,3.9L760.83,840.25z M784.32,845.57l-6.99,2.07l3.83,12.92l6.99-2.07c3.5-1.03,5.19-4.28,4.03-8.17
				C791,846.33,787.81,844.54,784.32,845.57z"/>
			<path class="st1" d="M840.15,842.93l-3.85,3.32l12.73,14.76l-10.39,8.97l-36.93-42.8l17.45-15.06c8.34-7.2,18.87-5.76,25.68,2.13
				c6.26,7.25,5.69,14.12,3.7,18.3l21.53,10.3l-11.55,9.97L840.15,842.93z M825.25,822.43l-5.45,4.7l8.8,10.2l5.45-4.71
				c2.76-2.38,3.03-6.08,0.37-9.16C831.66,820.26,828.01,820.05,825.25,822.43z"/>
			<path class="st1" d="M833.53,797.95l15.56-30.3l10.48,5.38l-9.29,18.09l9.05,4.65l9.02-17.56l10.48,5.38l-9.02,17.56l9.8,5.03
				l9.29-18.09l10.48,5.38l-15.56,30.3L833.53,797.95z"/>
			<path class="st1" d="M850.84,762.22l1.38-22.67c0.75-12.26,9.74-17.83,19.72-17.22c9.9,0.6,17.99,7.21,17.24,19.47l-0.54,8.97
				l19.45,1.18l-0.83,13.7L850.84,762.22z M863.87,741.95l-0.44,7.27l13.45,0.82l0.44-7.27c0.22-3.64-2.25-6.33-6.31-6.58
				C866.87,735.94,864.09,738.32,863.87,741.95z"/>
		</g>
	</g>
	<g>
		<g>
			<path d="M626.14,681.33l4.91-8.95l21.76,11.94l6.15-11.21l7.8,4.28l-11.07,20.16L626.14,681.33z"/>
			<path d="M650.64,644.23l19.06-17.06l5.66,6.33l-11.45,10.25l2.63,2.94l11.19-10.01l5.66,6.33l-11.19,10.01l2.87,3.2l11.45-10.25
				l5.66,6.33l-19.06,17.06L650.64,644.23z"/>
			<path d="M697.36,621.81l-8.37,3.43l-3.38-8.23l26.14-10.72l3.38,8.23l-8.32,3.41l9.42,22.96l-9.44,3.87L697.36,621.81z"/>
			<path d="M738.16,610.9l-9.03,0.48l-0.47-8.88l28.21-1.5l0.47,8.88l-8.98,0.48l1.32,24.78l-10.19,0.54L738.16,610.9z"/>
			<path d="M776.48,603.15l9.86,3.2l-6.03,18.56c-1,3.08-0.21,6.04,3.78,7.34c3.94,1.28,6.33-0.66,7.33-3.73l6.03-18.56l9.86,3.2
				l-6.13,18.85c-2.59,7.98-9.05,12.31-19.87,8.8c-10.82-3.52-13.54-10.83-10.96-18.77L776.48,603.15z"/>
			<path d="M814.18,635.92c6.76-7.92,17.4-8.08,25.24-1.38c6.92,5.91,6.96,12.72,5.47,17.57l-9.35-2.6
				c1.05-2.56,0.53-5.99-1.97-8.13c-3.54-3.02-8.46-2.31-11.52,1.27c-3.05,3.58-2.98,8.55,0.55,11.57c2.5,2.13,5.98,2.11,8.33,0.67
				l4.06,8.79c-4.42,2.14-11.32,3.3-18.24-2.61C808.94,654.37,807.46,643.8,814.18,635.92z"/>
			<path d="M863.11,661.55l12.2,22.47l-7.46,4.05l-7.33-13.5l-3.46,1.88l7.16,13.19l-7.46,4.05l-7.16-13.19l-3.78,2.05l7.33,13.5
				l-7.46,4.05l-12.2-22.47L863.11,661.55z"/>
		</g>
		<g>
			<path d="M632.76,767.4l-37.4-6.61l-0.78-5.79l34.35-16.07l-35.86,4.81l-1.79-13.35l56.02-7.52l2.42,18.06l-29.38,13.61
				l31.94,5.46l2.4,17.89l-56.02,7.52l-1.77-13.19L632.76,767.4z"/>
			<path d="M656.95,782.07l19.56,27.89l-9.64,6.76l-11.68-16.65l-8.33,5.84l11.34,16.16l-9.64,6.77l-11.34-16.17l-9.02,6.33
				l11.68,16.65l-9.64,6.76l-19.56-27.89L656.95,782.07z"/>
			<path d="M674.66,866.71l-14.49-9.59l-6.63,6.18l-11.8-7.81l45.13-37.92l13.78,9.12l-17.28,56.35l-11.8-7.81L674.66,866.71z
				 M668.94,848.8l10.04,6.64l8.17-23.25L668.94,848.8z"/>
			<path d="M713.31,833.39l13.4,2.97l-9.65,43.51l17.79,3.94l-2.59,11.66l-31.19-6.92L713.31,833.39z"/>
			<path d="M760.83,840.25l21.77-6.45c11.78-3.49,20.09,3.06,22.93,12.65c2.82,9.5-0.62,19.36-12.41,22.85l-8.61,2.55l5.54,18.69
				l-13.16,3.9L760.83,840.25z M784.32,845.57l-6.99,2.07l3.83,12.92l6.99-2.07c3.5-1.03,5.19-4.28,4.03-8.17
				C791,846.33,787.81,844.54,784.32,845.57z"/>
			<path d="M840.15,842.93l-3.85,3.32l12.73,14.76l-10.39,8.97l-36.93-42.8l17.45-15.06c8.34-7.2,18.87-5.76,25.68,2.13
				c6.26,7.25,5.69,14.12,3.7,18.3l21.53,10.3l-11.55,9.97L840.15,842.93z M825.25,822.43l-5.45,4.7l8.8,10.2l5.45-4.71
				c2.76-2.38,3.03-6.08,0.37-9.16C831.66,820.26,828.01,820.05,825.25,822.43z"/>
			<path d="M833.53,797.95l15.56-30.3l10.48,5.38l-9.29,18.09l9.05,4.65l9.02-17.56l10.48,5.38l-9.02,17.56l9.8,5.03l9.29-18.09
				l10.48,5.38l-15.56,30.3L833.53,797.95z"/>
			<path d="M850.84,762.22l1.38-22.67c0.75-12.26,9.74-17.83,19.72-17.22c9.9,0.6,17.99,7.21,17.24,19.47l-0.54,8.97l19.45,1.18
				l-0.83,13.7L850.84,762.22z M863.87,741.95l-0.44,7.27l13.45,0.82l0.44-7.27c0.22-3.64-2.25-6.33-6.31-6.58
				C866.87,735.94,864.09,738.32,863.87,741.95z"/>
		</g>
	</g>
</g>
<g>
	<g>
		<path class="st1" d="M823.97,702.13c-35.81,0-55.79,15.4-65.72,26.89c-1.04-0.43-2.74-0.91-5.42-1.11
			c0.3-7.66,0.7-12.07,0.7-12.07c0-2.86,11.77-7.52,11.77-19.7c0-12.18-4.54-38.27-5.13-42.8c-0.04-0.31-0.18-1.27-1-1.27
			c-0.66,0-0.63,0.9-0.63,1.27c0,6.43,0.04,34.04,0,36.97c-0.01,0.55-0.03,1.27-1.25,1.27s-1.2-0.76-1.22-1.27
			c-0.15-3.11-1.87-33.43-2.07-36.97c-0.01-0.27-0.03-1.27-0.88-1.27s-0.87,1.01-0.88,1.27c-0.1,3.71-0.89,33.31-1,37.02
			c-0.02,0.66-0.34,1.22-1.25,1.22c-0.91,0-1.23-0.56-1.25-1.22c-0.11-3.71-0.9-33.31-1-37.02c-0.01-0.27,0-1.27-0.88-1.27
			c-0.88,0-0.86,1.01-0.88,1.27c-0.19,3.55-1.91,33.87-2.07,36.97c-0.02,0.5,0,1.27-1.22,1.27s-1.25-0.72-1.25-1.27
			c-0.04-2.93,0-30.54,0-36.97c0-0.37,0.03-1.27-0.63-1.27c-0.78,0-0.96,0.96-1,1.27c-0.59,4.53-5.13,30.61-5.13,42.8
			c0,12.18,11.77,16.84,11.77,19.7c0,0,0.34,4.41,0.59,12.07c-2.54,0.2-4.2,0.64-5.25,1.05c-9.84-11.48-29.68-26.82-65.42-26.82
			c0,0-9.84,16.05-9.84,39.17c0,23.11,9.84,39.17,9.84,39.17c32.33,0,53.53-16.24,64.54-27.8c0.83,0.47,2.57,1.01,6.27,1.18
			c-0.01,0.28-0.01,0.56-0.02,0.85c-0.65,30.92-6.45,46.41-6.45,62.4c0,5.2,2.75,8.09,9.17,8.09s9.17-2.9,9.17-8.09
			c0-15.98-5.8-31.48-6.45-62.4c-0.01-0.29-0.01-0.57-0.02-0.85c0.23-0.01,0.44-0.02,0.65-0.04c0.06,0,0.11-0.01,0.16-0.01
			c3.4-0.23,4.96-0.77,5.67-1.23c11.09,11.57,32.47,27.89,64.88,27.89c0,0,9.48-14.87,9.48-39.17
			C833.45,717,823.97,702.13,823.97,702.13z M761.87,749.91l-1.39-1.49c0.2-1.4,0.36-3.24,0.41-5.72c2.48-0.56,7.85-1.76,13.15-2.65
			c0.79-0.13,1.29,0.15,1.81,0.71c9.38,10.32,19.93,19.2,24.11,21.82c0.23,0.14,0.66-0.13,0.37-0.43
			c-9.29-9.27-14.61-15.61-18.47-22.2c-0.53-0.9,0.26-1.16,1.08-1.26c1-0.13,4.32-0.33,5.88-0.39c1.19-0.05,3.13-0.06,5.13-0.11
			c1.33-0.03,2.16,1,2.95,1.78c4.6,4.56,11.09,9.91,19.28,14.97c0.22,0.14,0.4-0.09,0.26-0.23c-6.35-6.14-11.31-10.85-14.34-15.6
			c-0.42-0.65,0.01-0.96,0.4-0.93c1.5,0.1,3.5,0.27,4.66,0.37c4.19,0.35,8.37,0.93,12.53,1.65c0.26,0.04,0.33-0.27,0.07-0.34
			c-4.08-1.13-8.21-2.11-12.39-2.87c-1.34-0.24-3.12-0.5-4.46-0.72c-0.58-0.09-0.64-0.37-0.15-1.1c3.72-5.59,8.89-10.34,13.58-14.23
			c0.2-0.16-0.02-0.45-0.26-0.31c-5.8,3.33-11.86,7.53-18.87,13.86c-0.72,0.65-1.26,0.98-1.85,0.96c-1.53-0.07-6.34-0.47-11.71-0.51
			c-0.8-0.01-0.61-0.54-0.44-0.84c2.56-4.61,9.25-10.11,12.36-12.84c0.23-0.2,0.07-0.51-0.21-0.4c-1.28,0.49-10.88,6.07-18.03,13.03
			c-0.9,0.88-1.49,1.16-2.31,1.27c-5.06,0.66-9.12,1.05-14.21,2.05c-0.14-1.88-0.37-3.33-0.65-4.45l1.04-1.2
			c9.85-11.4,28.29-24.93,60.56-25.53c2.32,4.48,7.87,17.09,7.87,35.3c0,18.09-5.56,30.78-7.88,35.29
			C792.79,775.89,773.26,761.79,761.87,749.91z M740.21,747.83l-2.07,2.17c-11.26,11.83-30.64,25.87-59.48,26.58
			c-2.41-4.73-8.26-18-8.26-35.29c0-17.3,5.86-30.58,8.26-35.3c32.18,0.61,50.48,14.1,60.22,25.45l1.77,2.07l2.54-0.99
			c0.86-0.33,2.87-0.89,6.75-0.89c3.99,0,6,0.58,6.85,0.93l1.12,0.46c-0.56,4.57-1.88,11.81-4.82,15.02c-0.73,0.79-1.65,1.45-2.67,2
			c-0.16,0-0.31,0-0.48,0c-5.64,0-7.06-0.72-7.12-0.75L740.21,747.83z"/>
		<path class="st1" d="M726.01,740c-0.79,0.13-1.29-0.15-1.81-0.71c-9.38-10.32-16.66-14.88-20.84-17.5
			c-0.23-0.14-0.66,0.13-0.37,0.43c9.29,9.27,11.34,11.29,15.2,17.88c0.53,0.9-0.26,1.16-1.08,1.26c-1,0.13-4.32,0.33-5.88,0.39
			c-1.19,0.04-3.13,0.06-5.13,0.11c-1.33,0.03-1.84-0.37-2.66-1.13c-5.06-4.73-9.38-8.68-15.14-11.75
			c-0.23-0.12-0.52,0.23-0.37,0.36c5.71,5.21,8.45,8,10.02,11.6c0.31,0.71-0.01,0.96-0.4,0.93c-1.5-0.1-3.5-0.27-4.66-0.37
			c-4.19-0.35-8.37-0.93-12.53-1.65c-0.26-0.04-0.33,0.27-0.07,0.34c4.08,1.13,8.21,2.11,12.39,2.87c1.34,0.24,3.12,0.5,4.46,0.72
			c0.58,0.09,0.64,0.37,0.15,1.1c-3.72,5.59-11.15,14.08-15.85,17.97c-0.2,0.16,0.02,0.45,0.26,0.31
			c5.8-3.33,14.12-11.27,21.13-17.6c0.72-0.65,1.26-0.98,1.85-0.96c1.53,0.07,6.34,0.47,11.71,0.51c0.8,0.01,0.61,0.54,0.44,0.84
			c-2.56,4.61-11.23,13.41-14.34,16.15c-0.23,0.2-0.07,0.51,0.21,0.4c1.28-0.49,13.86-9.64,21.02-16.6c0.9-0.88,1.49-1.16,2.31-1.27
			c5.08-0.66,8.12-0.79,13-1.73c-0.02-0.65-0.03-1.32-0.03-2.06c0-1.3,0.05-2.46,0.13-3.5C736.84,737.88,731.54,739.07,726.01,740z"
			/>
	</g>
	<g>
		<path d="M823.97,702.13c-35.81,0-55.79,15.4-65.72,26.89c-1.04-0.43-2.74-0.91-5.42-1.11c0.3-7.66,0.7-12.07,0.7-12.07
			c0-2.86,11.77-7.52,11.77-19.7c0-12.18-4.54-38.27-5.13-42.8c-0.04-0.31-0.18-1.27-1-1.27c-0.66,0-0.63,0.9-0.63,1.27
			c0,6.43,0.04,34.04,0,36.97c-0.01,0.55-0.03,1.27-1.25,1.27s-1.2-0.76-1.22-1.27c-0.15-3.11-1.87-33.43-2.07-36.97
			c-0.01-0.27-0.03-1.27-0.88-1.27s-0.87,1.01-0.88,1.27c-0.1,3.71-0.89,33.31-1,37.02c-0.02,0.66-0.34,1.22-1.25,1.22
			c-0.91,0-1.23-0.56-1.25-1.22c-0.11-3.71-0.9-33.31-1-37.02c-0.01-0.27,0-1.27-0.88-1.27c-0.88,0-0.86,1.01-0.88,1.27
			c-0.19,3.55-1.91,33.87-2.07,36.97c-0.02,0.5,0,1.27-1.22,1.27s-1.25-0.72-1.25-1.27c-0.04-2.93,0-30.54,0-36.97
			c0-0.37,0.03-1.27-0.63-1.27c-0.78,0-0.96,0.96-1,1.27c-0.59,4.53-5.13,30.61-5.13,42.8c0,12.18,11.77,16.84,11.77,19.7
			c0,0,0.34,4.41,0.59,12.07c-2.54,0.2-4.2,0.64-5.25,1.05c-9.84-11.48-29.68-26.82-65.42-26.82c0,0-9.84,16.05-9.84,39.17
			c0,23.11,9.84,39.17,9.84,39.17c32.33,0,53.53-16.24,64.54-27.8c0.83,0.47,2.57,1.01,6.27,1.18c-0.01,0.28-0.01,0.56-0.02,0.85
			c-0.65,30.92-6.45,46.41-6.45,62.4c0,5.2,2.75,8.09,9.17,8.09s9.17-2.9,9.17-8.09c0-15.98-5.8-31.48-6.45-62.4
			c-0.01-0.29-0.01-0.57-0.02-0.85c0.23-0.01,0.44-0.02,0.65-0.04c0.06,0,0.11-0.01,0.16-0.01c3.4-0.23,4.96-0.77,5.67-1.23
			c11.09,11.57,32.47,27.89,64.88,27.89c0,0,9.48-14.87,9.48-39.17C833.45,717,823.97,702.13,823.97,702.13z M761.87,749.91
			l-1.39-1.49c0.2-1.4,0.36-3.24,0.41-5.72c2.48-0.56,7.85-1.76,13.15-2.65c0.79-0.13,1.29,0.15,1.81,0.71
			c9.38,10.32,19.93,19.2,24.11,21.82c0.23,0.14,0.66-0.13,0.37-0.43c-9.29-9.27-14.61-15.61-18.47-22.2
			c-0.53-0.9,0.26-1.16,1.08-1.26c1-0.13,4.32-0.33,5.88-0.39c1.19-0.05,3.13-0.06,5.13-0.11c1.33-0.03,2.16,1,2.95,1.78
			c4.6,4.56,11.09,9.91,19.28,14.97c0.22,0.14,0.4-0.09,0.26-0.23c-6.35-6.14-11.31-10.85-14.34-15.6c-0.42-0.65,0.01-0.96,0.4-0.93
			c1.5,0.1,3.5,0.27,4.66,0.37c4.19,0.35,8.37,0.93,12.53,1.65c0.26,0.04,0.33-0.27,0.07-0.34c-4.08-1.13-8.21-2.11-12.39-2.87
			c-1.34-0.24-3.12-0.5-4.46-0.72c-0.58-0.09-0.64-0.37-0.15-1.1c3.72-5.59,8.89-10.34,13.58-14.23c0.2-0.16-0.02-0.45-0.26-0.31
			c-5.8,3.33-11.86,7.53-18.87,13.86c-0.72,0.65-1.26,0.98-1.85,0.96c-1.53-0.07-6.34-0.47-11.71-0.51
			c-0.8-0.01-0.61-0.54-0.44-0.84c2.56-4.61,9.25-10.11,12.36-12.84c0.23-0.2,0.07-0.51-0.21-0.4c-1.28,0.49-10.88,6.07-18.03,13.03
			c-0.9,0.88-1.49,1.16-2.31,1.27c-5.06,0.66-9.12,1.05-14.21,2.05c-0.14-1.88-0.37-3.33-0.65-4.45l1.04-1.2
			c9.85-11.4,28.29-24.93,60.56-25.53c2.32,4.48,7.87,17.09,7.87,35.3c0,18.09-5.56,30.78-7.88,35.29
			C792.79,775.89,773.26,761.79,761.87,749.91z M740.21,747.83l-2.07,2.17c-11.26,11.83-30.64,25.87-59.48,26.58
			c-2.41-4.73-8.26-18-8.26-35.29c0-17.3,5.86-30.58,8.26-35.3c32.18,0.61,50.48,14.1,60.22,25.45l1.77,2.07l2.54-0.99
			c0.86-0.33,2.87-0.89,6.75-0.89c3.99,0,6,0.58,6.85,0.93l1.12,0.46c-0.56,4.57-1.88,11.81-4.82,15.02c-0.73,0.79-1.65,1.45-2.67,2
			c-0.16,0-0.31,0-0.48,0c-5.64,0-7.06-0.72-7.12-0.75L740.21,747.83z"/>
		<path d="M726.01,740c-0.79,0.13-1.29-0.15-1.81-0.71c-9.38-10.32-16.66-14.88-20.84-17.5c-0.23-0.14-0.66,0.13-0.37,0.43
			c9.29,9.27,11.34,11.29,15.2,17.88c0.53,0.9-0.26,1.16-1.08,1.26c-1,0.13-4.32,0.33-5.88,0.39c-1.19,0.04-3.13,0.06-5.13,0.11
			c-1.33,0.03-1.84-0.37-2.66-1.13c-5.06-4.73-9.38-8.68-15.14-11.75c-0.23-0.12-0.52,0.23-0.37,0.36c5.71,5.21,8.45,8,10.02,11.6
			c0.31,0.71-0.01,0.96-0.4,0.93c-1.5-0.1-3.5-0.27-4.66-0.37c-4.19-0.35-8.37-0.93-12.53-1.65c-0.26-0.04-0.33,0.27-0.07,0.34
			c4.08,1.13,8.21,2.11,12.39,2.87c1.34,0.24,3.12,0.5,4.46,0.72c0.58,0.09,0.64,0.37,0.15,1.1c-3.72,5.59-11.15,14.08-15.85,17.97
			c-0.2,0.16,0.02,0.45,0.26,0.31c5.8-3.33,14.12-11.27,21.13-17.6c0.72-0.65,1.26-0.98,1.85-0.96c1.53,0.07,6.34,0.47,11.71,0.51
			c0.8,0.01,0.61,0.54,0.44,0.84c-2.56,4.61-11.23,13.41-14.34,16.15c-0.23,0.2-0.07,0.51,0.21,0.4c1.28-0.49,13.86-9.64,21.02-16.6
			c0.9-0.88,1.49-1.16,2.31-1.27c5.08-0.66,8.12-0.79,13-1.73c-0.02-0.65-0.03-1.32-0.03-2.06c0-1.3,0.05-2.46,0.13-3.5
			C736.84,737.88,731.54,739.07,726.01,740z"/>
	</g>
</g>
</svg>
