<?xml version="1.0" encoding="utf-8"?>
<!-- Generator: Adobe Illustrator 21.1.0, SVG Export Plug-In . SVG Version: 6.00 Build 0)  -->
<!DOCTYPE svg PUBLIC "-//W3C//DTD SVG 1.1//EN" "http://www.w3.org/Graphics/SVG/1.1/DTD/svg11.dtd">
<svg version="1.1" id="Layer_1" xmlns="http://www.w3.org/2000/svg" xmlns:xlink="http://www.w3.org/1999/xlink" x="0px" y="0px"
	 width="1000px" height="428.3px" viewBox="0 0 1000 428.3" style="enable-background:new 0 0 1000 428.3;" xml:space="preserve">
<style type="text/css">
	.st0{fill:#00B156;}
	.st1{fill:#000006;}
	.st2{fill:#FFFFFF;}
</style>
<g>
	<rect x="666.6" y="0" class="st0" width="333.3" height="428.3"/>
</g>
<g>
	<rect x="0" y="0" class="st0" width="333.3" height="428.3"/>
</g>
<rect x="333.3" y="0" class="st1" width="333.3" height="428.3"/>
<g>
	<g>
		<polygon class="st0" points="666.7,26.8 639.9,0 632.9,0 666.7,33.8 		"/>
	</g>
	<g>
		<polygon class="st0" points="617.2,0 610.2,0 583.4,26.8 556.6,0 549.5,0 583.4,33.8 		"/>
	</g>
	<g>
		<polygon class="st0" points="367.2,0 360.2,0 333.3,26.8 333.3,33.8 		"/>
	</g>
	<g>
		<polygon class="st0" points="533.8,0 526.8,0 500,26.8 473.2,0 466.2,0 500,33.8 		"/>
	</g>
	<g>
		<polygon class="st0" points="526.8,428.3 533.8,428.3 541.7,420.5 549.5,428.3 556.6,428.3 541.7,413.5 		"/>
	</g>
	<g>
		<polygon class="st0" points="443.5,428.3 450.5,428.3 458.4,420.5 466.2,428.3 473.2,428.3 458.4,413.5 		"/>
	</g>
	<g>
		<polygon class="st0" points="610.2,428.3 617.2,428.3 625,420.5 632.9,428.3 639.9,428.3 625,413.5 		"/>
	</g>
	<g>
		<polygon class="st0" points="360.2,428.3 367.2,428.3 375,420.5 382.9,428.3 389.9,428.3 375,413.5 		"/>
	</g>
	<g>
		<polygon class="st0" points="500.1,5.3 505.2,0 494.8,0 		"/>
	</g>
	<g>
		<polygon class="st0" points="583.3,5.3 588.6,0 578.1,0 		"/>
	</g>
	<g>
		<polygon class="st0" points="416.7,5.3 421.9,0 411.4,0 		"/>
	</g>
	<g>
		<path class="st0" d="M666.7,226.7L527.8,370.2l-10.7-10.8l149.5-154.1l0-7.1l-93.6-95.9l9.5-9.7l84.1,84.1v-7l-52.4-52.4
			l10.8-10.8l41.6,41.7v-7L625,99.4l-14.3,14.3L600,102.9l25-25l41.6,41.7v-7L625,70.8l-28.6,28.6L586.1,89l39-39.7l41.6,41.6v-7
			L625,42.2L499.6,169.9l-41.3-42l-41.7,41.7l-24.4-24.4l10.7-10.9l13.7,13.7l41.7-41.7l41.7,41.7L625,20.7l41.6,41.6v-7L625,13.7
			l-41.3,42.1l-42-42L500,55.4l-41.7-41.7l-27.8,27.8l-10.7-10.9L450.5,0l-7,0l-27.1,27.1L389.9,0l-7,0l72.4,73.9l-10,10.1L375,13.7
			l-41.7,41.7v7L375,20.7l66.9,66.8l-10.7,10.9L375,42.3l-41.7,41.7v7L375,49.3l52.7,52.7l-10.7,10.9l-42-42l-41.7,41.7v7L375,77.8
			l10.8,10.8L333.3,141v7l56-55.9l10.8,10.8l-66.7,66.7v7l70.2-70.2l10,10l-80.2,81.8l0,7.1l41.3-42.1l42,42l41.6-41.6L580,287.4
			l-10.6,10.9L458.4,185l-41.3,42.1l-42-42l-41.7,41.7v7.1l41.7-41.7l38.6,38.6l-10.7,10.9L375,213.6l-41.7,41.7l0,7l41.7-41.7
			l24.4,24.4l-10.7,10.9L375,242.1l-41.7,41.7v7l41.7-41.7l10.3,10.3l-51.9,52.9l0,7l84.5,84.5l40.5-40.5l52.2,52.2l-10.6,11
			l-41.6-41.6l-41.7,41.7l-83.3-85.7l0,7l10.7,10.7l-10.7,10.9l0,7.1l14.2-14.4l10.9,10.9l-25.1,25v7l28.6-28.5l10.8,10.8
			l-39.3,39.3l0,1.8l5.3,0l37.6-37.6l35.2,37.6h10.5l36.4-36.4l36.4,36.4h10.4l36.5-37.1l36.5,37.1h10.5l36.4-36.4l36.4,36.4l5.2,0
			l0-1.8L625,384.9l-41.7,41.7l-38-38.6l10.3-10.6l27.7,27.7l41.7-41.7l41.6,41.7v-7L625,356.4L583.4,398l-24.3-24.3l10.6-11
			l13.7,13.7l41.7-41.7l41.6,41.7l0-7.1L625,327.8l-41.7,41.7l-10.3-10.3l51.5-53.4l42,42l0-7l-38.6-38.6l10.6-11l28,28l0-7
			l-24.6-24.5l10.6-11l14,14v-7l-10.5-10.6l10.5-11l0-7L541.9,384.4l-10.6-10.7l135.4-139.9V226.7z M434,45.1l24.3-24.3L500,62.4
			l41.7-41.7l38.6,38.6l-10.7,10.9l-27.9-27.9L500,83.9l-41.7-41.7l-13.7,13.7L434,45.1z M448.1,59.5l10.2-10.2L500,90.9l41.7-41.7
			L552.5,60L500,112.5L448.1,59.5z M458.8,77.4l41.2,42.1l56-56l10.1,10.1L500,141l-41.7-41.7L416.7,141l-10.3-10.3L458.8,77.4z
			 M569.6,105.8l93.6,95.9l-10.6,10.9l-93.7-95.9L569.6,105.8z M541.7,192.1l41.7,41.7l42-42l10.6,10.9l-52.6,52.6l-52-52.9
			L541.7,192.1z M527.9,198.8l-10.7-10.9l24.4-24.4l41.7,41.7l27.9-27.9l10.6,10.9l-38.5,38.5L541.7,185L527.9,198.8z M555.4,120.2
			l52.3,53.6l-10.1,10.1L544.8,131L555.4,120.2z M541.3,134.6l52.8,52.8l-10.8,10.8l-41.7-41.7l-27.9,27.9l-10.7-10.9L541.3,134.6z
			 M458.4,156.5l-41.7,41.7l-38.6-38.6l10.7-10.9l27.9,27.9l41.6-41.7l125,127.3l56.1-56.1l9.7,10l-65.7,67.7L458.4,156.5z
			 M565.9,301.9l-52.3,53.9L503,345l53.1-53.1L565.9,301.9z M552.6,288.3l-53.1,53.1l-66-67l10.7-10.9l55.8,55.8l41.9-41.9
			L552.6,288.3z M538.5,273.9L500,312.4L447.7,260l10.7-10.9l41.7,41.6l27.8-27.8L538.5,273.9z M336.9,315.8l121.5-123.8l51.9,53
			L500,255.3l-41.7-41.7L347.6,326.6L336.9,315.8z M351.1,330.1l107.2-109.5l41.6,41.6l13.7-13.7l10.7,10.9L500,283.8l-41.7-41.7
			l-96.7,98.5L351.1,330.1z M392.3,316.5l10.7-10.9l38.8,38.8L431,355.2L392.3,316.5z M427.5,358.7l-10.8,10.8l-38.6-38.6l10.7-10.9
			L427.5,358.7z M406.4,302.1l9.5-9.7l38.9,38.9l-9.6,9.6L406.4,302.1z M514,412l-55.7-55.7l-40.5,40.5l-52.7-52.7l9.5-9.7l42,42
			l41.7-41.7l66.2,66.2L514,412z M537.8,387.4l-9.8,10.1L419.4,288.9l10.7-10.9L537.8,387.4z"/>
	</g>
	<g>
		<polygon class="st0" points="333.3,5.3 338.6,0 333.3,0 		"/>
	</g>
	<g>
		<polygon class="st0" points="666.7,5.3 661.4,0 666.7,0 		"/>
	</g>
</g>
<g>
	<polygon class="st1" points="333.3,26.8 306.5,0 299.5,0 333.3,33.8 	"/>
	<polygon class="st1" points="283.8,0 276.8,0 250,26.8 223.2,0 216.2,0 250,33.8 	"/>
	<polygon class="st1" points="33.8,0 26.8,0 0,26.8 0,33.8 	"/>
	<polygon class="st1" points="200.5,0 193.5,0 166.7,26.8 139.9,0 132.9,0 166.7,33.8 	"/>
	<polygon class="st1" points="193.5,428.3 200.5,428.3 208.3,420.5 216.2,428.3 223.2,428.3 208.3,413.5 	"/>
	<polygon class="st1" points="110.1,428.3 117.2,428.3 125,420.5 132.9,428.3 139.9,428.3 125,413.5 	"/>
	<polygon class="st1" points="276.8,428.3 283.8,428.3 291.7,420.5 299.5,428.3 306.5,428.3 291.7,413.5 	"/>
	<polygon class="st1" points="26.8,428.3 33.8,428.3 41.7,420.5 49.5,428.3 56.5,428.3 41.7,413.5 	"/>
	<polygon class="st1" points="166.7,5.3 171.8,0 161.4,0 	"/>
	<polygon class="st1" points="250,5.3 255.3,0 244.8,0 	"/>
	<polygon class="st1" points="83.3,5.3 88.6,0 78.1,0 	"/>
	<path class="st1" d="M333.3,226.7L194.5,370.2l-10.7-10.8l149.5-154.1l0-7.1l-93.6-95.9l9.5-9.7l84.1,84.1v-7l-52.4-52.4l10.8-10.8
		l41.6,41.7v-7l-41.6-41.7l-14.3,14.3l-10.8-10.8l25-25l41.6,41.7v-7l-41.6-41.7l-28.6,28.6L252.7,89l39-39.7l41.6,41.6v-7
		l-41.7-41.7L166.3,169.9l-41.3-42l-41.7,41.7l-24.4-24.4l10.7-10.9l13.7,13.7l41.7-41.7l41.7,41.7l125-127.3l41.6,41.6v-7
		l-41.7-41.7l-41.3,42.1l-42-42l-41.7,41.7L125,13.7L97.2,41.5L86.5,30.6L117.2,0l-7,0L83.1,27.1L56.6,0l-7,0L122,73.9L112,84
		L41.7,13.7L0,55.4v7l41.7-41.7l66.9,66.8L97.9,98.4L41.7,42.3L0,83.9v7l41.7-41.7L94.4,102l-10.7,10.9l-42-42L0,112.5v7l41.7-41.7
		l10.8,10.8L0,141v7l56-55.9l10.8,10.8L0,169.6v7l70.2-70.2l10,10L0,198.1l0,7.1l41.3-42.1l42,42l41.6-41.6l121.7,123.9L236,298.4
		L125,185l-41.3,42.1l-42-42L0,226.7v7.1l41.7-41.7l38.6,38.6l-10.7,10.9l-27.9-27.9L0,255.3l0,7l41.7-41.7L66.1,245l-10.7,10.9
		l-13.7-13.7L0,283.8v7l41.7-41.7l10.3,10.3L0,312.3l0,7l84.5,84.5l40.5-40.5l52.2,52.2l-10.6,11L125,384.9l-41.7,41.7L0,340.9l0,7
		l10.7,10.7L0,369.5l0,7.1l14.2-14.4L25.1,373L0,398v7l28.6-28.5l10.8,10.8L0,426.6l0,1.8l5.3,0l37.6-37.6l35.2,37.6h10.5l36.4-36.4
		l36.4,36.4h10.4l36.5-37.1l36.5,37.1h10.5l36.4-36.4l36.4,36.4l5.2,0l0-1.8l-41.6-41.7L250,426.6L212,388l10.3-10.6l27.7,27.7
		l41.7-41.7l41.6,41.7v-7l-41.6-41.7L250,398l-24.3-24.3l10.6-11l13.7,13.7l41.7-41.7l41.6,41.7l0-7.1l-41.6-41.7L250,369.5
		l-10.3-10.3l51.5-53.4l42,42l0-7l-38.6-38.6l10.6-11l28,28l0-7l-24.6-24.5l10.6-11l14,14v-7l-10.5-10.6l10.5-11l0-7L208.5,384.4
		L198,373.7l135.4-139.9V226.7z M100.7,45.1L125,20.7l41.7,41.7l41.7-41.7l38.6,38.6l-10.7,10.9l-27.9-27.9l-41.7,41.7L125,42.3
		l-13.7,13.7L100.7,45.1z M114.8,59.5L125,49.3l41.7,41.7l41.7-41.7L219.1,60l-52.4,52.4L114.8,59.5z M125.4,77.4l41.2,42.1l56-56
		l10.1,10.1L166.7,141L125,99.4L83.3,141l-10.3-10.3L125.4,77.4z M236.2,105.8l93.6,95.9l-10.6,10.9l-93.7-95.9L236.2,105.8z
		 M208.3,192.1l41.7,41.7l42-42l10.6,10.9L250,255.2l-52-52.9L208.3,192.1z M194.6,198.8l-10.7-10.9l24.4-24.4l41.7,41.7l27.9-27.9
		l10.6,10.9L250,226.7L208.3,185L194.6,198.8z M222.1,120.2l52.3,53.6l-10.1,10.1L211.5,131L222.1,120.2z M208,134.6l52.8,52.8
		L250,198.1l-41.7-41.7l-27.9,27.9l-10.7-10.9L208,134.6z M125,156.5l-41.7,41.7l-38.6-38.6l10.7-10.9l27.9,27.9L125,135l125,127.3
		l56.1-56.1l9.7,10l-65.7,67.7L125,156.5z M232.6,301.9l-52.3,53.9L169.6,345l53.1-53.1L232.6,301.9z M219.3,288.3l-53.1,53.1
		l-66-67l10.7-10.9l55.8,55.8l41.9-41.9L219.3,288.3z M205.1,273.9l-38.5,38.5L114.4,260l10.7-10.9l41.7,41.6l27.8-27.8L205.1,273.9
		z M3.5,315.9L125,192.1l51.9,53l-10.2,10.2L125,213.6L14.3,326.6L3.5,315.9z M17.8,330.1L125,220.6l41.6,41.6l13.7-13.7l10.7,10.9
		l-24.3,24.3L125,242.1l-96.7,98.5L17.8,330.1z M58.9,316.5l10.7-10.9l38.8,38.8l-10.8,10.8L58.9,316.5z M94.1,358.7l-10.8,10.8
		l-38.6-38.6L55.4,320L94.1,358.7z M73.1,302.1l9.5-9.7l38.9,38.9l-9.6,9.6L73.1,302.1z M180.7,412L125,356.4l-40.5,40.5l-52.7-52.7
		l9.5-9.7l42,42l41.7-41.7l66.2,66.2L180.7,412z M204.5,387.4l-9.8,10.1L86.1,288.9L96.7,278L204.5,387.4z"/>
	<polygon class="st1" points="0,5.3 5.3,0 0,0 	"/>
	<polygon class="st1" points="333.3,5.3 328.1,0 333.3,0 	"/>
</g>
<g>
	<polygon class="st2" points="1000,26.8 973.2,0 966.2,0 1000,33.8 	"/>
	<polygon class="st2" points="950.5,0 943.5,0 916.7,26.8 889.9,0 882.9,0 916.7,33.8 	"/>
	<polygon class="st2" points="700.5,0 693.5,0 666.7,26.8 666.7,33.8 	"/>
	<polygon class="st2" points="867.2,0 860.2,0 833.4,26.8 806.6,0 799.5,0 833.4,33.8 	"/>
	<polygon class="st2" points="860.2,428.3 867.2,428.3 875,420.5 882.9,428.3 889.9,428.3 875,413.5 	"/>
	<polygon class="st2" points="776.8,428.3 783.8,428.3 791.7,420.5 799.5,428.3 806.6,428.3 791.7,413.5 	"/>
	<polygon class="st2" points="943.5,428.3 950.5,428.3 958.4,420.5 966.2,428.3 973.2,428.3 958.4,413.5 	"/>
	<polygon class="st2" points="693.5,428.3 700.5,428.3 708.4,420.5 716.2,428.3 723.2,428.3 708.4,413.5 	"/>
	<polygon class="st2" points="833.4,5.3 838.5,0 828.1,0 	"/>
	<polygon class="st2" points="916.7,5.3 922,0 911.5,0 	"/>
	<polygon class="st2" points="750,5.3 755.3,0 744.8,0 	"/>
	<path class="st2" d="M1000,226.7L861.2,370.2l-10.7-10.8L1000,205.2l0-7.1l-93.6-95.9l9.5-9.7l84.1,84.1v-7l-52.4-52.4l10.8-10.8
		L1000,148v-7l-41.6-41.7l-14.3,14.3l-10.8-10.8l25-25l41.6,41.7v-7l-41.6-41.7l-28.6,28.6L919.4,89l39-39.7l41.6,41.6v-7
		l-41.7-41.7L833,169.9l-41.3-42L750,169.6l-24.4-24.4l10.7-10.9l13.7,13.7l41.7-41.7l41.7,41.7l125-127.3l41.6,41.6v-7l-41.7-41.7
		l-41.3,42.1l-42-42l-41.7,41.7l-41.7-41.7l-27.8,27.8l-10.7-10.9L783.8,0l-7,0l-27.1,27.1L723.2,0l-7,0l72.4,73.9l-10,10.1
		l-70.3-70.3l-41.7,41.7v7l41.7-41.7l66.9,66.8l-10.7,10.9l-56.2-56.2l-41.7,41.7v7l41.7-41.7l52.7,52.7l-10.7,10.9l-42-42
		l-41.7,41.7v7l41.7-41.7l10.8,10.8L666.7,141v7l56-55.9l10.8,10.8l-66.7,66.7v7l70.2-70.2l10,10l-80.2,81.8l0,7.1l41.3-42.1l42,42
		l41.6-41.6l121.7,123.9l-10.6,10.9L791.7,185l-41.3,42.1l-42-42l-41.7,41.7v7.1l41.7-41.7l38.6,38.6l-10.7,10.9l-27.9-27.9
		l-41.7,41.7l0,7l41.7-41.7l24.4,24.4l-10.7,10.9l-13.7-13.7l-41.7,41.7v7l41.7-41.7l10.3,10.3l-51.9,52.9l0,7l84.5,84.5l40.5-40.5
		l52.2,52.2l-10.6,11l-41.6-41.6L750,426.6l-83.3-85.7l0,7l10.7,10.7l-10.7,10.9l0,7.1l14.2-14.4l10.9,10.9l-25.1,25v7l28.6-28.5
		l10.8,10.8l-39.3,39.3l0,1.8l5.3,0l37.6-37.6l35.2,37.6h10.5l36.4-36.4l36.4,36.4h10.4l36.5-37.1l36.5,37.1H922l36.4-36.4
		l36.4,36.4l5.2,0l0-1.8l-41.6-41.7l-41.7,41.7l-38-38.6l10.3-10.6l27.7,27.7l41.7-41.7L1000,405v-7l-41.6-41.7L916.7,398
		l-24.3-24.3l10.6-11l13.7,13.7l41.7-41.7l41.6,41.7l0-7.1l-41.6-41.7l-41.7,41.7l-10.3-10.3l51.5-53.4l42,42l0-7l-38.6-38.6
		l10.6-11l28,28l0-7l-24.6-24.5l10.6-11l14,14v-7l-10.5-10.6l10.5-11l0-7L875.2,384.4l-10.6-10.7L1000,233.8V226.7z M767.4,45.1
		l24.3-24.3l41.7,41.7L875,20.7l38.6,38.6l-10.7,10.9L875,42.3l-41.7,41.7l-41.7-41.7L778,55.9L767.4,45.1z M781.5,59.5l10.2-10.2
		l41.7,41.7L875,49.3L885.8,60l-52.4,52.4L781.5,59.5z M792.1,77.4l41.2,42.1l56-56l10.1,10.1L833.3,141l-41.7-41.7L750,141
		l-10.3-10.3L792.1,77.4z M902.9,105.8l93.6,95.9L986,212.6l-93.7-95.9L902.9,105.8z M875,192.1l41.7,41.7l42-42l10.6,10.9
		l-52.6,52.6l-52-52.9L875,192.1z M861.3,198.8l-10.7-10.9l24.4-24.4l41.7,41.7l27.9-27.9l10.6,10.9l-38.5,38.5L875,185L861.3,198.8
		z M888.8,120.2l52.3,53.6L931,183.9L878.1,131L888.8,120.2z M874.7,134.6l52.8,52.8l-10.8,10.8L875,156.5l-27.9,27.9l-10.7-10.9
		L874.7,134.6z M791.7,156.5L750,198.1l-38.6-38.6l10.7-10.9l27.9,27.9l41.6-41.7l125,127.3l56.1-56.1l9.7,10l-65.7,67.7
		L791.7,156.5z M899.3,301.9L847,355.8L836.3,345l53.1-53.1L899.3,301.9z M886,288.3l-53.1,53.1l-66-67l10.7-10.9l55.8,55.8
		l41.9-41.9L886,288.3z M871.8,273.9l-38.5,38.5L781,260l10.7-10.9l41.7,41.6l27.8-27.8L871.8,273.9z M670.2,315.8l121.5-123.8
		l51.9,53l-10.2,10.2l-41.7-41.7L681,326.6L670.2,315.8z M684.5,330.1l107.2-109.5l41.6,41.6l13.7-13.7l10.7,10.9l-24.3,24.3
		l-41.7-41.7L695,340.6L684.5,330.1z M725.6,316.5l10.7-10.9l38.8,38.8l-10.8,10.8L725.6,316.5z M760.8,358.7L750,369.5l-38.6-38.6
		l10.7-10.9L760.8,358.7z M739.8,302.1l9.5-9.7l38.9,38.9l-9.6,9.6L739.8,302.1z M847.4,412l-55.7-55.7l-40.5,40.5l-52.7-52.7
		l9.5-9.7l42,42l41.7-41.7l66.2,66.2L847.4,412z M871.1,387.4l-9.8,10.1L752.7,288.9l10.7-10.9L871.1,387.4z"/>
	<polygon class="st2" points="666.7,5.3 671.9,0 666.7,0 	"/>
	<polygon class="st2" points="1000,5.3 994.7,0 1000,0 	"/>
</g>
</svg>
