<?xml version="1.0" encoding="utf-8"?>
<!-- Generator: Adobe Illustrator 21.1.0, SVG Export Plug-In . SVG Version: 6.00 Build 0)  -->
<!DOCTYPE svg PUBLIC "-//W3C//DTD SVG 1.1//EN" "http://www.w3.org/Graphics/SVG/1.1/DTD/svg11.dtd">
<svg version="1.1" id="Layer_1" xmlns="http://www.w3.org/2000/svg" xmlns:xlink="http://www.w3.org/1999/xlink" x="0px" y="0px"
	 width="1000px" height="339px" viewBox="0 0 1000 339" style="enable-background:new 0 0 1000 339;" xml:space="preserve">
<style type="text/css">
	.st0{fill:#000006;}
	.st1{fill:#EC0089;}
	.st2{fill:#00A8D5;}
	.st3{clip-path:url(#SVGID_2_);}
	.st4{opacity:0.5;fill:#FFFFFF;}
	.st5{opacity:0.4;fill:#FFFFFF;}
	.st6{opacity:0.7;fill:#FFFFFF;}
	.st7{fill:#72808A;}
	.st8{fill:url(#SVGID_3_);}
	.st9{fill:none;stroke:#000006;stroke-width:1.6358;stroke-miterlimit:10;}
	.st10{fill:none;stroke:#EDEEF0;stroke-width:1.6358;stroke-miterlimit:10;}
	.st11{fill:#000006;stroke:#000006;stroke-width:1.3424;stroke-miterlimit:10;}
	.st12{fill:url(#SVGID_4_);}
	.st13{fill:url(#SVGID_5_);}
	.st14{fill:url(#SVGID_6_);}
	.st15{fill:url(#SVGID_7_);}
	.st16{fill:url(#SVGID_8_);}
	.st17{fill:url(#SVGID_9_);}
	.st18{fill:url(#SVGID_10_);}
	.st19{fill:url(#SVGID_11_);}
	.st20{fill:url(#SVGID_12_);}
	.st21{clip-path:url(#SVGID_14_);}
	.st22{fill:#B2E5F2;}
</style>
<path class="st0" d="M166.07,126.37"/>
<g>
	<path class="st0" d="M166.37,124.54c0,0-0.94,10.29-0.61,25.82c0.43,20.54,4.29,30.84,4.29,41.45c0,3.45-1.83,5.38-6.09,5.38
		c-4.26,0-6.09-1.93-6.09-5.38c0-10.62,3.85-20.91,4.29-41.45c0.33-15.53-0.48-25.82-0.48-25.82c0-1.9-7.82-5-7.82-13.09
		c0-8.09,3.02-25.42,3.41-28.43c0.03-0.21,0.15-0.85,0.67-0.85c0.44,0,0.42,0.6,0.42,0.85c0,4.27-0.02,22.62,0,24.57
		c0,0.37,0.02,0.84,0.83,0.84s0.79-0.51,0.81-0.84c0.1-2.06,1.24-22.21,1.37-24.57c0.01-0.18,0-0.85,0.58-0.85
		c0.58,0,0.58,0.67,0.58,0.85c0.07,2.46,0.59,22.13,0.67,24.6c0.01,0.44,0.23,0.81,0.83,0.81c0.6,0,0.82-0.37,0.83-0.81
		c0.07-2.46,0.6-22.13,0.67-24.6c0-0.18,0.02-0.85,0.58-0.85c0.56,0,0.57,0.67,0.58,0.85c0.13,2.36,1.27,22.5,1.37,24.57
		c0.02,0.33,0,0.84,0.81,0.84c0.81,0,0.83-0.48,0.83-0.84c0.02-1.95,0-20.29,0-24.57c0-0.25-0.02-0.85,0.42-0.85
		c0.54,0,0.64,0.64,0.67,0.85c0.39,3.01,3.41,20.34,3.41,28.43C174.19,119.54,166.37,122.64,166.37,124.54"/>
	<g>
		<path class="st0" d="M81.73,101.61L85,95.67l14.45,7.93l4.09-7.45l5.18,2.84l-7.35,13.39L81.73,101.61z"/>
		<path class="st0" d="M98.01,76.97l12.66-11.33l3.76,4.2l-7.61,6.81l1.75,1.95l7.43-6.65l3.76,4.2l-7.43,6.65l1.9,2.13l7.61-6.81
			l3.76,4.2l-12.66,11.33L98.01,76.97z"/>
		<path class="st0" d="M129.05,62.07l-5.56,2.28l-2.24-5.47l17.36-7.12l2.24,5.47l-5.53,2.27l6.26,15.25l-6.27,2.57L129.05,62.07z"
			/>
		<path class="st0" d="M156.16,54.82l-6,0.32l-0.31-5.9l18.74-1l0.31,5.9l-5.97,0.32l0.88,16.46l-6.77,0.36L156.16,54.82z"/>
		<path class="st0" d="M181.62,49.68l6.55,2.13l-4.01,12.33c-0.66,2.04-0.14,4.02,2.51,4.88c2.62,0.85,4.2-0.44,4.87-2.48
			l4.01-12.33l6.55,2.13l-4.07,12.52c-1.72,5.3-6.01,8.18-13.2,5.84c-7.19-2.34-9-7.2-7.28-12.47L181.62,49.68z"/>
		<path class="st0" d="M206.67,71.45c4.49-5.26,11.56-5.37,16.77-0.92c4.6,3.92,4.62,8.45,3.64,11.67l-6.21-1.72
			c0.7-1.7,0.35-3.98-1.31-5.4c-2.35-2.01-5.62-1.53-7.65,0.84c-2.03,2.38-1.98,5.68,0.37,7.69c1.66,1.42,3.97,1.4,5.54,0.44
			l2.7,5.84c-2.94,1.42-7.52,2.19-12.12-1.74C203.18,83.7,202.2,76.68,206.67,71.45z"/>
		<path class="st0" d="M239.17,88.48l8.1,14.93l-4.96,2.69l-4.87-8.97l-2.3,1.25l4.76,8.76l-4.96,2.69l-4.76-8.76l-2.51,1.36
			l4.87,8.97l-4.96,2.69l-8.1-14.93L239.17,88.48z"/>
	</g>
	<g>
		<path class="st0" d="M86.13,158.8l-24.85-4.39l-0.52-3.85l22.82-10.68l-23.83,3.2l-1.19-8.87l37.22-5l1.61,12l-19.52,9.04
			l21.22,3.63l1.6,11.89l-37.22,4.99L62.3,162L86.13,158.8z"/>
		<path class="st0" d="M102.2,168.55l13,18.53l-6.41,4.49l-7.76-11.06l-5.53,3.88l7.53,10.74l-6.41,4.5l-7.53-10.74l-5.99,4.2
			l7.76,11.06l-6.41,4.49l-13-18.53L102.2,168.55z"/>
		<path class="st0" d="M113.97,224.78l-9.63-6.37l-4.41,4.11l-7.84-5.19l29.98-25.2l9.16,6.06l-11.48,37.44l-7.84-5.19
			L113.97,224.78z M110.17,212.88l6.67,4.41l5.43-15.45L110.17,212.88z"/>
		<path class="st0" d="M139.65,202.64l8.9,1.98l-6.41,28.91l11.82,2.62l-1.72,7.75l-20.72-4.6L139.65,202.64z"/>
		<path class="st0" d="M171.22,207.2l14.47-4.29c7.83-2.32,13.34,2.03,15.23,8.4c1.87,6.31-0.42,12.86-8.24,15.18l-5.72,1.7
			l3.68,12.42l-8.75,2.59L171.22,207.2z M186.82,210.73l-4.64,1.37l2.54,8.58l4.64-1.38c2.32-0.69,3.45-2.84,2.68-5.43
			C191.26,211.24,189.15,210.05,186.82,210.73z"/>
		<path class="st0" d="M223.91,208.98l-2.56,2.21l8.46,9.8l-6.91,5.96l-24.53-28.43l11.59-10c5.54-4.78,12.54-3.83,17.06,1.42
			c4.16,4.82,3.78,9.38,2.46,12.16l14.31,6.84l-7.67,6.62L223.91,208.98z M214.02,195.36l-3.62,3.13l5.85,6.78l3.62-3.13
			c1.83-1.58,2.01-4.04,0.25-6.09C218.28,193.92,215.85,193.78,214.02,195.36z"/>
		<path class="st0" d="M219.52,179.09l10.34-20.13l6.96,3.58l-6.17,12.02l6.01,3.09l5.99-11.67l6.96,3.57l-5.99,11.67l6.51,3.34
			l6.17-12.02l6.96,3.57l-10.34,20.13L219.52,179.09z"/>
		<path class="st0" d="M231.02,155.35l0.91-15.06c0.5-8.15,6.47-11.85,13.1-11.44c6.58,0.4,11.95,4.79,11.45,12.94l-0.36,5.96
			l12.92,0.79l-0.55,9.1L231.02,155.35z M239.67,141.89l-0.29,4.83l8.94,0.54l0.29-4.83c0.15-2.42-1.49-4.21-4.19-4.37
			C241.67,137.9,239.82,139.48,239.67,141.89z"/>
	</g>
</g>
<path class="st1" d="M213.17,115.44c-23.79,0-37.07,10.23-43.66,17.86c-0.91-0.38-2.58-0.81-5.52-0.81c-2.82,0-4.47,0.4-5.41,0.76
	c-6.54-7.63-19.72-17.82-43.46-17.82c0,0-6.53,10.67-6.53,26.02c0,15.36,6.53,26.02,6.53,26.02c21.48,0,35.57-10.79,42.88-18.47
	c0.67,0.38,2.25,0.83,5.99,0.83c3.92,0,5.47-0.5,6.08-0.88c7.37,7.69,21.57,18.53,43.1,18.53c0,0,6.3-9.88,6.3-26.02
	C219.46,125.32,213.17,115.44,213.17,115.44z"/>
<g>
	<g>
		<path class="st2" d="M89.99,241.63l9.76,6.47c4.28,2.84,4.69,7.21,2.42,10.64c-2.25,3.4-6.37,4.61-10.65,1.78l-4.22-2.8
			l-3.89,5.87l-5.54-3.67L89.99,241.63z M95.98,252.23l-3.51-2.33l-2.13,3.21l3.51,2.33c0.93,0.62,2.09,0.48,2.73-0.48
			C97.23,253.97,96.91,252.85,95.98,252.23z"/>
		<path class="st2" d="M113.86,276.51l-7.76-3.26l-1.88,2.28l-6.64-2.79l15.95-17.09l7.7,3.24l-1.04,23.36l-6.64-2.79L113.86,276.51
			z M109.81,268.82l4.61,1.94l0.69-8.09L109.81,268.82z"/>
		<path class="st2" d="M141.14,264.07c5,0.99,7.47,4.09,8.4,7.16l-6.04,1.72c-0.45-1.46-1.66-2.78-3.5-3.14
			c-3.13-0.62-5.7,1.35-6.29,4.35c-0.59,3,1.03,5.8,4.16,6.42c1.39,0.27,2.75,0.18,3.71-0.27l0.19-0.94l-4.16-0.82l1.06-5.36
			l10.48,2.08l-1.71,8.65c-2.91,2.17-6.48,3.24-10.7,2.41c-6.52-1.29-11-6.6-9.64-13.47C128.46,265.95,134.62,262.78,141.14,264.07z
			"/>
		<path class="st2" d="M155.83,266.45l16.64,0.27l-0.09,5.52l-10-0.16l-0.04,2.57l9.77,0.16l-0.09,5.52l-9.77-0.16l-0.05,2.8
			l10,0.16l-0.09,5.52l-16.64-0.27L155.83,266.45z"/>
		<path class="st2" d="M194.42,282.39l-8.27,1.59l-0.31,2.94l-7.07,1.36l3.81-23.07l8.2-1.57l12.08,20.01l-7.07,1.36L194.42,282.39z
			 M186.79,278.23l4.91-0.94l-3.91-7.12L186.79,278.23z"/>
		<path class="st2" d="M211.25,267.92l4.61,10.83l-6.11,2.6l-8.59-20.19l6.29-2.68l11.35,7.18l-4.33-10.17l6.11-2.6l8.59,20.19
			l-5.87,2.5L211.25,267.92z"/>
		<path class="st2" d="M231.49,252.74l-4.88,3.29l-3.24-4.8l15.24-10.29l3.24,4.8l-4.85,3.28l9.03,13.38l-5.51,3.72L231.49,252.74z"
			/>
	</g>
	<g>
		<path class="st1" d="M89.99,241.63l9.76,6.47c4.28,2.84,4.69,7.21,2.42,10.64c-2.25,3.4-6.37,4.61-10.65,1.78l-4.22-2.8
			l-3.89,5.87l-5.54-3.67L89.99,241.63z M95.98,252.23l-3.51-2.33l-2.13,3.21l3.51,2.33c0.93,0.62,2.09,0.48,2.73-0.48
			C97.23,253.97,96.91,252.85,95.98,252.23z"/>
		<path class="st1" d="M113.86,276.51l-7.76-3.26l-1.88,2.28l-6.64-2.79l15.95-17.09l7.7,3.24l-1.04,23.36l-6.64-2.79L113.86,276.51
			z M109.81,268.82l4.61,1.94l0.69-8.09L109.81,268.82z"/>
		<path class="st1" d="M141.14,264.07c5,0.99,7.47,4.09,8.4,7.16l-6.04,1.72c-0.45-1.46-1.66-2.78-3.5-3.14
			c-3.13-0.62-5.7,1.35-6.29,4.35c-0.59,3,1.03,5.8,4.16,6.42c1.39,0.27,2.75,0.18,3.71-0.27l0.19-0.94l-4.16-0.82l1.06-5.36
			l10.48,2.08l-1.71,8.65c-2.91,2.17-6.48,3.24-10.7,2.41c-6.52-1.29-11-6.6-9.64-13.47C128.46,265.95,134.62,262.78,141.14,264.07z
			"/>
		<path class="st1" d="M155.83,266.45l16.64,0.27l-0.09,5.52l-10-0.16l-0.04,2.57l9.77,0.16l-0.09,5.52l-9.77-0.16l-0.05,2.8
			l10,0.16l-0.09,5.52l-16.64-0.27L155.83,266.45z"/>
		<path class="st1" d="M194.42,282.39l-8.27,1.59l-0.31,2.94l-7.07,1.36l3.81-23.07l8.2-1.57l12.08,20.01l-7.07,1.36L194.42,282.39z
			 M186.79,278.23l4.91-0.94l-3.91-7.12L186.79,278.23z"/>
		<path class="st1" d="M211.25,267.92l4.61,10.83l-6.11,2.6l-8.59-20.19l6.29-2.68l11.35,7.18l-4.33-10.17l6.11-2.6l8.59,20.19
			l-5.87,2.5L211.25,267.92z"/>
		<path class="st1" d="M231.49,252.74l-4.88,3.29l-3.24-4.8l15.24-10.29l3.24,4.8l-4.85,3.28l9.03,13.38l-5.51,3.72L231.49,252.74z"
			/>
	</g>
</g>
<g>
	<defs>
		<path id="SVGID_1_" d="M213.17,115.44c-23.79,0-37.07,10.23-43.66,17.86c-0.91-0.38-2.58-0.81-5.52-0.81
			c-2.82,0-4.47,0.4-5.41,0.76c-6.54-7.63-19.72-17.82-43.46-17.82c0,0-6.53,10.67-6.53,26.02c0,15.36,6.53,26.02,6.53,26.02
			c21.48,0,35.57-10.79,42.88-18.47c0.67,0.38,2.25,0.83,5.99,0.83c3.92,0,5.47-0.5,6.08-0.88c7.37,7.69,21.57,18.53,43.1,18.53
			c0,0,6.3-9.88,6.3-26.02C219.46,125.32,213.17,115.44,213.17,115.44z"/>
	</defs>
	<clipPath id="SVGID_2_">
		<use xlink:href="#SVGID_1_"  style="overflow:visible;"/>
	</clipPath>
	<g class="st3">
		<g>
			<circle class="st4" cx="130.59" cy="121.39" r="7.1"/>
			<circle class="st4" cx="144.79" cy="147.14" r="7.1"/>
			<circle class="st4" cx="201.45" cy="130.59" r="7.1"/>
			<circle class="st4" cx="115.4" cy="154.24" r="7.1"/>
			<circle class="st5" cx="186.46" cy="130.59" r="11.11"/>
			<circle class="st5" cx="129.46" cy="148.81" r="11.11"/>
			<circle class="st5" cx="199.39" cy="140.04" r="11.11"/>
			<circle class="st5" cx="173.06" cy="155.03" r="11.11"/>
			<circle class="st6" cx="194.35" cy="154.24" r="5.31"/>
			<circle class="st6" cx="138.69" cy="140.04" r="5.31"/>
			<circle class="st6" cx="118.61" cy="128.81" r="5.31"/>
			<circle class="st6" cx="108.3" cy="146.83" r="5.31"/>
			<circle class="st6" cx="155.64" cy="134.24" r="5.31"/>
			<circle class="st6" cx="210.5" cy="134.73" r="5.31"/>
			<circle class="st6" cx="201.45" cy="166.14" r="5.31"/>
			<circle class="st4" cx="125.55" cy="163.82" r="15.52"/>
			<circle class="st4" cx="168.9" cy="137.6" r="15.52"/>
			<circle class="st4" cx="218.46" cy="123.9" r="15.52"/>
			<circle class="st4" cx="210.5" cy="169.76" r="15.52"/>
			<circle class="st5" cx="141.7" cy="121.39" r="11.11"/>
			<circle class="st4" cx="109.19" cy="122.7" r="11.11"/>
		</g>
	</g>
</g>
<path class="st0" d="M502.64,126.39"/>
<g>
	<path class="st0" d="M502.95,124.56c0,0-0.94,10.28-0.61,25.79c0.43,20.52,4.28,30.8,4.28,41.41c0,3.45-1.83,5.37-6.08,5.37
		s-6.08-1.92-6.08-5.37c0-10.61,3.85-20.89,4.28-41.41c0.33-15.51-0.48-25.79-0.48-25.79c0-1.9-7.81-4.99-7.81-13.08
		c0-8.09,3.01-25.4,3.41-28.4c0.03-0.21,0.15-0.84,0.66-0.84c0.44,0,0.42,0.6,0.42,0.84c0,4.27-0.02,22.59,0,24.54
		c0,0.37,0.02,0.84,0.83,0.84c0.81,0,0.79-0.51,0.81-0.84c0.1-2.06,1.24-22.18,1.37-24.54c0.01-0.18,0-0.84,0.58-0.84
		c0.58,0,0.58,0.67,0.58,0.84c0.07,2.46,0.59,22.11,0.66,24.57c0.01,0.44,0.23,0.81,0.83,0.81c0.6,0,0.82-0.37,0.83-0.81
		c0.07-2.46,0.6-22.11,0.66-24.57c0-0.18,0.02-0.84,0.58-0.84s0.57,0.67,0.58,0.84c0.13,2.36,1.27,22.48,1.37,24.54
		c0.02,0.33,0,0.84,0.81,0.84c0.81,0,0.83-0.48,0.83-0.84c0.02-1.95,0-20.27,0-24.54c0-0.25-0.02-0.84,0.42-0.84
		c0.54,0,0.64,0.64,0.66,0.84c0.39,3.01,3.41,20.32,3.41,28.4C510.75,119.56,502.95,122.66,502.95,124.56"/>
	<g>
		<path class="st0" d="M418.4,101.65l3.26-5.94l14.44,7.93l4.08-7.44l5.18,2.84l-7.34,13.38L418.4,101.65z"/>
		<path class="st0" d="M434.65,77.03l12.65-11.32l3.76,4.2l-7.6,6.8l1.74,1.95l7.42-6.64l3.76,4.2l-7.42,6.64l1.9,2.12l7.6-6.8
			l3.76,4.2L449.57,93.7L434.65,77.03z"/>
		<path class="st0" d="M465.66,62.15l-5.55,2.28l-2.24-5.46l17.35-7.12l2.24,5.46l-5.52,2.27l6.25,15.24l-6.27,2.57L465.66,62.15z"
			/>
		<path class="st0" d="M492.74,54.91l-6,0.32l-0.31-5.9l18.72-1l0.31,5.9l-5.96,0.32L500.38,71l-6.77,0.36L492.74,54.91z"/>
		<path class="st0" d="M518.17,49.77l6.54,2.13l-4.01,12.32c-0.66,2.04-0.14,4.01,2.51,4.87c2.62,0.85,4.2-0.43,4.86-2.48
			l4.01-12.32l6.54,2.13l-4.07,12.51c-1.72,5.3-6.01,8.17-13.19,5.84c-7.18-2.33-8.99-7.19-7.28-12.46L518.17,49.77z"/>
		<path class="st0" d="M543.2,71.52c4.49-5.26,11.55-5.36,16.75-0.92c4.59,3.92,4.62,8.44,3.63,11.66l-6.2-1.72
			c0.7-1.7,0.35-3.98-1.31-5.39c-2.35-2-5.62-1.53-7.64,0.84c-2.03,2.37-1.98,5.68,0.37,7.68c1.66,1.42,3.97,1.4,5.53,0.44l2.7,5.83
			c-2.93,1.42-7.51,2.19-12.11-1.73C539.71,83.76,538.73,76.75,543.2,71.52z"/>
		<path class="st0" d="M575.67,88.53l8.09,14.92l-4.95,2.69l-4.86-8.96l-2.3,1.25l4.75,8.75l-4.95,2.69l-4.75-8.75l-2.51,1.36
			l4.86,8.96l-4.95,2.69l-8.09-14.92L575.67,88.53z"/>
	</g>
	<g>
		<path class="st0" d="M422.79,158.78l-24.82-4.39l-0.52-3.85l22.8-10.66l-23.8,3.19l-1.19-8.86l37.18-4.99l1.61,11.98l-19.5,9.03
			l21.2,3.62l1.59,11.87l-37.18,4.99l-1.17-8.75L422.79,158.78z"/>
		<path class="st0" d="M438.84,168.52l12.98,18.51l-6.4,4.49l-7.75-11.05l-5.53,3.88l7.53,10.73l-6.4,4.49l-7.53-10.73l-5.99,4.2
			l7.75,11.05l-6.4,4.49l-12.98-18.51L438.84,168.52z"/>
		<path class="st0" d="M450.6,224.69l-9.62-6.36l-4.4,4.1l-7.83-5.19l29.95-25.17l9.15,6.06l-11.47,37.4l-7.83-5.19L450.6,224.69z
			 M446.8,212.8l6.66,4.41l5.43-15.43L446.8,212.8z"/>
		<path class="st0" d="M476.25,202.58l8.89,1.97l-6.41,28.88l11.8,2.62l-1.72,7.74l-20.7-4.59L476.25,202.58z"/>
		<path class="st0" d="M507.78,207.13l14.45-4.28c7.82-2.32,13.33,2.03,15.22,8.4c1.87,6.31-0.41,12.85-8.23,15.17l-5.72,1.69
			l3.68,12.4l-8.74,2.59L507.78,207.13z M523.38,210.66l-4.64,1.37l2.54,8.57l4.64-1.37c2.32-0.69,3.44-2.84,2.67-5.43
			C527.81,211.16,525.7,209.97,523.38,210.66z"/>
		<path class="st0" d="M560.43,208.91l-2.55,2.21l8.45,9.79l-6.9,5.95l-24.51-28.4l11.58-9.99c5.54-4.78,12.52-3.82,17.04,1.41
			c4.15,4.81,3.78,9.37,2.46,12.14l14.29,6.83l-7.67,6.61L560.43,208.91z M550.54,195.3l-3.62,3.12l5.84,6.77l3.62-3.12
			c1.83-1.58,2.01-4.04,0.25-6.08C554.8,193.86,552.37,193.72,550.54,195.3z"/>
		<path class="st0" d="M556.03,179.05l10.33-20.11l6.95,3.57l-6.17,12.01l6,3.08l5.99-11.66l6.95,3.57l-5.99,11.66l6.5,3.34
			l6.17-12.01l6.95,3.57l-10.33,20.11L556.03,179.05z"/>
		<path class="st0" d="M567.52,155.34l0.91-15.04c0.49-8.14,6.47-11.83,13.09-11.43c6.57,0.4,11.94,4.78,11.44,12.92l-0.36,5.95
			l12.91,0.79l-0.55,9.09L567.52,155.34z M576.17,141.89l-0.29,4.83l8.93,0.54l0.29-4.83c0.15-2.41-1.49-4.2-4.19-4.37
			C578.16,137.9,576.32,139.48,576.17,141.89z"/>
	</g>
</g>
<g>
	<g>
		<path class="st7" d="M394.07,202.91l7.17,11.21c2.44,3.82,0.96,7.11-1.2,8.49c-2.3,1.47-4.71,1.11-6.25-0.44
			c0.97,2.19,0.12,4.88-2.26,6.4c-2.57,1.65-6.12,1.46-8.5-2.25l-7.42-11.59L394.07,202.91z M386.6,221.89
			c0.51,0.8,1.39,0.95,2.08,0.5c0.66-0.42,0.95-1.31,0.44-2.12l-2.87-4.48l-2.52,1.61L386.6,221.89z M393.55,217.21
			c0.37,0.58,1.23,0.77,1.9,0.35c0.64-0.41,0.8-1.25,0.43-1.83l-2.76-4.32l-2.32,1.49L393.55,217.21z"/>
		<path class="st7" d="M414.69,229.89c4.72,4.85,5.07,11.8,0.24,16.5c-4.83,4.7-11.76,4.16-16.48-0.69
			c-4.72-4.85-5.07-11.8-0.24-16.5C403.03,224.51,409.97,225.05,414.69,229.89z M410.5,233.97c-2.22-2.28-5.41-2.07-7.6,0.06
			s-2.49,5.31-0.26,7.59c2.22,2.28,5.41,2.07,7.6-0.06S412.73,236.26,410.5,233.97z"/>
		<path class="st7" d="M425,240.35l8.12,5.46c5.72,3.85,7.78,9.98,3.87,15.79c-3.91,5.81-10.38,6.24-16.07,2.41l-8.15-5.48
			L425,240.35z M424.12,259.2c2.75,1.85,5.75,0.93,7.29-1.36c1.65-2.45,1.46-5.23-1.48-7.21l-2.64-1.78l-5.78,8.59L424.12,259.2z"/>
		<path class="st7" d="M445.43,267.85l-2.4-15.37l6.87,2.91l0.86,8.4l6.58-5.24l6.87,2.91l-12.66,8.98l-3.4,8.01l-6.11-2.59
			L445.43,267.85z"/>
		<path class="st7" d="M466.78,262.08l13.03,2.66c4.44,0.91,5.77,4.26,5.25,6.77c-0.55,2.67-2.49,4.15-4.67,4.17
			c2.25,0.83,3.58,3.31,3.02,6.08c-0.61,2.99-3.22,5.41-7.53,4.53l-13.48-2.75L466.78,262.08z M475.19,280.66
			c0.93,0.19,1.64-0.33,1.81-1.14c0.16-0.77-0.28-1.6-1.21-1.79l-5.21-1.07l-0.6,2.93L475.19,280.66z M476.67,272.42
			c0.68,0.14,1.41-0.35,1.57-1.12c0.15-0.74-0.34-1.44-1.02-1.58l-5.02-1.03l-0.55,2.7L476.67,272.42z"/>
		<path class="st7" d="M490.37,266.62l6.73-0.11l0.21,12.68c0.03,2.1,1.15,3.76,3.87,3.72c2.69-0.04,3.75-1.74,3.72-3.84
			l-0.21-12.68l6.73-0.11l0.21,12.88c0.09,5.45-2.97,9.48-10.36,9.6c-7.39,0.12-10.61-3.8-10.7-9.22L490.37,266.62z"/>
		<path class="st7" d="M516.88,265.38l6.55-1.08l3.57,21.62l-6.55,1.08L516.88,265.38z"/>
		<path class="st7" d="M528.9,263.27l6.35-1.94l4.72,15.42l7.95-2.43l1.69,5.53l-14.29,4.37L528.9,263.27z"/>
		<path class="st7" d="M545.96,258l8.71-4.47c6.14-3.15,12.5-1.98,15.69,4.25c3.19,6.23,0.45,12.1-5.66,15.24l-8.74,4.48L545.96,258
			z M562.03,267.88c2.95-1.51,3.6-4.58,2.34-7.03c-1.35-2.63-3.87-3.81-7.03-2.19l-2.84,1.45l4.72,9.21L562.03,267.88z"/>
		<path class="st7" d="M568.37,245.44l5.36-3.91l12.91,17.71l-5.36,3.91L568.37,245.44z"/>
		<path class="st7" d="M590.04,240.92l8.35,8.29l-4.68,4.71l-15.55-15.44l4.82-4.85l13.2,2.37l-7.83-7.78l4.68-4.71l15.55,15.44
			l-4.49,4.52L590.04,240.92z"/>
		<path class="st7" d="M601.43,210.62c2.76-4.28,6.56-5.43,9.75-5.16l-0.63,6.24c-1.52-0.12-3.19,0.52-4.21,2.09
			c-1.73,2.68-0.84,5.79,1.72,7.45c2.57,1.66,5.77,1.18,7.5-1.5c0.77-1.19,1.18-2.49,1.11-3.54l-0.8-0.52l-2.3,3.56l-4.58-2.96
			l5.79-8.97l7.4,4.78c0.94,3.5,0.63,7.21-1.71,10.83c-3.6,5.58-10.19,7.78-16.06,3.98C598.5,223.09,597.83,216.2,601.43,210.62z"/>
	</g>
	<g>
		<path class="st7" d="M394.07,202.91l7.17,11.21c2.44,3.82,0.96,7.11-1.2,8.49c-2.3,1.47-4.71,1.11-6.25-0.44
			c0.97,2.19,0.12,4.88-2.26,6.4c-2.57,1.65-6.12,1.46-8.5-2.25l-7.42-11.59L394.07,202.91z M386.6,221.89
			c0.51,0.8,1.39,0.95,2.08,0.5c0.66-0.42,0.95-1.31,0.44-2.12l-2.87-4.48l-2.52,1.61L386.6,221.89z M393.55,217.21
			c0.37,0.58,1.23,0.77,1.9,0.35c0.64-0.41,0.8-1.25,0.43-1.83l-2.76-4.32l-2.32,1.49L393.55,217.21z"/>
		<path class="st7" d="M414.69,229.89c4.72,4.85,5.07,11.8,0.24,16.5c-4.83,4.7-11.76,4.16-16.48-0.69
			c-4.72-4.85-5.07-11.8-0.24-16.5C403.03,224.51,409.97,225.05,414.69,229.89z M410.5,233.97c-2.22-2.28-5.41-2.07-7.6,0.06
			s-2.49,5.31-0.26,7.59c2.22,2.28,5.41,2.07,7.6-0.06S412.73,236.26,410.5,233.97z"/>
		<path class="st7" d="M425,240.35l8.12,5.46c5.72,3.85,7.78,9.98,3.87,15.79c-3.91,5.81-10.38,6.24-16.07,2.41l-8.15-5.48
			L425,240.35z M424.12,259.2c2.75,1.85,5.75,0.93,7.29-1.36c1.65-2.45,1.46-5.23-1.48-7.21l-2.64-1.78l-5.78,8.59L424.12,259.2z"/>
		<path class="st7" d="M445.43,267.85l-2.4-15.37l6.87,2.91l0.86,8.4l6.58-5.24l6.87,2.91l-12.66,8.98l-3.4,8.01l-6.11-2.59
			L445.43,267.85z"/>
		<path class="st7" d="M466.78,262.08l13.03,2.66c4.44,0.91,5.77,4.26,5.25,6.77c-0.55,2.67-2.49,4.15-4.67,4.17
			c2.25,0.83,3.58,3.31,3.02,6.08c-0.61,2.99-3.22,5.41-7.53,4.53l-13.48-2.75L466.78,262.08z M475.19,280.66
			c0.93,0.19,1.64-0.33,1.81-1.14c0.16-0.77-0.28-1.6-1.21-1.79l-5.21-1.07l-0.6,2.93L475.19,280.66z M476.67,272.42
			c0.68,0.14,1.41-0.35,1.57-1.12c0.15-0.74-0.34-1.44-1.02-1.58l-5.02-1.03l-0.55,2.7L476.67,272.42z"/>
		<path class="st7" d="M490.37,266.62l6.73-0.11l0.21,12.68c0.03,2.1,1.15,3.76,3.87,3.72c2.69-0.04,3.75-1.74,3.72-3.84
			l-0.21-12.68l6.73-0.11l0.21,12.88c0.09,5.45-2.97,9.48-10.36,9.6c-7.39,0.12-10.61-3.8-10.7-9.22L490.37,266.62z"/>
		<path class="st7" d="M516.88,265.38l6.55-1.08l3.57,21.62l-6.55,1.08L516.88,265.38z"/>
		<path class="st7" d="M528.9,263.27l6.35-1.94l4.72,15.42l7.95-2.43l1.69,5.53l-14.29,4.37L528.9,263.27z"/>
		<path class="st7" d="M545.96,258l8.71-4.47c6.14-3.15,12.5-1.98,15.69,4.25c3.19,6.23,0.45,12.1-5.66,15.24l-8.74,4.48L545.96,258
			z M562.03,267.88c2.95-1.51,3.6-4.58,2.34-7.03c-1.35-2.63-3.87-3.81-7.03-2.19l-2.84,1.45l4.72,9.21L562.03,267.88z"/>
		<path class="st7" d="M568.37,245.44l5.36-3.91l12.91,17.71l-5.36,3.91L568.37,245.44z"/>
		<path class="st7" d="M590.04,240.92l8.35,8.29l-4.68,4.71l-15.55-15.44l4.82-4.85l13.2,2.37l-7.83-7.78l4.68-4.71l15.55,15.44
			l-4.49,4.52L590.04,240.92z"/>
		<path class="st7" d="M601.43,210.62c2.76-4.28,6.56-5.43,9.75-5.16l-0.63,6.24c-1.52-0.12-3.19,0.52-4.21,2.09
			c-1.73,2.68-0.84,5.79,1.72,7.45c2.57,1.66,5.77,1.18,7.5-1.5c0.77-1.19,1.18-2.49,1.11-3.54l-0.8-0.52l-2.3,3.56l-4.58-2.96
			l5.79-8.97l7.4,4.78c0.94,3.5,0.63,7.21-1.71,10.83c-3.6,5.58-10.19,7.78-16.06,3.98C598.5,223.09,597.83,216.2,601.43,210.62z"/>
	</g>
</g>
<linearGradient id="SVGID_3_" gradientUnits="userSpaceOnUse" x1="451.4345" y1="115.6685" x2="549.6795" y2="167.2483">
	<stop  offset="0" style="stop-color:#EDEEF0"/>
	<stop  offset="0.0454" style="stop-color:#DEE1E4"/>
	<stop  offset="0.1326" style="stop-color:#B7BEC3"/>
	<stop  offset="0.2518" style="stop-color:#798690"/>
	<stop  offset="0.264" style="stop-color:#72808A"/>
	<stop  offset="0.3374" style="stop-color:#97A1A8"/>
	<stop  offset="0.4445" style="stop-color:#C6CCD0"/>
	<stop  offset="0.5265" style="stop-color:#E4E7E9"/>
	<stop  offset="0.573" style="stop-color:#EFF1F2"/>
	<stop  offset="0.6421" style="stop-color:#E5E8EA"/>
	<stop  offset="0.7583" style="stop-color:#CBD1D4"/>
	<stop  offset="0.8764" style="stop-color:#AAB3B9"/>
	<stop  offset="1" style="stop-color:#CCCCCC"/>
	<stop  offset="1" style="stop-color:#C7CCD0"/>
</linearGradient>
<path class="st8" d="M549.53,115.46c-23.77,0-37.03,10.22-43.62,17.84c-0.91-0.38-2.58-0.81-5.52-0.81c-2.82,0-4.46,0.4-5.4,0.76
	c-6.53-7.62-19.7-17.8-43.42-17.8c0,0-6.53,10.65-6.53,25.99c0,15.34,6.53,25.99,6.53,25.99c21.46,0,35.53-10.78,42.84-18.45
	c0.67,0.38,2.25,0.83,5.98,0.83c3.92,0,5.46-0.49,6.07-0.88c7.36,7.68,21.55,18.51,43.06,18.51c0,0,6.29-9.87,6.29-25.99
	C555.82,125.33,549.53,115.46,549.53,115.46z"/>
<line class="st9" x1="445.23" y1="140.72" x2="555.97" y2="139.75"/>
<line class="st10" x1="445.23" y1="142.36" x2="555.97" y2="141.38"/>
<g>
	<g>
		<polygon class="st11" points="465.21,124 457.96,124 454.34,130.27 457.96,136.55 465.21,136.55 468.84,130.27 		"/>
		<linearGradient id="SVGID_4_" gradientUnits="userSpaceOnUse" x1="457.5925" y1="122.7117" x2="464.4876" y2="135.5173">
			<stop  offset="0" style="stop-color:#E5E5E5"/>
			<stop  offset="0" style="stop-color:#F4F4F4"/>
			<stop  offset="0" style="stop-color:#FFFFFF"/>
			<stop  offset="0.1868" style="stop-color:#F0F2F3"/>
			<stop  offset="0.5225" style="stop-color:#CCD1D5"/>
			<stop  offset="0.6114" style="stop-color:#C2C8CD"/>
			<stop  offset="0.7612" style="stop-color:#A8B1B7"/>
			<stop  offset="0.9523" style="stop-color:#7E8B94"/>
			<stop  offset="1" style="stop-color:#72808A"/>
		</linearGradient>
		<polygon class="st12" points="464.65,122.81 457.4,122.81 453.78,129.09 457.4,135.37 464.65,135.37 468.28,129.09 		"/>
	</g>
	
		<radialGradient id="SVGID_5_" cx="454.9676" cy="129.0557" r="4.9929" gradientTransform="matrix(0.8745 0 0 0.8745 62.3499 15.2434)" gradientUnits="userSpaceOnUse">
		<stop  offset="0" style="stop-color:#E5E5E5"/>
		<stop  offset="0" style="stop-color:#F4F4F4"/>
		<stop  offset="0" style="stop-color:#FFFFFF"/>
		<stop  offset="0.1419" style="stop-color:#F0F2F3"/>
		<stop  offset="0.413" style="stop-color:#C9CFD3"/>
		<stop  offset="0.5225" style="stop-color:#B8BFC4"/>
		<stop  offset="0.573" style="stop-color:#AFB5BA"/>
		<stop  offset="0.658" style="stop-color:#959BA0"/>
		<stop  offset="0.7671" style="stop-color:#6C7076"/>
		<stop  offset="0.8947" style="stop-color:#34363B"/>
		<stop  offset="1" style="stop-color:#000006"/>
	</radialGradient>
	<circle class="st13" cx="461.03" cy="129.09" r="3.38"/>
</g>
<g>
	<polygon class="st11" points="464.93,146.39 457.68,146.39 454.06,152.66 457.68,158.94 464.93,158.94 468.56,152.66 	"/>
	<linearGradient id="SVGID_6_" gradientUnits="userSpaceOnUse" x1="457.3126" y1="145.1014" x2="464.2077" y2="157.907">
		<stop  offset="0" style="stop-color:#E5E5E5"/>
		<stop  offset="0" style="stop-color:#F4F4F4"/>
		<stop  offset="0" style="stop-color:#FFFFFF"/>
		<stop  offset="0.1868" style="stop-color:#F0F2F3"/>
		<stop  offset="0.5225" style="stop-color:#CCD1D5"/>
		<stop  offset="0.6114" style="stop-color:#C2C8CD"/>
		<stop  offset="0.7612" style="stop-color:#A8B1B7"/>
		<stop  offset="0.9523" style="stop-color:#7E8B94"/>
		<stop  offset="1" style="stop-color:#72808A"/>
	</linearGradient>
	<polygon class="st14" points="464.37,145.2 457.12,145.2 453.5,151.48 457.12,157.76 464.37,157.76 468,151.48 	"/>
	
		<radialGradient id="SVGID_7_" cx="454.6476" cy="154.6572" r="4.9929" gradientTransform="matrix(0.8745 0 0 0.8745 62.3499 15.2434)" gradientUnits="userSpaceOnUse">
		<stop  offset="0" style="stop-color:#E5E5E5"/>
		<stop  offset="0" style="stop-color:#F4F4F4"/>
		<stop  offset="0" style="stop-color:#FFFFFF"/>
		<stop  offset="0.1419" style="stop-color:#F0F2F3"/>
		<stop  offset="0.413" style="stop-color:#C9CFD3"/>
		<stop  offset="0.5225" style="stop-color:#B8BFC4"/>
		<stop  offset="0.573" style="stop-color:#AFB5BA"/>
		<stop  offset="0.658" style="stop-color:#959BA0"/>
		<stop  offset="0.7671" style="stop-color:#6C7076"/>
		<stop  offset="0.8947" style="stop-color:#34363B"/>
		<stop  offset="1" style="stop-color:#000006"/>
	</radialGradient>
	<circle class="st15" cx="460.75" cy="151.48" r="3.38"/>
</g>
<g>
	<g>
		<polygon class="st11" points="544.26,146.39 537.02,146.39 533.39,152.66 537.02,158.94 544.26,158.94 547.89,152.66 		"/>
		<linearGradient id="SVGID_8_" gradientUnits="userSpaceOnUse" x1="536.6448" y1="145.1014" x2="543.5399" y2="157.907">
			<stop  offset="0" style="stop-color:#E5E5E5"/>
			<stop  offset="0" style="stop-color:#F4F4F4"/>
			<stop  offset="0" style="stop-color:#FFFFFF"/>
			<stop  offset="0.1868" style="stop-color:#F0F2F3"/>
			<stop  offset="0.5225" style="stop-color:#CCD1D5"/>
			<stop  offset="0.6114" style="stop-color:#C2C8CD"/>
			<stop  offset="0.7612" style="stop-color:#A8B1B7"/>
			<stop  offset="0.9523" style="stop-color:#7E8B94"/>
			<stop  offset="1" style="stop-color:#72808A"/>
		</linearGradient>
		<polygon class="st16" points="543.7,145.2 536.46,145.2 532.83,151.48 536.46,157.76 543.7,157.76 547.33,151.48 		"/>
	</g>
	
		<radialGradient id="SVGID_9_" cx="545.3596" cy="154.6572" r="4.9929" gradientTransform="matrix(0.8745 0 0 0.8745 62.3499 15.2434)" gradientUnits="userSpaceOnUse">
		<stop  offset="0" style="stop-color:#E5E5E5"/>
		<stop  offset="0" style="stop-color:#F4F4F4"/>
		<stop  offset="0" style="stop-color:#FFFFFF"/>
		<stop  offset="0.1419" style="stop-color:#F0F2F3"/>
		<stop  offset="0.413" style="stop-color:#C9CFD3"/>
		<stop  offset="0.5225" style="stop-color:#B8BFC4"/>
		<stop  offset="0.573" style="stop-color:#AFB5BA"/>
		<stop  offset="0.658" style="stop-color:#959BA0"/>
		<stop  offset="0.7671" style="stop-color:#6C7076"/>
		<stop  offset="0.8947" style="stop-color:#34363B"/>
		<stop  offset="1" style="stop-color:#000006"/>
	</radialGradient>
	<circle class="st17" cx="540.08" cy="151.48" r="3.38"/>
</g>
<g>
	<polygon class="st11" points="543.98,124 536.74,124 533.11,130.27 536.74,136.55 543.98,136.55 547.61,130.27 	"/>
	<linearGradient id="SVGID_10_" gradientUnits="userSpaceOnUse" x1="536.3649" y1="122.7117" x2="543.2601" y2="135.5173">
		<stop  offset="0" style="stop-color:#E5E5E5"/>
		<stop  offset="0" style="stop-color:#F4F4F4"/>
		<stop  offset="0" style="stop-color:#FFFFFF"/>
		<stop  offset="0.1868" style="stop-color:#F0F2F3"/>
		<stop  offset="0.5225" style="stop-color:#CCD1D5"/>
		<stop  offset="0.6114" style="stop-color:#C2C8CD"/>
		<stop  offset="0.7612" style="stop-color:#A8B1B7"/>
		<stop  offset="0.9523" style="stop-color:#7E8B94"/>
		<stop  offset="1" style="stop-color:#72808A"/>
	</linearGradient>
	<polygon class="st18" points="543.42,122.81 536.18,122.81 532.55,129.09 536.18,135.37 543.42,135.37 547.05,129.09 	"/>
	
		<radialGradient id="SVGID_11_" cx="545.0396" cy="129.0557" r="4.9929" gradientTransform="matrix(0.8745 0 0 0.8745 62.3499 15.2434)" gradientUnits="userSpaceOnUse">
		<stop  offset="0" style="stop-color:#E5E5E5"/>
		<stop  offset="0" style="stop-color:#F4F4F4"/>
		<stop  offset="0" style="stop-color:#FFFFFF"/>
		<stop  offset="0.1419" style="stop-color:#F0F2F3"/>
		<stop  offset="0.413" style="stop-color:#C9CFD3"/>
		<stop  offset="0.5225" style="stop-color:#B8BFC4"/>
		<stop  offset="0.573" style="stop-color:#AFB5BA"/>
		<stop  offset="0.658" style="stop-color:#959BA0"/>
		<stop  offset="0.7671" style="stop-color:#6C7076"/>
		<stop  offset="0.8947" style="stop-color:#34363B"/>
		<stop  offset="1" style="stop-color:#000006"/>
	</radialGradient>
	<circle class="st19" cx="539.8" cy="129.09" r="3.38"/>
</g>
<radialGradient id="SVGID_12_" cx="498.0159" cy="140.0719" r="15.0447" gradientTransform="matrix(0.8745 0 0 0.8745 62.3499 15.2434)" gradientUnits="userSpaceOnUse">
	<stop  offset="0" style="stop-color:#E5E5E5"/>
	<stop  offset="0" style="stop-color:#F4F4F4"/>
	<stop  offset="0" style="stop-color:#FFFFFF"/>
	<stop  offset="0.1419" style="stop-color:#F0F2F3"/>
	<stop  offset="0.413" style="stop-color:#C9CFD3"/>
	<stop  offset="0.5225" style="stop-color:#B8BFC4"/>
	<stop  offset="0.573" style="stop-color:#AFB5BA"/>
	<stop  offset="0.658" style="stop-color:#959BA0"/>
	<stop  offset="0.7671" style="stop-color:#6C7076"/>
	<stop  offset="0.8947" style="stop-color:#34363B"/>
	<stop  offset="1" style="stop-color:#000006"/>
</radialGradient>
<path class="st20" d="M506.66,148.95c0,0-2.04,0.89-6.08,0.89c-4.05,0-5.99-0.83-5.99-0.83s-1.31-0.81-1.31-7.85
	c0-6.85,1.89-7.91,1.89-7.91s1.02-0.76,5.39-0.76c4.38,0,5.54,0.81,5.54,0.81s1.74,0.83,1.74,7.87S506.66,148.95,506.66,148.95z"/>
<path class="st0" d="M840.29,126.43"/>
<g>
	<path class="st0" d="M840.6,124.59c0,0-0.94,10.29-0.61,25.81c0.43,20.53,4.28,30.83,4.28,41.44c0,3.45-1.83,5.38-6.09,5.38
		s-6.09-1.92-6.09-5.38c0-10.61,3.85-20.91,4.28-41.44c0.33-15.52-0.48-25.81-0.48-25.81c0-1.9-7.81-5-7.81-13.09
		c0-8.09,3.01-25.41,3.41-28.42c0.03-0.21,0.15-0.84,0.67-0.84c0.44,0,0.42,0.6,0.42,0.84c0,4.27-0.02,22.61,0,24.56
		c0,0.37,0.02,0.84,0.83,0.84s0.79-0.51,0.81-0.84c0.1-2.06,1.24-22.2,1.37-24.56c0.01-0.18,0-0.84,0.58-0.84
		c0.58,0,0.58,0.67,0.58,0.84c0.07,2.46,0.59,22.13,0.66,24.59c0.01,0.44,0.23,0.81,0.83,0.81c0.6,0,0.82-0.37,0.83-0.81
		c0.07-2.46,0.6-22.13,0.67-24.59c0-0.18,0.02-0.84,0.58-0.84c0.56,0,0.57,0.67,0.58,0.84c0.13,2.36,1.27,22.49,1.37,24.56
		c0.02,0.33,0,0.84,0.81,0.84s0.83-0.48,0.83-0.84c0.02-1.95,0-20.28,0-24.56c0-0.25-0.02-0.84,0.42-0.84
		c0.54,0,0.64,0.64,0.67,0.84c0.39,3.01,3.41,20.33,3.41,28.42C848.41,119.6,840.6,122.69,840.6,124.59"/>
	<g>
		<path class="st0" d="M755.99,101.68l3.26-5.94l14.45,7.93l4.09-7.45l5.18,2.84l-7.35,13.39L755.99,101.68z"/>
		<path class="st0" d="M772.26,77.04l12.66-11.33l3.76,4.2l-7.6,6.81l1.75,1.95l7.43-6.65l3.76,4.2l-7.43,6.65l1.9,2.13l7.6-6.81
			l3.76,4.2l-12.66,11.33L772.26,77.04z"/>
		<path class="st0" d="M803.29,62.15l-5.56,2.28l-2.24-5.46l17.36-7.12l2.24,5.47l-5.53,2.27l6.25,15.25l-6.27,2.57L803.29,62.15z"
			/>
		<path class="st0" d="M830.38,54.9l-6,0.32l-0.31-5.9l18.74-1l0.31,5.9l-5.97,0.32L838.03,71l-6.77,0.36L830.38,54.9z"/>
		<path class="st0" d="M855.84,49.76l6.55,2.13l-4.01,12.32c-0.66,2.04-0.14,4.01,2.51,4.88c2.62,0.85,4.2-0.44,4.87-2.48
			l4.01-12.32l6.55,2.13l-4.07,12.52c-1.72,5.3-6.01,8.18-13.2,5.84c-7.18-2.34-8.99-7.2-7.28-12.46L855.84,49.76z"/>
		<path class="st0" d="M880.87,71.52c4.49-5.26,11.55-5.36,16.76-0.92c4.6,3.92,4.62,8.45,3.64,11.67l-6.21-1.72
			c0.7-1.7,0.35-3.98-1.31-5.4c-2.35-2.01-5.62-1.53-7.65,0.84c-2.03,2.37-1.98,5.68,0.37,7.69c1.66,1.42,3.97,1.4,5.54,0.44
			l2.7,5.84c-2.94,1.42-7.52,2.19-12.11-1.74C877.39,83.77,876.41,76.75,880.87,71.52z"/>
		<path class="st0" d="M913.37,88.54l8.1,14.93l-4.96,2.69l-4.87-8.97l-2.3,1.25l4.75,8.76l-4.96,2.69l-4.75-8.76l-2.51,1.36
			l4.87,8.97l-4.96,2.69l-8.1-14.93L913.37,88.54z"/>
	</g>
	<g>
		<path class="st0" d="M760.39,158.84l-24.84-4.39l-0.52-3.85l22.81-10.67l-23.82,3.2l-1.19-8.87l37.2-4.99l1.61,11.99l-19.51,9.04
			l21.21,3.63l1.59,11.88l-37.21,4.99l-1.17-8.76L760.39,158.84z"/>
		<path class="st0" d="M776.45,168.58l12.99,18.52l-6.41,4.49l-7.76-11.06l-5.53,3.88l7.53,10.73l-6.4,4.49l-7.53-10.74l-5.99,4.2
			l7.76,11.06l-6.4,4.49l-12.99-18.52L776.45,168.58z"/>
		<path class="st0" d="M788.21,224.8l-9.62-6.37l-4.4,4.11l-7.84-5.19l29.97-25.19l9.15,6.06l-11.48,37.43l-7.84-5.19L788.21,224.8z
			 M784.41,212.9l6.66,4.41l5.43-15.44L784.41,212.9z"/>
		<path class="st0" d="M813.88,202.67l8.9,1.97l-6.41,28.9l11.81,2.62l-1.72,7.75l-20.71-4.59L813.88,202.67z"/>
		<path class="st0" d="M845.44,207.22l14.46-4.29c7.82-2.32,13.34,2.03,15.23,8.4c1.87,6.31-0.42,12.86-8.24,15.18l-5.72,1.69
			l3.68,12.41l-8.74,2.59L845.44,207.22z M861.04,210.76l-4.64,1.37l2.54,8.58l4.64-1.38c2.32-0.69,3.44-2.84,2.68-5.43
			C865.48,211.26,863.36,210.07,861.04,210.76z"/>
		<path class="st0" d="M898.12,209l-2.56,2.21l8.46,9.8l-6.9,5.96l-24.52-28.42l11.59-10c5.54-4.78,12.53-3.83,17.05,1.41
			c4.16,4.82,3.78,9.38,2.46,12.15l14.3,6.84l-7.67,6.62L898.12,209z M888.22,195.39l-3.62,3.12l5.85,6.78l3.62-3.13
			c1.83-1.58,2.01-4.04,0.25-6.09C892.48,193.94,890.06,193.8,888.22,195.39z"/>
		<path class="st0" d="M893.72,179.13L904.06,159l6.96,3.57l-6.17,12.01l6.01,3.09l5.99-11.66l6.96,3.57l-5.99,11.66l6.51,3.34
			l6.17-12.01l6.96,3.57l-10.34,20.12L893.72,179.13z"/>
		<path class="st0" d="M905.22,155.4l0.91-15.05c0.5-8.15,6.47-11.84,13.1-11.44c6.57,0.4,11.94,4.79,11.45,12.93l-0.36,5.95
			l12.92,0.79l-0.55,9.1L905.22,155.4z M913.87,141.94l-0.29,4.83l8.93,0.54l0.29-4.83c0.15-2.42-1.49-4.21-4.19-4.37
			C915.86,137.94,914.02,139.52,913.87,141.94z"/>
	</g>
</g>
<path class="st2" d="M887.37,115.49c-23.79,0-37.05,10.23-43.65,17.86c-0.91-0.38-2.58-0.81-5.52-0.81c-2.82,0-4.47,0.4-5.4,0.76
	c-6.54-7.62-19.71-17.81-43.45-17.81c0,0-6.53,10.66-6.53,26.01c0,15.35,6.53,26.01,6.53,26.01c21.47,0,35.55-10.78,42.87-18.46
	c0.67,0.38,2.25,0.83,5.98,0.83c3.92,0,5.47-0.49,6.08-0.88c7.37,7.68,21.56,18.52,43.09,18.52c0,0,6.3-9.88,6.3-26.01
	C893.67,125.37,887.37,115.49,887.37,115.49z"/>
<g>
	<g>
		<path class="st2" d="M752.64,231.25l12.47,11.01l-3.66,4.14l-7.49-6.61l-1.7,1.92l7.32,6.46l-3.66,4.14l-7.32-6.46l-1.85,2.09
			l7.49,6.61l-3.66,4.14l-12.47-11.01L752.64,231.25z"/>
		<path class="st2" d="M769.35,263.07l-6.86,3.73l-6.74-3.98l12.03-5.95l-0.45-12.68l6.71,3.96l-0.12,7.18l6.18-3.6l6.76,4
			l-11.3,5.69l0.58,13.44l-6.74-3.98L769.35,263.07z"/>
		<path class="st2" d="M789.91,256.83l15.65,5.62l-1.87,5.2l-9.4-3.38l-0.87,2.41l9.19,3.3l-1.87,5.2l-9.19-3.3l-0.94,2.63l9.4,3.38
			l-1.87,5.2l-15.65-5.62L789.91,256.83z"/>
		<path class="st2" d="M807.14,274.36c1.04-6.69,6.87-10.41,13.49-9.39c5.85,0.9,8.19,4.66,9.03,7.85l-6.06,1.76
			c-0.29-1.77-1.75-3.5-3.86-3.82c-2.99-0.46-5.47,1.61-5.94,4.64c-0.47,3.02,1.27,5.75,4.26,6.21c2.11,0.33,4.03-0.87,4.84-2.48
			l5.25,3.47c-1.71,2.69-5.14,5.69-10.98,4.79C810.54,286.36,806.11,281.02,807.14,274.36z"/>
		<path class="st2" d="M833.79,266.96l6.73-0.34l0.65,12.67c0.11,2.1,1.28,3.72,4,3.58c2.69-0.14,3.69-1.87,3.58-3.97l-0.65-12.67
			l6.73-0.34l0.66,12.87c0.28,5.45-2.64,9.58-10.03,9.96c-7.39,0.38-10.74-3.44-11.02-8.85L833.79,266.96z"/>
		<path class="st2" d="M865.15,269.5l-5.71,1.41l-1.39-5.62l17.84-4.41l1.39,5.62l-5.68,1.4l3.87,15.67l-6.45,1.59L865.15,269.5z"/>
		<path class="st2" d="M879.28,259.39l6.17-2.45l8.09,20.38l-6.17,2.45L879.28,259.39z"/>
		<path class="st2" d="M888.39,256.26l6.49-3.82l11.58,10.31l-3.42-15.12l6.49-3.82l4.17,23l-7.19,4.24L888.39,256.26z"/>
		<path class="st2" d="M911.5,241.87l12.47-11.01l3.66,4.14l-7.49,6.61l1.7,1.92l7.32-6.46l3.66,4.14l-7.32,6.46l1.85,2.09
			l7.49-6.61l3.66,4.14l-12.47,11.01L911.5,241.87z"/>
	</g>
	<g>
		<path class="st2" d="M752.64,231.25l12.47,11.01l-3.66,4.14l-7.49-6.61l-1.7,1.92l7.32,6.46l-3.66,4.14l-7.32-6.46l-1.85,2.09
			l7.49,6.61l-3.66,4.14l-12.47-11.01L752.64,231.25z"/>
		<path class="st2" d="M769.35,263.07l-6.86,3.73l-6.74-3.98l12.03-5.95l-0.45-12.68l6.71,3.96l-0.12,7.18l6.18-3.6l6.76,4
			l-11.3,5.69l0.58,13.44l-6.74-3.98L769.35,263.07z"/>
		<path class="st2" d="M789.91,256.83l15.65,5.62l-1.87,5.2l-9.4-3.38l-0.87,2.41l9.19,3.3l-1.87,5.2l-9.19-3.3l-0.94,2.63l9.4,3.38
			l-1.87,5.2l-15.65-5.62L789.91,256.83z"/>
		<path class="st2" d="M807.14,274.36c1.04-6.69,6.87-10.41,13.49-9.39c5.85,0.9,8.19,4.66,9.03,7.85l-6.06,1.76
			c-0.29-1.77-1.75-3.5-3.86-3.82c-2.99-0.46-5.47,1.61-5.94,4.64c-0.47,3.02,1.27,5.75,4.26,6.21c2.11,0.33,4.03-0.87,4.84-2.48
			l5.25,3.47c-1.71,2.69-5.14,5.69-10.98,4.79C810.54,286.36,806.11,281.02,807.14,274.36z"/>
		<path class="st2" d="M833.79,266.96l6.73-0.34l0.65,12.67c0.11,2.1,1.28,3.72,4,3.58c2.69-0.14,3.69-1.87,3.58-3.97l-0.65-12.67
			l6.73-0.34l0.66,12.87c0.28,5.45-2.64,9.58-10.03,9.96c-7.39,0.38-10.74-3.44-11.02-8.85L833.79,266.96z"/>
		<path class="st2" d="M865.15,269.5l-5.71,1.41l-1.39-5.62l17.84-4.41l1.39,5.62l-5.68,1.4l3.87,15.67l-6.45,1.59L865.15,269.5z"/>
		<path class="st2" d="M879.28,259.39l6.17-2.45l8.09,20.38l-6.17,2.45L879.28,259.39z"/>
		<path class="st2" d="M888.39,256.26l6.49-3.82l11.58,10.31l-3.42-15.12l6.49-3.82l4.17,23l-7.19,4.24L888.39,256.26z"/>
		<path class="st2" d="M911.5,241.87l12.47-11.01l3.66,4.14l-7.49,6.61l1.7,1.92l7.32-6.46l3.66,4.14l-7.32,6.46l1.85,2.09
			l7.49-6.61l3.66,4.14l-12.47,11.01L911.5,241.87z"/>
	</g>
</g>
<g>
	<defs>
		<path id="SVGID_13_" d="M887.37,115.49c-23.79,0-37.05,10.23-43.65,17.86c-0.91-0.38-2.58-0.81-5.52-0.81
			c-2.82,0-4.47,0.4-5.4,0.76c-6.54-7.62-19.71-17.81-43.45-17.81c0,0-6.53,10.66-6.53,26.01c0,15.35,6.53,26.01,6.53,26.01
			c21.47,0,35.55-10.78,42.87-18.46c0.67,0.38,2.25,0.83,5.98,0.83c3.92,0,5.47-0.49,6.08-0.88c7.37,7.68,21.56,18.52,43.09,18.52
			c0,0,6.3-9.88,6.3-26.01C893.67,125.37,887.37,115.49,887.37,115.49z"/>
	</defs>
	<clipPath id="SVGID_14_">
		<use xlink:href="#SVGID_13_"  style="overflow:visible;"/>
	</clipPath>
	<g class="st21">
		<g>
			<g>
				
					<rect x="689.28" y="39.91" transform="matrix(0.7071 -0.7071 0.7071 0.7071 187.5147 540.9155)" class="st22" width="114.85" height="8.4"/>
			</g>
			<g>
				
					<rect x="701.17" y="51.8" transform="matrix(0.7071 -0.7071 0.7071 0.7071 182.5881 552.8095)" class="st22" width="114.85" height="8.4"/>
			</g>
			<g>
				
					<rect x="713.06" y="63.69" transform="matrix(0.7071 -0.7071 0.7071 0.7071 177.6615 564.7034)" class="st22" width="114.85" height="8.4"/>
			</g>
			<g>
				
					<rect x="724.96" y="75.59" transform="matrix(0.7071 -0.7071 0.7071 0.7071 172.7349 576.5974)" class="st22" width="114.85" height="8.4"/>
			</g>
			<g>
				
					<rect x="736.85" y="87.48" transform="matrix(0.7071 -0.7071 0.7071 0.7071 167.8082 588.4912)" class="st22" width="114.85" height="8.4"/>
			</g>
			<g>
				
					<rect x="748.75" y="99.38" transform="matrix(0.7071 -0.7071 0.7071 0.7071 162.8815 600.3853)" class="st22" width="114.85" height="8.4"/>
			</g>
			<g>
				
					<rect x="760.64" y="111.27" transform="matrix(0.7071 -0.7071 0.7071 0.7071 157.9252 612.2396)" class="st22" width="114.85" height="8.4"/>
			</g>
			<g>
				
					<rect x="772.53" y="123.16" transform="matrix(0.7071 -0.7071 0.7071 0.7071 152.9983 624.1324)" class="st22" width="114.85" height="8.4"/>
			</g>
			<g>
				
					<rect x="784.43" y="135.06" transform="matrix(0.7071 -0.7071 0.7071 0.7071 148.0719 636.0253)" class="st22" width="114.85" height="8.4"/>
			</g>
			<g>
				
					<rect x="796.32" y="146.95" transform="matrix(0.7071 -0.7071 0.7071 0.7071 143.1453 647.9185)" class="st22" width="114.85" height="8.4"/>
			</g>
			<g>
				
					<rect x="808.21" y="158.84" transform="matrix(0.7071 -0.7071 0.7071 0.7071 138.2185 659.8112)" class="st22" width="114.85" height="8.4"/>
			</g>
			<g>
				
					<rect x="820.11" y="170.74" transform="matrix(0.7071 -0.7071 0.7071 0.7071 133.3069 671.7266)" class="st22" width="114.85" height="8.4"/>
			</g>
			<g>
				
					<rect x="832" y="182.63" transform="matrix(0.7071 -0.7071 0.7071 0.7071 128.3951 683.643)" class="st22" width="114.85" height="8.4"/>
			</g>
			<g>
				
					<rect x="843.9" y="194.53" transform="matrix(0.7071 -0.7071 0.7071 0.7071 123.4685 695.5366)" class="st22" width="114.85" height="8.4"/>
			</g>
			<g>
				
					<rect x="855.79" y="206.42" transform="matrix(0.7071 -0.7071 0.7071 0.7071 118.542 707.4307)" class="st22" width="114.85" height="8.4"/>
			</g>
			<g>
				
					<rect x="867.69" y="218.31" transform="matrix(0.7071 -0.7071 0.7071 0.7071 113.6152 719.3249)" class="st22" width="114.85" height="8.4"/>
			</g>
		</g>
	</g>
</g>
<path class="st2" d="M845.48,142.44c0.01-0.36,0.01-0.73,0.01-1.13c0-0.95-0.03-1.79-0.09-2.53c-0.35-4.79-1.65-5.43-1.65-5.43
	s-0.49,9.41-3.45,12.65c-2.4,2.62-8.08,3.06-8.08,3.06c0.67,0.38,2.25,0.83,5.98,0.83c2.31,0,3.78-0.17,4.74-0.39
	c0.88-0.25,1.34-0.49,1.34-0.49S845.36,148.48,845.48,142.44z"/>
<path class="st1" d="M171.25,142.39c0.01-0.36,0.01-0.73,0.01-1.13c0-0.95-0.03-1.79-0.09-2.53c-0.35-4.79-1.65-5.43-1.65-5.43
	s-0.49,9.41-3.45,12.65c-2.4,2.62-8.08,3.06-8.08,3.06c0.67,0.38,2.25,0.83,5.98,0.83c2.31,0,3.78-0.17,4.74-0.39
	c0.88-0.25,1.34-0.49,1.34-0.49S171.13,148.43,171.25,142.39z"/>
</svg>
