<?xml version="1.0" encoding="utf-8"?>
<!-- Generator: Adobe Illustrator 21.1.0, SVG Export Plug-In . SVG Version: 6.00 Build 0)  -->
<!DOCTYPE svg PUBLIC "-//W3C//DTD SVG 1.1//EN" "http://www.w3.org/Graphics/SVG/1.1/DTD/svg11.dtd">
<svg version="1.1" id="Layer_1" xmlns="http://www.w3.org/2000/svg" xmlns:xlink="http://www.w3.org/1999/xlink" x="0px" y="0px"
	 width="1000px" height="219.92px" viewBox="0 0 1000 219.92" style="enable-background:new 0 0 1000 219.92;" xml:space="preserve"
	>
<style type="text/css">
	.st0{fill:#FFFFFF;}
	.st1{fill:#343741;}
	.st2{fill:none;}
	.st3{fill:#A9ABAC;}
</style>
<rect x="-0.24" y="-0.08" class="st0" width="500.24" height="220"/>
<rect x="500" class="st1" width="500" height="219.92"/>
<g>
	<rect x="19.36" y="42.5" class="st2" width="461.05" height="134.01"/>
	<g>
		<g>
			<path class="st1" d="M212.09,146.87V92.63h14.62v54.24H212.09z"/>
			<path class="st1" d="M282.6,141.68c0,3.38-1.73,5.19-5.11,5.19h-7c-3.07,0-4.24-1.49-5.74-4.32l-12.89-23.27
				c-1.34-2.52-2.67-5.9-3.54-8.88h-0.63c0.39,3.07,0.63,6.29,0.63,9.28v27.2h-13.76V97.82c0-3.38,1.81-5.19,5.19-5.19h6.92
				c3.07,0,4.17,1.49,5.74,4.32l12.42,22.4c1.41,2.52,2.83,5.74,4.09,9.04h0.63c-0.31-3.22-0.55-6.29-0.63-9.51V92.63h13.68V141.68z
				"/>
			<path class="st1" d="M301.62,128.95l-5.97,17.92h-5.35l18.16-52.74c0.31-0.94,1.1-1.49,2.04-1.49h5.9c0.94,0,1.73,0.55,2.04,1.49
				l18.16,52.74h-5.35l-5.97-17.92H301.62z M316.01,101.12c-0.47-1.49-1.02-2.99-1.41-4.4h-2.2l-1.49,4.4l-7.78,23.35h20.67
				L316.01,101.12z"/>
			<path class="st1" d="M344.42,115.12c6.05-4.64,11.79-7.31,17.61-7.31c6.68,0,10.22,3.62,10.22,10.45v28.61h-4.95V119.6
				c0-5.42-1.96-7.47-6.6-7.47c-4.95,0-9.35,2.36-15.8,6.6v28.14h-5.03v-38.05h4.17L344.42,115.12z"/>
			<path class="st1" d="M407.28,112.13c1.57,1.89,2.2,4.48,2.2,7.78c0,8.18-4.17,11.87-15.88,11.87c-3.54,0-6.37-0.31-8.65-1.02
				c-2.28,2.91-2.2,7,2.91,7.86l14.62,2.44c7.08,1.1,9.2,4.25,9.2,10.45c0,8.65-4.56,11.48-17.69,11.48
				c-13.36,0-17.92-2.83-17.92-11.32c0-5.03,1.57-7.62,6.45-10.14c-4.64-2.67-3.93-9.04-0.16-11.87c-3.38-1.89-4.72-5.11-4.72-9.75
				c0-8.33,4.17-12.11,15.96-12.11c3.46,0,6.21,0.31,8.41,1.02h11.95l-0.31,2.83L407.28,112.13z M385.59,142.86
				c-3.46,2.36-4.64,4.4-4.64,8.49c0,5.82,3.07,7.39,13.05,7.39c9.75,0,12.81-1.65,12.81-7.39c0-4.32-1.18-5.66-6.68-6.52
				l-14.23-2.2L385.59,142.86z M404.77,119.91c0-5.74-2.83-8.17-11.16-8.17c-8.41,0-11.32,2.44-11.32,8.17
				c0,5.58,2.99,8.02,11.32,8.02C401.94,127.93,404.77,125.49,404.77,119.91z"/>
			<path class="st1" d="M419.52,130.29c0.63,10.38,4.48,13.21,13.21,13.21c4.48,0,9.51-0.47,13.13-0.94l0.55,3.38
				c-3.22,1.26-10.06,1.89-14.39,1.89c-12.73,0-17.69-5.5-17.69-20.12c0-14.86,4.95-19.89,17.06-19.89
				c10.93,0,15.8,4.01,15.88,11.87c0.08,6.84-2.52,10.61-8.73,10.61H419.52z M437.37,126.36c3.93,0,4.95-2.83,4.87-6.6
				c-0.08-5.35-3.22-7.62-10.61-7.62c-8.88,0-11.95,3.46-12.11,14.23H437.37z"/>
			<path class="st1" d="M456.74,137.44c0,3.62,1.96,5.5,5.58,5.5h4.01l0.55,3.77c-1.26,0.47-4.56,0.79-6.29,0.79
				c-5.35,0-8.8-3.22-8.8-9.12V91.85h4.95V137.44z"/>
		</g>
		<path class="st1" d="M192.61,92.63l-8.25,37.02c-0.39,1.97-0.86,4.17-1.1,6.13h-1.97c-0.31-1.97-0.71-4.17-1.1-6.13l-8.33-37.02
			l-28.63,0l0,1.41l16.28,8.71l11.09,40.11c0.55,2.44,2.59,4.01,5.11,4.01h13.13c2.52,0,4.56-1.57,5.11-4.01l13.91-50.23H192.61z"/>
	</g>
	<g>
		<path class="st3" d="M98.06,73.15c2.61-1.73,5.26-3.99,6.82-6.76c-3.53,0.23-6.91,1.91-9.88,3.7c-2.9,1.9-5.89,4.22-7.64,7.29
			C90.64,76.87,95.14,75.08,98.06,73.15z"/>
		<path class="st3" d="M157.95,146.22c0.07,0.01,0.12,0.02,0.15,0.02c0.03,0,0.03,0,0.02,0c-0.03-0.01-0.18-0.04-0.27-0.06
			c-0.03-0.01-0.05-0.01-0.06-0.01c-0.01,0-0.01,0,0.02,0.01C157.83,146.19,157.87,146.2,157.95,146.22
			c-3.79-0.63-7.25-3.08-9.75-5.9c-9.2-10.37-18.64-23.97-22.15-23.97c-5.12,0-16.2,7.73-18.61,9.21c0,0-0.65-3.72-0.82-5.79
			c-0.15-1.83-1.13-3-1.13-3c2.31-0.19,6.37-4.49,4.19-6.88c-0.47-0.51-7.29-4.62-8.38-8.45c-0.34-1.21-0.82-2.66,0.87-5.15
			c0.41,0.23,3.32,1.37,4.18,1.16c0.62-0.15,1.87-2.15,2.84-3c0.38-0.33,1.88-1.69,1.78-2.18c-0.06-0.3-0.44-1.28-0.58-1.79
			c0.87-1.04,1.32-2.49,1.01-3.81c-0.32-1.38,7.73-2.31-1.81-6.82c-9.55-5.54-14.22,1.27-17.26,6.19c-1.32,2.14-5.99-0.62-5.99-0.62
			c0.39,1.83,2.96,6.36,7.24,9.29l-1.17,3.99c-0.69-0.52-2.76-2.35-3.41-2.92c-4.66-4.11-8.09-9.22-10.62-14.87l-0.27-0.61
			L32.88,56.02c0.99,1.72,2.11,3.62,3.35,5.64l39.3,21.05c0.25,0.69,0.51,1.38,0.79,2.06c0.3,0.72,0.61,1.43,0.94,2.14L39.38,66.67
			c0.63,0.97,1.29,1.97,1.97,2.97l37.2,19.9c0.33,0.61,0.67,1.21,1.02,1.8L43.07,72.15c1.4,2.02,2.89,4.09,4.46,6.17l36.56,19.21
			c0.52,0.59,1.05,1.17,1.6,1.74c0.42,0.42,0.85,0.82,1.28,1.22L50.43,82.08c1.75,2.21,3.59,4.41,5.5,6.57l33.18,16.72
			c-0.17,0.81-0.6,2.7-0.63,2.83l-26.4-13.04l4.04,3.88L88.1,109.9c-0.12,0.46-0.24,0.92-0.37,1.38l-18.19-8.81
			c1.08,1.1,2.26,2.3,3.5,3.58l14.22,6.89c-0.03,0.09-0.45,1.44-0.63,2.03c-3.14,10.73-7.91,26.23-19.04,31.49
			c-0.53,0.25-0.81,0.38-0.81,0.38l0.29,0.97c0,0,0.32-0.06,0.93-0.2c2.44-0.57,4.69-1.63,6.78-2.99c1.15,1.52,3.11,3.05,3.11,3.05
			l1-0.19c0,0-0.89-1.75-1.37-2.82c-0.59-1.29-0.26-1.88-0.26-1.88c5.62-4.72,10.03-11.82,13.26-17.79
			c0.09-0.16,2.14-3.98,2.14-3.98c1.29,2.71,2.76,5.21,2.9,8.64c0.14,3.44-1.2,7.61-1.43,10.78c-0.29,3.96,1.98,7.37,5.47,7.37
			c1.87,0,3.9-0.19,6.02-1.63c6.78-4.59,16.3-20.38,20.38-20.38c1.05,0,3,2.26,5.19,4.54c5.88,6.12,11.17,11,12.33,12.13
			c2.04,2-1.95,5.33,1.22,5.33l14.12,0v-1.45C158.86,146.37,158.54,146.32,157.95,146.22z"/>
	</g>
</g>
<g>
	<rect x="519.48" y="42.62" class="st2" width="461.05" height="134.01"/>
	<g>
		<g>
			<path class="st0" d="M712.21,146.99V92.75h14.62v54.24H712.21z"/>
			<path class="st0" d="M782.72,141.8c0,3.38-1.73,5.19-5.11,5.19h-7c-3.07,0-4.24-1.49-5.74-4.32l-12.89-23.27
				c-1.34-2.52-2.67-5.9-3.54-8.88h-0.63c0.39,3.07,0.63,6.29,0.63,9.28v27.2H734.7V97.94c0-3.38,1.81-5.19,5.19-5.19h6.92
				c3.07,0,4.17,1.49,5.74,4.32l12.42,22.4c1.41,2.52,2.83,5.74,4.09,9.04h0.63c-0.31-3.22-0.55-6.29-0.63-9.51V92.75h13.68V141.8z"
				/>
			<path class="st0" d="M801.74,129.06l-5.97,17.92h-5.35l18.16-52.74c0.31-0.94,1.1-1.49,2.04-1.49h5.9c0.94,0,1.73,0.55,2.04,1.49
				l18.16,52.74h-5.35l-5.97-17.92H801.74z M816.13,101.24c-0.47-1.49-1.02-2.99-1.41-4.4h-2.2l-1.49,4.4l-7.78,23.35h20.67
				L816.13,101.24z"/>
			<path class="st0" d="M844.54,115.23c6.05-4.64,11.79-7.31,17.61-7.31c6.68,0,10.22,3.62,10.22,10.45v28.61h-4.95v-27.28
				c0-5.42-1.96-7.47-6.6-7.47c-4.95,0-9.35,2.36-15.8,6.6v28.14h-5.03v-38.05h4.17L844.54,115.23z"/>
			<path class="st0" d="M907.4,112.24c1.57,1.89,2.2,4.48,2.2,7.78c0,8.18-4.17,11.87-15.88,11.87c-3.54,0-6.37-0.31-8.65-1.02
				c-2.28,2.91-2.2,7,2.91,7.86l14.62,2.44c7.08,1.1,9.2,4.25,9.2,10.45c0,8.65-4.56,11.48-17.69,11.48
				c-13.36,0-17.92-2.83-17.92-11.32c0-5.03,1.57-7.62,6.45-10.14c-4.64-2.67-3.93-9.04-0.16-11.87c-3.38-1.89-4.72-5.11-4.72-9.75
				c0-8.33,4.17-12.11,15.96-12.11c3.46,0,6.21,0.31,8.41,1.02h11.95l-0.31,2.83L907.4,112.24z M885.71,142.98
				c-3.46,2.36-4.64,4.4-4.64,8.49c0,5.82,3.07,7.39,13.05,7.39c9.75,0,12.81-1.65,12.81-7.39c0-4.32-1.18-5.66-6.68-6.52
				l-14.23-2.2L885.71,142.98z M904.89,120.03c0-5.74-2.83-8.17-11.16-8.17c-8.41,0-11.32,2.44-11.32,8.17
				c0,5.58,2.99,8.02,11.32,8.02C902.06,128.04,904.89,125.61,904.89,120.03z"/>
			<path class="st0" d="M919.64,130.4c0.63,10.38,4.48,13.21,13.21,13.21c4.48,0,9.51-0.47,13.13-0.94l0.55,3.38
				c-3.22,1.26-10.06,1.89-14.38,1.89c-12.73,0-17.69-5.5-17.69-20.12c0-14.86,4.95-19.89,17.06-19.89
				c10.93,0,15.8,4.01,15.88,11.87c0.08,6.84-2.52,10.61-8.73,10.61H919.64z M937.49,126.47c3.93,0,4.95-2.83,4.87-6.6
				c-0.08-5.35-3.22-7.62-10.61-7.62c-8.88,0-11.95,3.46-12.11,14.23H937.49z"/>
			<path class="st0" d="M956.86,137.55c0,3.62,1.96,5.5,5.58,5.5h4.01l0.55,3.77c-1.26,0.47-4.56,0.79-6.29,0.79
				c-5.35,0-8.8-3.22-8.8-9.12V91.96h4.95V137.55z"/>
		</g>
		<path class="st0" d="M692.73,92.75l-8.25,37.02c-0.39,1.97-0.86,4.17-1.1,6.13h-1.97c-0.31-1.97-0.71-4.17-1.1-6.13l-8.33-37.02
			l-28.63,0l0,1.41l16.28,8.71l11.09,40.11c0.55,2.44,2.59,4.01,5.11,4.01h13.13c2.52,0,4.56-1.57,5.11-4.01l13.91-50.23H692.73z"/>
	</g>
	<g>
		<path class="st3" d="M598.18,73.26c2.61-1.73,5.26-3.99,6.82-6.76c-3.53,0.23-6.91,1.91-9.88,3.7c-2.9,1.9-5.89,4.22-7.64,7.29
			C590.76,76.98,595.26,75.2,598.18,73.26z"/>
		<path class="st3" d="M658.07,146.33c0.07,0.01,0.12,0.02,0.15,0.02c0.03,0,0.03,0,0.02,0c-0.03-0.01-0.18-0.04-0.27-0.06
			c-0.03-0.01-0.05-0.01-0.06-0.01c-0.01,0-0.01,0,0.02,0.01C657.95,146.3,657.99,146.32,658.07,146.33
			c-3.79-0.63-7.25-3.08-9.75-5.9c-9.2-10.37-18.64-23.97-22.15-23.97c-5.12,0-16.2,7.73-18.61,9.21c0,0-0.65-3.72-0.82-5.79
			c-0.15-1.82-1.13-3-1.13-3c2.31-0.19,6.37-4.49,4.19-6.88c-0.47-0.51-7.29-4.62-8.38-8.45c-0.34-1.21-0.82-2.66,0.87-5.15
			c0.41,0.23,3.32,1.37,4.18,1.16c0.62-0.15,1.87-2.15,2.84-3c0.38-0.33,1.88-1.69,1.78-2.18c-0.06-0.3-0.44-1.28-0.58-1.79
			c0.87-1.04,1.32-2.49,1.01-3.81c-0.32-1.38,7.73-2.31-1.81-6.82c-9.55-5.54-14.22,1.27-17.26,6.19c-1.32,2.14-5.99-0.62-5.99-0.62
			c0.39,1.83,2.96,6.36,7.24,9.29l-1.17,3.99c-0.69-0.52-2.76-2.35-3.41-2.92c-4.66-4.11-8.09-9.22-10.62-14.87l-0.27-0.61
			L533,56.14c0.99,1.72,2.11,3.62,3.35,5.64l39.3,21.05c0.25,0.69,0.51,1.38,0.79,2.06c0.3,0.72,0.61,1.43,0.94,2.14L539.5,66.78
			c0.63,0.97,1.29,1.97,1.97,2.97l37.2,19.9c0.33,0.61,0.67,1.21,1.02,1.8l-36.51-19.18c1.4,2.02,2.89,4.09,4.46,6.17l36.56,19.21
			c0.52,0.59,1.05,1.17,1.6,1.74c0.42,0.42,0.85,0.82,1.28,1.22L550.55,82.2c1.75,2.21,3.59,4.41,5.5,6.57l33.18,16.72
			c-0.17,0.81-0.6,2.7-0.63,2.83l-26.4-13.04l4.04,3.88l21.98,10.85c-0.12,0.46-0.24,0.92-0.37,1.38l-18.19-8.81
			c1.08,1.1,2.26,2.3,3.5,3.58l14.22,6.89c-0.03,0.09-0.45,1.44-0.63,2.03c-3.14,10.73-7.91,26.23-19.04,31.49
			c-0.53,0.25-0.81,0.38-0.81,0.38l0.29,0.97c0,0,0.32-0.06,0.93-0.2c2.44-0.57,4.69-1.63,6.78-2.99c1.15,1.52,3.11,3.05,3.11,3.05
			l1-0.19c0,0-0.89-1.75-1.37-2.82c-0.59-1.29-0.26-1.88-0.26-1.88c5.62-4.72,10.03-11.82,13.26-17.79
			c0.09-0.16,2.14-3.98,2.14-3.98c1.29,2.71,2.76,5.21,2.9,8.64c0.14,3.44-1.2,7.61-1.43,10.78c-0.29,3.96,1.98,7.37,5.47,7.37
			c1.87,0,3.9-0.19,6.02-1.63c6.78-4.59,16.3-20.38,20.38-20.38c1.05,0,3,2.26,5.19,4.54c5.88,6.12,11.17,11,12.33,12.13
			c2.04,2-1.95,5.33,1.22,5.33l14.12,0v-1.45C658.98,146.48,658.66,146.43,658.07,146.33z"/>
	</g>
</g>
</svg>
